<svg width="1080" height="2399" viewBox="0 0 1080 2399" fill="none" xmlns="http://www.w3.org/2000/svg">
<rect x="20" y="20" width="1040" height="2359" rx="72" fill="black" stroke="#393939" stroke-width="40"/>
<g filter="url(#filter0_d)">
<path fill-rule="evenodd" clip-rule="evenodd" d="M470.657 1243.15C477.521 1230.83 480.954 1216.83 480.954 1201.13C480.954 1195.44 480.514 1190 479.632 1184.8H459.306C460.389 1189.85 460.929 1195.29 460.929 1201.13C460.929 1212.66 458.356 1222.89 453.206 1231.83C448.057 1240.77 441 1247.72 432.037 1252.69C423.074 1257.65 412.87 1260.14 401.427 1260.14C389.794 1260.14 379.495 1257.85 370.531 1253.28C361.568 1248.51 354.511 1241.96 349.362 1233.61C344.213 1225.07 341.638 1215.24 341.638 1204.11C341.638 1197.21 342.619 1190.78 344.579 1184.8H323.739C322.322 1190.93 321.613 1197.37 321.613 1204.11C321.613 1219.41 325.141 1232.92 332.198 1244.64C339.063 1256.36 348.504 1265.6 360.519 1272.36C372.534 1279.11 386.17 1282.49 401.427 1282.49C416.493 1282.49 430.035 1279.01 442.049 1272.06C454.064 1264.9 463.6 1255.27 470.657 1243.15Z" fill="#FFB700"/>
</g>
<g filter="url(#filter1_d)">
<path fill-rule="evenodd" clip-rule="evenodd" d="M725.601 1243.15C732.467 1230.83 735.9 1216.83 735.9 1201.13C735.9 1195.44 735.458 1190 734.575 1184.8H714.251C715.333 1189.85 715.875 1195.29 715.875 1201.13C715.875 1212.66 713.3 1222.89 708.15 1231.83C703.002 1240.77 695.945 1247.72 686.981 1252.69C678.018 1257.65 667.815 1260.14 656.372 1260.14C644.738 1260.14 634.439 1257.85 625.476 1253.28C616.513 1248.51 609.457 1241.96 604.307 1233.61C599.157 1225.07 596.584 1215.24 596.584 1204.11C596.584 1197.21 597.563 1190.78 599.524 1184.8H578.684C577.267 1190.93 576.559 1197.37 576.559 1204.11C576.559 1219.41 580.086 1232.92 587.143 1244.64C594.008 1256.36 603.449 1265.6 615.464 1272.36C627.478 1279.11 641.114 1282.49 656.372 1282.49C671.439 1282.49 684.979 1279.01 696.994 1272.06C709.01 1264.9 718.545 1255.27 725.601 1243.15Z" fill="#FFB700"/>
</g>
<g filter="url(#filter2_d)">
<path fill-rule="evenodd" clip-rule="evenodd" d="M312.653 1398.63H279V1196C279.291 1172.78 284.682 1151.94 295.171 1133.49C305.951 1114.73 320.374 1100 338.439 1089.28C356.795 1078.56 377.336 1073.2 400.063 1073.2C423.372 1073.2 444.205 1078.71 462.561 1089.73C480.918 1100.44 495.341 1115.18 505.829 1133.93C516.61 1152.69 522 1173.98 522 1197.79C522 1221.31 516.756 1242.45 506.266 1261.2C496.069 1279.96 482.082 1294.84 464.309 1305.86C446.536 1316.57 426.432 1321.93 403.997 1321.93C384.475 1321.93 366.702 1317.76 350.676 1309.43C334.943 1300.8 322.268 1289.48 312.653 1275.49V1398.63ZM445.517 1278.62C432.113 1286.65 416.962 1290.67 400.063 1290.67C383.455 1290.67 368.45 1286.65 355.047 1278.62C341.644 1270.58 331.155 1259.56 323.579 1245.57C316.004 1231.28 312.216 1215.36 312.216 1197.79C312.216 1179.93 316.004 1164 323.579 1150.01C331.155 1136.02 341.644 1125 355.047 1116.97C368.45 1108.63 383.455 1104.46 400.063 1104.46C416.962 1104.46 432.113 1108.63 445.517 1116.97C458.919 1125 469.409 1136.02 476.984 1150.01C484.851 1164 488.784 1179.93 488.784 1197.79C488.784 1215.36 484.851 1231.28 476.984 1245.57C469.409 1259.56 458.919 1270.58 445.517 1278.62Z" fill="#09AC99"/>
</g>
<g filter="url(#filter3_d)">
<path fill-rule="evenodd" clip-rule="evenodd" d="M744.91 998.887V1119.65C735.295 1105.66 722.62 1094.49 706.886 1086.16C691.153 1077.52 673.525 1073.21 654.004 1073.21C631.568 1073.21 611.463 1078.71 593.69 1089.73C575.916 1100.45 561.786 1115.18 551.296 1133.94C541.099 1152.69 536 1173.83 536 1197.35C536 1221.16 541.244 1242.45 551.733 1261.2C562.514 1279.96 577.082 1294.84 595.438 1305.86C613.795 1316.58 634.482 1321.93 657.5 1321.93C680.227 1321.93 700.621 1316.58 718.687 1305.86C737.043 1295.14 751.466 1280.55 761.954 1262.1C772.735 1243.34 778.418 1222.35 779 1199.13V998.887H744.91ZM702.516 1278.62C689.405 1286.66 674.399 1290.68 657.5 1290.68C640.892 1290.68 625.886 1286.66 612.484 1278.62C599.081 1270.28 588.446 1259.12 580.578 1245.13C572.711 1231.14 568.778 1215.21 568.778 1197.35C568.778 1179.78 572.711 1164 580.578 1150.01C588.446 1135.72 599.081 1124.56 612.484 1116.52C625.886 1108.48 640.892 1104.46 657.5 1104.46C674.399 1104.46 689.405 1108.48 702.516 1116.52C715.919 1124.56 726.407 1135.72 733.983 1150.01C741.851 1164 745.783 1179.78 745.783 1197.35C745.783 1215.21 741.851 1231.14 733.983 1245.13C726.407 1259.12 715.919 1270.28 702.516 1278.62Z" fill="#09AC99"/>
</g>
<g filter="url(#filter4_d)">
<path fill-rule="evenodd" clip-rule="evenodd" d="M470.657 1243.15C477.521 1230.83 480.954 1216.83 480.954 1201.13C480.954 1195.44 480.514 1190 479.632 1184.8H459.306C460.389 1189.85 460.929 1195.29 460.929 1201.13C460.929 1212.66 458.356 1222.89 453.206 1231.83C448.057 1240.77 441 1247.72 432.037 1252.69C423.074 1257.65 412.87 1260.14 401.427 1260.14C389.794 1260.14 379.495 1257.85 370.531 1253.28C361.568 1248.51 354.511 1241.96 349.362 1233.61C344.213 1225.07 341.638 1215.24 341.638 1204.11C341.638 1197.21 342.619 1190.78 344.579 1184.8H323.739C322.322 1190.93 321.613 1197.37 321.613 1204.11C321.613 1219.41 325.141 1232.92 332.198 1244.64C339.063 1256.36 348.504 1265.6 360.519 1272.36C372.534 1279.11 386.17 1282.49 401.427 1282.49C416.493 1282.49 430.035 1279.01 442.049 1272.06C454.064 1264.9 463.6 1255.27 470.657 1243.15Z" fill="#FFB700"/>
</g>
<g filter="url(#filter5_d)">
<path fill-rule="evenodd" clip-rule="evenodd" d="M725.601 1243.15C732.467 1230.83 735.9 1216.83 735.9 1201.13C735.9 1195.44 735.458 1190 734.575 1184.8H714.251C715.333 1189.85 715.875 1195.29 715.875 1201.13C715.875 1212.66 713.3 1222.89 708.15 1231.83C703.002 1240.77 695.945 1247.72 686.981 1252.69C678.018 1257.65 667.815 1260.14 656.372 1260.14C644.738 1260.14 634.439 1257.85 625.476 1253.28C616.513 1248.51 609.457 1241.96 604.307 1233.61C599.157 1225.07 596.584 1215.24 596.584 1204.11C596.584 1197.21 597.563 1190.78 599.524 1184.8H578.684C577.267 1190.93 576.559 1197.37 576.559 1204.11C576.559 1219.41 580.086 1232.92 587.143 1244.64C594.008 1256.36 603.449 1265.6 615.464 1272.36C627.478 1279.11 641.114 1282.49 656.372 1282.49C671.439 1282.49 684.979 1279.01 696.994 1272.06C709.01 1264.9 718.545 1255.27 725.601 1243.15Z" fill="#FFB700"/>
</g>
<g filter="url(#filter6_d)">
<path fill-rule="evenodd" clip-rule="evenodd" d="M312.653 1398.63H279V1196C279.291 1172.78 284.682 1151.94 295.171 1133.49C305.951 1114.73 320.374 1100 338.439 1089.28C356.795 1078.56 377.336 1073.2 400.063 1073.2C423.372 1073.2 444.205 1078.71 462.561 1089.73C480.918 1100.44 495.341 1115.18 505.829 1133.93C516.61 1152.69 522 1173.98 522 1197.79C522 1221.31 516.756 1242.45 506.266 1261.2C496.069 1279.96 482.082 1294.84 464.309 1305.86C446.536 1316.57 426.432 1321.93 403.997 1321.93C384.475 1321.93 366.702 1317.76 350.676 1309.43C334.943 1300.8 322.268 1289.48 312.653 1275.49V1398.63ZM445.517 1278.62C432.113 1286.65 416.962 1290.67 400.063 1290.67C383.455 1290.67 368.45 1286.65 355.047 1278.62C341.644 1270.58 331.155 1259.56 323.579 1245.57C316.004 1231.28 312.216 1215.36 312.216 1197.79C312.216 1179.93 316.004 1164 323.579 1150.01C331.155 1136.02 341.644 1125 355.047 1116.97C368.45 1108.63 383.455 1104.46 400.063 1104.46C416.962 1104.46 432.113 1108.63 445.517 1116.97C458.919 1125 469.409 1136.02 476.984 1150.01C484.851 1164 488.784 1179.93 488.784 1197.79C488.784 1215.36 484.851 1231.28 476.984 1245.57C469.409 1259.56 458.919 1270.58 445.517 1278.62Z" fill="#09AC99"/>
</g>
<g filter="url(#filter7_d)">
<path fill-rule="evenodd" clip-rule="evenodd" d="M744.91 998.887V1119.65C735.295 1105.66 722.62 1094.49 706.886 1086.16C691.153 1077.52 673.525 1073.21 654.004 1073.21C631.568 1073.21 611.463 1078.71 593.69 1089.73C575.916 1100.45 561.786 1115.18 551.296 1133.94C541.099 1152.69 536 1173.83 536 1197.35C536 1221.16 541.244 1242.45 551.733 1261.2C562.514 1279.96 577.082 1294.84 595.438 1305.86C613.795 1316.58 634.482 1321.93 657.5 1321.93C680.227 1321.93 700.621 1316.58 718.687 1305.86C737.043 1295.14 751.466 1280.55 761.954 1262.1C772.735 1243.34 778.418 1222.35 779 1199.13V998.887H744.91ZM702.516 1278.62C689.405 1286.66 674.399 1290.68 657.5 1290.68C640.892 1290.68 625.886 1286.66 612.484 1278.62C599.081 1270.28 588.446 1259.12 580.578 1245.13C572.711 1231.14 568.778 1215.21 568.778 1197.35C568.778 1179.78 572.711 1164 580.578 1150.01C588.446 1135.72 599.081 1124.56 612.484 1116.52C625.886 1108.48 640.892 1104.46 657.5 1104.46C674.399 1104.46 689.405 1108.48 702.516 1116.52C715.919 1124.56 726.407 1135.72 733.983 1150.01C741.851 1164 745.783 1179.78 745.783 1197.35C745.783 1215.21 741.851 1231.14 733.983 1245.13C726.407 1259.12 715.919 1270.28 702.516 1278.62Z" fill="#09AC99"/>
</g>
<path d="M480.651 6.76565C486.759 3.65315 493.628 2.34655 500.453 2.99902L543.142 7.08033C546.231 7.37564 549.34 7.38278 552.43 7.10167L586.476 4.00455C596.258 3.11468 605.989 6.17964 613.495 12.5148L639.632 34.5739C641.464 36.1204 641.629 38.8859 639.993 40.639L636.986 43.8615L631.402 49.9842L619.805 62.5519L600.495 80.5978L580.13 99.9022C561.274 117.775 531.872 118.23 512.473 100.948L491.8 82.5313L469.463 61.2629L457.436 49.0175L451.422 43.217L445.384 37.6007C441.224 33.3366 442.389 26.2616 447.697 23.5569L480.651 6.76565Z" fill="#393939"/>
<path d="M370.747 2250.1H364.741L323.872 2189.26V2250.1H317.817V2179.01H323.872L364.79 2239.9V2179.01H370.747V2250.1ZM384.224 2222.9C384.224 2217.83 385.2 2213.25 387.153 2209.18C389.139 2205.11 391.922 2201.96 395.503 2199.71C399.116 2197.43 403.201 2196.29 407.759 2196.29C414.79 2196.29 420.487 2198.77 424.849 2203.71C429.211 2208.63 431.392 2215.16 431.392 2223.29V2224.52C431.392 2229.63 430.399 2234.23 428.413 2238.33C426.46 2242.4 423.693 2245.54 420.112 2247.76C416.532 2249.97 412.446 2251.08 407.856 2251.08C400.858 2251.08 395.161 2248.62 390.767 2243.71C386.405 2238.76 384.224 2232.21 384.224 2224.08V2222.9ZM390.083 2224.52C390.083 2230.83 391.711 2236.02 394.966 2240.09C398.254 2244.13 402.55 2246.15 407.856 2246.15C413.13 2246.15 417.394 2244.13 420.649 2240.09C423.937 2236.02 425.581 2230.67 425.581 2224.03V2222.9C425.581 2218.87 424.832 2215.17 423.335 2211.82C421.838 2208.47 419.738 2205.88 417.036 2204.06C414.334 2202.2 411.242 2201.27 407.759 2201.27C402.55 2201.27 398.302 2203.32 395.015 2207.43C391.727 2211.49 390.083 2216.83 390.083 2223.44V2224.52ZM452.583 2183.74V2197.27H463.521V2202.05H452.583V2237.26C452.583 2240.19 453.104 2242.37 454.146 2243.8C455.22 2245.24 456.994 2245.95 459.468 2245.95C460.444 2245.95 462.023 2245.79 464.204 2245.46L464.448 2250.25C462.918 2250.8 460.835 2251.08 458.198 2251.08C454.194 2251.08 451.281 2249.92 449.458 2247.61C447.635 2245.27 446.724 2241.83 446.724 2237.31V2202.05H437.007V2197.27H446.724V2183.74H452.583ZM496.089 2251.08C491.597 2251.08 487.528 2249.97 483.882 2247.76C480.269 2245.54 477.453 2242.47 475.435 2238.53C473.416 2234.56 472.407 2230.11 472.407 2225.2V2223.1C472.407 2218.02 473.384 2213.45 475.337 2209.38C477.323 2205.31 480.073 2202.12 483.589 2199.81C487.104 2197.46 490.913 2196.29 495.015 2196.29C501.427 2196.29 506.506 2198.49 510.249 2202.88C514.025 2207.25 515.913 2213.22 515.913 2220.8V2224.08H478.218V2225.2C478.218 2231.19 479.927 2236.19 483.345 2240.19C486.795 2244.16 491.125 2246.15 496.333 2246.15C499.458 2246.15 502.209 2245.58 504.585 2244.44C506.994 2243.3 509.175 2241.48 511.128 2238.97L514.79 2241.75C510.493 2247.97 504.259 2251.08 496.089 2251.08ZM495.015 2201.27C490.62 2201.27 486.909 2202.88 483.882 2206.11C480.887 2209.33 479.064 2213.66 478.413 2219.1H510.103V2218.46C509.94 2213.38 508.491 2209.25 505.757 2206.06C503.022 2202.87 499.442 2201.27 495.015 2201.27ZM592.573 2197.32C592.573 2201 591.499 2204.3 589.351 2207.23C587.202 2210.13 584.37 2212.26 580.854 2213.63C584.956 2215.03 588.244 2217.29 590.718 2220.41C593.192 2223.54 594.429 2227.15 594.429 2231.25C594.429 2237.34 592.362 2242.18 588.228 2245.76C584.093 2249.3 578.625 2251.08 571.821 2251.08C564.953 2251.08 559.451 2249.3 555.317 2245.76C551.216 2242.21 549.165 2237.37 549.165 2231.25C549.165 2227.22 550.353 2223.62 552.729 2220.46C555.106 2217.31 558.361 2215.03 562.495 2213.63C558.979 2212.26 556.18 2210.13 554.097 2207.23C552.013 2204.3 550.972 2201 550.972 2197.32C550.972 2191.43 552.86 2186.74 556.636 2183.26C560.444 2179.77 565.474 2178.03 571.724 2178.03C577.974 2178.03 583.003 2179.79 586.812 2183.3C590.653 2186.82 592.573 2191.49 592.573 2197.32ZM588.569 2231.3C588.569 2226.88 586.991 2223.25 583.833 2220.41C580.675 2217.55 576.639 2216.12 571.724 2216.12C566.808 2216.12 562.788 2217.52 559.663 2220.32C556.538 2223.12 554.976 2226.78 554.976 2231.3C554.976 2235.83 556.489 2239.44 559.517 2242.14C562.544 2244.81 566.646 2246.15 571.821 2246.15C576.867 2246.15 580.92 2244.81 583.979 2242.14C587.039 2239.47 588.569 2235.86 588.569 2231.3ZM586.714 2197.27C586.714 2193.2 585.298 2189.82 582.466 2187.11C579.666 2184.38 576.086 2183.01 571.724 2183.01C567.297 2183.01 563.7 2184.33 560.933 2186.97C558.198 2189.57 556.831 2193.01 556.831 2197.27C556.831 2201.44 558.198 2204.79 560.933 2207.33C563.7 2209.87 567.313 2211.14 571.772 2211.14C576.167 2211.14 579.748 2209.87 582.515 2207.33C585.314 2204.76 586.714 2201.4 586.714 2197.27ZM638.765 2221.15V2250.1H632.759V2179.01H656.978C664.367 2179.01 670.194 2180.9 674.458 2184.67C678.755 2188.45 680.903 2193.64 680.903 2200.25C680.903 2206.92 678.836 2212.08 674.702 2215.73C670.601 2219.34 664.644 2221.15 656.831 2221.15H638.765ZM638.765 2216.07H656.978C662.804 2216.07 667.248 2214.68 670.308 2211.92C673.368 2209.15 674.897 2205.29 674.897 2200.35C674.897 2195.43 673.368 2191.52 670.308 2188.63C667.28 2185.7 662.967 2184.2 657.368 2184.13H638.765V2216.07ZM717.427 2202.25C716.19 2202.02 714.871 2201.91 713.472 2201.91C709.826 2201.91 706.733 2202.93 704.194 2204.98C701.688 2207 699.897 2209.95 698.823 2213.82V2250.1H693.013V2197.27H698.726L698.823 2205.67C701.916 2199.42 706.88 2196.29 713.716 2196.29C715.343 2196.29 716.629 2196.5 717.573 2196.93L717.427 2202.25ZM722.505 2222.9C722.505 2217.83 723.481 2213.25 725.435 2209.18C727.42 2205.11 730.203 2201.96 733.784 2199.71C737.397 2197.43 741.483 2196.29 746.04 2196.29C753.071 2196.29 758.768 2198.77 763.13 2203.71C767.492 2208.63 769.673 2215.16 769.673 2223.29V2224.52C769.673 2229.63 768.68 2234.23 766.694 2238.33C764.741 2242.4 761.974 2245.54 758.394 2247.76C754.813 2249.97 750.728 2251.08 746.138 2251.08C739.139 2251.08 733.442 2248.62 729.048 2243.71C724.686 2238.76 722.505 2232.21 722.505 2224.08V2222.9ZM728.364 2224.52C728.364 2230.83 729.992 2236.02 733.247 2240.09C736.535 2244.13 740.832 2246.15 746.138 2246.15C751.411 2246.15 755.675 2244.13 758.931 2240.09C762.218 2236.02 763.862 2230.67 763.862 2224.03V2222.9C763.862 2218.87 763.114 2215.17 761.616 2211.82C760.119 2208.47 758.019 2205.88 755.317 2204.06C752.616 2202.2 749.523 2201.27 746.04 2201.27C740.832 2201.27 736.584 2203.32 733.296 2207.43C730.008 2211.49 728.364 2216.83 728.364 2223.44V2224.52Z" fill="white"/>
<path d="M417.308 2111.52H404.471V2140.15H388.357V2061.95H417.415C426.653 2061.95 433.779 2064.01 438.792 2068.13C443.805 2072.24 446.312 2078.06 446.312 2085.58C446.312 2090.92 445.148 2095.38 442.82 2098.96C440.529 2102.5 437.037 2105.33 432.347 2107.44L449.266 2139.4V2140.15H431.971L417.308 2111.52ZM404.471 2098.47H417.469C421.515 2098.47 424.648 2097.45 426.868 2095.41C429.088 2093.33 430.198 2090.49 430.198 2086.87C430.198 2083.18 429.142 2080.28 427.029 2078.17C424.952 2076.06 421.748 2075 417.415 2075H404.471V2098.47ZM484.339 2141.23C475.817 2141.23 468.87 2138.61 463.499 2133.38C458.164 2128.16 455.496 2121.19 455.496 2112.49V2110.99C455.496 2105.15 456.624 2099.94 458.88 2095.36C461.136 2090.74 464.323 2087.19 468.44 2084.72C472.594 2082.22 477.321 2080.96 482.62 2080.96C490.569 2080.96 496.818 2083.47 501.365 2088.48C505.949 2093.5 508.24 2100.6 508.24 2109.81V2116.14H471.233C471.735 2119.94 473.239 2122.98 475.745 2125.27C478.287 2127.57 481.492 2128.71 485.359 2128.71C491.339 2128.71 496.012 2126.55 499.378 2122.21L507.005 2130.75C504.677 2134.05 501.526 2136.63 497.552 2138.49C493.577 2140.31 489.173 2141.23 484.339 2141.23ZM482.566 2093.53C479.487 2093.53 476.98 2094.57 475.047 2096.65C473.149 2098.72 471.932 2101.7 471.395 2105.56H492.986V2104.33C492.915 2100.89 491.984 2098.24 490.193 2096.38C488.403 2094.48 485.861 2093.53 482.566 2093.53ZM514.686 2110.67C514.686 2101.61 516.709 2094.39 520.755 2089.02C524.837 2083.65 530.405 2080.96 537.459 2080.96C543.117 2080.96 547.789 2083.08 551.478 2087.3V2057.65H567.054V2140.15H553.035L552.283 2133.98C548.416 2138.81 543.439 2141.23 537.352 2141.23C530.512 2141.23 525.016 2138.54 520.862 2133.17C516.744 2127.76 514.686 2120.26 514.686 2110.67ZM530.208 2111.79C530.208 2117.24 531.157 2121.41 533.055 2124.31C534.952 2127.21 537.71 2128.66 541.326 2128.66C546.124 2128.66 549.508 2126.64 551.478 2122.59V2099.65C549.544 2095.61 546.196 2093.58 541.434 2093.58C533.95 2093.58 530.208 2099.65 530.208 2111.79ZM593.641 2082.04L594.124 2088.54C598.242 2083.49 603.81 2080.96 610.828 2080.96C618.312 2080.96 623.45 2083.92 626.243 2089.83C630.325 2083.92 636.144 2080.96 643.699 2080.96C650.001 2080.96 654.692 2082.81 657.771 2086.5C660.851 2090.15 662.391 2095.66 662.391 2103.04V2140.15H646.814V2103.09C646.814 2099.8 646.17 2097.4 644.881 2095.89C643.592 2094.35 641.318 2093.58 638.06 2093.58C633.405 2093.58 630.182 2095.81 628.392 2100.25L628.445 2140.15H612.923V2103.15C612.923 2099.78 612.26 2097.34 610.936 2095.84C609.611 2094.34 607.355 2093.58 604.168 2093.58C599.764 2093.58 596.577 2095.41 594.607 2099.06V2140.15H579.085V2082.04H593.641ZM690.75 2140.15H675.174V2082.04H690.75V2140.15ZM674.261 2067C674.261 2064.67 675.031 2062.75 676.57 2061.25C678.146 2059.75 680.276 2059 682.962 2059C685.612 2059 687.724 2059.75 689.3 2061.25C690.875 2062.75 691.663 2064.67 691.663 2067C691.663 2069.36 690.857 2071.29 689.246 2072.8C687.671 2074.3 685.576 2075.05 682.962 2075.05C680.348 2075.05 678.235 2074.3 676.624 2072.8C675.049 2071.29 674.261 2069.36 674.261 2067Z" fill="white"/>
<defs>
<filter id="filter0_d" x="317.613" y="1184.8" width="167.341" height="105.683" filterUnits="userSpaceOnUse" color-interpolation-filters="sRGB">
<feFlood flood-opacity="0" result="BackgroundImageFix"/>
<feColorMatrix in="SourceAlpha" type="matrix" values="0 0 0 0 0 0 0 0 0 0 0 0 0 0 0 0 0 0 127 0"/>
<feOffset dy="4"/>
<feGaussianBlur stdDeviation="2"/>
<feColorMatrix type="matrix" values="0 0 0 0 0 0 0 0 0 0 0 0 0 0 0 0 0 0 0.25 0"/>
<feBlend mode="normal" in2="BackgroundImageFix" result="effect1_dropShadow"/>
<feBlend mode="normal" in="SourceGraphic" in2="effect1_dropShadow" result="shape"/>
</filter>
<filter id="filter1_d" x="572.559" y="1184.8" width="167.341" height="105.683" filterUnits="userSpaceOnUse" color-interpolation-filters="sRGB">
<feFlood flood-opacity="0" result="BackgroundImageFix"/>
<feColorMatrix in="SourceAlpha" type="matrix" values="0 0 0 0 0 0 0 0 0 0 0 0 0 0 0 0 0 0 127 0"/>
<feOffset dy="4"/>
<feGaussianBlur stdDeviation="2"/>
<feColorMatrix type="matrix" values="0 0 0 0 0 0 0 0 0 0 0 0 0 0 0 0 0 0 0.25 0"/>
<feBlend mode="normal" in2="BackgroundImageFix" result="effect1_dropShadow"/>
<feBlend mode="normal" in="SourceGraphic" in2="effect1_dropShadow" result="shape"/>
</filter>
<filter id="filter2_d" x="275" y="1073.2" width="251" height="333.429" filterUnits="userSpaceOnUse" color-interpolation-filters="sRGB">
<feFlood flood-opacity="0" result="BackgroundImageFix"/>
<feColorMatrix in="SourceAlpha" type="matrix" values="0 0 0 0 0 0 0 0 0 0 0 0 0 0 0 0 0 0 127 0"/>
<feOffset dy="4"/>
<feGaussianBlur stdDeviation="2"/>
<feColorMatrix type="matrix" values="0 0 0 0 0 0 0 0 0 0 0 0 0 0 0 0 0 0 0.25 0"/>
<feBlend mode="normal" in2="BackgroundImageFix" result="effect1_dropShadow"/>
<feBlend mode="normal" in="SourceGraphic" in2="effect1_dropShadow" result="shape"/>
</filter>
<filter id="filter3_d" x="532" y="998.887" width="251" height="331.047" filterUnits="userSpaceOnUse" color-interpolation-filters="sRGB">
<feFlood flood-opacity="0" result="BackgroundImageFix"/>
<feColorMatrix in="SourceAlpha" type="matrix" values="0 0 0 0 0 0 0 0 0 0 0 0 0 0 0 0 0 0 127 0"/>
<feOffset dy="4"/>
<feGaussianBlur stdDeviation="2"/>
<feColorMatrix type="matrix" values="0 0 0 0 0 0 0 0 0 0 0 0 0 0 0 0 0 0 0.25 0"/>
<feBlend mode="normal" in2="BackgroundImageFix" result="effect1_dropShadow"/>
<feBlend mode="normal" in="SourceGraphic" in2="effect1_dropShadow" result="shape"/>
</filter>
<filter id="filter4_d" x="317.613" y="1184.8" width="167.341" height="105.683" filterUnits="userSpaceOnUse" color-interpolation-filters="sRGB">
<feFlood flood-opacity="0" result="BackgroundImageFix"/>
<feColorMatrix in="SourceAlpha" type="matrix" values="0 0 0 0 0 0 0 0 0 0 0 0 0 0 0 0 0 0 127 0"/>
<feOffset dy="4"/>
<feGaussianBlur stdDeviation="2"/>
<feColorMatrix type="matrix" values="0 0 0 0 0 0 0 0 0 0 0 0 0 0 0 0 0 0 0.25 0"/>
<feBlend mode="normal" in2="BackgroundImageFix" result="effect1_dropShadow"/>
<feBlend mode="normal" in="SourceGraphic" in2="effect1_dropShadow" result="shape"/>
</filter>
<filter id="filter5_d" x="572.559" y="1184.8" width="167.341" height="105.683" filterUnits="userSpaceOnUse" color-interpolation-filters="sRGB">
<feFlood flood-opacity="0" result="BackgroundImageFix"/>
<feColorMatrix in="SourceAlpha" type="matrix" values="0 0 0 0 0 0 0 0 0 0 0 0 0 0 0 0 0 0 127 0"/>
<feOffset dy="4"/>
<feGaussianBlur stdDeviation="2"/>
<feColorMatrix type="matrix" values="0 0 0 0 0 0 0 0 0 0 0 0 0 0 0 0 0 0 0.25 0"/>
<feBlend mode="normal" in2="BackgroundImageFix" result="effect1_dropShadow"/>
<feBlend mode="normal" in="SourceGraphic" in2="effect1_dropShadow" result="shape"/>
</filter>
<filter id="filter6_d" x="275" y="1073.2" width="251" height="333.429" filterUnits="userSpaceOnUse" color-interpolation-filters="sRGB">
<feFlood flood-opacity="0" result="BackgroundImageFix"/>
<feColorMatrix in="SourceAlpha" type="matrix" values="0 0 0 0 0 0 0 0 0 0 0 0 0 0 0 0 0 0 127 0"/>
<feOffset dy="4"/>
<feGaussianBlur stdDeviation="2"/>
<feColorMatrix type="matrix" values="0 0 0 0 0 0 0 0 0 0 0 0 0 0 0 0 0 0 0.25 0"/>
<feBlend mode="normal" in2="BackgroundImageFix" result="effect1_dropShadow"/>
<feBlend mode="normal" in="SourceGraphic" in2="effect1_dropShadow" result="shape"/>
</filter>
<filter id="filter7_d" x="532" y="998.887" width="251" height="331.047" filterUnits="userSpaceOnUse" color-interpolation-filters="sRGB">
<feFlood flood-opacity="0" result="BackgroundImageFix"/>
<feColorMatrix in="SourceAlpha" type="matrix" values="0 0 0 0 0 0 0 0 0 0 0 0 0 0 0 0 0 0 127 0"/>
<feOffset dy="4"/>
<feGaussianBlur stdDeviation="2"/>
<feColorMatrix type="matrix" values="0 0 0 0 0 0 0 0 0 0 0 0 0 0 0 0 0 0 0.25 0"/>
<feBlend mode="normal" in2="BackgroundImageFix" result="effect1_dropShadow"/>
<feBlend mode="normal" in="SourceGraphic" in2="effect1_dropShadow" result="shape"/>
</filter>
</defs>
</svg>
