<svg width="1080" height="2400" viewBox="0 0 1080 2400" fill="none" xmlns="http://www.w3.org/2000/svg">
<rect x="168.005" y="7" width="169" height="153.931" rx="26" fill="black" stroke="#393939" stroke-width="14"/>
<path d="M282.004 83.469C282.004 99.7497 268.799 112.954 252.504 112.954C236.208 112.954 223.004 99.7497 223.004 83.469C223.004 67.1882 236.208 53.9844 252.504 53.9844C268.799 53.9844 282.004 67.1882 282.004 83.469Z" fill="black" stroke="url(#paint0_linear)" stroke-width="16"/>
<ellipse cx="253.004" cy="83.9665" rx="15" ry="14.9938" fill="black"/>
<mask id="path-4-inside-1" fill="white">
<ellipse cx="253.005" cy="83.9667" rx="5" ry="4.99794"/>
</mask>
<ellipse cx="253.005" cy="83.9667" rx="5" ry="4.99794" fill="black"/>
<path d="M253.005 83.9667C253.005 83.973 253.004 83.9739 253.005 83.9712C253.005 83.9687 253.006 83.966 253.007 83.9637C253.009 83.9597 253.009 83.961 253.006 83.9645C253.002 83.9681 253.001 83.968 253.004 83.9666C253.006 83.9657 253.009 83.9649 253.011 83.9645C253.013 83.964 253.012 83.9646 253.005 83.9646V93.9646C258.526 93.9646 263.005 89.4903 263.005 83.9667H253.005ZM253.005 83.9646C252.998 83.9646 252.997 83.964 252.999 83.9645C253.001 83.9649 253.004 83.9657 253.006 83.9666C253.009 83.968 253.008 83.9681 253.004 83.9645C253.001 83.961 253.001 83.9597 253.003 83.9637C253.004 83.966 253.004 83.9687 253.005 83.9712C253.005 83.9739 253.005 83.973 253.005 83.9667H243.005C243.005 89.4903 247.484 93.9646 253.005 93.9646V83.9646ZM253.005 83.9667C253.005 83.9604 253.005 83.9595 253.005 83.9622C253.004 83.9647 253.004 83.9674 253.003 83.9697C253.001 83.9737 253.001 83.9724 253.004 83.9689C253.008 83.9653 253.009 83.9654 253.006 83.9668C253.004 83.9677 253.001 83.9684 252.999 83.9689C252.997 83.9693 252.998 83.9688 253.005 83.9688V73.9688C247.484 73.9688 243.005 78.443 243.005 83.9667H253.005ZM253.005 83.9688C253.012 83.9688 253.013 83.9693 253.011 83.9689C253.009 83.9684 253.006 83.9677 253.004 83.9668C253.001 83.9654 253.002 83.9653 253.006 83.9689C253.009 83.9724 253.009 83.9737 253.007 83.9697C253.006 83.9674 253.005 83.9647 253.005 83.9622C253.004 83.9595 253.005 83.9604 253.005 83.9667H263.005C263.005 78.443 258.526 73.9688 253.005 73.9688V83.9688Z" fill="url(#paint1_linear)" mask="url(#path-4-inside-1)"/>
<path d="M253.005 83.9667C253.005 83.973 253.004 83.9739 253.005 83.9712C253.005 83.9687 253.006 83.966 253.007 83.9637C253.009 83.9597 253.009 83.961 253.006 83.9645C253.002 83.9681 253.001 83.968 253.004 83.9666C253.006 83.9657 253.009 83.9649 253.011 83.9645C253.013 83.964 253.012 83.9646 253.005 83.9646V93.9646C258.526 93.9646 263.005 89.4903 263.005 83.9667H253.005ZM253.005 83.9646C252.998 83.9646 252.997 83.964 252.999 83.9645C253.001 83.9649 253.004 83.9657 253.006 83.9666C253.009 83.968 253.008 83.9681 253.004 83.9645C253.001 83.961 253.001 83.9597 253.003 83.9637C253.004 83.966 253.004 83.9687 253.005 83.9712C253.005 83.9739 253.005 83.973 253.005 83.9667H243.005C243.005 89.4903 247.484 93.9646 253.005 93.9646V83.9646ZM253.005 83.9667C253.005 83.9604 253.005 83.9595 253.005 83.9622C253.004 83.9647 253.004 83.9674 253.003 83.9697C253.001 83.9737 253.001 83.9724 253.004 83.9689C253.008 83.9653 253.009 83.9654 253.006 83.9668C253.004 83.9677 253.001 83.9684 252.999 83.9689C252.997 83.9693 252.998 83.9688 253.005 83.9688V73.9688C247.484 73.9688 243.005 78.443 243.005 83.9667H253.005ZM253.005 83.9688C253.012 83.9688 253.013 83.9693 253.011 83.9689C253.009 83.9684 253.006 83.9677 253.004 83.9668C253.001 83.9654 253.002 83.9653 253.006 83.9689C253.009 83.9724 253.009 83.9737 253.007 83.9697C253.006 83.9674 253.005 83.9647 253.005 83.9622C253.004 83.9595 253.005 83.9604 253.005 83.9667H263.005C263.005 78.443 258.526 73.9688 253.005 73.9688V83.9688Z" fill="url(#paint2_linear)" mask="url(#path-4-inside-1)"/>
<rect x="19" y="119.945" width="1042" height="2261.05" rx="73" fill="black" stroke="#393939" stroke-width="38"/>
<g filter="url(#filter0_d)">
<path fill-rule="evenodd" clip-rule="evenodd" d="M504.377 1173.14C511.242 1161.34 514.675 1147.91 514.675 1132.86C514.675 1127.41 514.234 1122.19 513.353 1117.21H493.027C494.11 1122.05 494.65 1127.27 494.65 1132.86C494.65 1143.91 492.076 1153.72 486.927 1162.29C481.777 1170.86 474.72 1177.52 465.757 1182.28C456.794 1187.04 446.591 1189.42 435.148 1189.42C423.514 1189.42 413.215 1187.23 404.252 1182.85C395.289 1178.28 388.232 1172 383.083 1164C377.934 1155.81 375.359 1146.39 375.359 1135.72C375.359 1129.11 376.339 1122.94 378.3 1117.21H357.46C356.042 1123.09 355.334 1129.26 355.334 1135.72C355.334 1150.38 358.862 1163.33 365.919 1174.57C372.784 1185.81 382.224 1194.66 394.24 1201.14C406.254 1207.61 419.89 1210.85 435.148 1210.85C450.214 1210.85 463.755 1207.52 475.769 1200.85C487.785 1193.99 497.321 1184.76 504.377 1173.14Z" fill="#FFB700"/>
</g>
<g filter="url(#filter1_d)">
<path fill-rule="evenodd" clip-rule="evenodd" d="M759.33 1173.14C766.196 1161.34 769.629 1147.91 769.629 1132.86C769.629 1127.41 769.187 1122.19 768.304 1117.21H747.981C749.063 1122.05 749.604 1127.27 749.604 1132.86C749.604 1143.91 747.029 1153.72 741.88 1162.29C736.732 1170.86 729.675 1177.52 720.71 1182.28C711.747 1187.04 701.545 1189.42 690.102 1189.42C678.468 1189.42 668.169 1187.23 659.206 1182.85C650.243 1178.28 643.186 1172 638.036 1164C632.887 1155.81 630.314 1146.39 630.314 1135.72C630.314 1129.11 631.293 1122.94 633.254 1117.21H612.414C610.997 1123.09 610.288 1129.26 610.288 1135.72C610.288 1150.38 613.816 1163.33 620.873 1174.57C627.737 1185.81 637.178 1194.66 649.194 1201.14C661.208 1207.61 674.844 1210.85 690.102 1210.85C705.168 1210.85 718.708 1207.52 730.724 1200.85C742.739 1193.99 752.275 1184.76 759.33 1173.14Z" fill="#FFB700"/>
</g>
<g filter="url(#filter2_d)">
<path fill-rule="evenodd" clip-rule="evenodd" d="M346.379 1322.18H312.726V1127.95C313.017 1105.69 318.407 1085.72 328.897 1068.02C339.677 1050.05 354.1 1035.92 372.164 1025.65C390.521 1015.37 411.062 1010.24 433.789 1010.24C457.098 1010.24 477.931 1015.52 496.287 1026.08C514.644 1036.35 529.066 1050.47 539.555 1068.45C550.336 1086.43 555.726 1106.83 555.726 1129.66C555.726 1152.2 550.482 1172.46 539.992 1190.44C529.794 1208.42 515.808 1222.69 498.035 1233.25C480.261 1243.52 460.158 1248.65 437.722 1248.65C418.201 1248.65 400.427 1244.66 384.402 1236.67C368.668 1228.4 355.994 1217.55 346.379 1204.14V1322.18ZM479.242 1207.14C465.838 1214.84 450.688 1218.69 433.789 1218.69C417.181 1218.69 402.175 1214.84 388.772 1207.14C375.37 1199.43 364.88 1188.87 357.305 1175.46C349.729 1161.76 345.941 1146.5 345.941 1129.66C345.941 1112.54 349.729 1097.27 357.305 1083.86C364.88 1070.45 375.37 1059.89 388.772 1052.19C402.175 1044.2 417.181 1040.2 433.789 1040.2C450.688 1040.2 465.838 1044.2 479.242 1052.19C492.645 1059.89 503.135 1070.45 510.709 1083.86C518.576 1097.27 522.509 1112.54 522.509 1129.66C522.509 1146.5 518.576 1161.76 510.709 1175.46C503.135 1188.87 492.645 1199.43 479.242 1207.14Z" fill="#09AC99"/>
</g>
<g filter="url(#filter3_d)">
<path fill-rule="evenodd" clip-rule="evenodd" d="M778.636 939V1054.75C769.02 1041.34 756.346 1030.64 740.612 1022.65C724.879 1014.38 707.251 1010.24 687.729 1010.24C665.294 1010.24 645.189 1015.52 627.415 1026.08C609.642 1036.35 595.512 1050.47 585.022 1068.45C574.824 1086.43 569.726 1106.69 569.726 1129.23C569.726 1152.06 574.97 1172.46 585.458 1190.44C596.239 1208.42 610.808 1222.69 629.163 1233.25C647.521 1243.52 668.208 1248.65 691.226 1248.65C713.952 1248.65 734.347 1243.52 752.413 1233.25C770.769 1222.97 785.191 1208.99 795.68 1191.3C806.461 1173.32 812.143 1153.2 812.726 1130.94V939H778.636ZM736.242 1207.14C723.131 1214.84 708.124 1218.69 691.226 1218.69C674.618 1218.69 659.612 1214.84 646.209 1207.14C632.807 1199.15 622.171 1188.45 614.304 1175.03C606.437 1161.62 602.504 1146.35 602.504 1129.23C602.504 1112.4 606.437 1097.27 614.304 1083.86C622.171 1070.16 632.807 1059.46 646.209 1051.76C659.612 1044.05 674.618 1040.2 691.226 1040.2C708.124 1040.2 723.131 1044.05 736.242 1051.76C749.645 1059.46 760.133 1070.16 767.709 1083.86C775.576 1097.27 779.509 1112.4 779.509 1129.23C779.509 1146.35 775.576 1161.62 767.709 1175.03C760.133 1188.45 749.645 1199.15 736.242 1207.14Z" fill="#09AC99"/>
</g>
<path d="M377.725 2138.62L400.576 2209.85L423.357 2138.62H455.842V2241H431.092V2217.09L433.482 2168.16L408.732 2241H392.42L367.6 2168.09L369.99 2217.09V2241H345.311V2138.62H377.725ZM495.498 2241H471.732V2164.92H495.498V2241ZM470.326 2145.3C470.326 2141.93 471.545 2139.16 473.982 2137.01C476.42 2134.85 479.584 2133.77 483.475 2133.77C487.365 2133.77 490.529 2134.85 492.967 2137.01C495.404 2139.16 496.623 2141.93 496.623 2145.3C496.623 2148.68 495.404 2151.45 492.967 2153.6C490.529 2155.76 487.365 2156.84 483.475 2156.84C479.584 2156.84 476.42 2155.76 473.982 2153.6C471.545 2151.45 470.326 2148.68 470.326 2145.3ZM592.318 2201.41C587.209 2206.01 581.49 2208.3 575.162 2208.3C565.881 2208.3 558.521 2205.16 553.084 2198.88C547.646 2192.6 544.928 2184.21 544.928 2173.71C544.928 2167.15 546.451 2161.05 549.498 2155.43C552.545 2149.8 556.811 2145.35 562.295 2142.07C567.826 2138.79 573.92 2137.15 580.576 2137.15C587.326 2137.15 593.42 2138.86 598.857 2142.28C604.342 2145.66 608.607 2150.46 611.654 2156.7C614.701 2162.88 616.271 2170.03 616.365 2178.14V2187.21C616.365 2198.51 614.139 2208.3 609.686 2216.6C605.279 2224.9 598.975 2231.27 590.771 2235.73C582.568 2240.18 573.006 2242.41 562.084 2242.41H560.607V2223.42L565.107 2223.35C581.42 2222.55 590.49 2215.24 592.318 2201.41ZM581.561 2191.22C586.717 2191.22 590.42 2188.99 592.67 2184.54V2174.7C592.67 2168.13 591.568 2163.28 589.365 2160.14C587.162 2157 584.186 2155.43 580.436 2155.43C577.107 2155.43 574.318 2157.21 572.068 2160.77C569.818 2164.34 568.693 2168.65 568.693 2173.71C568.693 2179.05 569.842 2183.32 572.139 2186.51C574.436 2189.65 577.576 2191.22 581.561 2191.22ZM710.865 2157.68H680.139V2241H655.459V2157.68H625.295V2138.62H710.865V2157.68Z" fill="white"/>
<defs>
<filter id="filter0_d" x="351.334" y="1117.21" width="167.341" height="101.633" filterUnits="userSpaceOnUse" color-interpolation-filters="sRGB">
<feFlood flood-opacity="0" result="BackgroundImageFix"/>
<feColorMatrix in="SourceAlpha" type="matrix" values="0 0 0 0 0 0 0 0 0 0 0 0 0 0 0 0 0 0 127 0"/>
<feOffset dy="4"/>
<feGaussianBlur stdDeviation="2"/>
<feColorMatrix type="matrix" values="0 0 0 0 0 0 0 0 0 0 0 0 0 0 0 0 0 0 0.25 0"/>
<feBlend mode="normal" in2="BackgroundImageFix" result="effect1_dropShadow"/>
<feBlend mode="normal" in="SourceGraphic" in2="effect1_dropShadow" result="shape"/>
</filter>
<filter id="filter1_d" x="606.288" y="1117.21" width="167.341" height="101.633" filterUnits="userSpaceOnUse" color-interpolation-filters="sRGB">
<feFlood flood-opacity="0" result="BackgroundImageFix"/>
<feColorMatrix in="SourceAlpha" type="matrix" values="0 0 0 0 0 0 0 0 0 0 0 0 0 0 0 0 0 0 127 0"/>
<feOffset dy="4"/>
<feGaussianBlur stdDeviation="2"/>
<feColorMatrix type="matrix" values="0 0 0 0 0 0 0 0 0 0 0 0 0 0 0 0 0 0 0.25 0"/>
<feBlend mode="normal" in2="BackgroundImageFix" result="effect1_dropShadow"/>
<feBlend mode="normal" in="SourceGraphic" in2="effect1_dropShadow" result="shape"/>
</filter>
<filter id="filter2_d" x="308.726" y="1010.24" width="251" height="319.938" filterUnits="userSpaceOnUse" color-interpolation-filters="sRGB">
<feFlood flood-opacity="0" result="BackgroundImageFix"/>
<feColorMatrix in="SourceAlpha" type="matrix" values="0 0 0 0 0 0 0 0 0 0 0 0 0 0 0 0 0 0 127 0"/>
<feOffset dy="4"/>
<feGaussianBlur stdDeviation="2"/>
<feColorMatrix type="matrix" values="0 0 0 0 0 0 0 0 0 0 0 0 0 0 0 0 0 0 0.25 0"/>
<feBlend mode="normal" in2="BackgroundImageFix" result="effect1_dropShadow"/>
<feBlend mode="normal" in="SourceGraphic" in2="effect1_dropShadow" result="shape"/>
</filter>
<filter id="filter3_d" x="565.726" y="939" width="251" height="317.655" filterUnits="userSpaceOnUse" color-interpolation-filters="sRGB">
<feFlood flood-opacity="0" result="BackgroundImageFix"/>
<feColorMatrix in="SourceAlpha" type="matrix" values="0 0 0 0 0 0 0 0 0 0 0 0 0 0 0 0 0 0 127 0"/>
<feOffset dy="4"/>
<feGaussianBlur stdDeviation="2"/>
<feColorMatrix type="matrix" values="0 0 0 0 0 0 0 0 0 0 0 0 0 0 0 0 0 0 0.25 0"/>
<feBlend mode="normal" in2="BackgroundImageFix" result="effect1_dropShadow"/>
<feBlend mode="normal" in="SourceGraphic" in2="effect1_dropShadow" result="shape"/>
</filter>
<linearGradient id="paint0_linear" x1="252.504" y1="45.9844" x2="252.504" y2="120.954" gradientUnits="userSpaceOnUse">
<stop stop-color="#23CAA2"/>
<stop offset="1" stop-color="#5F8BFB" stop-opacity="0"/>
</linearGradient>
<linearGradient id="paint1_linear" x1="253.005" y1="78.9688" x2="253.005" y2="88.9646" gradientUnits="userSpaceOnUse">
<stop stop-color="#78EDD1"/>
<stop stop-color="#78EDD1"/>
<stop offset="1" stop-color="#009DBF" stop-opacity="0"/>
</linearGradient>
<linearGradient id="paint2_linear" x1="253.005" y1="78.9688" x2="253.005" y2="88.9646" gradientUnits="userSpaceOnUse">
<stop stop-color="#009DBF"/>
<stop offset="1" stop-color="white" stop-opacity="0"/>
</linearGradient>
</defs>
</svg>
