<svg width="1080" height="2400" viewBox="0 0 1080 2400" fill="none" xmlns="http://www.w3.org/2000/svg">
<rect x="22.0195" y="22" width="1035.98" height="2355.58" rx="64" fill="black" stroke="#393939" stroke-width="44"/>
<path d="M665.466 96.6258C664.23 108.212 654.454 117 642.802 117L444.909 117C431.648 117 420.115 107.909 417.019 95.0143L408.944 74.0647L407.081 64.718L404.286 56.9828L398.385 46.3468L390 37L690 37L679.752 46.3468L674.5 56.9828L668.882 74.0647L665.466 96.6258Z" fill="#393939"/>
<path d="M1079.98 2308C1079.98 2358.81 1038.79 2400 987.981 2400H92.0001C41.1898 2400 0 2358.81 0 2308V2302.56H1079.98V2308Z" fill="#393939"/>
<g filter="url(#filter0_d)">
<path fill-rule="evenodd" clip-rule="evenodd" d="M481.15 1160.28C488.014 1147.96 491.447 1133.94 491.447 1118.24C491.447 1112.55 491.006 1107.1 490.125 1101.91H469.799C470.882 1106.96 471.422 1112.4 471.422 1118.24C471.422 1129.77 468.849 1140 463.699 1148.95C458.55 1157.89 451.493 1164.85 442.53 1169.82C433.568 1174.79 423.364 1177.27 411.921 1177.27C400.288 1177.27 389.989 1174.99 381.026 1170.42C372.063 1165.65 365.006 1159.09 359.857 1150.74C354.708 1142.19 352.134 1132.35 352.134 1121.22C352.134 1114.32 353.114 1107.88 355.074 1101.91H334.234C332.817 1108.04 332.109 1114.48 332.109 1121.22C332.109 1136.53 335.637 1150.04 342.693 1161.77C349.559 1173.5 358.999 1182.74 371.014 1189.5C383.028 1196.25 396.664 1199.63 411.921 1199.63C426.987 1199.63 440.528 1196.16 452.542 1189.2C464.558 1182.04 474.093 1172.4 481.15 1160.28Z" fill="#FFB700"/>
</g>
<g filter="url(#filter1_d)">
<path fill-rule="evenodd" clip-rule="evenodd" d="M736.09 1160.28C742.956 1147.96 746.389 1133.94 746.389 1118.24C746.389 1112.55 745.947 1107.1 745.064 1101.91H724.741C725.823 1106.96 726.364 1112.4 726.364 1118.24C726.364 1129.77 723.789 1140 718.64 1148.95C713.492 1157.89 706.435 1164.85 697.471 1169.82C688.508 1174.79 678.305 1177.27 666.862 1177.27C655.229 1177.27 644.93 1174.99 635.967 1170.42C627.004 1165.65 619.948 1159.09 614.798 1150.74C609.649 1142.19 607.075 1132.35 607.075 1121.22C607.075 1114.32 608.054 1107.88 610.015 1101.91H589.176C587.759 1108.04 587.05 1114.48 587.05 1121.22C587.05 1136.53 590.578 1150.04 597.635 1161.77C604.499 1173.5 613.94 1182.74 625.955 1189.5C637.969 1196.25 651.605 1199.63 666.862 1199.63C681.929 1199.63 695.469 1196.16 707.484 1189.2C719.499 1182.04 729.035 1172.4 736.09 1160.28Z" fill="#FFB700"/>
</g>
<g filter="url(#filter2_d)">
<path fill-rule="evenodd" clip-rule="evenodd" d="M323.149 1315.83H289.496V1113.11C289.788 1089.88 295.178 1069.03 305.667 1050.56C316.447 1031.8 330.87 1017.06 348.934 1006.33C367.29 995.611 387.831 990.25 410.557 990.25C433.866 990.25 454.699 995.76 473.054 1006.78C491.411 1017.5 505.833 1032.24 516.322 1051.01C527.103 1069.77 532.492 1091.07 532.492 1114.89C532.492 1138.42 527.248 1159.57 516.759 1178.33C506.561 1197.1 492.575 1211.99 474.802 1223.01C457.029 1233.73 436.926 1239.09 414.491 1239.09C394.97 1239.09 377.196 1234.92 361.172 1226.58C345.438 1217.95 332.764 1206.63 323.149 1192.63V1315.83ZM456.01 1195.76C442.607 1203.8 427.456 1207.82 410.557 1207.82C393.95 1207.82 378.945 1203.8 365.542 1195.76C352.139 1187.72 341.65 1176.7 334.075 1162.7C326.499 1148.4 322.712 1132.47 322.712 1114.89C322.712 1097.02 326.499 1081.09 334.075 1067.09C341.65 1053.09 352.139 1042.07 365.542 1034.03C378.945 1025.69 393.95 1021.52 410.557 1021.52C427.456 1021.52 442.607 1025.69 456.01 1034.03C469.413 1042.07 479.902 1053.09 487.477 1067.09C495.344 1081.09 499.277 1097.02 499.277 1114.89C499.277 1132.47 495.344 1148.4 487.477 1162.7C479.902 1176.7 469.413 1187.72 456.01 1195.76Z" fill="#09AC99"/>
</g>
<g filter="url(#filter3_d)">
<path fill-rule="evenodd" clip-rule="evenodd" d="M755.398 915.898V1036.71C745.783 1022.72 733.108 1011.55 717.374 1003.21C701.642 994.57 684.014 990.252 664.493 990.252C642.058 990.252 621.953 995.762 604.18 1006.78C586.407 1017.5 572.277 1032.25 561.787 1051.01C551.59 1069.77 546.491 1090.92 546.491 1114.45C546.491 1138.28 551.736 1159.57 562.224 1178.33C573.005 1197.1 587.573 1211.99 605.928 1223.01C624.285 1233.73 644.972 1239.09 667.989 1239.09C690.716 1239.09 711.11 1233.73 729.176 1223.01C747.531 1212.29 761.954 1197.69 772.442 1179.23C783.223 1160.47 788.905 1139.47 789.487 1116.24V915.898H755.398ZM713.005 1195.76C699.894 1203.8 684.888 1207.82 667.989 1207.82C651.382 1207.82 636.376 1203.8 622.974 1195.76C609.571 1187.42 598.936 1176.25 591.069 1162.25C583.202 1148.25 579.269 1132.32 579.269 1114.45C579.269 1096.88 583.202 1081.09 591.069 1067.09C598.936 1052.8 609.571 1041.63 622.974 1033.59C636.376 1025.55 651.382 1021.52 667.989 1021.52C684.888 1021.52 699.894 1025.55 713.005 1033.59C726.407 1041.63 736.896 1052.8 744.471 1067.09C752.338 1081.09 756.271 1096.88 756.271 1114.45C756.271 1132.32 752.338 1148.25 744.471 1162.25C736.896 1176.25 726.407 1187.42 713.005 1195.76Z" fill="#09AC99"/>
</g>
<path d="M341.747 2131.05C341.747 2145 338.25 2155.84 331.258 2163.57C324.305 2171.3 314.442 2175.17 301.668 2175.17C288.739 2175.17 278.797 2171.34 271.844 2163.69C264.93 2155.99 261.473 2145.07 261.473 2130.93C261.473 2116.79 264.95 2105.93 271.903 2098.36C278.895 2090.78 288.856 2086.99 301.786 2086.99C314.52 2086.99 324.364 2090.84 331.317 2098.53C338.27 2106.23 341.747 2117.07 341.747 2131.05ZM276.356 2131.05C276.356 2141.6 278.485 2149.61 282.743 2155.07C287 2160.5 293.309 2163.22 301.668 2163.22C309.989 2163.22 316.258 2160.52 320.477 2155.13C324.735 2149.74 326.864 2141.71 326.864 2131.05C326.864 2120.54 324.754 2112.57 320.536 2107.14C316.356 2101.71 310.106 2099 301.786 2099C293.387 2099 287.039 2101.71 282.743 2107.14C278.485 2112.57 276.356 2120.54 276.356 2131.05ZM415.692 2174H401.864V2134.16C401.864 2129.16 400.848 2125.43 398.817 2122.96C396.825 2120.5 393.641 2119.27 389.266 2119.27C383.446 2119.27 379.188 2120.99 376.493 2124.43C373.797 2127.87 372.45 2133.63 372.45 2141.71V2174H358.68V2109.2H369.461L371.395 2117.69H372.098C374.051 2114.61 376.825 2112.22 380.418 2110.54C384.012 2108.86 387.997 2108.02 392.372 2108.02C407.918 2108.02 415.692 2115.93 415.692 2131.75V2174ZM463.153 2175.17C453.075 2175.17 445.184 2172.24 439.481 2166.38C433.817 2160.48 430.985 2152.38 430.985 2142.07C430.985 2131.48 433.622 2123.16 438.895 2117.11C444.168 2111.05 451.414 2108.02 460.633 2108.02C469.188 2108.02 475.946 2110.62 480.907 2115.82C485.868 2121.01 488.348 2128.16 488.348 2137.26V2144.7H445.164C445.36 2150.99 447.059 2155.84 450.262 2159.23C453.465 2162.59 457.977 2164.27 463.797 2164.27C467.625 2164.27 471.18 2163.92 474.461 2163.22C477.782 2162.48 481.336 2161.27 485.125 2159.59V2170.78C481.766 2172.38 478.368 2173.51 474.93 2174.18C471.493 2174.84 467.567 2175.17 463.153 2175.17ZM460.633 2118.45C456.258 2118.45 452.743 2119.84 450.086 2122.61C447.469 2125.39 445.907 2129.43 445.399 2134.74H474.813C474.735 2129.39 473.446 2125.35 470.946 2122.61C468.446 2119.84 465.008 2118.45 460.633 2118.45ZM536.864 2175.17C528.661 2175.17 522.293 2172.22 517.762 2166.32H516.942C517.489 2171.79 517.762 2175.11 517.762 2176.29V2202.83H503.993V2109.2H515.125C515.438 2110.41 516.082 2113.3 517.059 2117.87H517.762C522.059 2111.3 528.504 2108.02 537.098 2108.02C545.184 2108.02 551.473 2110.95 555.965 2116.81C560.497 2122.67 562.762 2130.89 562.762 2141.48C562.762 2152.07 560.457 2160.33 555.848 2166.27C551.278 2172.2 544.95 2175.17 536.864 2175.17ZM533.524 2119.27C528.055 2119.27 524.051 2120.88 521.512 2124.08C519.012 2127.28 517.762 2132.4 517.762 2139.43V2141.48C517.762 2149.37 519.012 2155.09 521.512 2158.65C524.012 2162.16 528.094 2163.92 533.758 2163.92C538.524 2163.92 542.196 2161.97 544.774 2158.06C547.352 2154.16 548.641 2148.59 548.641 2141.36C548.641 2134.1 547.352 2128.61 544.774 2124.9C542.235 2121.15 538.485 2119.27 533.524 2119.27ZM592.528 2174H578.758V2082.83H592.528V2174ZM657.977 2174L656.043 2165.5H655.34C653.426 2168.51 650.692 2170.88 647.137 2172.59C643.622 2174.31 639.598 2175.17 635.067 2175.17C627.215 2175.17 621.356 2173.22 617.489 2169.31C613.622 2165.41 611.688 2159.49 611.688 2151.56V2109.2H625.575V2149.16C625.575 2154.12 626.59 2157.85 628.622 2160.35C630.653 2162.81 633.836 2164.04 638.172 2164.04C643.954 2164.04 648.192 2162.32 650.887 2158.88C653.622 2155.41 654.989 2149.61 654.989 2141.48V2109.2H668.817V2174H657.977ZM731.981 2155.54C731.981 2161.87 729.676 2166.73 725.067 2170.13C720.457 2173.49 713.856 2175.17 705.262 2175.17C696.629 2175.17 689.696 2173.86 684.461 2171.25V2159.35C692.079 2162.87 699.168 2164.62 705.731 2164.62C714.207 2164.62 718.446 2162.07 718.446 2156.95C718.446 2155.31 717.977 2153.94 717.039 2152.85C716.102 2151.75 714.559 2150.62 712.411 2149.45C710.262 2148.28 707.274 2146.95 703.446 2145.46C695.985 2142.57 690.926 2139.68 688.27 2136.79C685.653 2133.9 684.344 2130.15 684.344 2125.54C684.344 2120 686.571 2115.7 691.024 2112.65C695.516 2109.57 701.61 2108.02 709.305 2108.02C716.922 2108.02 724.129 2109.57 730.926 2112.65L726.473 2123.02C719.481 2120.13 713.602 2118.69 708.836 2118.69C701.571 2118.69 697.938 2120.76 697.938 2124.9C697.938 2126.93 698.875 2128.65 700.75 2130.05C702.664 2131.46 706.805 2133.39 713.172 2135.86C718.524 2137.93 722.411 2139.82 724.832 2141.54C727.254 2143.26 729.051 2145.25 730.223 2147.52C731.395 2149.74 731.981 2152.42 731.981 2155.54ZM773.758 2137.5C773.758 2103.98 787.411 2087.22 814.715 2087.22C819.012 2087.22 822.645 2087.55 825.614 2088.22V2099.7C822.645 2098.84 819.207 2098.41 815.301 2098.41C806.122 2098.41 799.227 2100.88 794.618 2105.8C790.008 2110.72 787.508 2118.61 787.118 2129.47H787.821C789.657 2126.3 792.235 2123.86 795.555 2122.14C798.875 2120.39 802.782 2119.51 807.274 2119.51C815.047 2119.51 821.102 2121.89 825.438 2126.66C829.774 2131.42 831.942 2137.89 831.942 2146.05C831.942 2155.04 829.422 2162.14 824.383 2167.38C819.383 2172.57 812.547 2175.17 803.875 2175.17C797.743 2175.17 792.411 2173.71 787.879 2170.78C783.348 2167.81 779.852 2163.51 777.391 2157.89C774.969 2152.22 773.758 2145.43 773.758 2137.5ZM803.641 2163.8C808.368 2163.8 812 2162.28 814.539 2159.23C817.118 2156.19 818.407 2151.83 818.407 2146.17C818.407 2141.25 817.196 2137.38 814.774 2134.57C812.391 2131.75 808.797 2130.35 803.993 2130.35C801.024 2130.35 798.289 2130.99 795.789 2132.28C793.289 2133.53 791.317 2135.27 789.872 2137.5C788.426 2139.68 787.704 2141.93 787.704 2144.23C787.704 2149.74 789.188 2154.39 792.157 2158.18C795.164 2161.93 798.993 2163.8 803.641 2163.8Z" fill="white"/>
<circle cx="620.5" cy="67.5" r="22.5" fill="#ADADAD"/>
<rect x="512" y="54" width="56" height="26" rx="13" fill="#ADADAD"/>
<defs>
<filter id="filter0_d" x="328.109" y="1101.91" width="167.338" height="105.728" filterUnits="userSpaceOnUse" color-interpolation-filters="sRGB">
<feFlood flood-opacity="0" result="BackgroundImageFix"/>
<feColorMatrix in="SourceAlpha" type="matrix" values="0 0 0 0 0 0 0 0 0 0 0 0 0 0 0 0 0 0 127 0"/>
<feOffset dy="4"/>
<feGaussianBlur stdDeviation="2"/>
<feColorMatrix type="matrix" values="0 0 0 0 0 0 0 0 0 0 0 0 0 0 0 0 0 0 0.25 0"/>
<feBlend mode="normal" in2="BackgroundImageFix" result="effect1_dropShadow"/>
<feBlend mode="normal" in="SourceGraphic" in2="effect1_dropShadow" result="shape"/>
</filter>
<filter id="filter1_d" x="583.05" y="1101.91" width="167.339" height="105.728" filterUnits="userSpaceOnUse" color-interpolation-filters="sRGB">
<feFlood flood-opacity="0" result="BackgroundImageFix"/>
<feColorMatrix in="SourceAlpha" type="matrix" values="0 0 0 0 0 0 0 0 0 0 0 0 0 0 0 0 0 0 127 0"/>
<feOffset dy="4"/>
<feGaussianBlur stdDeviation="2"/>
<feColorMatrix type="matrix" values="0 0 0 0 0 0 0 0 0 0 0 0 0 0 0 0 0 0 0.25 0"/>
<feBlend mode="normal" in2="BackgroundImageFix" result="effect1_dropShadow"/>
<feBlend mode="normal" in="SourceGraphic" in2="effect1_dropShadow" result="shape"/>
</filter>
<filter id="filter2_d" x="285.496" y="990.25" width="250.996" height="333.578" filterUnits="userSpaceOnUse" color-interpolation-filters="sRGB">
<feFlood flood-opacity="0" result="BackgroundImageFix"/>
<feColorMatrix in="SourceAlpha" type="matrix" values="0 0 0 0 0 0 0 0 0 0 0 0 0 0 0 0 0 0 127 0"/>
<feOffset dy="4"/>
<feGaussianBlur stdDeviation="2"/>
<feColorMatrix type="matrix" values="0 0 0 0 0 0 0 0 0 0 0 0 0 0 0 0 0 0 0.25 0"/>
<feBlend mode="normal" in2="BackgroundImageFix" result="effect1_dropShadow"/>
<feBlend mode="normal" in="SourceGraphic" in2="effect1_dropShadow" result="shape"/>
</filter>
<filter id="filter3_d" x="542.491" y="915.898" width="250.996" height="331.195" filterUnits="userSpaceOnUse" color-interpolation-filters="sRGB">
<feFlood flood-opacity="0" result="BackgroundImageFix"/>
<feColorMatrix in="SourceAlpha" type="matrix" values="0 0 0 0 0 0 0 0 0 0 0 0 0 0 0 0 0 0 127 0"/>
<feOffset dy="4"/>
<feGaussianBlur stdDeviation="2"/>
<feColorMatrix type="matrix" values="0 0 0 0 0 0 0 0 0 0 0 0 0 0 0 0 0 0 0.25 0"/>
<feBlend mode="normal" in2="BackgroundImageFix" result="effect1_dropShadow"/>
<feBlend mode="normal" in="SourceGraphic" in2="effect1_dropShadow" result="shape"/>
</filter>
</defs>
</svg>
