<svg width="1080" height="2401" viewBox="0 0 1080 2401" fill="none" xmlns="http://www.w3.org/2000/svg">
<rect x="15" y="16" width="1050" height="2370" rx="77" fill="black" stroke="#393939" stroke-width="30"/>
<g filter="url(#filter0_d)">
<path fill-rule="evenodd" clip-rule="evenodd" d="M470.657 1244.67C477.521 1232.34 480.954 1218.33 480.954 1202.63C480.954 1196.94 480.514 1191.49 479.632 1186.3H459.306C460.389 1191.35 460.929 1196.79 460.929 1202.63C460.929 1214.16 458.356 1224.39 453.206 1233.34C448.057 1242.28 441 1249.24 432.037 1254.21C423.074 1259.18 412.87 1261.66 401.427 1261.66C389.794 1261.66 379.495 1259.37 370.531 1254.8C361.568 1250.03 354.511 1243.47 349.362 1235.13C344.213 1226.58 341.638 1216.74 341.638 1205.61C341.638 1198.71 342.619 1192.27 344.579 1186.3H323.739C322.322 1192.43 321.613 1198.87 321.613 1205.61C321.613 1220.92 325.141 1234.43 332.198 1246.16C339.063 1257.88 348.504 1267.13 360.519 1273.88C372.534 1280.64 386.17 1284.02 401.427 1284.02C416.493 1284.02 430.035 1280.54 442.049 1273.59C454.064 1266.43 463.6 1256.79 470.657 1244.67Z" fill="#FFB700"/>
</g>
<g filter="url(#filter1_d)">
<path fill-rule="evenodd" clip-rule="evenodd" d="M725.601 1244.67C732.467 1232.34 735.9 1218.33 735.9 1202.63C735.9 1196.94 735.458 1191.49 734.575 1186.3H714.251C715.333 1191.35 715.875 1196.79 715.875 1202.63C715.875 1214.16 713.3 1224.39 708.15 1233.34C703.002 1242.28 695.945 1249.24 686.981 1254.21C678.018 1259.18 667.815 1261.66 656.372 1261.66C644.738 1261.66 634.439 1259.37 625.476 1254.8C616.513 1250.03 609.457 1243.47 604.307 1235.13C599.157 1226.58 596.584 1216.74 596.584 1205.61C596.584 1198.71 597.563 1192.27 599.524 1186.3H578.684C577.267 1192.43 576.559 1198.87 576.559 1205.61C576.559 1220.92 580.086 1234.43 587.143 1246.16C594.008 1257.88 603.449 1267.13 615.464 1273.88C627.478 1280.64 641.114 1284.02 656.372 1284.02C671.439 1284.02 684.979 1280.54 696.994 1273.59C709.01 1266.43 718.545 1256.79 725.601 1244.67Z" fill="#FFB700"/>
</g>
<g filter="url(#filter2_d)">
<path fill-rule="evenodd" clip-rule="evenodd" d="M312.653 1400.21H279V1197.5C279.291 1174.27 284.682 1153.42 295.171 1134.96C305.951 1116.19 320.374 1101.45 338.439 1090.73C356.795 1080.01 377.336 1074.65 400.063 1074.65C423.372 1074.65 444.205 1080.16 462.561 1091.18C480.918 1101.9 495.341 1116.64 505.829 1135.4C516.61 1154.17 522 1175.46 522 1199.29C522 1222.82 516.756 1243.96 506.266 1262.72C496.069 1281.49 482.082 1296.38 464.309 1307.4C446.536 1318.12 426.432 1323.48 403.997 1323.48C384.475 1323.48 366.702 1319.31 350.676 1310.97C334.943 1302.34 322.268 1291.02 312.653 1277.02V1400.21ZM445.517 1280.15C432.113 1288.19 416.962 1292.21 400.063 1292.21C383.455 1292.21 368.45 1288.19 355.047 1280.15C341.644 1272.11 331.155 1261.09 323.579 1247.09C316.004 1232.79 312.216 1216.86 312.216 1199.29C312.216 1181.42 316.004 1165.48 323.579 1151.49C331.155 1137.49 341.644 1126.47 355.047 1118.43C368.45 1110.09 383.455 1105.92 400.063 1105.92C416.962 1105.92 432.113 1110.09 445.517 1118.43C458.919 1126.47 469.409 1137.49 476.984 1151.49C484.851 1165.48 488.784 1181.42 488.784 1199.29C488.784 1216.86 484.851 1232.79 476.984 1247.09C469.409 1261.09 458.919 1272.11 445.517 1280.15Z" fill="#09AC99"/>
</g>
<g filter="url(#filter3_d)">
<path fill-rule="evenodd" clip-rule="evenodd" d="M744.91 1000.3V1121.11C735.295 1107.11 722.62 1095.95 706.886 1087.61C691.153 1078.97 673.525 1074.65 654.004 1074.65C631.568 1074.65 611.463 1080.16 593.69 1091.18C575.916 1101.9 561.786 1116.64 551.296 1135.41C541.099 1154.17 536 1175.32 536 1198.84C536 1222.67 541.244 1243.96 551.733 1262.73C562.514 1281.49 577.082 1296.38 595.438 1307.4C613.795 1318.12 634.482 1323.48 657.5 1323.48C680.227 1323.48 700.621 1318.12 718.687 1307.4C737.043 1296.68 751.466 1282.09 761.954 1263.62C772.735 1244.86 778.418 1223.86 779 1200.63V1000.3H744.91ZM702.517 1280.15C689.405 1288.19 674.399 1292.21 657.5 1292.21C640.892 1292.21 625.886 1288.19 612.484 1280.15C599.081 1271.81 588.446 1260.64 580.578 1246.64C572.711 1232.65 568.779 1216.71 568.779 1198.84C568.779 1181.27 572.711 1165.49 580.578 1151.49C588.446 1137.19 599.081 1126.03 612.484 1117.98C625.886 1109.94 640.892 1105.92 657.5 1105.92C674.399 1105.92 689.405 1109.94 702.517 1117.98C715.919 1126.03 726.408 1137.19 733.984 1151.49C741.851 1165.49 745.784 1181.27 745.784 1198.84C745.784 1216.71 741.851 1232.65 733.984 1246.64C726.408 1260.64 715.919 1271.81 702.517 1280.15Z" fill="#09AC99"/>
</g>
<g filter="url(#filter4_d)">
<path fill-rule="evenodd" clip-rule="evenodd" d="M470.657 1244.67C477.521 1232.34 480.954 1218.33 480.954 1202.63C480.954 1196.94 480.514 1191.49 479.632 1186.3H459.306C460.389 1191.35 460.929 1196.79 460.929 1202.63C460.929 1214.16 458.356 1224.39 453.206 1233.34C448.057 1242.28 441 1249.24 432.037 1254.21C423.074 1259.18 412.87 1261.66 401.427 1261.66C389.794 1261.66 379.495 1259.37 370.531 1254.8C361.568 1250.03 354.511 1243.47 349.362 1235.13C344.213 1226.58 341.638 1216.74 341.638 1205.61C341.638 1198.71 342.619 1192.27 344.579 1186.3H323.739C322.322 1192.43 321.613 1198.87 321.613 1205.61C321.613 1220.92 325.141 1234.43 332.198 1246.16C339.063 1257.88 348.504 1267.13 360.519 1273.88C372.534 1280.64 386.17 1284.02 401.427 1284.02C416.493 1284.02 430.035 1280.54 442.049 1273.59C454.064 1266.43 463.6 1256.79 470.657 1244.67Z" fill="#FFB700"/>
</g>
<g filter="url(#filter5_d)">
<path fill-rule="evenodd" clip-rule="evenodd" d="M725.601 1244.67C732.467 1232.34 735.9 1218.33 735.9 1202.63C735.9 1196.94 735.458 1191.49 734.575 1186.3H714.251C715.333 1191.35 715.875 1196.79 715.875 1202.63C715.875 1214.16 713.3 1224.39 708.15 1233.34C703.002 1242.28 695.945 1249.24 686.981 1254.21C678.018 1259.18 667.815 1261.66 656.372 1261.66C644.738 1261.66 634.439 1259.37 625.476 1254.8C616.513 1250.03 609.457 1243.47 604.307 1235.13C599.157 1226.58 596.584 1216.74 596.584 1205.61C596.584 1198.71 597.563 1192.27 599.524 1186.3H578.684C577.267 1192.43 576.559 1198.87 576.559 1205.61C576.559 1220.92 580.086 1234.43 587.143 1246.16C594.008 1257.88 603.449 1267.13 615.464 1273.88C627.478 1280.64 641.114 1284.02 656.372 1284.02C671.439 1284.02 684.979 1280.54 696.994 1273.59C709.01 1266.43 718.545 1256.79 725.601 1244.67Z" fill="#FFB700"/>
</g>
<g filter="url(#filter6_d)">
<path fill-rule="evenodd" clip-rule="evenodd" d="M312.653 1400.21H279V1197.5C279.291 1174.27 284.682 1153.42 295.171 1134.96C305.951 1116.19 320.374 1101.45 338.439 1090.73C356.795 1080.01 377.336 1074.65 400.063 1074.65C423.372 1074.65 444.205 1080.16 462.561 1091.18C480.918 1101.9 495.341 1116.64 505.829 1135.4C516.61 1154.17 522 1175.46 522 1199.29C522 1222.82 516.756 1243.96 506.266 1262.72C496.069 1281.49 482.082 1296.38 464.309 1307.4C446.536 1318.12 426.432 1323.48 403.997 1323.48C384.475 1323.48 366.702 1319.31 350.676 1310.97C334.943 1302.34 322.268 1291.02 312.653 1277.02V1400.21ZM445.517 1280.15C432.113 1288.19 416.962 1292.21 400.063 1292.21C383.455 1292.21 368.45 1288.19 355.047 1280.15C341.644 1272.11 331.155 1261.09 323.579 1247.09C316.004 1232.79 312.216 1216.86 312.216 1199.29C312.216 1181.42 316.004 1165.48 323.579 1151.49C331.155 1137.49 341.644 1126.47 355.047 1118.43C368.45 1110.09 383.455 1105.92 400.063 1105.92C416.962 1105.92 432.113 1110.09 445.517 1118.43C458.919 1126.47 469.409 1137.49 476.984 1151.49C484.851 1165.48 488.784 1181.42 488.784 1199.29C488.784 1216.86 484.851 1232.79 476.984 1247.09C469.409 1261.09 458.919 1272.11 445.517 1280.15Z" fill="#09AC99"/>
</g>
<g filter="url(#filter7_d)">
<path fill-rule="evenodd" clip-rule="evenodd" d="M744.91 1000.3V1121.11C735.295 1107.11 722.62 1095.95 706.886 1087.61C691.153 1078.97 673.525 1074.65 654.004 1074.65C631.568 1074.65 611.463 1080.16 593.69 1091.18C575.916 1101.9 561.786 1116.64 551.296 1135.41C541.099 1154.17 536 1175.32 536 1198.84C536 1222.67 541.244 1243.96 551.733 1262.73C562.514 1281.49 577.082 1296.38 595.438 1307.4C613.795 1318.12 634.482 1323.48 657.5 1323.48C680.227 1323.48 700.621 1318.12 718.687 1307.4C737.043 1296.68 751.466 1282.09 761.954 1263.62C772.735 1244.86 778.418 1223.86 779 1200.63V1000.3H744.91ZM702.517 1280.15C689.405 1288.19 674.399 1292.21 657.5 1292.21C640.892 1292.21 625.886 1288.19 612.484 1280.15C599.081 1271.81 588.446 1260.64 580.578 1246.64C572.711 1232.65 568.779 1216.71 568.779 1198.84C568.779 1181.27 572.711 1165.49 580.578 1151.49C588.446 1137.19 599.081 1126.03 612.484 1117.98C625.886 1109.94 640.892 1105.92 657.5 1105.92C674.399 1105.92 689.405 1109.94 702.517 1117.98C715.919 1126.03 726.408 1137.19 733.984 1151.49C741.851 1165.49 745.784 1181.27 745.784 1198.84C745.784 1216.71 741.851 1232.65 733.984 1246.64C726.408 1260.64 715.919 1271.81 702.517 1280.15Z" fill="#09AC99"/>
</g>
<path d="M489.441 3.98331C494.545 1.38181 500.284 0.289691 505.986 0.835086L540.855 4.17011C543.945 4.46566 547.056 4.47281 550.147 4.19147L577.796 1.67522C585.969 0.931407 594.099 3.493 600.37 8.78751L622.187 27.2088C623.718 28.5009 623.855 30.8105 622.489 32.2752L619.979 34.9669L615.316 40.0812L605.633 50.5789L589.51 65.6526L578.018 76.5511C559.16 94.4338 529.747 94.8886 510.345 77.5973L498.755 67.2677L480.105 49.5022L470.063 39.2737L465.042 34.4285L460 29.7372C456.526 26.1748 457.499 20.2657 461.933 18.0059L489.441 3.98331Z" fill="#393939"/>
<path d="M346.777 2265.21C346.777 2276.63 343.88 2285.62 338.086 2292.16C332.324 2298.71 324.3 2301.98 314.014 2301.98C303.499 2301.98 295.378 2298.77 289.648 2292.36C283.952 2285.91 281.104 2276.83 281.104 2265.11C281.104 2253.49 283.968 2244.49 289.697 2238.11C295.426 2231.7 303.564 2228.49 314.111 2228.49C324.365 2228.49 332.373 2231.75 338.135 2238.26C343.896 2244.77 346.777 2253.75 346.777 2265.21ZM289.893 2265.21C289.893 2274.88 291.943 2282.22 296.045 2287.23C300.179 2292.21 306.169 2294.7 314.014 2294.7C321.924 2294.7 327.897 2292.21 331.934 2287.23C335.97 2282.25 337.988 2274.91 337.988 2265.21C337.988 2255.61 335.97 2248.33 331.934 2243.38C327.93 2238.4 321.989 2235.91 314.111 2235.91C306.201 2235.91 300.179 2238.42 296.045 2243.43C291.943 2248.41 289.893 2255.67 289.893 2265.21ZM398.145 2301V2266.38C398.145 2262.02 397.152 2258.76 395.166 2256.62C393.18 2254.47 390.072 2253.39 385.84 2253.39C380.241 2253.39 376.139 2254.91 373.535 2257.93C370.931 2260.96 369.629 2265.96 369.629 2272.92V2301H361.523V2247.48H368.115L369.434 2254.81H369.824C371.484 2252.17 373.812 2250.14 376.807 2248.71C379.801 2247.24 383.138 2246.51 386.816 2246.51C393.262 2246.51 398.112 2248.07 401.367 2251.2C404.622 2254.29 406.25 2259.25 406.25 2266.09V2301H398.145ZM445.557 2301.98C437.646 2301.98 431.396 2299.57 426.807 2294.75C422.249 2289.93 419.971 2283.24 419.971 2274.68C419.971 2266.06 422.087 2259.2 426.318 2254.12C430.583 2249.05 436.296 2246.51 443.457 2246.51C450.163 2246.51 455.469 2248.72 459.375 2253.15C463.281 2257.54 465.234 2263.35 465.234 2270.58V2275.71H428.369C428.532 2281.99 430.111 2286.76 433.105 2290.01C436.133 2293.27 440.381 2294.9 445.85 2294.9C451.611 2294.9 457.308 2293.69 462.939 2291.28V2298.51C460.075 2299.75 457.357 2300.63 454.785 2301.15C452.246 2301.7 449.17 2301.98 445.557 2301.98ZM443.359 2253.29C439.062 2253.29 435.628 2254.69 433.057 2257.49C430.518 2260.29 429.02 2264.17 428.564 2269.12H456.543C456.543 2264 455.404 2260.1 453.125 2257.4C450.846 2254.66 447.591 2253.29 443.359 2253.29ZM504.004 2301.98C500.521 2301.98 497.331 2301.34 494.434 2300.07C491.569 2298.77 489.16 2296.78 487.207 2294.12H486.621C487.012 2297.24 487.207 2300.2 487.207 2303V2325.02H479.102V2247.48H485.693L486.816 2254.81H487.207C489.29 2251.88 491.715 2249.76 494.482 2248.46C497.249 2247.16 500.423 2246.51 504.004 2246.51C511.1 2246.51 516.569 2248.93 520.41 2253.78C524.284 2258.63 526.221 2265.44 526.221 2274.19C526.221 2282.98 524.251 2289.82 520.312 2294.7C516.406 2299.55 510.97 2301.98 504.004 2301.98ZM502.832 2253.39C497.363 2253.39 493.408 2254.91 490.967 2257.93C488.525 2260.96 487.272 2265.78 487.207 2272.39V2274.19C487.207 2281.71 488.46 2287.1 490.967 2290.36C493.473 2293.58 497.493 2295.19 503.027 2295.19C507.65 2295.19 511.263 2293.32 513.867 2289.57C516.504 2285.83 517.822 2280.67 517.822 2274.1C517.822 2267.42 516.504 2262.31 513.867 2258.76C511.263 2255.18 507.585 2253.39 502.832 2253.39ZM548.535 2301H540.43V2225.02H548.535V2301ZM573.34 2247.48V2282.2C573.34 2286.56 574.333 2289.82 576.318 2291.97C578.304 2294.12 581.413 2295.19 585.645 2295.19C591.243 2295.19 595.329 2293.66 597.9 2290.6C600.505 2287.54 601.807 2282.54 601.807 2275.61V2247.48H609.912V2301H603.223L602.051 2293.82H601.611C599.951 2296.46 597.64 2298.48 594.678 2299.88C591.748 2301.28 588.395 2301.98 584.619 2301.98C578.109 2301.98 573.226 2300.43 569.971 2297.34C566.748 2294.25 565.137 2289.3 565.137 2282.49V2247.48H573.34ZM661.67 2286.4C661.67 2291.38 659.814 2295.22 656.104 2297.92C652.393 2300.63 647.184 2301.98 640.479 2301.98C633.382 2301.98 627.848 2300.85 623.877 2298.61V2291.09C626.449 2292.39 629.199 2293.42 632.129 2294.16C635.091 2294.91 637.939 2295.29 640.674 2295.29C644.906 2295.29 648.161 2294.62 650.439 2293.29C652.718 2291.92 653.857 2289.85 653.857 2287.08C653.857 2285 652.946 2283.23 651.123 2281.76C649.333 2280.26 645.817 2278.51 640.576 2276.49C635.596 2274.63 632.048 2273.02 629.932 2271.65C627.848 2270.25 626.286 2268.68 625.244 2266.92C624.235 2265.16 623.73 2263.06 623.73 2260.62C623.73 2256.26 625.505 2252.82 629.053 2250.32C632.601 2247.78 637.467 2246.51 643.652 2246.51C649.414 2246.51 655.046 2247.68 660.547 2250.02L657.666 2256.62C652.295 2254.4 647.428 2253.29 643.066 2253.29C639.225 2253.29 636.328 2253.9 634.375 2255.1C632.422 2256.31 631.445 2257.97 631.445 2260.08C631.445 2261.51 631.803 2262.74 632.52 2263.74C633.268 2264.75 634.456 2265.71 636.084 2266.62C637.712 2267.54 640.837 2268.85 645.459 2270.58C651.807 2272.89 656.087 2275.22 658.301 2277.56C660.547 2279.91 661.67 2282.85 661.67 2286.4ZM697.998 2270.48C697.998 2256.45 700.716 2245.97 706.152 2239.04C711.621 2232.07 719.694 2228.59 730.371 2228.59C734.049 2228.59 736.947 2228.9 739.062 2229.52V2236.5C736.556 2235.68 733.691 2235.28 730.469 2235.28C722.819 2235.28 716.976 2237.67 712.939 2242.46C708.903 2247.21 706.689 2254.69 706.299 2264.92H706.885C710.465 2259.32 716.13 2256.52 723.877 2256.52C730.29 2256.52 735.335 2258.45 739.014 2262.33C742.725 2266.2 744.58 2271.46 744.58 2278.1C744.58 2285.52 742.546 2291.36 738.477 2295.63C734.44 2299.86 728.971 2301.98 722.07 2301.98C714.681 2301.98 708.822 2299.21 704.492 2293.68C700.163 2288.11 697.998 2280.38 697.998 2270.48ZM721.973 2295.09C726.595 2295.09 730.176 2293.64 732.715 2290.75C735.286 2287.82 736.572 2283.6 736.572 2278.1C736.572 2273.38 735.384 2269.67 733.008 2266.97C730.632 2264.26 727.083 2262.91 722.363 2262.91C719.434 2262.91 716.748 2263.52 714.307 2264.72C711.865 2265.93 709.912 2267.59 708.447 2269.7C707.015 2271.82 706.299 2274.01 706.299 2276.29C706.299 2279.65 706.95 2282.77 708.252 2285.67C709.554 2288.57 711.393 2290.86 713.77 2292.55C716.178 2294.25 718.913 2295.09 721.973 2295.09ZM781.299 2301H772.998V2236.99H750.391V2229.61H803.906V2236.99H781.299V2301Z" fill="white"/>
<defs>
<filter id="filter0_d" x="317.613" y="1186.3" width="167.341" height="105.724" filterUnits="userSpaceOnUse" color-interpolation-filters="sRGB">
<feFlood flood-opacity="0" result="BackgroundImageFix"/>
<feColorMatrix in="SourceAlpha" type="matrix" values="0 0 0 0 0 0 0 0 0 0 0 0 0 0 0 0 0 0 127 0"/>
<feOffset dy="4"/>
<feGaussianBlur stdDeviation="2"/>
<feColorMatrix type="matrix" values="0 0 0 0 0 0 0 0 0 0 0 0 0 0 0 0 0 0 0.25 0"/>
<feBlend mode="normal" in2="BackgroundImageFix" result="effect1_dropShadow"/>
<feBlend mode="normal" in="SourceGraphic" in2="effect1_dropShadow" result="shape"/>
</filter>
<filter id="filter1_d" x="572.559" y="1186.3" width="167.341" height="105.724" filterUnits="userSpaceOnUse" color-interpolation-filters="sRGB">
<feFlood flood-opacity="0" result="BackgroundImageFix"/>
<feColorMatrix in="SourceAlpha" type="matrix" values="0 0 0 0 0 0 0 0 0 0 0 0 0 0 0 0 0 0 127 0"/>
<feOffset dy="4"/>
<feGaussianBlur stdDeviation="2"/>
<feColorMatrix type="matrix" values="0 0 0 0 0 0 0 0 0 0 0 0 0 0 0 0 0 0 0.25 0"/>
<feBlend mode="normal" in2="BackgroundImageFix" result="effect1_dropShadow"/>
<feBlend mode="normal" in="SourceGraphic" in2="effect1_dropShadow" result="shape"/>
</filter>
<filter id="filter2_d" x="275" y="1074.65" width="251" height="333.565" filterUnits="userSpaceOnUse" color-interpolation-filters="sRGB">
<feFlood flood-opacity="0" result="BackgroundImageFix"/>
<feColorMatrix in="SourceAlpha" type="matrix" values="0 0 0 0 0 0 0 0 0 0 0 0 0 0 0 0 0 0 127 0"/>
<feOffset dy="4"/>
<feGaussianBlur stdDeviation="2"/>
<feColorMatrix type="matrix" values="0 0 0 0 0 0 0 0 0 0 0 0 0 0 0 0 0 0 0.25 0"/>
<feBlend mode="normal" in2="BackgroundImageFix" result="effect1_dropShadow"/>
<feBlend mode="normal" in="SourceGraphic" in2="effect1_dropShadow" result="shape"/>
</filter>
<filter id="filter3_d" x="532" y="1000.3" width="251" height="331.182" filterUnits="userSpaceOnUse" color-interpolation-filters="sRGB">
<feFlood flood-opacity="0" result="BackgroundImageFix"/>
<feColorMatrix in="SourceAlpha" type="matrix" values="0 0 0 0 0 0 0 0 0 0 0 0 0 0 0 0 0 0 127 0"/>
<feOffset dy="4"/>
<feGaussianBlur stdDeviation="2"/>
<feColorMatrix type="matrix" values="0 0 0 0 0 0 0 0 0 0 0 0 0 0 0 0 0 0 0.25 0"/>
<feBlend mode="normal" in2="BackgroundImageFix" result="effect1_dropShadow"/>
<feBlend mode="normal" in="SourceGraphic" in2="effect1_dropShadow" result="shape"/>
</filter>
<filter id="filter4_d" x="317.613" y="1186.3" width="167.341" height="105.724" filterUnits="userSpaceOnUse" color-interpolation-filters="sRGB">
<feFlood flood-opacity="0" result="BackgroundImageFix"/>
<feColorMatrix in="SourceAlpha" type="matrix" values="0 0 0 0 0 0 0 0 0 0 0 0 0 0 0 0 0 0 127 0"/>
<feOffset dy="4"/>
<feGaussianBlur stdDeviation="2"/>
<feColorMatrix type="matrix" values="0 0 0 0 0 0 0 0 0 0 0 0 0 0 0 0 0 0 0.25 0"/>
<feBlend mode="normal" in2="BackgroundImageFix" result="effect1_dropShadow"/>
<feBlend mode="normal" in="SourceGraphic" in2="effect1_dropShadow" result="shape"/>
</filter>
<filter id="filter5_d" x="572.559" y="1186.3" width="167.341" height="105.724" filterUnits="userSpaceOnUse" color-interpolation-filters="sRGB">
<feFlood flood-opacity="0" result="BackgroundImageFix"/>
<feColorMatrix in="SourceAlpha" type="matrix" values="0 0 0 0 0 0 0 0 0 0 0 0 0 0 0 0 0 0 127 0"/>
<feOffset dy="4"/>
<feGaussianBlur stdDeviation="2"/>
<feColorMatrix type="matrix" values="0 0 0 0 0 0 0 0 0 0 0 0 0 0 0 0 0 0 0.25 0"/>
<feBlend mode="normal" in2="BackgroundImageFix" result="effect1_dropShadow"/>
<feBlend mode="normal" in="SourceGraphic" in2="effect1_dropShadow" result="shape"/>
</filter>
<filter id="filter6_d" x="275" y="1074.65" width="251" height="333.565" filterUnits="userSpaceOnUse" color-interpolation-filters="sRGB">
<feFlood flood-opacity="0" result="BackgroundImageFix"/>
<feColorMatrix in="SourceAlpha" type="matrix" values="0 0 0 0 0 0 0 0 0 0 0 0 0 0 0 0 0 0 127 0"/>
<feOffset dy="4"/>
<feGaussianBlur stdDeviation="2"/>
<feColorMatrix type="matrix" values="0 0 0 0 0 0 0 0 0 0 0 0 0 0 0 0 0 0 0.25 0"/>
<feBlend mode="normal" in2="BackgroundImageFix" result="effect1_dropShadow"/>
<feBlend mode="normal" in="SourceGraphic" in2="effect1_dropShadow" result="shape"/>
</filter>
<filter id="filter7_d" x="532" y="1000.3" width="251" height="331.182" filterUnits="userSpaceOnUse" color-interpolation-filters="sRGB">
<feFlood flood-opacity="0" result="BackgroundImageFix"/>
<feColorMatrix in="SourceAlpha" type="matrix" values="0 0 0 0 0 0 0 0 0 0 0 0 0 0 0 0 0 0 127 0"/>
<feOffset dy="4"/>
<feGaussianBlur stdDeviation="2"/>
<feColorMatrix type="matrix" values="0 0 0 0 0 0 0 0 0 0 0 0 0 0 0 0 0 0 0.25 0"/>
<feBlend mode="normal" in2="BackgroundImageFix" result="effect1_dropShadow"/>
<feBlend mode="normal" in="SourceGraphic" in2="effect1_dropShadow" result="shape"/>
</filter>
</defs>
</svg>
