<svg width="1080" height="2399" viewBox="0 0 1080 2399" fill="none" xmlns="http://www.w3.org/2000/svg">
<rect x="20" y="20" width="1040" height="2359" rx="72" fill="black" stroke="#393939" stroke-width="40"/>
<g filter="url(#filter0_d)">
<path fill-rule="evenodd" clip-rule="evenodd" d="M470.657 1243.15C477.521 1230.83 480.954 1216.83 480.954 1201.13C480.954 1195.44 480.514 1190 479.632 1184.8H459.306C460.389 1189.85 460.929 1195.29 460.929 1201.13C460.929 1212.66 458.356 1222.89 453.206 1231.83C448.057 1240.77 441 1247.72 432.037 1252.69C423.074 1257.65 412.87 1260.14 401.427 1260.14C389.794 1260.14 379.495 1257.85 370.531 1253.28C361.568 1248.51 354.511 1241.96 349.362 1233.61C344.213 1225.07 341.638 1215.24 341.638 1204.11C341.638 1197.21 342.619 1190.78 344.579 1184.8H323.739C322.322 1190.93 321.613 1197.37 321.613 1204.11C321.613 1219.41 325.141 1232.92 332.198 1244.64C339.063 1256.36 348.504 1265.6 360.519 1272.36C372.534 1279.11 386.17 1282.49 401.427 1282.49C416.493 1282.49 430.035 1279.01 442.049 1272.06C454.064 1264.9 463.6 1255.27 470.657 1243.15Z" fill="#FFB700"/>
</g>
<g filter="url(#filter1_d)">
<path fill-rule="evenodd" clip-rule="evenodd" d="M725.601 1243.15C732.467 1230.83 735.9 1216.83 735.9 1201.13C735.9 1195.44 735.458 1190 734.575 1184.8H714.251C715.333 1189.85 715.875 1195.29 715.875 1201.13C715.875 1212.66 713.3 1222.89 708.15 1231.83C703.002 1240.77 695.945 1247.72 686.981 1252.69C678.018 1257.65 667.815 1260.14 656.372 1260.14C644.738 1260.14 634.439 1257.85 625.476 1253.28C616.513 1248.51 609.457 1241.96 604.307 1233.61C599.157 1225.07 596.584 1215.24 596.584 1204.11C596.584 1197.21 597.563 1190.78 599.524 1184.8H578.684C577.267 1190.93 576.559 1197.37 576.559 1204.11C576.559 1219.41 580.086 1232.92 587.143 1244.64C594.008 1256.36 603.449 1265.6 615.464 1272.36C627.478 1279.11 641.114 1282.49 656.372 1282.49C671.439 1282.49 684.979 1279.01 696.994 1272.06C709.01 1264.9 718.545 1255.27 725.601 1243.15Z" fill="#FFB700"/>
</g>
<g filter="url(#filter2_d)">
<path fill-rule="evenodd" clip-rule="evenodd" d="M312.653 1398.63H279V1196C279.291 1172.78 284.682 1151.94 295.171 1133.49C305.951 1114.73 320.374 1100 338.439 1089.28C356.795 1078.56 377.336 1073.2 400.063 1073.2C423.372 1073.2 444.205 1078.71 462.561 1089.73C480.918 1100.44 495.341 1115.18 505.829 1133.93C516.61 1152.69 522 1173.98 522 1197.79C522 1221.31 516.756 1242.45 506.266 1261.2C496.069 1279.96 482.082 1294.84 464.309 1305.86C446.536 1316.57 426.432 1321.93 403.997 1321.93C384.475 1321.93 366.702 1317.76 350.676 1309.43C334.943 1300.8 322.268 1289.48 312.653 1275.49V1398.63ZM445.517 1278.62C432.113 1286.65 416.962 1290.67 400.063 1290.67C383.455 1290.67 368.45 1286.65 355.047 1278.62C341.644 1270.58 331.155 1259.56 323.579 1245.57C316.004 1231.28 312.216 1215.36 312.216 1197.79C312.216 1179.93 316.004 1164 323.579 1150.01C331.155 1136.02 341.644 1125 355.047 1116.97C368.45 1108.63 383.455 1104.46 400.063 1104.46C416.962 1104.46 432.113 1108.63 445.517 1116.97C458.919 1125 469.409 1136.02 476.984 1150.01C484.851 1164 488.784 1179.93 488.784 1197.79C488.784 1215.36 484.851 1231.28 476.984 1245.57C469.409 1259.56 458.919 1270.58 445.517 1278.62Z" fill="#09AC99"/>
</g>
<g filter="url(#filter3_d)">
<path fill-rule="evenodd" clip-rule="evenodd" d="M744.91 998.887V1119.65C735.295 1105.66 722.62 1094.49 706.886 1086.16C691.153 1077.52 673.525 1073.21 654.004 1073.21C631.568 1073.21 611.463 1078.71 593.69 1089.73C575.916 1100.45 561.786 1115.18 551.296 1133.94C541.099 1152.69 536 1173.83 536 1197.35C536 1221.16 541.244 1242.45 551.733 1261.2C562.514 1279.96 577.082 1294.84 595.438 1305.86C613.795 1316.58 634.482 1321.93 657.5 1321.93C680.227 1321.93 700.621 1316.58 718.687 1305.86C737.043 1295.14 751.466 1280.55 761.954 1262.1C772.735 1243.34 778.418 1222.35 779 1199.13V998.887H744.91ZM702.516 1278.62C689.405 1286.66 674.399 1290.68 657.5 1290.68C640.892 1290.68 625.886 1286.66 612.484 1278.62C599.081 1270.28 588.446 1259.12 580.578 1245.13C572.711 1231.14 568.778 1215.21 568.778 1197.35C568.778 1179.78 572.711 1164 580.578 1150.01C588.446 1135.72 599.081 1124.56 612.484 1116.52C625.886 1108.48 640.892 1104.46 657.5 1104.46C674.399 1104.46 689.405 1108.48 702.516 1116.52C715.919 1124.56 726.407 1135.72 733.983 1150.01C741.851 1164 745.783 1179.78 745.783 1197.35C745.783 1215.21 741.851 1231.14 733.983 1245.13C726.407 1259.12 715.919 1270.28 702.516 1278.62Z" fill="#09AC99"/>
</g>
<g filter="url(#filter4_d)">
<path fill-rule="evenodd" clip-rule="evenodd" d="M470.657 1243.15C477.521 1230.83 480.954 1216.83 480.954 1201.13C480.954 1195.44 480.514 1190 479.632 1184.8H459.306C460.389 1189.85 460.929 1195.29 460.929 1201.13C460.929 1212.66 458.356 1222.89 453.206 1231.83C448.057 1240.77 441 1247.72 432.037 1252.69C423.074 1257.65 412.87 1260.14 401.427 1260.14C389.794 1260.14 379.495 1257.85 370.531 1253.28C361.568 1248.51 354.511 1241.96 349.362 1233.61C344.213 1225.07 341.638 1215.24 341.638 1204.11C341.638 1197.21 342.619 1190.78 344.579 1184.8H323.739C322.322 1190.93 321.613 1197.37 321.613 1204.11C321.613 1219.41 325.141 1232.92 332.198 1244.64C339.063 1256.36 348.504 1265.6 360.519 1272.36C372.534 1279.11 386.17 1282.49 401.427 1282.49C416.493 1282.49 430.035 1279.01 442.049 1272.06C454.064 1264.9 463.6 1255.27 470.657 1243.15Z" fill="#FFB700"/>
</g>
<g filter="url(#filter5_d)">
<path fill-rule="evenodd" clip-rule="evenodd" d="M725.601 1243.15C732.467 1230.83 735.9 1216.83 735.9 1201.13C735.9 1195.44 735.458 1190 734.575 1184.8H714.251C715.333 1189.85 715.875 1195.29 715.875 1201.13C715.875 1212.66 713.3 1222.89 708.15 1231.83C703.002 1240.77 695.945 1247.72 686.981 1252.69C678.018 1257.65 667.815 1260.14 656.372 1260.14C644.738 1260.14 634.439 1257.85 625.476 1253.28C616.513 1248.51 609.457 1241.96 604.307 1233.61C599.157 1225.07 596.584 1215.24 596.584 1204.11C596.584 1197.21 597.563 1190.78 599.524 1184.8H578.684C577.267 1190.93 576.559 1197.37 576.559 1204.11C576.559 1219.41 580.086 1232.92 587.143 1244.64C594.008 1256.36 603.449 1265.6 615.464 1272.36C627.478 1279.11 641.114 1282.49 656.372 1282.49C671.439 1282.49 684.979 1279.01 696.994 1272.06C709.01 1264.9 718.545 1255.27 725.601 1243.15Z" fill="#FFB700"/>
</g>
<g filter="url(#filter6_d)">
<path fill-rule="evenodd" clip-rule="evenodd" d="M312.653 1398.63H279V1196C279.291 1172.78 284.682 1151.94 295.171 1133.49C305.951 1114.73 320.374 1100 338.439 1089.28C356.795 1078.56 377.336 1073.2 400.063 1073.2C423.372 1073.2 444.205 1078.71 462.561 1089.73C480.918 1100.44 495.341 1115.18 505.829 1133.93C516.61 1152.69 522 1173.98 522 1197.79C522 1221.31 516.756 1242.45 506.266 1261.2C496.069 1279.96 482.082 1294.84 464.309 1305.86C446.536 1316.57 426.432 1321.93 403.997 1321.93C384.475 1321.93 366.702 1317.76 350.676 1309.43C334.943 1300.8 322.268 1289.48 312.653 1275.49V1398.63ZM445.517 1278.62C432.113 1286.65 416.962 1290.67 400.063 1290.67C383.455 1290.67 368.45 1286.65 355.047 1278.62C341.644 1270.58 331.155 1259.56 323.579 1245.57C316.004 1231.28 312.216 1215.36 312.216 1197.79C312.216 1179.93 316.004 1164 323.579 1150.01C331.155 1136.02 341.644 1125 355.047 1116.97C368.45 1108.63 383.455 1104.46 400.063 1104.46C416.962 1104.46 432.113 1108.63 445.517 1116.97C458.919 1125 469.409 1136.02 476.984 1150.01C484.851 1164 488.784 1179.93 488.784 1197.79C488.784 1215.36 484.851 1231.28 476.984 1245.57C469.409 1259.56 458.919 1270.58 445.517 1278.62Z" fill="#09AC99"/>
</g>
<g filter="url(#filter7_d)">
<path fill-rule="evenodd" clip-rule="evenodd" d="M744.91 998.887V1119.65C735.295 1105.66 722.62 1094.49 706.886 1086.16C691.153 1077.52 673.525 1073.21 654.004 1073.21C631.568 1073.21 611.463 1078.71 593.69 1089.73C575.916 1100.45 561.786 1115.18 551.296 1133.94C541.099 1152.69 536 1173.83 536 1197.35C536 1221.16 541.244 1242.45 551.733 1261.2C562.514 1279.96 577.082 1294.84 595.438 1305.86C613.795 1316.58 634.482 1321.93 657.5 1321.93C680.227 1321.93 700.621 1316.58 718.687 1305.86C737.043 1295.14 751.466 1280.55 761.954 1262.1C772.735 1243.34 778.418 1222.35 779 1199.13V998.887H744.91ZM702.516 1278.62C689.405 1286.66 674.399 1290.68 657.5 1290.68C640.892 1290.68 625.886 1286.66 612.484 1278.62C599.081 1270.28 588.446 1259.12 580.578 1245.13C572.711 1231.14 568.778 1215.21 568.778 1197.35C568.778 1179.78 572.711 1164 580.578 1150.01C588.446 1135.72 599.081 1124.56 612.484 1116.52C625.886 1108.48 640.892 1104.46 657.5 1104.46C674.399 1104.46 689.405 1108.48 702.516 1116.52C715.919 1124.56 726.407 1135.72 733.983 1150.01C741.851 1164 745.783 1179.78 745.783 1197.35C745.783 1215.21 741.851 1231.14 733.983 1245.13C726.407 1259.12 715.919 1270.28 702.516 1278.62Z" fill="#09AC99"/>
</g>
<path d="M480.651 6.76565C486.759 3.65315 493.628 2.34655 500.453 2.99902L543.142 7.08033C546.231 7.37564 549.34 7.38278 552.43 7.10167L586.476 4.00455C596.258 3.11468 605.989 6.17964 613.495 12.5148L639.632 34.5739C641.464 36.1204 641.629 38.8859 639.993 40.639L636.986 43.8615L631.402 49.9842L619.805 62.5519L600.495 80.5978L580.13 99.9022C561.274 117.775 531.872 118.23 512.473 100.948L491.8 82.5313L469.463 61.2629L457.436 49.0175L451.422 43.217L445.384 37.6007C441.224 33.3366 442.389 26.2616 447.697 23.5569L480.651 6.76565Z" fill="#393939"/>
<path d="M490.132 2179.01L513.374 2237.02L536.616 2179.01H548.774V2250.1H539.399V2222.42L540.278 2192.53L516.938 2250.1H509.761L486.47 2192.68L487.397 2222.42V2250.1H478.022V2179.01H490.132ZM576.118 2210.16H582.905C587.17 2210.1 590.522 2208.97 592.964 2206.79C595.405 2204.61 596.626 2201.66 596.626 2197.95C596.626 2189.62 592.476 2185.45 584.175 2185.45C580.269 2185.45 577.144 2186.58 574.8 2188.82C572.489 2191.04 571.333 2193.98 571.333 2197.66H562.3C562.3 2192.03 564.351 2187.36 568.452 2183.65C572.586 2179.9 577.827 2178.03 584.175 2178.03C590.881 2178.03 596.138 2179.81 599.946 2183.35C603.755 2186.9 605.659 2191.83 605.659 2198.15C605.659 2201.24 604.65 2204.24 602.632 2207.13C600.646 2210.03 597.928 2212.19 594.478 2213.63C598.384 2214.86 601.395 2216.91 603.511 2219.78C605.659 2222.64 606.733 2226.14 606.733 2230.28C606.733 2236.66 604.65 2241.72 600.483 2245.46C596.317 2249.21 590.897 2251.08 584.224 2251.08C577.55 2251.08 572.114 2249.27 567.915 2245.66C563.748 2242.04 561.665 2237.28 561.665 2231.35H570.747C570.747 2235.1 571.968 2238.09 574.409 2240.34C576.851 2242.58 580.122 2243.71 584.224 2243.71C588.586 2243.71 591.922 2242.57 594.233 2240.29C596.545 2238.01 597.7 2234.74 597.7 2230.47C597.7 2226.34 596.431 2223.16 593.892 2220.95C591.353 2218.74 587.69 2217.6 582.905 2217.53H576.118V2210.16Z" fill="white"/>
<path d="M472.737 2101.8C472.737 2110.14 470.625 2116.55 466.399 2121.03C462.21 2125.47 456.141 2127.69 448.191 2127.69H444.539V2156.15H429.93V2077.63H449.856C465.11 2077.63 472.737 2085.68 472.737 2101.8ZM444.539 2115.01H447.332C450.913 2115.01 453.58 2114.03 455.335 2112.06C457.09 2110.09 457.967 2106.86 457.967 2102.39C457.967 2098.27 457.161 2095.23 455.55 2093.26C453.938 2091.25 451.45 2090.25 448.084 2090.25H444.539V2115.01ZM536.707 2116.78C536.707 2129.78 534.272 2139.77 529.402 2146.75C524.533 2153.74 517.568 2157.23 508.509 2157.23C499.414 2157.23 492.431 2153.75 487.562 2146.81C482.692 2139.82 480.257 2129.78 480.257 2116.67C480.257 2103.68 482.692 2093.72 487.562 2086.81C492.431 2079.86 499.45 2076.39 508.616 2076.39C517.675 2076.39 524.622 2079.88 529.456 2086.87C534.29 2093.81 536.707 2103.78 536.707 2116.78ZM495.188 2116.78C495.188 2125.73 496.316 2132.56 498.572 2137.25C500.828 2141.94 504.14 2144.28 508.509 2144.28C517.317 2144.28 521.722 2135.12 521.722 2116.78C521.722 2098.45 517.353 2089.28 508.616 2089.28C504.176 2089.28 500.828 2091.63 498.572 2096.32C496.316 2100.97 495.188 2107.79 495.188 2116.78ZM574.251 2089.28C570.062 2089.28 566.749 2091.74 564.314 2096.64C561.915 2101.55 560.716 2108.37 560.716 2117.1C560.716 2135.29 565.46 2144.39 574.949 2144.39C579.103 2144.39 583.453 2143.06 588.001 2140.42V2153.41C584.17 2155.96 579.264 2157.23 573.284 2157.23C564.44 2157.23 557.636 2153.72 552.874 2146.7C548.147 2139.65 545.784 2129.74 545.784 2117C545.784 2104.25 548.219 2094.31 553.089 2087.19C557.994 2080.06 564.798 2076.5 573.499 2076.5C576.364 2076.5 579.103 2076.89 581.717 2077.68C584.367 2078.47 587.195 2079.85 590.203 2081.82L585.369 2093.69C583.758 2092.58 582.039 2091.57 580.213 2090.68C578.387 2089.75 576.399 2089.28 574.251 2089.28ZM651.434 2116.78C651.434 2129.78 648.999 2139.77 644.129 2146.75C639.259 2153.74 632.295 2157.23 623.235 2157.23C614.14 2157.23 607.158 2153.75 602.288 2146.81C597.418 2139.82 594.983 2129.78 594.983 2116.67C594.983 2103.68 597.418 2093.72 602.288 2086.81C607.158 2079.86 614.176 2076.39 623.343 2076.39C632.402 2076.39 639.349 2079.88 644.183 2086.87C649.017 2093.81 651.434 2103.78 651.434 2116.78ZM609.915 2116.78C609.915 2125.73 611.043 2132.56 613.299 2137.25C615.555 2141.94 618.867 2144.28 623.235 2144.28C632.044 2144.28 636.448 2135.12 636.448 2116.78C636.448 2098.45 632.08 2089.28 623.343 2089.28C618.903 2089.28 615.555 2091.63 613.299 2096.32C611.043 2100.97 609.915 2107.79 609.915 2116.78Z" fill="white"/>
<defs>
<filter id="filter0_d" x="317.613" y="1184.8" width="167.341" height="105.683" filterUnits="userSpaceOnUse" color-interpolation-filters="sRGB">
<feFlood flood-opacity="0" result="BackgroundImageFix"/>
<feColorMatrix in="SourceAlpha" type="matrix" values="0 0 0 0 0 0 0 0 0 0 0 0 0 0 0 0 0 0 127 0"/>
<feOffset dy="4"/>
<feGaussianBlur stdDeviation="2"/>
<feColorMatrix type="matrix" values="0 0 0 0 0 0 0 0 0 0 0 0 0 0 0 0 0 0 0.25 0"/>
<feBlend mode="normal" in2="BackgroundImageFix" result="effect1_dropShadow"/>
<feBlend mode="normal" in="SourceGraphic" in2="effect1_dropShadow" result="shape"/>
</filter>
<filter id="filter1_d" x="572.559" y="1184.8" width="167.341" height="105.683" filterUnits="userSpaceOnUse" color-interpolation-filters="sRGB">
<feFlood flood-opacity="0" result="BackgroundImageFix"/>
<feColorMatrix in="SourceAlpha" type="matrix" values="0 0 0 0 0 0 0 0 0 0 0 0 0 0 0 0 0 0 127 0"/>
<feOffset dy="4"/>
<feGaussianBlur stdDeviation="2"/>
<feColorMatrix type="matrix" values="0 0 0 0 0 0 0 0 0 0 0 0 0 0 0 0 0 0 0.25 0"/>
<feBlend mode="normal" in2="BackgroundImageFix" result="effect1_dropShadow"/>
<feBlend mode="normal" in="SourceGraphic" in2="effect1_dropShadow" result="shape"/>
</filter>
<filter id="filter2_d" x="275" y="1073.2" width="251" height="333.429" filterUnits="userSpaceOnUse" color-interpolation-filters="sRGB">
<feFlood flood-opacity="0" result="BackgroundImageFix"/>
<feColorMatrix in="SourceAlpha" type="matrix" values="0 0 0 0 0 0 0 0 0 0 0 0 0 0 0 0 0 0 127 0"/>
<feOffset dy="4"/>
<feGaussianBlur stdDeviation="2"/>
<feColorMatrix type="matrix" values="0 0 0 0 0 0 0 0 0 0 0 0 0 0 0 0 0 0 0.25 0"/>
<feBlend mode="normal" in2="BackgroundImageFix" result="effect1_dropShadow"/>
<feBlend mode="normal" in="SourceGraphic" in2="effect1_dropShadow" result="shape"/>
</filter>
<filter id="filter3_d" x="532" y="998.887" width="251" height="331.047" filterUnits="userSpaceOnUse" color-interpolation-filters="sRGB">
<feFlood flood-opacity="0" result="BackgroundImageFix"/>
<feColorMatrix in="SourceAlpha" type="matrix" values="0 0 0 0 0 0 0 0 0 0 0 0 0 0 0 0 0 0 127 0"/>
<feOffset dy="4"/>
<feGaussianBlur stdDeviation="2"/>
<feColorMatrix type="matrix" values="0 0 0 0 0 0 0 0 0 0 0 0 0 0 0 0 0 0 0.25 0"/>
<feBlend mode="normal" in2="BackgroundImageFix" result="effect1_dropShadow"/>
<feBlend mode="normal" in="SourceGraphic" in2="effect1_dropShadow" result="shape"/>
</filter>
<filter id="filter4_d" x="317.613" y="1184.8" width="167.341" height="105.683" filterUnits="userSpaceOnUse" color-interpolation-filters="sRGB">
<feFlood flood-opacity="0" result="BackgroundImageFix"/>
<feColorMatrix in="SourceAlpha" type="matrix" values="0 0 0 0 0 0 0 0 0 0 0 0 0 0 0 0 0 0 127 0"/>
<feOffset dy="4"/>
<feGaussianBlur stdDeviation="2"/>
<feColorMatrix type="matrix" values="0 0 0 0 0 0 0 0 0 0 0 0 0 0 0 0 0 0 0.25 0"/>
<feBlend mode="normal" in2="BackgroundImageFix" result="effect1_dropShadow"/>
<feBlend mode="normal" in="SourceGraphic" in2="effect1_dropShadow" result="shape"/>
</filter>
<filter id="filter5_d" x="572.559" y="1184.8" width="167.341" height="105.683" filterUnits="userSpaceOnUse" color-interpolation-filters="sRGB">
<feFlood flood-opacity="0" result="BackgroundImageFix"/>
<feColorMatrix in="SourceAlpha" type="matrix" values="0 0 0 0 0 0 0 0 0 0 0 0 0 0 0 0 0 0 127 0"/>
<feOffset dy="4"/>
<feGaussianBlur stdDeviation="2"/>
<feColorMatrix type="matrix" values="0 0 0 0 0 0 0 0 0 0 0 0 0 0 0 0 0 0 0.25 0"/>
<feBlend mode="normal" in2="BackgroundImageFix" result="effect1_dropShadow"/>
<feBlend mode="normal" in="SourceGraphic" in2="effect1_dropShadow" result="shape"/>
</filter>
<filter id="filter6_d" x="275" y="1073.2" width="251" height="333.429" filterUnits="userSpaceOnUse" color-interpolation-filters="sRGB">
<feFlood flood-opacity="0" result="BackgroundImageFix"/>
<feColorMatrix in="SourceAlpha" type="matrix" values="0 0 0 0 0 0 0 0 0 0 0 0 0 0 0 0 0 0 127 0"/>
<feOffset dy="4"/>
<feGaussianBlur stdDeviation="2"/>
<feColorMatrix type="matrix" values="0 0 0 0 0 0 0 0 0 0 0 0 0 0 0 0 0 0 0.25 0"/>
<feBlend mode="normal" in2="BackgroundImageFix" result="effect1_dropShadow"/>
<feBlend mode="normal" in="SourceGraphic" in2="effect1_dropShadow" result="shape"/>
</filter>
<filter id="filter7_d" x="532" y="998.887" width="251" height="331.047" filterUnits="userSpaceOnUse" color-interpolation-filters="sRGB">
<feFlood flood-opacity="0" result="BackgroundImageFix"/>
<feColorMatrix in="SourceAlpha" type="matrix" values="0 0 0 0 0 0 0 0 0 0 0 0 0 0 0 0 0 0 127 0"/>
<feOffset dy="4"/>
<feGaussianBlur stdDeviation="2"/>
<feColorMatrix type="matrix" values="0 0 0 0 0 0 0 0 0 0 0 0 0 0 0 0 0 0 0.25 0"/>
<feBlend mode="normal" in2="BackgroundImageFix" result="effect1_dropShadow"/>
<feBlend mode="normal" in="SourceGraphic" in2="effect1_dropShadow" result="shape"/>
</filter>
</defs>
</svg>
