<svg width="1080" height="2400" viewBox="0 0 1080 2400" fill="none" xmlns="http://www.w3.org/2000/svg">
<rect x="15" y="15" width="1050" height="2370" rx="77" fill="black" stroke="#393939" stroke-width="30"/>
<ellipse cx="114.5" cy="106.5" rx="37.5" ry="37.5" fill="#393939"/>
<path d="M129 106.5C129 114.508 122.508 121 114.5 121C106.492 121 100 114.508 100 106.5C100 98.4919 106.492 92 114.5 92C122.508 92 129 98.4919 129 106.5Z" fill="#393939" stroke="url(#paint0_linear)" stroke-width="16"/>
<circle cx="114.5" cy="106.5" r="2.5" fill="#393939"/>
<circle cx="114.5" cy="106.5" r="2.5" stroke="url(#paint1_linear)" stroke-width="2"/>
<circle cx="114.5" cy="106.5" r="2.5" stroke="url(#paint2_linear)" stroke-width="2"/>
<g filter="url(#filter0_d)">
<path fill-rule="evenodd" clip-rule="evenodd" d="M519.653 1244.42C526.517 1232.09 529.95 1218.08 529.95 1202.37C529.95 1196.68 529.509 1191.23 528.628 1186.04H508.302C509.385 1191.09 509.925 1196.53 509.925 1202.37C509.925 1213.9 507.351 1224.14 502.202 1233.09C497.052 1242.03 489.995 1248.99 481.033 1253.96C472.07 1258.93 461.866 1261.41 450.423 1261.41C438.79 1261.41 428.49 1259.13 419.527 1254.56C410.564 1249.79 403.507 1243.23 398.358 1234.88C393.209 1226.33 390.634 1216.49 390.634 1205.35C390.634 1198.45 391.614 1192.01 393.575 1186.04H372.735C371.317 1192.17 370.609 1198.61 370.609 1205.35C370.609 1220.66 374.137 1234.18 381.194 1245.91C388.059 1257.64 397.5 1266.88 409.515 1273.64C421.53 1280.4 435.166 1283.78 450.423 1283.78C465.489 1283.78 479.03 1280.3 491.045 1273.34C503.06 1266.19 512.596 1256.54 519.653 1244.42Z" fill="#FFB700"/>
</g>
<g filter="url(#filter1_d)">
<path fill-rule="evenodd" clip-rule="evenodd" d="M774.605 1244.42C781.471 1232.09 784.904 1218.08 784.904 1202.37C784.904 1196.68 784.462 1191.23 783.579 1186.04H763.255C764.337 1191.09 764.878 1196.53 764.878 1202.37C764.878 1213.9 762.304 1224.14 757.154 1233.09C752.006 1242.03 744.949 1248.99 735.985 1253.96C727.022 1258.93 716.819 1261.41 705.376 1261.41C693.742 1261.41 683.443 1259.13 674.48 1254.56C665.517 1249.79 658.46 1243.23 653.311 1234.88C648.161 1226.33 645.588 1216.49 645.588 1205.35C645.588 1198.45 646.567 1192.01 648.528 1186.04H627.688C626.271 1192.17 625.562 1198.61 625.562 1205.35C625.562 1220.66 629.09 1234.18 636.147 1245.91C643.012 1257.64 652.453 1266.88 664.468 1273.64C676.482 1280.4 690.118 1283.78 705.376 1283.78C720.443 1283.78 733.983 1280.3 745.998 1273.34C758.014 1266.19 767.549 1256.54 774.605 1244.42Z" fill="#FFB700"/>
</g>
<g filter="url(#filter2_d)">
<path fill-rule="evenodd" clip-rule="evenodd" d="M361.653 1400H328V1197.25C328.291 1174.01 333.682 1153.16 344.171 1134.69C354.951 1115.92 369.374 1101.18 387.439 1090.45C405.795 1079.73 426.336 1074.37 449.063 1074.37C472.372 1074.37 493.205 1079.88 511.561 1090.9C529.918 1101.62 544.341 1116.37 554.829 1135.14C565.61 1153.9 571 1175.2 571 1199.03C571 1222.57 565.756 1243.72 555.266 1262.48C545.069 1281.25 531.082 1296.14 513.309 1307.17C495.536 1317.89 475.432 1323.25 452.997 1323.25C433.475 1323.25 415.702 1319.08 399.676 1310.74C383.943 1302.1 371.268 1290.78 361.653 1276.78V1400ZM494.517 1279.91C481.113 1287.95 465.962 1291.97 449.063 1291.97C432.455 1291.97 417.45 1287.95 404.047 1279.91C390.644 1271.87 380.155 1260.85 372.579 1246.84C365.004 1232.55 361.216 1216.61 361.216 1199.03C361.216 1181.16 365.004 1165.22 372.579 1151.22C380.155 1137.22 390.644 1126.2 404.047 1118.16C417.45 1109.82 432.455 1105.65 449.063 1105.65C465.962 1105.65 481.113 1109.82 494.517 1118.16C507.919 1126.2 518.409 1137.22 525.984 1151.22C533.851 1165.22 537.784 1181.16 537.784 1199.03C537.784 1216.61 533.851 1232.55 525.984 1246.84C518.409 1260.85 507.919 1271.87 494.517 1279.91Z" fill="#09AC99"/>
</g>
<g filter="url(#filter3_d)">
<path fill-rule="evenodd" clip-rule="evenodd" d="M793.91 1000V1120.84C784.295 1106.84 771.62 1095.66 755.886 1087.32C740.153 1078.69 722.525 1074.37 703.004 1074.37C680.568 1074.37 660.463 1079.88 642.69 1090.9C624.916 1101.62 610.786 1116.37 600.296 1135.14C590.099 1153.9 585 1175.05 585 1198.59C585 1222.42 590.244 1243.72 600.733 1262.48C611.514 1281.25 626.082 1296.14 644.438 1307.17C662.795 1317.89 683.482 1323.25 706.5 1323.25C729.227 1323.25 749.621 1317.89 767.687 1307.17C786.043 1296.44 800.466 1281.84 810.954 1263.38C821.735 1244.61 827.418 1223.61 828 1200.37V1000H793.91ZM751.516 1279.91C738.405 1287.95 723.399 1291.97 706.5 1291.97C689.892 1291.97 674.886 1287.95 661.484 1279.91C648.081 1271.57 637.446 1260.4 629.578 1246.4C621.711 1232.4 617.778 1216.46 617.778 1198.59C617.778 1181.01 621.711 1165.22 629.578 1151.22C637.446 1136.92 648.081 1125.75 661.484 1117.71C674.886 1109.67 689.892 1105.64 706.5 1105.64C723.399 1105.64 738.405 1109.67 751.516 1117.71C764.919 1125.75 775.407 1136.92 782.983 1151.22C790.851 1165.22 794.783 1181.01 794.783 1198.59C794.783 1216.46 790.851 1232.4 782.983 1246.4C775.407 1260.4 764.919 1271.57 751.516 1279.91Z" fill="#09AC99"/>
</g>
<g filter="url(#filter4_d)">
<path fill-rule="evenodd" clip-rule="evenodd" d="M519.653 1244.42C526.517 1232.09 529.95 1218.08 529.95 1202.37C529.95 1196.68 529.509 1191.23 528.628 1186.04H508.302C509.385 1191.09 509.925 1196.53 509.925 1202.37C509.925 1213.9 507.351 1224.14 502.202 1233.09C497.052 1242.03 489.995 1248.99 481.033 1253.96C472.07 1258.93 461.866 1261.41 450.423 1261.41C438.79 1261.41 428.49 1259.13 419.527 1254.56C410.564 1249.79 403.507 1243.23 398.358 1234.88C393.209 1226.33 390.634 1216.49 390.634 1205.35C390.634 1198.45 391.614 1192.01 393.575 1186.04H372.735C371.317 1192.17 370.609 1198.61 370.609 1205.35C370.609 1220.66 374.137 1234.18 381.194 1245.91C388.059 1257.64 397.5 1266.88 409.515 1273.64C421.53 1280.4 435.166 1283.78 450.423 1283.78C465.489 1283.78 479.03 1280.3 491.045 1273.34C503.06 1266.19 512.596 1256.54 519.653 1244.42Z" fill="#FFB700"/>
</g>
<g filter="url(#filter5_d)">
<path fill-rule="evenodd" clip-rule="evenodd" d="M774.605 1244.42C781.471 1232.09 784.904 1218.08 784.904 1202.37C784.904 1196.68 784.462 1191.23 783.579 1186.04H763.255C764.337 1191.09 764.878 1196.53 764.878 1202.37C764.878 1213.9 762.304 1224.14 757.154 1233.09C752.006 1242.03 744.949 1248.99 735.985 1253.96C727.022 1258.93 716.819 1261.41 705.376 1261.41C693.742 1261.41 683.443 1259.13 674.48 1254.56C665.517 1249.79 658.46 1243.23 653.311 1234.88C648.161 1226.33 645.588 1216.49 645.588 1205.35C645.588 1198.45 646.567 1192.01 648.528 1186.04H627.688C626.271 1192.17 625.562 1198.61 625.562 1205.35C625.562 1220.66 629.09 1234.18 636.147 1245.91C643.012 1257.64 652.453 1266.88 664.468 1273.64C676.482 1280.4 690.118 1283.78 705.376 1283.78C720.443 1283.78 733.983 1280.3 745.998 1273.34C758.014 1266.19 767.549 1256.54 774.605 1244.42Z" fill="#FFB700"/>
</g>
<g filter="url(#filter6_d)">
<path fill-rule="evenodd" clip-rule="evenodd" d="M361.653 1400H328V1197.25C328.291 1174.01 333.682 1153.16 344.171 1134.69C354.951 1115.92 369.374 1101.18 387.439 1090.45C405.795 1079.73 426.336 1074.37 449.063 1074.37C472.372 1074.37 493.205 1079.88 511.561 1090.9C529.918 1101.62 544.341 1116.37 554.829 1135.14C565.61 1153.9 571 1175.2 571 1199.03C571 1222.57 565.756 1243.72 555.266 1262.48C545.069 1281.25 531.082 1296.14 513.309 1307.17C495.536 1317.89 475.432 1323.25 452.997 1323.25C433.475 1323.25 415.702 1319.08 399.676 1310.74C383.943 1302.1 371.268 1290.78 361.653 1276.78V1400ZM494.517 1279.91C481.113 1287.95 465.962 1291.97 449.063 1291.97C432.455 1291.97 417.45 1287.95 404.047 1279.91C390.644 1271.87 380.155 1260.85 372.579 1246.84C365.004 1232.55 361.216 1216.61 361.216 1199.03C361.216 1181.16 365.004 1165.22 372.579 1151.22C380.155 1137.22 390.644 1126.2 404.047 1118.16C417.45 1109.82 432.455 1105.65 449.063 1105.65C465.962 1105.65 481.113 1109.82 494.517 1118.16C507.919 1126.2 518.409 1137.22 525.984 1151.22C533.851 1165.22 537.784 1181.16 537.784 1199.03C537.784 1216.61 533.851 1232.55 525.984 1246.84C518.409 1260.85 507.919 1271.87 494.517 1279.91Z" fill="#09AC99"/>
</g>
<g filter="url(#filter7_d)">
<path fill-rule="evenodd" clip-rule="evenodd" d="M793.91 1000V1120.84C784.295 1106.84 771.62 1095.66 755.886 1087.32C740.153 1078.69 722.525 1074.37 703.004 1074.37C680.568 1074.37 660.463 1079.88 642.69 1090.9C624.916 1101.62 610.786 1116.37 600.296 1135.14C590.099 1153.9 585 1175.05 585 1198.59C585 1222.42 590.244 1243.72 600.733 1262.48C611.514 1281.25 626.082 1296.14 644.438 1307.17C662.795 1317.89 683.482 1323.25 706.5 1323.25C729.227 1323.25 749.621 1317.89 767.687 1307.17C786.043 1296.44 800.466 1281.84 810.954 1263.38C821.735 1244.61 827.418 1223.61 828 1200.37V1000H793.91ZM751.516 1279.91C738.405 1287.95 723.399 1291.97 706.5 1291.97C689.892 1291.97 674.886 1287.95 661.484 1279.91C648.081 1271.57 637.446 1260.4 629.578 1246.4C621.711 1232.4 617.778 1216.46 617.778 1198.59C617.778 1181.01 621.711 1165.22 629.578 1151.22C637.446 1136.92 648.081 1125.75 661.484 1117.71C674.886 1109.67 689.892 1105.64 706.5 1105.64C723.399 1105.64 738.405 1109.67 751.516 1117.71C764.919 1125.75 775.407 1136.92 782.983 1151.22C790.851 1165.22 794.783 1181.01 794.783 1198.59C794.783 1216.46 790.851 1232.4 782.983 1246.4C775.407 1260.4 764.919 1271.57 751.516 1279.91Z" fill="#09AC99"/>
</g>
<path d="M357.336 2251.21C357.336 2262.63 354.439 2271.62 348.645 2278.16C342.883 2284.71 334.859 2287.98 324.573 2287.98C314.058 2287.98 305.936 2284.77 300.207 2278.36C294.511 2271.91 291.662 2262.83 291.662 2251.11C291.662 2239.49 294.527 2230.49 300.256 2224.11C305.985 2217.7 314.123 2214.49 324.67 2214.49C334.924 2214.49 342.932 2217.75 348.694 2224.26C354.455 2230.77 357.336 2239.75 357.336 2251.21ZM300.451 2251.21C300.451 2260.88 302.502 2268.22 306.604 2273.23C310.738 2278.21 316.727 2280.7 324.573 2280.7C332.483 2280.7 338.456 2278.21 342.492 2273.23C346.529 2268.25 348.547 2260.91 348.547 2251.21C348.547 2241.61 346.529 2234.33 342.492 2229.38C338.489 2224.4 332.548 2221.91 324.67 2221.91C316.76 2221.91 310.738 2224.42 306.604 2229.43C302.502 2234.41 300.451 2241.67 300.451 2251.21ZM408.703 2287V2252.38C408.703 2248.02 407.711 2244.76 405.725 2242.62C403.739 2240.47 400.63 2239.39 396.399 2239.39C390.8 2239.39 386.698 2240.91 384.094 2243.93C381.49 2246.96 380.188 2251.96 380.188 2258.92V2287H372.082V2233.48H378.674L379.992 2240.81H380.383C382.043 2238.17 384.371 2236.14 387.365 2234.71C390.36 2233.24 393.697 2232.51 397.375 2232.51C403.821 2232.51 408.671 2234.07 411.926 2237.2C415.181 2240.29 416.809 2245.25 416.809 2252.09V2287H408.703ZM456.115 2287.98C448.205 2287.98 441.955 2285.57 437.365 2280.75C432.808 2275.93 430.53 2269.24 430.53 2260.68C430.53 2252.06 432.645 2245.2 436.877 2240.12C441.142 2235.05 446.854 2232.51 454.016 2232.51C460.722 2232.51 466.028 2234.72 469.934 2239.15C473.84 2243.54 475.793 2249.35 475.793 2256.58V2261.71H438.928C439.091 2267.99 440.67 2272.76 443.664 2276.01C446.692 2279.27 450.94 2280.9 456.408 2280.9C462.17 2280.9 467.867 2279.69 473.498 2277.28V2284.51C470.634 2285.75 467.916 2286.63 465.344 2287.15C462.805 2287.7 459.729 2287.98 456.115 2287.98ZM453.918 2239.29C449.621 2239.29 446.187 2240.69 443.615 2243.49C441.076 2246.29 439.579 2250.17 439.123 2255.12H467.102C467.102 2250 465.962 2246.1 463.684 2243.4C461.405 2240.66 458.15 2239.29 453.918 2239.29ZM514.563 2287.98C511.08 2287.98 507.89 2287.34 504.992 2286.07C502.128 2284.77 499.719 2282.78 497.766 2280.12H497.18C497.571 2283.24 497.766 2286.2 497.766 2289V2311.02H489.66V2233.48H496.252L497.375 2240.81H497.766C499.849 2237.88 502.274 2235.76 505.041 2234.46C507.808 2233.16 510.982 2232.51 514.563 2232.51C521.659 2232.51 527.128 2234.93 530.969 2239.78C534.843 2244.63 536.78 2251.44 536.78 2260.19C536.78 2268.98 534.81 2275.82 530.871 2280.7C526.965 2285.55 521.529 2287.98 514.563 2287.98ZM513.391 2239.39C507.922 2239.39 503.967 2240.91 501.526 2243.93C499.084 2246.96 497.831 2251.78 497.766 2258.39V2260.19C497.766 2267.71 499.019 2273.1 501.526 2276.36C504.032 2279.58 508.052 2281.19 513.586 2281.19C518.209 2281.19 521.822 2279.32 524.426 2275.57C527.063 2271.83 528.381 2266.67 528.381 2260.1C528.381 2253.42 527.063 2248.31 524.426 2244.76C521.822 2241.18 518.143 2239.39 513.391 2239.39ZM559.094 2287H550.989V2211.02H559.094V2287ZM583.899 2233.48V2268.2C583.899 2272.56 584.892 2275.82 586.877 2277.97C588.863 2280.12 591.972 2281.19 596.203 2281.19C601.802 2281.19 605.888 2279.66 608.459 2276.6C611.063 2273.54 612.365 2268.54 612.365 2261.61V2233.48H620.471V2287H613.781L612.61 2279.82H612.17C610.51 2282.46 608.199 2284.48 605.237 2285.88C602.307 2287.28 598.954 2287.98 595.178 2287.98C588.668 2287.98 583.785 2286.43 580.53 2283.34C577.307 2280.25 575.696 2275.3 575.696 2268.49V2233.48H583.899ZM672.229 2272.4C672.229 2277.38 670.373 2281.22 666.662 2283.92C662.951 2286.63 657.743 2287.98 651.037 2287.98C643.941 2287.98 638.407 2286.85 634.436 2284.61V2277.09C637.007 2278.39 639.758 2279.42 642.688 2280.16C645.65 2280.91 648.498 2281.29 651.233 2281.29C655.464 2281.29 658.72 2280.62 660.998 2279.29C663.277 2277.92 664.416 2275.85 664.416 2273.08C664.416 2271 663.505 2269.23 661.682 2267.76C659.892 2266.26 656.376 2264.51 651.135 2262.49C646.155 2260.63 642.606 2259.02 640.49 2257.65C638.407 2256.25 636.845 2254.68 635.803 2252.92C634.794 2251.16 634.289 2249.06 634.289 2246.62C634.289 2242.26 636.063 2238.82 639.612 2236.32C643.16 2233.78 648.026 2232.51 654.211 2232.51C659.973 2232.51 665.604 2233.68 671.106 2236.02L668.225 2242.62C662.854 2240.4 657.987 2239.29 653.625 2239.29C649.784 2239.29 646.887 2239.9 644.934 2241.1C642.981 2242.31 642.004 2243.97 642.004 2246.08C642.004 2247.51 642.362 2248.74 643.078 2249.74C643.827 2250.75 645.015 2251.71 646.643 2252.62C648.27 2253.54 651.395 2254.85 656.018 2256.58C662.365 2258.89 666.646 2261.22 668.86 2263.56C671.106 2265.91 672.229 2268.85 672.229 2272.4ZM731.36 2214.59C737.87 2214.59 743.03 2216.1 746.838 2219.13C750.647 2222.16 752.551 2226.34 752.551 2231.68C752.551 2235.19 751.461 2238.4 749.28 2241.3C747.099 2244.19 743.615 2246.83 738.83 2249.21C744.625 2251.97 748.742 2254.89 751.184 2257.95C753.625 2260.97 754.846 2264.49 754.846 2268.49C754.846 2274.42 752.779 2279.15 748.645 2282.7C744.511 2286.22 738.847 2287.98 731.653 2287.98C724.035 2287.98 718.176 2286.32 714.074 2283C709.973 2279.64 707.922 2274.91 707.922 2268.79C707.922 2260.62 712.903 2254.25 722.864 2249.7C718.371 2247.16 715.149 2244.42 713.196 2241.49C711.242 2238.53 710.266 2235.23 710.266 2231.58C710.266 2226.4 712.17 2222.29 715.979 2219.23C719.82 2216.13 724.947 2214.59 731.36 2214.59ZM715.93 2268.98C715.93 2272.89 717.281 2275.93 719.983 2278.11C722.717 2280.29 726.542 2281.38 731.457 2281.38C736.308 2281.38 740.084 2280.25 742.785 2277.97C745.487 2275.69 746.838 2272.56 746.838 2268.59C746.838 2265.43 745.569 2262.63 743.03 2260.19C740.49 2257.72 736.063 2255.33 729.748 2253.02C724.898 2255.1 721.382 2257.41 719.201 2259.95C717.02 2262.46 715.93 2265.47 715.93 2268.98ZM731.262 2221.18C727.193 2221.18 724.003 2222.16 721.692 2224.11C719.38 2226.06 718.225 2228.67 718.225 2231.92C718.225 2234.92 719.185 2237.49 721.106 2239.64C723.026 2241.79 726.574 2243.93 731.75 2246.08C736.405 2244.13 739.693 2242.03 741.614 2239.78C743.567 2237.54 744.543 2234.92 744.543 2231.92C744.543 2228.63 743.355 2226.03 740.979 2224.11C738.635 2222.16 735.396 2221.18 731.262 2221.18ZM791.858 2287H783.557V2222.99H760.949V2215.61H814.465V2222.99H791.858V2287Z" fill="white"/>
<defs>
<filter id="filter0_d" x="366.609" y="1186.04" width="167.341" height="105.745" filterUnits="userSpaceOnUse" color-interpolation-filters="sRGB">
<feFlood flood-opacity="0" result="BackgroundImageFix"/>
<feColorMatrix in="SourceAlpha" type="matrix" values="0 0 0 0 0 0 0 0 0 0 0 0 0 0 0 0 0 0 127 0"/>
<feOffset dy="4"/>
<feGaussianBlur stdDeviation="2"/>
<feColorMatrix type="matrix" values="0 0 0 0 0 0 0 0 0 0 0 0 0 0 0 0 0 0 0.25 0"/>
<feBlend mode="normal" in2="BackgroundImageFix" result="effect1_dropShadow"/>
<feBlend mode="normal" in="SourceGraphic" in2="effect1_dropShadow" result="shape"/>
</filter>
<filter id="filter1_d" x="621.562" y="1186.04" width="167.341" height="105.745" filterUnits="userSpaceOnUse" color-interpolation-filters="sRGB">
<feFlood flood-opacity="0" result="BackgroundImageFix"/>
<feColorMatrix in="SourceAlpha" type="matrix" values="0 0 0 0 0 0 0 0 0 0 0 0 0 0 0 0 0 0 127 0"/>
<feOffset dy="4"/>
<feGaussianBlur stdDeviation="2"/>
<feColorMatrix type="matrix" values="0 0 0 0 0 0 0 0 0 0 0 0 0 0 0 0 0 0 0.25 0"/>
<feBlend mode="normal" in2="BackgroundImageFix" result="effect1_dropShadow"/>
<feBlend mode="normal" in="SourceGraphic" in2="effect1_dropShadow" result="shape"/>
</filter>
<filter id="filter2_d" x="324" y="1074.37" width="251" height="333.635" filterUnits="userSpaceOnUse" color-interpolation-filters="sRGB">
<feFlood flood-opacity="0" result="BackgroundImageFix"/>
<feColorMatrix in="SourceAlpha" type="matrix" values="0 0 0 0 0 0 0 0 0 0 0 0 0 0 0 0 0 0 127 0"/>
<feOffset dy="4"/>
<feGaussianBlur stdDeviation="2"/>
<feColorMatrix type="matrix" values="0 0 0 0 0 0 0 0 0 0 0 0 0 0 0 0 0 0 0.25 0"/>
<feBlend mode="normal" in2="BackgroundImageFix" result="effect1_dropShadow"/>
<feBlend mode="normal" in="SourceGraphic" in2="effect1_dropShadow" result="shape"/>
</filter>
<filter id="filter3_d" x="581" y="1000" width="251" height="331.251" filterUnits="userSpaceOnUse" color-interpolation-filters="sRGB">
<feFlood flood-opacity="0" result="BackgroundImageFix"/>
<feColorMatrix in="SourceAlpha" type="matrix" values="0 0 0 0 0 0 0 0 0 0 0 0 0 0 0 0 0 0 127 0"/>
<feOffset dy="4"/>
<feGaussianBlur stdDeviation="2"/>
<feColorMatrix type="matrix" values="0 0 0 0 0 0 0 0 0 0 0 0 0 0 0 0 0 0 0.25 0"/>
<feBlend mode="normal" in2="BackgroundImageFix" result="effect1_dropShadow"/>
<feBlend mode="normal" in="SourceGraphic" in2="effect1_dropShadow" result="shape"/>
</filter>
<filter id="filter4_d" x="366.609" y="1186.04" width="167.341" height="105.745" filterUnits="userSpaceOnUse" color-interpolation-filters="sRGB">
<feFlood flood-opacity="0" result="BackgroundImageFix"/>
<feColorMatrix in="SourceAlpha" type="matrix" values="0 0 0 0 0 0 0 0 0 0 0 0 0 0 0 0 0 0 127 0"/>
<feOffset dy="4"/>
<feGaussianBlur stdDeviation="2"/>
<feColorMatrix type="matrix" values="0 0 0 0 0 0 0 0 0 0 0 0 0 0 0 0 0 0 0.25 0"/>
<feBlend mode="normal" in2="BackgroundImageFix" result="effect1_dropShadow"/>
<feBlend mode="normal" in="SourceGraphic" in2="effect1_dropShadow" result="shape"/>
</filter>
<filter id="filter5_d" x="621.562" y="1186.04" width="167.341" height="105.745" filterUnits="userSpaceOnUse" color-interpolation-filters="sRGB">
<feFlood flood-opacity="0" result="BackgroundImageFix"/>
<feColorMatrix in="SourceAlpha" type="matrix" values="0 0 0 0 0 0 0 0 0 0 0 0 0 0 0 0 0 0 127 0"/>
<feOffset dy="4"/>
<feGaussianBlur stdDeviation="2"/>
<feColorMatrix type="matrix" values="0 0 0 0 0 0 0 0 0 0 0 0 0 0 0 0 0 0 0.25 0"/>
<feBlend mode="normal" in2="BackgroundImageFix" result="effect1_dropShadow"/>
<feBlend mode="normal" in="SourceGraphic" in2="effect1_dropShadow" result="shape"/>
</filter>
<filter id="filter6_d" x="324" y="1074.37" width="251" height="333.635" filterUnits="userSpaceOnUse" color-interpolation-filters="sRGB">
<feFlood flood-opacity="0" result="BackgroundImageFix"/>
<feColorMatrix in="SourceAlpha" type="matrix" values="0 0 0 0 0 0 0 0 0 0 0 0 0 0 0 0 0 0 127 0"/>
<feOffset dy="4"/>
<feGaussianBlur stdDeviation="2"/>
<feColorMatrix type="matrix" values="0 0 0 0 0 0 0 0 0 0 0 0 0 0 0 0 0 0 0.25 0"/>
<feBlend mode="normal" in2="BackgroundImageFix" result="effect1_dropShadow"/>
<feBlend mode="normal" in="SourceGraphic" in2="effect1_dropShadow" result="shape"/>
</filter>
<filter id="filter7_d" x="581" y="1000" width="251" height="331.251" filterUnits="userSpaceOnUse" color-interpolation-filters="sRGB">
<feFlood flood-opacity="0" result="BackgroundImageFix"/>
<feColorMatrix in="SourceAlpha" type="matrix" values="0 0 0 0 0 0 0 0 0 0 0 0 0 0 0 0 0 0 127 0"/>
<feOffset dy="4"/>
<feGaussianBlur stdDeviation="2"/>
<feColorMatrix type="matrix" values="0 0 0 0 0 0 0 0 0 0 0 0 0 0 0 0 0 0 0.25 0"/>
<feBlend mode="normal" in2="BackgroundImageFix" result="effect1_dropShadow"/>
<feBlend mode="normal" in="SourceGraphic" in2="effect1_dropShadow" result="shape"/>
</filter>
<linearGradient id="paint0_linear" x1="114.5" y1="84" x2="114.5" y2="129" gradientUnits="userSpaceOnUse">
<stop offset="0.484375" stop-color="#09AC99"/>
<stop offset="0.9999" stop-color="#158268"/>
<stop offset="1" stop-color="white" stop-opacity="0"/>
</linearGradient>
<linearGradient id="paint1_linear" x1="114.5" y1="103" x2="114.5" y2="110" gradientUnits="userSpaceOnUse">
<stop stop-color="#78EDD1"/>
<stop stop-color="#78EDD1"/>
<stop offset="1" stop-color="#009DBF" stop-opacity="0"/>
</linearGradient>
<linearGradient id="paint2_linear" x1="114.5" y1="103" x2="114.5" y2="110" gradientUnits="userSpaceOnUse">
<stop stop-color="#009DBF"/>
<stop offset="1" stop-color="white" stop-opacity="0"/>
</linearGradient>
</defs>
</svg>
