<svg width="1080" height="2400" viewBox="0 0 1080 2400" fill="none" xmlns="http://www.w3.org/2000/svg">
<rect x="17" y="17" width="1046" height="2366" rx="75" fill="black" stroke="#393939" stroke-width="34"/>
<g filter="url(#filter0_d)">
<path fill-rule="evenodd" clip-rule="evenodd" d="M492.536 1160.32C499.4 1147.99 502.833 1133.98 502.833 1118.27C502.833 1112.58 502.393 1107.13 501.511 1101.93H481.185C482.268 1106.98 482.808 1112.43 482.808 1118.27C482.808 1129.8 480.234 1140.04 475.085 1148.98C469.935 1157.93 462.879 1164.89 453.916 1169.86C444.953 1174.83 434.749 1177.31 423.306 1177.31C411.673 1177.31 401.374 1175.03 392.41 1170.46C383.447 1165.68 376.39 1159.12 371.241 1150.77C366.092 1142.23 363.517 1132.39 363.517 1121.25C363.517 1114.35 364.497 1107.91 366.458 1101.93H345.618C344.2 1108.07 343.492 1114.5 343.492 1121.25C343.492 1136.56 347.02 1150.08 354.077 1161.81C360.942 1173.54 370.383 1182.78 382.398 1189.54C394.413 1196.3 408.049 1199.68 423.306 1199.68C438.372 1199.68 451.913 1196.2 463.928 1189.24C475.943 1182.08 485.479 1172.44 492.536 1160.32Z" fill="#FFB700"/>
</g>
<g filter="url(#filter1_d)">
<path fill-rule="evenodd" clip-rule="evenodd" d="M747.487 1160.32C754.353 1147.99 757.786 1133.98 757.786 1118.27C757.786 1112.58 757.344 1107.13 756.461 1101.93H736.137C737.219 1106.98 737.76 1112.43 737.76 1118.27C737.76 1129.8 735.186 1140.04 730.036 1148.98C724.888 1157.93 717.831 1164.89 708.867 1169.86C699.904 1174.83 689.701 1177.31 678.258 1177.31C666.624 1177.31 656.325 1175.03 647.362 1170.46C638.399 1165.68 631.342 1159.12 626.193 1150.77C621.043 1142.23 618.47 1132.39 618.47 1121.25C618.47 1114.35 619.449 1107.91 621.41 1101.93H600.57C599.153 1108.07 598.444 1114.5 598.444 1121.25C598.444 1136.56 601.972 1150.08 609.029 1161.81C615.894 1173.54 625.334 1182.78 637.35 1189.54C649.364 1196.3 663 1199.68 678.258 1199.68C693.325 1199.68 706.865 1196.2 718.88 1189.24C730.896 1182.08 740.431 1172.44 747.487 1160.32Z" fill="#FFB700"/>
</g>
<g filter="url(#filter2_d)">
<path fill-rule="evenodd" clip-rule="evenodd" d="M334.535 1315.9H300.882V1113.14C301.173 1089.91 306.563 1069.05 317.053 1050.58C327.833 1031.82 342.256 1017.07 360.321 1006.35C378.677 995.624 399.218 990.262 421.945 990.262C445.254 990.262 466.087 995.773 484.443 1006.79C502.8 1017.52 517.223 1032.26 527.711 1051.03C538.492 1069.8 543.882 1091.1 543.882 1114.93C543.882 1138.46 538.638 1159.61 528.148 1178.38C517.95 1197.15 503.964 1212.04 486.191 1223.06C468.417 1233.79 448.314 1239.15 425.878 1239.15C406.357 1239.15 388.583 1234.98 372.558 1226.64C356.824 1218 344.15 1206.68 334.535 1192.68V1315.9ZM467.399 1195.8C453.995 1203.85 438.844 1207.87 421.945 1207.87C405.337 1207.87 390.332 1203.85 376.929 1195.8C363.526 1187.76 353.037 1176.74 345.461 1162.74C337.885 1148.44 334.098 1132.5 334.098 1114.93C334.098 1097.05 337.885 1081.12 345.461 1067.12C353.037 1053.12 363.526 1042.09 376.929 1034.05C390.332 1025.71 405.337 1021.54 421.945 1021.54C438.844 1021.54 453.995 1025.71 467.399 1034.05C480.801 1042.09 491.291 1053.12 498.866 1067.12C506.733 1081.12 510.666 1097.05 510.666 1114.93C510.666 1132.5 506.733 1148.44 498.866 1162.74C491.291 1176.74 480.801 1187.76 467.399 1195.8Z" fill="#09AC99"/>
</g>
<g filter="url(#filter3_d)">
<path fill-rule="evenodd" clip-rule="evenodd" d="M766.792 915.895V1036.73C757.177 1022.73 744.503 1011.56 728.768 1003.22C713.035 994.58 695.408 990.261 675.886 990.261C653.451 990.261 633.346 995.772 615.572 1006.79C597.799 1017.52 583.668 1032.26 573.178 1051.03C562.981 1069.8 557.882 1090.95 557.882 1114.48C557.882 1138.31 563.127 1159.61 573.615 1178.38C584.396 1197.14 598.965 1212.04 617.32 1223.06C635.677 1233.78 656.365 1239.15 679.382 1239.15C702.109 1239.15 722.504 1233.78 740.57 1223.06C758.925 1212.34 773.348 1197.74 783.837 1179.27C794.618 1160.5 800.3 1139.5 800.882 1116.27V915.895H766.792ZM724.399 1195.8C711.287 1203.85 696.281 1207.87 679.382 1207.87C662.775 1207.87 647.768 1203.85 634.366 1195.8C620.963 1187.46 610.328 1176.29 602.461 1162.29C594.594 1148.29 590.661 1132.35 590.661 1114.48C590.661 1096.9 594.594 1081.12 602.461 1067.12C610.328 1052.82 620.963 1041.65 634.366 1033.6C647.768 1025.56 662.775 1021.54 679.382 1021.54C696.281 1021.54 711.287 1025.56 724.399 1033.6C737.801 1041.65 748.29 1052.82 755.866 1067.12C763.733 1081.12 767.666 1096.9 767.666 1114.48C767.666 1132.35 763.733 1148.29 755.866 1162.29C748.29 1176.29 737.801 1187.46 724.399 1195.8Z" fill="#09AC99"/>
</g>
<g filter="url(#filter4_d)">
<path fill-rule="evenodd" clip-rule="evenodd" d="M492.536 1160.32C499.4 1147.99 502.833 1133.98 502.833 1118.27C502.833 1112.58 502.393 1107.13 501.511 1101.93H481.185C482.268 1106.98 482.808 1112.43 482.808 1118.27C482.808 1129.8 480.234 1140.04 475.085 1148.98C469.935 1157.93 462.879 1164.89 453.916 1169.86C444.953 1174.83 434.749 1177.31 423.306 1177.31C411.673 1177.31 401.374 1175.03 392.41 1170.46C383.447 1165.68 376.39 1159.12 371.241 1150.77C366.092 1142.23 363.517 1132.39 363.517 1121.25C363.517 1114.35 364.497 1107.91 366.458 1101.93H345.618C344.2 1108.07 343.492 1114.5 343.492 1121.25C343.492 1136.56 347.02 1150.08 354.077 1161.81C360.942 1173.54 370.383 1182.78 382.398 1189.54C394.413 1196.3 408.049 1199.68 423.306 1199.68C438.372 1199.68 451.913 1196.2 463.928 1189.24C475.943 1182.08 485.479 1172.44 492.536 1160.32Z" fill="#FFB700"/>
</g>
<g filter="url(#filter5_d)">
<path fill-rule="evenodd" clip-rule="evenodd" d="M747.487 1160.32C754.353 1147.99 757.786 1133.98 757.786 1118.27C757.786 1112.58 757.344 1107.13 756.461 1101.93H736.137C737.219 1106.98 737.76 1112.43 737.76 1118.27C737.76 1129.8 735.186 1140.04 730.036 1148.98C724.888 1157.93 717.831 1164.89 708.867 1169.86C699.904 1174.83 689.701 1177.31 678.258 1177.31C666.624 1177.31 656.325 1175.03 647.362 1170.46C638.399 1165.68 631.342 1159.12 626.193 1150.77C621.043 1142.23 618.47 1132.39 618.47 1121.25C618.47 1114.35 619.449 1107.91 621.41 1101.93H600.57C599.153 1108.07 598.444 1114.5 598.444 1121.25C598.444 1136.56 601.972 1150.08 609.029 1161.81C615.894 1173.54 625.334 1182.78 637.35 1189.54C649.364 1196.3 663 1199.68 678.258 1199.68C693.325 1199.68 706.865 1196.2 718.88 1189.24C730.896 1182.08 740.431 1172.44 747.487 1160.32Z" fill="#FFB700"/>
</g>
<g filter="url(#filter6_d)">
<path fill-rule="evenodd" clip-rule="evenodd" d="M334.535 1315.9H300.882V1113.14C301.173 1089.91 306.563 1069.05 317.053 1050.58C327.833 1031.82 342.256 1017.07 360.321 1006.35C378.677 995.624 399.218 990.262 421.945 990.262C445.254 990.262 466.087 995.773 484.443 1006.79C502.8 1017.52 517.223 1032.26 527.711 1051.03C538.492 1069.8 543.882 1091.1 543.882 1114.93C543.882 1138.46 538.638 1159.61 528.148 1178.38C517.95 1197.15 503.964 1212.04 486.191 1223.06C468.417 1233.79 448.314 1239.15 425.878 1239.15C406.357 1239.15 388.583 1234.98 372.558 1226.64C356.824 1218 344.15 1206.68 334.535 1192.68V1315.9ZM467.399 1195.8C453.995 1203.85 438.844 1207.87 421.945 1207.87C405.337 1207.87 390.332 1203.85 376.929 1195.8C363.526 1187.76 353.037 1176.74 345.461 1162.74C337.885 1148.44 334.098 1132.5 334.098 1114.93C334.098 1097.05 337.885 1081.12 345.461 1067.12C353.037 1053.12 363.526 1042.09 376.929 1034.05C390.332 1025.71 405.337 1021.54 421.945 1021.54C438.844 1021.54 453.995 1025.71 467.399 1034.05C480.801 1042.09 491.291 1053.12 498.866 1067.12C506.733 1081.12 510.666 1097.05 510.666 1114.93C510.666 1132.5 506.733 1148.44 498.866 1162.74C491.291 1176.74 480.801 1187.76 467.399 1195.8Z" fill="#09AC99"/>
</g>
<g filter="url(#filter7_d)">
<path fill-rule="evenodd" clip-rule="evenodd" d="M766.792 915.895V1036.73C757.177 1022.73 744.503 1011.56 728.768 1003.22C713.035 994.58 695.408 990.261 675.886 990.261C653.451 990.261 633.346 995.772 615.572 1006.79C597.799 1017.52 583.668 1032.26 573.178 1051.03C562.981 1069.8 557.882 1090.95 557.882 1114.48C557.882 1138.31 563.127 1159.61 573.615 1178.38C584.396 1197.14 598.965 1212.04 617.32 1223.06C635.677 1233.78 656.365 1239.15 679.382 1239.15C702.109 1239.15 722.504 1233.78 740.57 1223.06C758.925 1212.34 773.348 1197.74 783.837 1179.27C794.618 1160.5 800.3 1139.5 800.882 1116.27V915.895H766.792ZM724.399 1195.8C711.287 1203.85 696.281 1207.87 679.382 1207.87C662.775 1207.87 647.768 1203.85 634.366 1195.8C620.963 1187.46 610.328 1176.29 602.461 1162.29C594.594 1148.29 590.661 1132.35 590.661 1114.48C590.661 1096.9 594.594 1081.12 602.461 1067.12C610.328 1052.82 620.963 1041.65 634.366 1033.6C647.768 1025.56 662.775 1021.54 679.382 1021.54C696.281 1021.54 711.287 1025.56 724.399 1033.6C737.801 1041.65 748.29 1052.82 755.866 1067.12C763.733 1081.12 767.666 1096.9 767.666 1114.48C767.666 1132.35 763.733 1148.29 755.866 1162.29C748.29 1176.29 737.801 1187.46 724.399 1195.8Z" fill="#09AC99"/>
</g>
<circle cx="540.475" cy="120.5" r="29.5" fill="black" stroke="url(#paint0_linear)" stroke-width="16"/>
<path d="M546.476 120.996C546.476 124.586 543.565 127.496 539.976 127.496C536.386 127.496 533.476 124.586 533.476 120.996C533.476 117.406 536.386 114.496 539.976 114.496C543.565 114.496 546.476 117.406 546.476 120.996Z" fill="black"/>
<path d="M546.476 120.996C546.476 124.586 543.565 127.496 539.976 127.496C536.386 127.496 533.476 124.586 533.476 120.996C533.476 117.406 536.386 114.496 539.976 114.496C543.565 114.496 546.476 117.406 546.476 120.996Z" stroke="url(#paint1_linear)" stroke-width="7"/>
<path d="M546.476 120.996C546.476 124.586 543.565 127.496 539.976 127.496C536.386 127.496 533.476 124.586 533.476 120.996C533.476 117.406 536.386 114.496 539.976 114.496C543.565 114.496 546.476 117.406 546.476 120.996Z" stroke="url(#paint2_linear)" stroke-width="7"/>
<path d="M332.805 2245H324.016L306.906 2216.93V2245H298.117V2202.34H306.906L324.045 2230.47V2202.34H332.805V2245ZM338.605 2228.86C338.605 2225.71 339.211 2222.91 340.422 2220.45C341.633 2217.99 343.371 2216.08 345.637 2214.74C347.922 2213.39 350.568 2212.71 353.576 2212.71C357.854 2212.71 361.34 2214.02 364.035 2216.64C366.75 2219.26 368.264 2222.81 368.576 2227.3L368.635 2229.47C368.635 2234.34 367.277 2238.24 364.562 2241.19C361.848 2244.12 358.205 2245.59 353.635 2245.59C349.064 2245.59 345.412 2244.12 342.678 2241.19C339.963 2238.26 338.605 2234.28 338.605 2229.24V2228.86ZM347.072 2229.47C347.072 2232.48 347.639 2234.79 348.771 2236.39C349.904 2237.97 351.525 2238.76 353.635 2238.76C355.686 2238.76 357.287 2237.98 358.439 2236.42C359.592 2234.83 360.168 2232.31 360.168 2228.86C360.168 2225.91 359.592 2223.62 358.439 2222C357.287 2220.38 355.666 2219.57 353.576 2219.57C351.506 2219.57 349.904 2220.38 348.771 2222C347.639 2223.6 347.072 2226.09 347.072 2229.47ZM383.986 2205.51V2213.3H389.406V2219.51H383.986V2235.33C383.986 2236.5 384.211 2237.34 384.66 2237.85C385.109 2238.36 385.969 2238.61 387.238 2238.61C388.176 2238.61 389.006 2238.54 389.729 2238.41V2244.82C388.068 2245.33 386.359 2245.59 384.602 2245.59C378.664 2245.59 375.637 2242.59 375.52 2236.59V2219.51H370.891V2213.3H375.52V2205.51H383.986ZM408.713 2245.59C404.064 2245.59 400.275 2244.16 397.346 2241.31C394.436 2238.46 392.98 2234.66 392.98 2229.91V2229.09C392.98 2225.91 393.596 2223.07 394.826 2220.57C396.057 2218.05 397.795 2216.11 400.041 2214.77C402.307 2213.4 404.885 2212.71 407.775 2212.71C412.111 2212.71 415.52 2214.08 418 2216.82C420.5 2219.55 421.75 2223.43 421.75 2228.45V2231.9H401.564C401.838 2233.97 402.658 2235.63 404.025 2236.88C405.412 2238.13 407.16 2238.76 409.27 2238.76C412.531 2238.76 415.08 2237.58 416.916 2235.21L421.076 2239.87C419.807 2241.67 418.088 2243.08 415.92 2244.09C413.752 2245.09 411.35 2245.59 408.713 2245.59ZM407.746 2219.57C406.066 2219.57 404.699 2220.14 403.645 2221.27C402.609 2222.4 401.945 2224.02 401.652 2226.13H413.43V2225.46C413.391 2223.58 412.883 2222.14 411.906 2221.12C410.93 2220.09 409.543 2219.57 407.746 2219.57ZM460.979 2227.95C458.771 2230.12 456.193 2231.2 453.244 2231.2C449.475 2231.2 446.457 2229.91 444.191 2227.33C441.926 2224.74 440.793 2221.24 440.793 2216.85C440.793 2214.05 441.398 2211.49 442.609 2209.17C443.84 2206.83 445.549 2205.01 447.736 2203.72C449.924 2202.41 452.385 2201.76 455.119 2201.76C457.932 2201.76 460.432 2202.46 462.619 2203.87C464.807 2205.27 466.506 2207.29 467.717 2209.93C468.928 2212.57 469.543 2215.59 469.562 2218.98V2222.12C469.562 2229.23 467.795 2234.81 464.26 2238.88C460.725 2242.94 455.715 2245.11 449.23 2245.38L447.15 2245.41V2238.35L449.025 2238.32C456.389 2237.99 460.373 2234.53 460.979 2227.95ZM455.324 2224.73C456.691 2224.73 457.863 2224.38 458.84 2223.67C459.836 2222.97 460.588 2222.12 461.096 2221.12V2217.64C461.096 2214.77 460.549 2212.54 459.455 2210.96C458.361 2209.38 456.896 2208.58 455.061 2208.58C453.361 2208.58 451.965 2209.37 450.871 2210.93C449.777 2212.47 449.23 2214.41 449.23 2216.76C449.23 2219.08 449.758 2221 450.812 2222.5C451.887 2223.98 453.391 2224.73 455.324 2224.73ZM500.266 2229.97V2245H491.477V2202.34H508.117C511.32 2202.34 514.133 2202.93 516.555 2204.1C518.996 2205.27 520.871 2206.94 522.18 2209.11C523.488 2211.26 524.143 2213.71 524.143 2216.46C524.143 2220.64 522.707 2223.95 519.836 2226.37C516.984 2228.77 513.029 2229.97 507.971 2229.97H500.266ZM500.266 2222.85H508.117C510.441 2222.85 512.209 2222.3 513.42 2221.21C514.65 2220.12 515.266 2218.55 515.266 2216.52C515.266 2214.43 514.65 2212.74 513.42 2211.46C512.189 2210.17 510.49 2209.5 508.322 2209.46H500.266V2222.85ZM547.463 2221.24C546.311 2221.08 545.295 2221.01 544.416 2221.01C541.213 2221.01 539.113 2222.09 538.117 2224.26V2245H529.65V2213.3H537.648L537.883 2217.08C539.582 2214.17 541.936 2212.71 544.943 2212.71C545.881 2212.71 546.76 2212.84 547.58 2213.1L547.463 2221.24ZM549.191 2228.86C549.191 2225.71 549.797 2222.91 551.008 2220.45C552.219 2217.99 553.957 2216.08 556.223 2214.74C558.508 2213.39 561.154 2212.71 564.162 2212.71C568.439 2212.71 571.926 2214.02 574.621 2216.64C577.336 2219.26 578.85 2222.81 579.162 2227.3L579.221 2229.47C579.221 2234.34 577.863 2238.24 575.148 2241.19C572.434 2244.12 568.791 2245.59 564.221 2245.59C559.65 2245.59 555.998 2244.12 553.264 2241.19C550.549 2238.26 549.191 2234.28 549.191 2229.24V2228.86ZM557.658 2229.47C557.658 2232.48 558.225 2234.79 559.357 2236.39C560.49 2237.97 562.111 2238.76 564.221 2238.76C566.271 2238.76 567.873 2237.98 569.025 2236.42C570.178 2234.83 570.754 2232.31 570.754 2228.86C570.754 2225.91 570.178 2223.62 569.025 2222C567.873 2220.38 566.252 2219.57 564.162 2219.57C562.092 2219.57 560.49 2220.38 559.357 2222C558.225 2223.6 557.658 2226.09 557.658 2229.47ZM622.053 2233.81C622.053 2232.15 621.467 2230.88 620.295 2230C619.123 2229.1 617.014 2228.16 613.967 2227.19C610.92 2226.19 608.508 2225.21 606.73 2224.26C601.887 2221.64 599.465 2218.12 599.465 2213.68C599.465 2211.38 600.109 2209.33 601.398 2207.53C602.707 2205.71 604.572 2204.3 606.994 2203.28C609.436 2202.27 612.17 2201.76 615.197 2201.76C618.244 2201.76 620.959 2202.31 623.342 2203.43C625.725 2204.52 627.57 2206.07 628.879 2208.09C630.207 2210.1 630.871 2212.38 630.871 2214.94H622.082C622.082 2212.99 621.467 2211.47 620.236 2210.4C619.006 2209.31 617.277 2208.76 615.051 2208.76C612.902 2208.76 611.232 2209.22 610.041 2210.14C608.85 2211.04 608.254 2212.23 608.254 2213.71C608.254 2215.1 608.947 2216.26 610.334 2217.2C611.74 2218.13 613.801 2219.01 616.516 2219.83C621.516 2221.34 625.158 2223.2 627.443 2225.43C629.729 2227.66 630.871 2230.43 630.871 2233.75C630.871 2237.44 629.475 2240.34 626.682 2242.45C623.889 2244.54 620.129 2245.59 615.402 2245.59C612.121 2245.59 609.133 2244.99 606.438 2243.8C603.742 2242.59 601.682 2240.94 600.256 2238.85C598.85 2236.76 598.146 2234.34 598.146 2231.58H606.965C606.965 2236.29 609.777 2238.64 615.402 2238.64C617.492 2238.64 619.123 2238.22 620.295 2237.38C621.467 2236.52 622.053 2235.33 622.053 2233.81ZM650.881 2245.59C646.232 2245.59 642.443 2244.16 639.514 2241.31C636.604 2238.46 635.148 2234.66 635.148 2229.91V2229.09C635.148 2225.91 635.764 2223.07 636.994 2220.57C638.225 2218.05 639.963 2216.11 642.209 2214.77C644.475 2213.4 647.053 2212.71 649.943 2212.71C654.279 2212.71 657.688 2214.08 660.168 2216.82C662.668 2219.55 663.918 2223.43 663.918 2228.45V2231.9H643.732C644.006 2233.97 644.826 2235.63 646.193 2236.88C647.58 2238.13 649.328 2238.76 651.438 2238.76C654.699 2238.76 657.248 2237.58 659.084 2235.21L663.244 2239.87C661.975 2241.67 660.256 2243.08 658.088 2244.09C655.92 2245.09 653.518 2245.59 650.881 2245.59ZM649.914 2219.57C648.234 2219.57 646.867 2220.14 645.812 2221.27C644.777 2222.4 644.113 2224.02 643.82 2226.13H655.598V2225.46C655.559 2223.58 655.051 2222.14 654.074 2221.12C653.098 2220.09 651.711 2219.57 649.914 2219.57ZM686.564 2221.24C685.412 2221.08 684.396 2221.01 683.518 2221.01C680.314 2221.01 678.215 2222.09 677.219 2224.26V2245H668.752V2213.3H676.75L676.984 2217.08C678.684 2214.17 681.037 2212.71 684.045 2212.71C684.982 2212.71 685.861 2212.84 686.682 2213.1L686.564 2221.24ZM699.602 2245H691.105V2213.3H699.602V2245ZM690.607 2205.1C690.607 2203.83 691.027 2202.78 691.867 2201.96C692.727 2201.14 693.889 2200.73 695.354 2200.73C696.799 2200.73 697.951 2201.14 698.811 2201.96C699.67 2202.78 700.1 2203.83 700.1 2205.1C700.1 2206.39 699.66 2207.44 698.781 2208.26C697.922 2209.08 696.779 2209.49 695.354 2209.49C693.928 2209.49 692.775 2209.08 691.896 2208.26C691.037 2207.44 690.607 2206.39 690.607 2205.1ZM721.193 2245.59C716.545 2245.59 712.756 2244.16 709.826 2241.31C706.916 2238.46 705.461 2234.66 705.461 2229.91V2229.09C705.461 2225.91 706.076 2223.07 707.307 2220.57C708.537 2218.05 710.275 2216.11 712.521 2214.77C714.787 2213.4 717.365 2212.71 720.256 2212.71C724.592 2212.71 728 2214.08 730.48 2216.82C732.98 2219.55 734.23 2223.43 734.23 2228.45V2231.9H714.045C714.318 2233.97 715.139 2235.63 716.506 2236.88C717.893 2238.13 719.641 2238.76 721.75 2238.76C725.012 2238.76 727.561 2237.58 729.396 2235.21L733.557 2239.87C732.287 2241.67 730.568 2243.08 728.4 2244.09C726.232 2245.09 723.83 2245.59 721.193 2245.59ZM720.227 2219.57C718.547 2219.57 717.18 2220.14 716.125 2221.27C715.09 2222.4 714.426 2224.02 714.133 2226.13H725.91V2225.46C725.871 2223.58 725.363 2222.14 724.387 2221.12C723.41 2220.09 722.023 2219.57 720.227 2219.57ZM756.232 2236.24C756.232 2235.21 755.715 2234.39 754.68 2233.81C753.664 2233.2 752.023 2232.67 749.758 2232.2C742.219 2230.62 738.449 2227.41 738.449 2222.59C738.449 2219.78 739.611 2217.43 741.936 2215.56C744.279 2213.66 747.336 2212.71 751.105 2212.71C755.129 2212.71 758.342 2213.66 760.744 2215.56C763.166 2217.45 764.377 2219.91 764.377 2222.94H755.91C755.91 2221.73 755.52 2220.73 754.738 2219.95C753.957 2219.15 752.736 2218.75 751.076 2218.75C749.65 2218.75 748.547 2219.07 747.766 2219.72C746.984 2220.36 746.594 2221.18 746.594 2222.18C746.594 2223.12 747.033 2223.88 747.912 2224.46C748.811 2225.03 750.314 2225.53 752.424 2225.96C754.533 2226.37 756.311 2226.84 757.756 2227.36C762.229 2229 764.465 2231.85 764.465 2235.89C764.465 2238.78 763.225 2241.12 760.744 2242.92C758.264 2244.7 755.061 2245.59 751.135 2245.59C748.479 2245.59 746.115 2245.12 744.045 2244.18C741.994 2243.22 740.383 2241.92 739.211 2240.28C738.039 2238.62 737.453 2236.84 737.453 2234.92H745.48C745.559 2236.43 746.115 2237.58 747.15 2238.38C748.186 2239.18 749.572 2239.58 751.311 2239.58C752.932 2239.58 754.152 2239.28 754.973 2238.67C755.812 2238.05 756.232 2237.24 756.232 2236.24Z" fill="white"/>
<path d="M242.148 2112.34H229.312V2140.97H213.198V2062.77H242.256C251.494 2062.77 258.62 2064.83 263.633 2068.95C268.646 2073.06 271.152 2078.88 271.152 2086.4C271.152 2091.74 269.989 2096.2 267.661 2099.78C265.369 2103.32 261.878 2106.15 257.188 2108.26L274.106 2140.22V2140.97H256.812L242.148 2112.34ZM229.312 2099.29H242.31C246.356 2099.29 249.489 2098.27 251.709 2096.23C253.929 2094.15 255.039 2091.31 255.039 2087.69C255.039 2084 253.983 2081.1 251.87 2078.99C249.793 2076.88 246.589 2075.82 242.256 2075.82H229.312V2099.29ZM309.18 2142.05C300.658 2142.05 293.711 2139.43 288.34 2134.21C283.005 2128.98 280.337 2122.01 280.337 2113.31V2111.81C280.337 2105.97 281.465 2100.76 283.721 2096.18C285.977 2091.56 289.163 2088.01 293.281 2085.54C297.435 2083.04 302.161 2081.78 307.461 2081.78C315.41 2081.78 321.659 2084.29 326.206 2089.3C330.789 2094.32 333.081 2101.42 333.081 2110.63V2116.96H296.074C296.576 2120.76 298.079 2123.8 300.586 2126.09C303.128 2128.39 306.333 2129.53 310.2 2129.53C316.18 2129.53 320.853 2127.37 324.219 2123.03L331.846 2131.57C329.518 2134.87 326.367 2137.45 322.393 2139.31C318.418 2141.13 314.014 2142.05 309.18 2142.05ZM307.407 2094.35C304.328 2094.35 301.821 2095.39 299.888 2097.47C297.99 2099.54 296.772 2102.52 296.235 2106.38H317.827V2105.15C317.756 2101.71 316.825 2099.06 315.034 2097.2C313.244 2095.3 310.701 2094.35 307.407 2094.35ZM339.526 2111.49C339.526 2102.43 341.549 2095.21 345.596 2089.84C349.678 2084.47 355.246 2081.78 362.3 2081.78C367.957 2081.78 372.63 2083.9 376.318 2088.12V2058.47H391.895V2140.97H377.876L377.124 2134.8C373.257 2139.63 368.28 2142.05 362.192 2142.05C355.353 2142.05 349.857 2139.36 345.703 2133.99C341.585 2128.58 339.526 2121.08 339.526 2111.49ZM355.049 2112.61C355.049 2118.06 355.998 2122.23 357.896 2125.13C359.793 2128.03 362.55 2129.48 366.167 2129.48C370.965 2129.48 374.349 2127.46 376.318 2123.41V2100.47C374.385 2096.43 371.037 2094.41 366.274 2094.41C358.791 2094.41 355.049 2100.47 355.049 2112.61ZM418.481 2082.86L418.965 2089.36C423.083 2084.31 428.651 2081.78 435.669 2081.78C443.153 2081.78 448.291 2084.74 451.084 2090.65C455.166 2084.74 460.985 2081.78 468.54 2081.78C474.842 2081.78 479.533 2083.63 482.612 2087.32C485.692 2090.97 487.231 2096.48 487.231 2103.86V2140.97H471.655V2103.91C471.655 2100.62 471.011 2098.22 469.722 2096.71C468.433 2095.18 466.159 2094.41 462.9 2094.41C458.245 2094.41 455.023 2096.63 453.232 2101.07L453.286 2140.97H437.764V2103.97C437.764 2100.6 437.101 2098.17 435.776 2096.66C434.451 2095.16 432.196 2094.41 429.009 2094.41C424.604 2094.41 421.418 2096.23 419.448 2099.88V2140.97H403.926V2082.86H418.481ZM515.591 2140.97H500.015V2082.86H515.591V2140.97ZM499.102 2067.82C499.102 2065.49 499.871 2063.58 501.411 2062.07C502.987 2060.57 505.117 2059.82 507.803 2059.82C510.452 2059.82 512.565 2060.57 514.141 2062.07C515.716 2063.58 516.504 2065.49 516.504 2067.82C516.504 2070.18 515.698 2072.12 514.087 2073.62C512.511 2075.12 510.417 2075.88 507.803 2075.88C505.189 2075.88 503.076 2075.12 501.465 2073.62C499.889 2072.12 499.102 2070.18 499.102 2067.82ZM560.708 2147.69H549.16L577.949 2062.77H589.497L560.708 2147.69ZM641.489 2113.42V2140.97H625.376V2062.77H655.884C661.756 2062.77 666.912 2063.84 671.353 2065.99C675.828 2068.14 679.266 2071.2 681.665 2075.18C684.064 2079.12 685.264 2083.61 685.264 2088.66C685.264 2096.32 682.632 2102.37 677.368 2106.81C672.14 2111.22 664.889 2113.42 655.615 2113.42H641.489ZM641.489 2100.37H655.884C660.145 2100.37 663.385 2099.36 665.605 2097.36C667.861 2095.35 668.989 2092.49 668.989 2088.77C668.989 2084.93 667.861 2081.84 665.605 2079.47C663.35 2077.11 660.234 2075.89 656.26 2075.82H641.489V2100.37ZM692.192 2111.38C692.192 2105.61 693.302 2100.47 695.522 2095.96C697.743 2091.45 700.929 2087.96 705.083 2085.49C709.272 2083.02 714.124 2081.78 719.639 2081.78C727.48 2081.78 733.872 2084.18 738.813 2088.98C743.791 2093.78 746.566 2100.3 747.139 2108.53L747.246 2112.51C747.246 2121.42 744.757 2128.58 739.78 2133.99C734.803 2139.36 728.125 2142.05 719.746 2142.05C711.367 2142.05 704.671 2139.36 699.658 2133.99C694.681 2128.62 692.192 2121.31 692.192 2112.08V2111.38ZM707.715 2112.51C707.715 2118.02 708.753 2122.25 710.83 2125.18C712.907 2128.08 715.879 2129.53 719.746 2129.53C723.506 2129.53 726.442 2128.1 728.555 2125.24C730.667 2122.33 731.724 2117.72 731.724 2111.38C731.724 2105.97 730.667 2101.78 728.555 2098.81C726.442 2095.84 723.47 2094.35 719.639 2094.35C715.843 2094.35 712.907 2095.84 710.83 2098.81C708.753 2101.75 707.715 2106.31 707.715 2112.51ZM780.977 2129.53C783.841 2129.53 786.169 2128.74 787.959 2127.17C789.749 2125.59 790.68 2123.5 790.752 2120.88H805.308C805.272 2124.82 804.198 2128.44 802.085 2131.73C799.972 2134.99 797.072 2137.54 793.384 2139.36C789.731 2141.15 785.685 2142.05 781.245 2142.05C772.938 2142.05 766.385 2139.42 761.587 2134.15C756.789 2128.85 754.39 2121.55 754.39 2112.24V2111.22C754.39 2102.26 756.771 2095.12 761.533 2089.79C766.296 2084.45 772.83 2081.78 781.138 2081.78C788.407 2081.78 794.225 2083.86 798.594 2088.01C802.998 2092.13 805.236 2097.63 805.308 2104.5H790.752C790.68 2101.5 789.749 2099.06 787.959 2097.2C786.169 2095.3 783.805 2094.35 780.869 2094.35C777.253 2094.35 774.513 2095.68 772.651 2098.33C770.825 2100.94 769.912 2105.2 769.912 2111.11V2112.72C769.912 2118.7 770.825 2123 772.651 2125.61C774.478 2128.23 777.253 2129.53 780.977 2129.53ZM811.753 2111.38C811.753 2105.61 812.863 2100.47 815.083 2095.96C817.303 2091.45 820.49 2087.96 824.644 2085.49C828.833 2083.02 833.685 2081.78 839.199 2081.78C847.041 2081.78 853.433 2084.18 858.374 2088.98C863.351 2093.78 866.126 2100.3 866.699 2108.53L866.807 2112.51C866.807 2121.42 864.318 2128.58 859.341 2133.99C854.364 2139.36 847.686 2142.05 839.307 2142.05C830.928 2142.05 824.232 2139.36 819.219 2133.99C814.242 2128.62 811.753 2121.31 811.753 2112.08V2111.38ZM827.275 2112.51C827.275 2118.02 828.314 2122.25 830.391 2125.18C832.467 2128.08 835.439 2129.53 839.307 2129.53C843.066 2129.53 846.003 2128.1 848.115 2125.24C850.228 2122.33 851.284 2117.72 851.284 2111.38C851.284 2105.97 850.228 2101.78 848.115 2098.81C846.003 2095.84 843.031 2094.35 839.199 2094.35C835.404 2094.35 832.467 2095.84 830.391 2098.81C828.314 2101.75 827.275 2106.31 827.275 2112.51Z" fill="white"/>
<defs>
<filter id="filter0_d" x="339.492" y="1101.93" width="167.341" height="105.745" filterUnits="userSpaceOnUse" color-interpolation-filters="sRGB">
<feFlood flood-opacity="0" result="BackgroundImageFix"/>
<feColorMatrix in="SourceAlpha" type="matrix" values="0 0 0 0 0 0 0 0 0 0 0 0 0 0 0 0 0 0 127 0"/>
<feOffset dy="4"/>
<feGaussianBlur stdDeviation="2"/>
<feColorMatrix type="matrix" values="0 0 0 0 0 0 0 0 0 0 0 0 0 0 0 0 0 0 0.25 0"/>
<feBlend mode="normal" in2="BackgroundImageFix" result="effect1_dropShadow"/>
<feBlend mode="normal" in="SourceGraphic" in2="effect1_dropShadow" result="shape"/>
</filter>
<filter id="filter1_d" x="594.444" y="1101.93" width="167.341" height="105.745" filterUnits="userSpaceOnUse" color-interpolation-filters="sRGB">
<feFlood flood-opacity="0" result="BackgroundImageFix"/>
<feColorMatrix in="SourceAlpha" type="matrix" values="0 0 0 0 0 0 0 0 0 0 0 0 0 0 0 0 0 0 127 0"/>
<feOffset dy="4"/>
<feGaussianBlur stdDeviation="2"/>
<feColorMatrix type="matrix" values="0 0 0 0 0 0 0 0 0 0 0 0 0 0 0 0 0 0 0.25 0"/>
<feBlend mode="normal" in2="BackgroundImageFix" result="effect1_dropShadow"/>
<feBlend mode="normal" in="SourceGraphic" in2="effect1_dropShadow" result="shape"/>
</filter>
<filter id="filter2_d" x="296.882" y="990.262" width="251" height="333.635" filterUnits="userSpaceOnUse" color-interpolation-filters="sRGB">
<feFlood flood-opacity="0" result="BackgroundImageFix"/>
<feColorMatrix in="SourceAlpha" type="matrix" values="0 0 0 0 0 0 0 0 0 0 0 0 0 0 0 0 0 0 127 0"/>
<feOffset dy="4"/>
<feGaussianBlur stdDeviation="2"/>
<feColorMatrix type="matrix" values="0 0 0 0 0 0 0 0 0 0 0 0 0 0 0 0 0 0 0.25 0"/>
<feBlend mode="normal" in2="BackgroundImageFix" result="effect1_dropShadow"/>
<feBlend mode="normal" in="SourceGraphic" in2="effect1_dropShadow" result="shape"/>
</filter>
<filter id="filter3_d" x="553.882" y="915.895" width="251" height="331.251" filterUnits="userSpaceOnUse" color-interpolation-filters="sRGB">
<feFlood flood-opacity="0" result="BackgroundImageFix"/>
<feColorMatrix in="SourceAlpha" type="matrix" values="0 0 0 0 0 0 0 0 0 0 0 0 0 0 0 0 0 0 127 0"/>
<feOffset dy="4"/>
<feGaussianBlur stdDeviation="2"/>
<feColorMatrix type="matrix" values="0 0 0 0 0 0 0 0 0 0 0 0 0 0 0 0 0 0 0.25 0"/>
<feBlend mode="normal" in2="BackgroundImageFix" result="effect1_dropShadow"/>
<feBlend mode="normal" in="SourceGraphic" in2="effect1_dropShadow" result="shape"/>
</filter>
<filter id="filter4_d" x="339.492" y="1101.93" width="167.341" height="105.745" filterUnits="userSpaceOnUse" color-interpolation-filters="sRGB">
<feFlood flood-opacity="0" result="BackgroundImageFix"/>
<feColorMatrix in="SourceAlpha" type="matrix" values="0 0 0 0 0 0 0 0 0 0 0 0 0 0 0 0 0 0 127 0"/>
<feOffset dy="4"/>
<feGaussianBlur stdDeviation="2"/>
<feColorMatrix type="matrix" values="0 0 0 0 0 0 0 0 0 0 0 0 0 0 0 0 0 0 0.25 0"/>
<feBlend mode="normal" in2="BackgroundImageFix" result="effect1_dropShadow"/>
<feBlend mode="normal" in="SourceGraphic" in2="effect1_dropShadow" result="shape"/>
</filter>
<filter id="filter5_d" x="594.444" y="1101.93" width="167.341" height="105.745" filterUnits="userSpaceOnUse" color-interpolation-filters="sRGB">
<feFlood flood-opacity="0" result="BackgroundImageFix"/>
<feColorMatrix in="SourceAlpha" type="matrix" values="0 0 0 0 0 0 0 0 0 0 0 0 0 0 0 0 0 0 127 0"/>
<feOffset dy="4"/>
<feGaussianBlur stdDeviation="2"/>
<feColorMatrix type="matrix" values="0 0 0 0 0 0 0 0 0 0 0 0 0 0 0 0 0 0 0.25 0"/>
<feBlend mode="normal" in2="BackgroundImageFix" result="effect1_dropShadow"/>
<feBlend mode="normal" in="SourceGraphic" in2="effect1_dropShadow" result="shape"/>
</filter>
<filter id="filter6_d" x="296.882" y="990.262" width="251" height="333.635" filterUnits="userSpaceOnUse" color-interpolation-filters="sRGB">
<feFlood flood-opacity="0" result="BackgroundImageFix"/>
<feColorMatrix in="SourceAlpha" type="matrix" values="0 0 0 0 0 0 0 0 0 0 0 0 0 0 0 0 0 0 127 0"/>
<feOffset dy="4"/>
<feGaussianBlur stdDeviation="2"/>
<feColorMatrix type="matrix" values="0 0 0 0 0 0 0 0 0 0 0 0 0 0 0 0 0 0 0.25 0"/>
<feBlend mode="normal" in2="BackgroundImageFix" result="effect1_dropShadow"/>
<feBlend mode="normal" in="SourceGraphic" in2="effect1_dropShadow" result="shape"/>
</filter>
<filter id="filter7_d" x="553.882" y="915.895" width="251" height="331.251" filterUnits="userSpaceOnUse" color-interpolation-filters="sRGB">
<feFlood flood-opacity="0" result="BackgroundImageFix"/>
<feColorMatrix in="SourceAlpha" type="matrix" values="0 0 0 0 0 0 0 0 0 0 0 0 0 0 0 0 0 0 127 0"/>
<feOffset dy="4"/>
<feGaussianBlur stdDeviation="2"/>
<feColorMatrix type="matrix" values="0 0 0 0 0 0 0 0 0 0 0 0 0 0 0 0 0 0 0.25 0"/>
<feBlend mode="normal" in2="BackgroundImageFix" result="effect1_dropShadow"/>
<feBlend mode="normal" in="SourceGraphic" in2="effect1_dropShadow" result="shape"/>
</filter>
<linearGradient id="paint0_linear" x1="540.475" y1="83" x2="540.475" y2="158" gradientUnits="userSpaceOnUse">
<stop offset="0.484375" stop-color="#09AC99"/>
<stop offset="0.9999" stop-color="#158268"/>
<stop offset="1" stop-color="white" stop-opacity="0"/>
</linearGradient>
<linearGradient id="paint1_linear" x1="539.976" y1="110.996" x2="539.976" y2="130.996" gradientUnits="userSpaceOnUse">
<stop stop-color="#78EDD1"/>
<stop stop-color="#78EDD1"/>
<stop offset="1" stop-color="#009DBF" stop-opacity="0"/>
</linearGradient>
<linearGradient id="paint2_linear" x1="539.976" y1="110.996" x2="539.976" y2="130.996" gradientUnits="userSpaceOnUse">
<stop stop-color="#009DBF"/>
<stop offset="1" stop-color="white" stop-opacity="0"/>
</linearGradient>
</defs>
</svg>
