<svg width="1080" height="2400" viewBox="0 0 1080 2400" fill="none" xmlns="http://www.w3.org/2000/svg">
<rect x="15" y="15" width="1050" height="2370" rx="77" fill="black" stroke="#393939" stroke-width="30"/>
<ellipse cx="540.5" cy="119.5" rx="37.5" ry="37.5" fill="#393939"/>
<path d="M555 119.5C555 127.508 548.508 134 540.5 134C532.492 134 526 127.508 526 119.5C526 111.492 532.492 105 540.5 105C548.508 105 555 111.492 555 119.5Z" fill="#393939" stroke="url(#paint0_linear_2906_103)" stroke-width="16"/>
<circle cx="540.5" cy="119.5" r="2.5" fill="#393939"/>
<circle cx="540.5" cy="119.5" r="2.5" stroke="url(#paint1_linear_2906_103)" stroke-width="2"/>
<circle cx="540.5" cy="119.5" r="2.5" stroke="url(#paint2_linear_2906_103)" stroke-width="2"/>
<g filter="url(#filter0_d_2906_103)">
<path fill-rule="evenodd" clip-rule="evenodd" d="M519.653 1244.42C526.517 1232.09 529.95 1218.08 529.95 1202.37C529.95 1196.68 529.51 1191.23 528.628 1186.04H508.302C509.385 1191.09 509.925 1196.53 509.925 1202.37C509.925 1213.9 507.352 1224.14 502.202 1233.09C497.053 1242.03 489.996 1248.99 481.033 1253.96C472.07 1258.93 461.866 1261.41 450.423 1261.41C438.79 1261.41 428.491 1259.13 419.528 1254.56C410.564 1249.79 403.507 1243.23 398.358 1234.88C393.209 1226.33 390.634 1216.49 390.634 1205.35C390.634 1198.45 391.615 1192.01 393.575 1186.04H372.735C371.318 1192.17 370.609 1198.61 370.609 1205.35C370.609 1220.66 374.138 1234.18 381.194 1245.91C388.06 1257.64 397.5 1266.88 409.515 1273.64C421.53 1280.4 435.166 1283.78 450.423 1283.78C465.489 1283.78 479.031 1280.3 491.045 1273.34C503.06 1266.19 512.596 1256.54 519.653 1244.42Z" fill="#FFB700"/>
</g>
<g filter="url(#filter1_d_2906_103)">
<path fill-rule="evenodd" clip-rule="evenodd" d="M774.605 1244.42C781.471 1232.09 784.904 1218.08 784.904 1202.37C784.904 1196.68 784.462 1191.23 783.579 1186.04H763.255C764.337 1191.09 764.878 1196.53 764.878 1202.37C764.878 1213.9 762.304 1224.14 757.154 1233.09C752.006 1242.03 744.949 1248.99 735.985 1253.96C727.022 1258.93 716.819 1261.41 705.376 1261.41C693.742 1261.41 683.443 1259.13 674.48 1254.56C665.517 1249.79 658.46 1243.23 653.311 1234.88C648.161 1226.33 645.588 1216.49 645.588 1205.35C645.588 1198.45 646.567 1192.01 648.528 1186.04H627.688C626.271 1192.17 625.562 1198.61 625.562 1205.35C625.562 1220.66 629.09 1234.18 636.147 1245.91C643.012 1257.64 652.453 1266.88 664.468 1273.64C676.482 1280.4 690.118 1283.78 705.376 1283.78C720.443 1283.78 733.983 1280.3 745.998 1273.34C758.014 1266.19 767.549 1256.54 774.605 1244.42Z" fill="#FFB700"/>
</g>
<g filter="url(#filter2_d_2906_103)">
<path fill-rule="evenodd" clip-rule="evenodd" d="M361.653 1400H328V1197.25C328.291 1174.01 333.682 1153.16 344.171 1134.69C354.951 1115.92 369.374 1101.18 387.439 1090.45C405.795 1079.73 426.336 1074.37 449.063 1074.37C472.372 1074.37 493.205 1079.88 511.561 1090.9C529.918 1101.62 544.341 1116.37 554.829 1135.14C565.61 1153.9 571 1175.2 571 1199.03C571 1222.57 565.756 1243.72 555.266 1262.48C545.069 1281.25 531.082 1296.14 513.309 1307.17C495.536 1317.89 475.432 1323.25 452.997 1323.25C433.475 1323.25 415.702 1319.08 399.676 1310.74C383.943 1302.1 371.268 1290.78 361.653 1276.78V1400ZM494.517 1279.91C481.113 1287.95 465.962 1291.97 449.063 1291.97C432.455 1291.97 417.45 1287.95 404.047 1279.91C390.644 1271.87 380.155 1260.85 372.579 1246.84C365.004 1232.55 361.216 1216.61 361.216 1199.03C361.216 1181.16 365.004 1165.22 372.579 1151.22C380.155 1137.22 390.644 1126.2 404.047 1118.16C417.45 1109.82 432.455 1105.65 449.063 1105.65C465.962 1105.65 481.113 1109.82 494.517 1118.16C507.919 1126.2 518.409 1137.22 525.984 1151.22C533.851 1165.22 537.784 1181.16 537.784 1199.03C537.784 1216.61 533.851 1232.55 525.984 1246.84C518.409 1260.85 507.919 1271.87 494.517 1279.91Z" fill="#0CE0C8"/>
</g>
<g filter="url(#filter3_d_2906_103)">
<path fill-rule="evenodd" clip-rule="evenodd" d="M793.91 1000V1120.84C784.295 1106.84 771.62 1095.66 755.886 1087.32C740.153 1078.69 722.525 1074.37 703.004 1074.37C680.568 1074.37 660.463 1079.88 642.69 1090.9C624.916 1101.62 610.786 1116.37 600.296 1135.14C590.099 1153.9 585 1175.05 585 1198.59C585 1222.42 590.244 1243.72 600.733 1262.48C611.514 1281.25 626.082 1296.14 644.438 1307.17C662.795 1317.89 683.482 1323.25 706.5 1323.25C729.227 1323.25 749.621 1317.89 767.687 1307.17C786.043 1296.44 800.466 1281.84 810.954 1263.38C821.735 1244.61 827.418 1223.61 828 1200.37V1000H793.91ZM751.516 1279.91C738.405 1287.95 723.399 1291.97 706.5 1291.97C689.892 1291.97 674.886 1287.95 661.484 1279.91C648.081 1271.57 637.446 1260.4 629.578 1246.4C621.711 1232.4 617.778 1216.46 617.778 1198.59C617.778 1181.01 621.711 1165.22 629.578 1151.22C637.446 1136.92 648.081 1125.75 661.484 1117.71C674.886 1109.67 689.892 1105.64 706.5 1105.64C723.399 1105.64 738.405 1109.67 751.516 1117.71C764.919 1125.75 775.407 1136.92 782.983 1151.22C790.851 1165.22 794.783 1181.01 794.783 1198.59C794.783 1216.46 790.851 1232.4 782.983 1246.4C775.407 1260.4 764.919 1271.57 751.516 1279.91Z" fill="#0CE0C8"/>
</g>
<g filter="url(#filter4_d_2906_103)">
<path fill-rule="evenodd" clip-rule="evenodd" d="M519.653 1244.42C526.517 1232.09 529.95 1218.08 529.95 1202.37C529.95 1196.68 529.51 1191.23 528.628 1186.04H508.302C509.385 1191.09 509.925 1196.53 509.925 1202.37C509.925 1213.9 507.352 1224.14 502.202 1233.09C497.053 1242.03 489.996 1248.99 481.033 1253.96C472.07 1258.93 461.866 1261.41 450.423 1261.41C438.79 1261.41 428.491 1259.13 419.528 1254.56C410.564 1249.79 403.507 1243.23 398.358 1234.88C393.209 1226.33 390.634 1216.49 390.634 1205.35C390.634 1198.45 391.615 1192.01 393.575 1186.04H372.735C371.318 1192.17 370.609 1198.61 370.609 1205.35C370.609 1220.66 374.138 1234.18 381.194 1245.91C388.06 1257.64 397.5 1266.88 409.515 1273.64C421.53 1280.4 435.166 1283.78 450.423 1283.78C465.489 1283.78 479.031 1280.3 491.045 1273.34C503.06 1266.19 512.596 1256.54 519.653 1244.42Z" fill="#FFB700"/>
</g>
<g filter="url(#filter5_d_2906_103)">
<path fill-rule="evenodd" clip-rule="evenodd" d="M774.605 1244.42C781.471 1232.09 784.904 1218.08 784.904 1202.37C784.904 1196.68 784.462 1191.23 783.579 1186.04H763.255C764.337 1191.09 764.878 1196.53 764.878 1202.37C764.878 1213.9 762.304 1224.14 757.154 1233.09C752.006 1242.03 744.949 1248.99 735.985 1253.96C727.022 1258.93 716.819 1261.41 705.376 1261.41C693.742 1261.41 683.443 1259.13 674.48 1254.56C665.517 1249.79 658.46 1243.23 653.311 1234.88C648.161 1226.33 645.588 1216.49 645.588 1205.35C645.588 1198.45 646.567 1192.01 648.528 1186.04H627.688C626.271 1192.17 625.562 1198.61 625.562 1205.35C625.562 1220.66 629.09 1234.18 636.147 1245.91C643.012 1257.64 652.453 1266.88 664.468 1273.64C676.482 1280.4 690.118 1283.78 705.376 1283.78C720.443 1283.78 733.983 1280.3 745.998 1273.34C758.014 1266.19 767.549 1256.54 774.605 1244.42Z" fill="#FFB700"/>
</g>
<g filter="url(#filter6_d_2906_103)">
<path fill-rule="evenodd" clip-rule="evenodd" d="M361.653 1400H328V1197.25C328.291 1174.01 333.682 1153.16 344.171 1134.69C354.951 1115.92 369.374 1101.18 387.439 1090.45C405.795 1079.73 426.336 1074.37 449.063 1074.37C472.372 1074.37 493.205 1079.88 511.561 1090.9C529.918 1101.62 544.341 1116.37 554.829 1135.14C565.61 1153.9 571 1175.2 571 1199.03C571 1222.57 565.756 1243.72 555.266 1262.48C545.069 1281.25 531.082 1296.14 513.309 1307.17C495.536 1317.89 475.432 1323.25 452.997 1323.25C433.475 1323.25 415.702 1319.08 399.676 1310.74C383.943 1302.1 371.268 1290.78 361.653 1276.78V1400ZM494.517 1279.91C481.113 1287.95 465.962 1291.97 449.063 1291.97C432.455 1291.97 417.45 1287.95 404.047 1279.91C390.644 1271.87 380.155 1260.85 372.579 1246.84C365.004 1232.55 361.216 1216.61 361.216 1199.03C361.216 1181.16 365.004 1165.22 372.579 1151.22C380.155 1137.22 390.644 1126.2 404.047 1118.16C417.45 1109.82 432.455 1105.65 449.063 1105.65C465.962 1105.65 481.113 1109.82 494.517 1118.16C507.919 1126.2 518.409 1137.22 525.984 1151.22C533.851 1165.22 537.784 1181.16 537.784 1199.03C537.784 1216.61 533.851 1232.55 525.984 1246.84C518.409 1260.85 507.919 1271.87 494.517 1279.91Z" fill="#0CE0C8"/>
</g>
<g filter="url(#filter7_d_2906_103)">
<path fill-rule="evenodd" clip-rule="evenodd" d="M793.91 1000V1120.84C784.295 1106.84 771.62 1095.66 755.886 1087.32C740.153 1078.69 722.525 1074.37 703.004 1074.37C680.568 1074.37 660.463 1079.88 642.69 1090.9C624.916 1101.62 610.786 1116.37 600.296 1135.14C590.099 1153.9 585 1175.05 585 1198.59C585 1222.42 590.244 1243.72 600.733 1262.48C611.514 1281.25 626.082 1296.14 644.438 1307.17C662.795 1317.89 683.482 1323.25 706.5 1323.25C729.227 1323.25 749.621 1317.89 767.687 1307.17C786.043 1296.44 800.466 1281.84 810.954 1263.38C821.735 1244.61 827.418 1223.61 828 1200.37V1000H793.91ZM751.516 1279.91C738.405 1287.95 723.399 1291.97 706.5 1291.97C689.892 1291.97 674.886 1287.95 661.484 1279.91C648.081 1271.57 637.446 1260.4 629.578 1246.4C621.711 1232.4 617.778 1216.46 617.778 1198.59C617.778 1181.01 621.711 1165.22 629.578 1151.22C637.446 1136.92 648.081 1125.75 661.484 1117.71C674.886 1109.67 689.892 1105.64 706.5 1105.64C723.399 1105.64 738.405 1109.67 751.516 1117.71C764.919 1125.75 775.407 1136.92 782.983 1151.22C790.851 1165.22 794.783 1181.01 794.783 1198.59C794.783 1216.46 790.851 1232.4 782.983 1246.4C775.407 1260.4 764.919 1271.57 751.516 1279.91Z" fill="#0CE0C8"/>
</g>
<path d="M427.322 2134.12H411.795V2126.45H427.322C430.252 2126.45 432.612 2125.87 434.402 2124.7C436.225 2123.52 437.544 2121.9 438.357 2119.81C439.204 2117.73 439.627 2115.35 439.627 2112.68C439.627 2110.24 439.204 2107.95 438.357 2105.8C437.544 2103.65 436.225 2101.93 434.402 2100.62C432.612 2099.29 430.252 2098.62 427.322 2098.62H413.65V2162H404.666V2090.91H427.322C431.912 2090.91 435.786 2091.83 438.943 2093.69C442.101 2095.54 444.493 2098.12 446.121 2101.4C447.781 2104.66 448.611 2108.39 448.611 2112.59C448.611 2117.14 447.781 2121.03 446.121 2124.26C444.493 2127.48 442.101 2129.94 438.943 2131.63C435.786 2133.29 431.912 2134.12 427.322 2134.12ZM506.375 2120.3V2132.65C506.375 2137.67 505.822 2142.08 504.715 2145.89C503.641 2149.66 502.062 2152.82 499.979 2155.36C497.895 2157.9 495.389 2159.8 492.459 2161.07C489.529 2162.34 486.225 2162.98 482.547 2162.98C478.999 2162.98 475.76 2162.34 472.83 2161.07C469.9 2159.8 467.378 2157.9 465.262 2155.36C463.146 2152.82 461.502 2149.66 460.33 2145.89C459.191 2142.08 458.621 2137.67 458.621 2132.65V2120.3C458.621 2115.29 459.191 2110.89 460.33 2107.12C461.469 2103.31 463.097 2100.13 465.213 2097.6C467.329 2095.06 469.852 2093.15 472.781 2091.88C475.711 2090.58 478.95 2089.93 482.498 2089.93C486.176 2089.93 489.48 2090.58 492.41 2091.88C495.372 2093.15 497.879 2095.06 499.93 2097.6C502.013 2100.13 503.608 2103.31 504.715 2107.12C505.822 2110.89 506.375 2115.29 506.375 2120.3ZM497.488 2132.65V2120.2C497.488 2116.3 497.163 2112.94 496.512 2110.14C495.861 2107.31 494.9 2105 493.631 2103.21C492.361 2101.42 490.799 2100.1 488.943 2099.26C487.088 2098.38 484.939 2097.94 482.498 2097.94C480.187 2097.94 478.104 2098.38 476.248 2099.26C474.425 2100.1 472.863 2101.42 471.561 2103.21C470.258 2105 469.249 2107.31 468.533 2110.14C467.85 2112.94 467.508 2116.3 467.508 2120.2V2132.65C467.508 2136.59 467.85 2139.98 468.533 2142.81C469.249 2145.61 470.258 2147.92 471.561 2149.74C472.895 2151.53 474.49 2152.87 476.346 2153.75C478.201 2154.59 480.268 2155.02 482.547 2155.02C484.988 2155.02 487.137 2154.59 488.992 2153.75C490.88 2152.87 492.443 2151.53 493.68 2149.74C494.949 2147.92 495.893 2145.61 496.512 2142.81C497.163 2139.98 497.488 2136.59 497.488 2132.65ZM555.887 2139.39H564.871C564.643 2144.28 563.65 2148.49 561.893 2152.04C560.167 2155.55 557.645 2158.26 554.324 2160.14C551.036 2162.03 546.919 2162.98 541.971 2162.98C538.423 2162.98 535.216 2162.28 532.352 2160.88C529.487 2159.48 527.029 2157.48 524.979 2154.87C522.96 2152.23 521.414 2149.08 520.34 2145.4C519.266 2141.72 518.729 2137.59 518.729 2133V2119.86C518.729 2115.3 519.266 2111.19 520.34 2107.51C521.447 2103.83 523.025 2100.69 525.076 2098.08C527.16 2095.45 529.682 2093.43 532.645 2092.03C535.639 2090.63 539.025 2089.93 542.801 2089.93C547.423 2089.93 551.329 2090.86 554.52 2092.71C557.742 2094.54 560.216 2097.22 561.941 2100.77C563.699 2104.29 564.676 2108.6 564.871 2113.71H555.887C555.659 2109.97 555.073 2106.92 554.129 2104.58C553.185 2102.2 551.785 2100.46 549.93 2099.35C548.107 2098.21 545.73 2097.64 542.801 2097.64C540.197 2097.64 537.934 2098.17 536.014 2099.21C534.126 2100.25 532.563 2101.75 531.326 2103.7C530.122 2105.62 529.21 2107.95 528.592 2110.68C528.006 2113.38 527.713 2116.41 527.713 2119.76V2133C527.713 2136.12 527.957 2139.03 528.445 2141.74C528.966 2144.44 529.78 2146.81 530.887 2148.87C532.026 2150.88 533.507 2152.46 535.33 2153.6C537.153 2154.74 539.367 2155.31 541.971 2155.31C545.258 2155.31 547.863 2154.77 549.783 2153.7C551.704 2152.62 553.12 2150.92 554.031 2148.57C554.975 2146.23 555.594 2143.17 555.887 2139.39ZM623.27 2120.3V2132.65C623.27 2137.67 622.716 2142.08 621.609 2145.89C620.535 2149.66 618.956 2152.82 616.873 2155.36C614.79 2157.9 612.283 2159.8 609.354 2161.07C606.424 2162.34 603.12 2162.98 599.441 2162.98C595.893 2162.98 592.654 2162.34 589.725 2161.07C586.795 2159.8 584.272 2157.9 582.156 2155.36C580.04 2152.82 578.396 2149.66 577.225 2145.89C576.085 2142.08 575.516 2137.67 575.516 2132.65V2120.3C575.516 2115.29 576.085 2110.89 577.225 2107.12C578.364 2103.31 579.992 2100.13 582.107 2097.6C584.223 2095.06 586.746 2093.15 589.676 2091.88C592.605 2090.58 595.844 2089.93 599.393 2089.93C603.071 2089.93 606.375 2090.58 609.305 2091.88C612.267 2093.15 614.773 2095.06 616.824 2097.6C618.908 2100.13 620.503 2103.31 621.609 2107.12C622.716 2110.89 623.27 2115.29 623.27 2120.3ZM614.383 2132.65V2120.2C614.383 2116.3 614.057 2112.94 613.406 2110.14C612.755 2107.31 611.795 2105 610.525 2103.21C609.256 2101.42 607.693 2100.1 605.838 2099.26C603.982 2098.38 601.834 2097.94 599.393 2097.94C597.081 2097.94 594.998 2098.38 593.143 2099.26C591.32 2100.1 589.757 2101.42 588.455 2103.21C587.153 2105 586.144 2107.31 585.428 2110.14C584.744 2112.94 584.402 2116.3 584.402 2120.2V2132.65C584.402 2136.59 584.744 2139.98 585.428 2142.81C586.144 2145.61 587.153 2147.92 588.455 2149.74C589.79 2151.53 591.385 2152.87 593.24 2153.75C595.096 2154.59 597.163 2155.02 599.441 2155.02C601.883 2155.02 604.031 2154.59 605.887 2153.75C607.775 2152.87 609.337 2151.53 610.574 2149.74C611.844 2147.92 612.788 2145.61 613.406 2142.81C614.057 2139.98 614.383 2136.59 614.383 2132.65ZM669.119 2090.91V2162H660.135V2090.91H669.119ZM693.094 2122.89V2130.6H667.41V2122.89H693.094ZM697.146 2090.91V2098.62H667.41V2090.91H697.146ZM747 2138.07V2145.5H703.543V2140.17L729.959 2090.91H736.893L729.959 2105.16L713.162 2138.07H747ZM739.09 2090.91V2162H730.447V2090.91H739.09Z" fill="white"/>
<defs>
<filter id="filter0_d_2906_103" x="366.609" y="1186.04" width="167.341" height="105.746" filterUnits="userSpaceOnUse" color-interpolation-filters="sRGB">
<feFlood flood-opacity="0" result="BackgroundImageFix"/>
<feColorMatrix in="SourceAlpha" type="matrix" values="0 0 0 0 0 0 0 0 0 0 0 0 0 0 0 0 0 0 127 0" result="hardAlpha"/>
<feOffset dy="4"/>
<feGaussianBlur stdDeviation="2"/>
<feColorMatrix type="matrix" values="0 0 0 0 0 0 0 0 0 0 0 0 0 0 0 0 0 0 0.25 0"/>
<feBlend mode="normal" in2="BackgroundImageFix" result="effect1_dropShadow_2906_103"/>
<feBlend mode="normal" in="SourceGraphic" in2="effect1_dropShadow_2906_103" result="shape"/>
</filter>
<filter id="filter1_d_2906_103" x="621.562" y="1186.04" width="167.342" height="105.746" filterUnits="userSpaceOnUse" color-interpolation-filters="sRGB">
<feFlood flood-opacity="0" result="BackgroundImageFix"/>
<feColorMatrix in="SourceAlpha" type="matrix" values="0 0 0 0 0 0 0 0 0 0 0 0 0 0 0 0 0 0 127 0" result="hardAlpha"/>
<feOffset dy="4"/>
<feGaussianBlur stdDeviation="2"/>
<feColorMatrix type="matrix" values="0 0 0 0 0 0 0 0 0 0 0 0 0 0 0 0 0 0 0.25 0"/>
<feBlend mode="normal" in2="BackgroundImageFix" result="effect1_dropShadow_2906_103"/>
<feBlend mode="normal" in="SourceGraphic" in2="effect1_dropShadow_2906_103" result="shape"/>
</filter>
<filter id="filter2_d_2906_103" x="324" y="1074.37" width="251" height="333.633" filterUnits="userSpaceOnUse" color-interpolation-filters="sRGB">
<feFlood flood-opacity="0" result="BackgroundImageFix"/>
<feColorMatrix in="SourceAlpha" type="matrix" values="0 0 0 0 0 0 0 0 0 0 0 0 0 0 0 0 0 0 127 0" result="hardAlpha"/>
<feOffset dy="4"/>
<feGaussianBlur stdDeviation="2"/>
<feColorMatrix type="matrix" values="0 0 0 0 0 0 0 0 0 0 0 0 0 0 0 0 0 0 0.25 0"/>
<feBlend mode="normal" in2="BackgroundImageFix" result="effect1_dropShadow_2906_103"/>
<feBlend mode="normal" in="SourceGraphic" in2="effect1_dropShadow_2906_103" result="shape"/>
</filter>
<filter id="filter3_d_2906_103" x="581" y="1000" width="251" height="331.25" filterUnits="userSpaceOnUse" color-interpolation-filters="sRGB">
<feFlood flood-opacity="0" result="BackgroundImageFix"/>
<feColorMatrix in="SourceAlpha" type="matrix" values="0 0 0 0 0 0 0 0 0 0 0 0 0 0 0 0 0 0 127 0" result="hardAlpha"/>
<feOffset dy="4"/>
<feGaussianBlur stdDeviation="2"/>
<feColorMatrix type="matrix" values="0 0 0 0 0 0 0 0 0 0 0 0 0 0 0 0 0 0 0.25 0"/>
<feBlend mode="normal" in2="BackgroundImageFix" result="effect1_dropShadow_2906_103"/>
<feBlend mode="normal" in="SourceGraphic" in2="effect1_dropShadow_2906_103" result="shape"/>
</filter>
<filter id="filter4_d_2906_103" x="366.609" y="1186.04" width="167.341" height="105.746" filterUnits="userSpaceOnUse" color-interpolation-filters="sRGB">
<feFlood flood-opacity="0" result="BackgroundImageFix"/>
<feColorMatrix in="SourceAlpha" type="matrix" values="0 0 0 0 0 0 0 0 0 0 0 0 0 0 0 0 0 0 127 0" result="hardAlpha"/>
<feOffset dy="4"/>
<feGaussianBlur stdDeviation="2"/>
<feColorMatrix type="matrix" values="0 0 0 0 0 0 0 0 0 0 0 0 0 0 0 0 0 0 0.25 0"/>
<feBlend mode="normal" in2="BackgroundImageFix" result="effect1_dropShadow_2906_103"/>
<feBlend mode="normal" in="SourceGraphic" in2="effect1_dropShadow_2906_103" result="shape"/>
</filter>
<filter id="filter5_d_2906_103" x="621.562" y="1186.04" width="167.342" height="105.746" filterUnits="userSpaceOnUse" color-interpolation-filters="sRGB">
<feFlood flood-opacity="0" result="BackgroundImageFix"/>
<feColorMatrix in="SourceAlpha" type="matrix" values="0 0 0 0 0 0 0 0 0 0 0 0 0 0 0 0 0 0 127 0" result="hardAlpha"/>
<feOffset dy="4"/>
<feGaussianBlur stdDeviation="2"/>
<feColorMatrix type="matrix" values="0 0 0 0 0 0 0 0 0 0 0 0 0 0 0 0 0 0 0.25 0"/>
<feBlend mode="normal" in2="BackgroundImageFix" result="effect1_dropShadow_2906_103"/>
<feBlend mode="normal" in="SourceGraphic" in2="effect1_dropShadow_2906_103" result="shape"/>
</filter>
<filter id="filter6_d_2906_103" x="324" y="1074.37" width="251" height="333.633" filterUnits="userSpaceOnUse" color-interpolation-filters="sRGB">
<feFlood flood-opacity="0" result="BackgroundImageFix"/>
<feColorMatrix in="SourceAlpha" type="matrix" values="0 0 0 0 0 0 0 0 0 0 0 0 0 0 0 0 0 0 127 0" result="hardAlpha"/>
<feOffset dy="4"/>
<feGaussianBlur stdDeviation="2"/>
<feColorMatrix type="matrix" values="0 0 0 0 0 0 0 0 0 0 0 0 0 0 0 0 0 0 0.25 0"/>
<feBlend mode="normal" in2="BackgroundImageFix" result="effect1_dropShadow_2906_103"/>
<feBlend mode="normal" in="SourceGraphic" in2="effect1_dropShadow_2906_103" result="shape"/>
</filter>
<filter id="filter7_d_2906_103" x="581" y="1000" width="251" height="331.25" filterUnits="userSpaceOnUse" color-interpolation-filters="sRGB">
<feFlood flood-opacity="0" result="BackgroundImageFix"/>
<feColorMatrix in="SourceAlpha" type="matrix" values="0 0 0 0 0 0 0 0 0 0 0 0 0 0 0 0 0 0 127 0" result="hardAlpha"/>
<feOffset dy="4"/>
<feGaussianBlur stdDeviation="2"/>
<feColorMatrix type="matrix" values="0 0 0 0 0 0 0 0 0 0 0 0 0 0 0 0 0 0 0.25 0"/>
<feBlend mode="normal" in2="BackgroundImageFix" result="effect1_dropShadow_2906_103"/>
<feBlend mode="normal" in="SourceGraphic" in2="effect1_dropShadow_2906_103" result="shape"/>
</filter>
<linearGradient id="paint0_linear_2906_103" x1="540.5" y1="97" x2="540.5" y2="142" gradientUnits="userSpaceOnUse">
<stop offset="0.484375" stop-color="#09AC99"/>
<stop offset="0.9999" stop-color="#158268"/>
<stop offset="1" stop-color="white" stop-opacity="0"/>
</linearGradient>
<linearGradient id="paint1_linear_2906_103" x1="540.5" y1="116" x2="540.5" y2="123" gradientUnits="userSpaceOnUse">
<stop stop-color="#78EDD1"/>
<stop stop-color="#78EDD1"/>
<stop offset="1" stop-color="#009DBF" stop-opacity="0"/>
</linearGradient>
<linearGradient id="paint2_linear_2906_103" x1="540.5" y1="116" x2="540.5" y2="123" gradientUnits="userSpaceOnUse">
<stop stop-color="#009DBF"/>
<stop offset="1" stop-color="white" stop-opacity="0"/>
</linearGradient>
</defs>
</svg>
