<svg width="1088" height="2408" viewBox="0 0 1088 2408" fill="none" xmlns="http://www.w3.org/2000/svg">
<g filter="url(#filter0_dd)">
<rect x="19.0137" y="15" width="1048.99" height="2370" rx="77" fill="black" stroke="#393939" stroke-width="30"/>
<path d="M5 111.91C5 61.1 46.1898 19.9102 97 19.9102H992.001C1042.81 19.9102 1084 61.1 1084 111.91V219.918H5V111.91Z" fill="#393939"/>
<path d="M1083 2308C1083 2358.81 1041.81 2400 991.001 2400H96C45.1898 2400 4 2358.81 4 2308V2199.99H1083V2308Z" fill="#393939"/>
<g filter="url(#filter1_d)">
<path fill-rule="evenodd" clip-rule="evenodd" d="M485.632 1168.5C492.49 1156.17 495.92 1142.16 495.92 1126.45C495.92 1120.76 495.48 1115.31 494.599 1110.11H474.292C475.374 1115.16 475.913 1120.61 475.913 1126.45C475.913 1137.98 473.342 1148.22 468.198 1157.16C463.053 1166.11 456.003 1173.07 447.048 1178.04C438.094 1183.01 427.899 1185.49 416.467 1185.49C404.845 1185.49 394.556 1183.21 385.601 1178.64C376.646 1173.86 369.596 1167.3 364.452 1158.95C359.307 1150.41 356.735 1140.57 356.735 1129.43C356.735 1122.53 357.714 1116.09 359.673 1110.11H338.852C337.436 1116.25 336.729 1122.68 336.729 1129.43C336.729 1144.74 340.253 1158.26 347.303 1169.99C354.162 1181.72 363.594 1190.96 375.598 1197.72C387.601 1204.48 401.224 1207.86 416.467 1207.86C431.52 1207.86 445.048 1204.38 457.051 1197.42C469.055 1190.26 478.582 1180.62 485.632 1168.5Z" fill="#FFB700"/>
</g>
<g filter="url(#filter2_d)">
<path fill-rule="evenodd" clip-rule="evenodd" d="M740.339 1168.5C747.199 1156.17 750.628 1142.16 750.628 1126.45C750.628 1120.76 750.187 1115.31 749.304 1110.11H729C730.081 1115.16 730.622 1120.61 730.622 1126.45C730.622 1137.98 728.049 1148.22 722.905 1157.16C717.761 1166.11 710.711 1173.07 701.755 1178.04C692.801 1183.01 682.607 1185.49 671.175 1185.49C659.552 1185.49 649.263 1183.21 640.308 1178.64C631.354 1173.86 624.304 1167.3 619.159 1158.95C614.014 1150.41 611.443 1140.57 611.443 1129.43C611.443 1122.53 612.421 1116.09 614.38 1110.11H593.56C592.144 1116.25 591.437 1122.68 591.437 1129.43C591.437 1144.74 594.961 1158.26 602.011 1169.99C608.869 1181.72 618.301 1190.96 630.306 1197.72C642.309 1204.48 655.932 1207.86 671.175 1207.86C686.228 1207.86 699.755 1204.38 711.759 1197.42C723.764 1190.26 733.29 1180.62 740.339 1168.5Z" fill="#FFB700"/>
</g>
<g filter="url(#filter3_d)">
<path fill-rule="evenodd" clip-rule="evenodd" d="M327.772 1324.01H294.15V1121.26C294.441 1098.02 299.827 1077.17 310.306 1058.7C321.077 1039.93 335.486 1025.19 353.534 1014.46C371.873 1003.74 392.395 998.379 415.1 998.379C438.387 998.379 459.201 1003.89 477.539 1014.91C495.879 1025.64 510.288 1040.38 520.767 1059.15C531.538 1077.92 536.923 1099.21 536.923 1123.05C536.923 1146.58 531.683 1167.73 521.203 1186.5C511.015 1205.26 497.042 1220.16 479.286 1231.18C461.529 1241.9 441.444 1247.26 419.03 1247.26C399.526 1247.26 381.77 1243.09 365.76 1234.75C350.04 1226.11 337.378 1214.8 327.772 1200.79V1324.01ZM460.511 1203.92C447.12 1211.96 431.983 1215.99 415.1 1215.99C398.508 1215.99 383.516 1211.96 370.126 1203.92C356.736 1195.88 346.256 1184.86 338.688 1170.86C331.119 1156.56 327.335 1140.62 327.335 1123.05C327.335 1105.17 331.119 1089.23 338.688 1075.23C346.256 1061.23 356.736 1050.21 370.126 1042.17C383.516 1033.83 398.508 1029.66 415.1 1029.66C431.983 1029.66 447.12 1033.83 460.511 1042.17C473.901 1050.21 484.381 1061.23 491.948 1075.23C499.808 1089.23 503.737 1105.17 503.737 1123.05C503.737 1140.62 499.808 1156.56 491.948 1170.86C484.381 1184.86 473.901 1195.88 460.511 1203.92Z" fill="#09AC99"/>
</g>
<g filter="url(#filter4_d)">
<path fill-rule="evenodd" clip-rule="evenodd" d="M759.616 924.047V1044.88C750.01 1030.88 737.347 1019.71 721.628 1011.37C705.909 1002.73 688.298 998.413 668.795 998.413C646.381 998.413 626.294 1003.92 608.538 1014.95C590.781 1025.67 576.664 1040.42 566.184 1059.18C555.996 1077.95 550.902 1099.1 550.902 1122.63C550.902 1146.46 556.141 1167.76 566.62 1186.53C577.391 1205.3 591.946 1220.19 610.284 1231.21C628.624 1241.94 649.292 1247.3 672.288 1247.3C694.993 1247.3 715.369 1241.94 733.418 1231.21C751.756 1220.49 766.166 1205.89 776.644 1187.42C787.415 1168.66 793.092 1147.65 793.674 1124.42V924.047H759.616ZM717.262 1203.96C704.163 1212 689.171 1216.02 672.288 1216.02C655.696 1216.02 640.704 1212 627.314 1203.96C613.924 1195.62 603.298 1184.45 595.438 1170.44C587.579 1156.44 583.65 1140.51 583.65 1122.63C583.65 1105.06 587.579 1089.27 595.438 1075.27C603.298 1060.97 613.924 1049.8 627.314 1041.76C640.704 1033.71 655.696 1029.69 672.288 1029.69C689.171 1029.69 704.163 1033.71 717.262 1041.76C730.652 1049.8 741.131 1060.97 748.7 1075.27C756.559 1089.27 760.489 1105.06 760.489 1122.63C760.489 1140.51 756.559 1156.44 748.7 1170.44C741.131 1184.45 730.652 1195.62 717.262 1203.96Z" fill="#09AC99"/>
</g>
<path d="M310.939 2061.21C310.939 2072.63 308.042 2081.62 302.248 2088.16C296.486 2094.71 288.462 2097.98 278.176 2097.98C267.661 2097.98 259.54 2094.77 253.81 2088.36C248.114 2081.91 245.266 2072.83 245.266 2061.11C245.266 2049.49 248.13 2040.49 253.859 2034.11C259.588 2027.7 267.726 2024.49 278.273 2024.49C288.527 2024.49 296.535 2027.75 302.297 2034.26C308.058 2040.77 310.939 2049.75 310.939 2061.21ZM254.055 2061.21C254.055 2070.88 256.105 2078.22 260.207 2083.23C264.341 2088.21 270.331 2090.7 278.176 2090.7C286.086 2090.7 292.059 2088.21 296.096 2083.23C300.132 2078.25 302.15 2070.91 302.15 2061.21C302.15 2051.61 300.132 2044.33 296.096 2039.38C292.092 2034.4 286.151 2031.91 278.273 2031.91C270.363 2031.91 264.341 2034.42 260.207 2039.43C256.105 2044.41 254.055 2051.67 254.055 2061.21ZM362.307 2097V2062.38C362.307 2058.02 361.314 2054.76 359.328 2052.62C357.342 2050.47 354.234 2049.39 350.002 2049.39C344.403 2049.39 340.301 2050.91 337.697 2053.93C335.093 2056.96 333.791 2061.96 333.791 2068.92V2097H325.685V2043.48H332.277L333.596 2050.81H333.986C335.646 2048.17 337.974 2046.14 340.969 2044.71C343.963 2043.24 347.3 2042.51 350.978 2042.51C357.424 2042.51 362.274 2044.07 365.529 2047.2C368.784 2050.29 370.412 2055.25 370.412 2062.09V2097H362.307ZM409.719 2097.98C401.808 2097.98 395.558 2095.57 390.969 2090.75C386.411 2085.93 384.133 2079.24 384.133 2070.68C384.133 2062.06 386.249 2055.2 390.48 2050.12C394.745 2045.05 400.458 2042.51 407.619 2042.51C414.325 2042.51 419.631 2044.72 423.537 2049.15C427.443 2053.54 429.396 2059.35 429.396 2066.58V2071.71H392.531C392.694 2077.99 394.273 2082.76 397.267 2086.01C400.295 2089.27 404.543 2090.9 410.012 2090.9C415.773 2090.9 421.47 2089.69 427.101 2087.28V2094.51C424.237 2095.75 421.519 2096.63 418.947 2097.15C416.408 2097.7 413.332 2097.98 409.719 2097.98ZM407.521 2049.29C403.224 2049.29 399.79 2050.69 397.219 2053.49C394.68 2056.29 393.182 2060.17 392.726 2065.12H420.705C420.705 2060 419.566 2056.1 417.287 2053.4C415.008 2050.66 411.753 2049.29 407.521 2049.29ZM468.166 2097.98C464.683 2097.98 461.493 2097.34 458.596 2096.07C455.731 2094.77 453.322 2092.78 451.369 2090.12H450.783C451.174 2093.24 451.369 2096.2 451.369 2099V2121.02H443.264V2043.48H449.855L450.978 2050.81H451.369C453.452 2047.88 455.877 2045.76 458.644 2044.46C461.411 2043.16 464.585 2042.51 468.166 2042.51C475.262 2042.51 480.731 2044.93 484.572 2049.78C488.446 2054.63 490.383 2061.44 490.383 2070.19C490.383 2078.98 488.413 2085.82 484.474 2090.7C480.568 2095.55 475.132 2097.98 468.166 2097.98ZM466.994 2049.39C461.525 2049.39 457.57 2050.91 455.129 2053.93C452.687 2056.96 451.434 2061.78 451.369 2068.39V2070.19C451.369 2077.71 452.622 2083.1 455.129 2086.36C457.635 2089.58 461.655 2091.19 467.189 2091.19C471.812 2091.19 475.425 2089.32 478.029 2085.57C480.666 2081.83 481.984 2076.67 481.984 2070.1C481.984 2063.42 480.666 2058.31 478.029 2054.76C475.425 2051.18 471.747 2049.39 466.994 2049.39ZM512.697 2097H504.592V2021.02H512.697V2097ZM537.502 2043.48V2078.2C537.502 2082.56 538.495 2085.82 540.48 2087.97C542.466 2090.12 545.575 2091.19 549.807 2091.19C555.405 2091.19 559.491 2089.66 562.062 2086.6C564.667 2083.54 565.969 2078.54 565.969 2071.61V2043.48H574.074V2097H567.385L566.213 2089.82H565.773C564.113 2092.46 561.802 2094.48 558.84 2095.88C555.91 2097.28 552.557 2097.98 548.781 2097.98C542.271 2097.98 537.388 2096.43 534.133 2093.34C530.91 2090.25 529.299 2085.3 529.299 2078.49V2043.48H537.502ZM625.832 2082.4C625.832 2087.38 623.976 2091.22 620.266 2093.92C616.555 2096.63 611.346 2097.98 604.641 2097.98C597.544 2097.98 592.01 2096.85 588.039 2094.61V2087.09C590.611 2088.39 593.361 2089.42 596.291 2090.16C599.253 2090.91 602.101 2091.29 604.836 2091.29C609.068 2091.29 612.323 2090.62 614.601 2089.29C616.88 2087.92 618.019 2085.85 618.019 2083.08C618.019 2081 617.108 2079.23 615.285 2077.76C613.495 2076.26 609.979 2074.51 604.738 2072.49C599.758 2070.63 596.21 2069.02 594.094 2067.65C592.01 2066.25 590.448 2064.68 589.406 2062.92C588.397 2061.16 587.892 2059.06 587.892 2056.62C587.892 2052.26 589.667 2048.82 593.215 2046.32C596.763 2043.78 601.629 2042.51 607.814 2042.51C613.576 2042.51 619.208 2043.68 624.709 2046.02L621.828 2052.62C616.457 2050.4 611.59 2049.29 607.228 2049.29C603.387 2049.29 600.49 2049.9 598.537 2051.1C596.584 2052.31 595.607 2053.97 595.607 2056.08C595.607 2057.51 595.965 2058.74 596.682 2059.74C597.43 2060.75 598.618 2061.71 600.246 2062.62C601.874 2063.54 604.999 2064.85 609.621 2066.58C615.969 2068.89 620.249 2071.22 622.463 2073.56C624.709 2075.91 625.832 2078.85 625.832 2082.4ZM705.568 2042.41C705.568 2046.97 704.282 2050.69 701.711 2053.59C699.172 2056.49 695.558 2058.43 690.871 2059.4V2059.79C696.6 2060.51 700.848 2062.33 703.615 2065.26C706.382 2068.19 707.766 2072.03 707.766 2076.79C707.766 2083.59 705.405 2088.83 700.685 2092.51C695.965 2096.15 689.26 2097.98 680.568 2097.98C676.792 2097.98 673.325 2097.68 670.168 2097.1C667.043 2096.54 663.999 2095.55 661.037 2094.12V2086.4C664.129 2087.93 667.417 2089.11 670.9 2089.92C674.416 2090.7 677.736 2091.09 680.861 2091.09C693.198 2091.09 699.367 2086.26 699.367 2076.59C699.367 2067.93 692.564 2063.6 678.957 2063.6H671.926V2056.62H679.055C684.621 2056.62 689.032 2055.4 692.287 2052.96C695.542 2050.48 697.17 2047.07 697.17 2042.7C697.17 2039.22 695.965 2036.49 693.557 2034.5C691.18 2032.51 687.941 2031.52 683.84 2031.52C680.715 2031.52 677.769 2031.94 675.002 2032.79C672.235 2033.64 669.077 2035.2 665.529 2037.48L661.428 2032.01C664.357 2029.7 667.726 2027.89 671.535 2026.59C675.376 2025.26 679.413 2024.59 683.644 2024.59C690.578 2024.59 695.965 2026.18 699.807 2029.37C703.648 2032.53 705.568 2036.88 705.568 2042.41ZM749.367 2025.61L722.756 2097H714.65L741.262 2025.61H749.367ZM799.514 2042.41C799.514 2046.97 798.228 2050.69 795.656 2053.59C793.117 2056.49 789.504 2058.43 784.816 2059.4V2059.79C790.545 2060.51 794.793 2062.33 797.56 2065.26C800.327 2068.19 801.711 2072.03 801.711 2076.79C801.711 2083.59 799.351 2088.83 794.631 2092.51C789.911 2096.15 783.205 2097.98 774.514 2097.98C770.738 2097.98 767.271 2097.68 764.113 2097.1C760.988 2096.54 757.945 2095.55 754.982 2094.12V2086.4C758.075 2087.93 761.363 2089.11 764.846 2089.92C768.361 2090.7 771.682 2091.09 774.807 2091.09C787.144 2091.09 793.312 2086.26 793.312 2076.59C793.312 2067.93 786.509 2063.6 772.902 2063.6H765.871V2056.62H773C778.566 2056.62 782.977 2055.4 786.232 2052.96C789.488 2050.48 791.115 2047.07 791.115 2042.7C791.115 2039.22 789.911 2036.49 787.502 2034.5C785.126 2032.51 781.887 2031.52 777.785 2031.52C774.66 2031.52 771.714 2031.94 768.947 2032.79C766.18 2033.64 763.023 2035.2 759.474 2037.48L755.373 2032.01C758.303 2029.7 761.672 2027.89 765.48 2026.59C769.321 2025.26 773.358 2024.59 777.59 2024.59C784.523 2024.59 789.911 2026.18 793.752 2029.37C797.593 2032.53 799.514 2036.88 799.514 2042.41ZM839.406 2097H831.105V2032.99H808.498V2025.61H862.014V2032.99H839.406V2097Z" fill="white"/>
<ellipse cx="207" cy="103.001" rx="25" ry="25.0013" fill="white"/>
<rect x="464" y="96" width="160" height="15" rx="7.5" fill="white"/>
<rect x="329" y="93" width="40" height="20" rx="8" fill="white"/>
<rect x="466" y="2263" width="155" height="75" rx="25" stroke="white" stroke-width="10"/>
</g>
<defs>
<filter id="filter0_dd" x="0" y="0" width="1088" height="2408" filterUnits="userSpaceOnUse" color-interpolation-filters="sRGB">
<feFlood flood-opacity="0" result="BackgroundImageFix"/>
<feColorMatrix in="SourceAlpha" type="matrix" values="0 0 0 0 0 0 0 0 0 0 0 0 0 0 0 0 0 0 127 0"/>
<feOffset dy="4"/>
<feGaussianBlur stdDeviation="2"/>
<feColorMatrix type="matrix" values="0 0 0 0 0 0 0 0 0 0 0 0 0 0 0 0 0 0 0.25 0"/>
<feBlend mode="normal" in2="BackgroundImageFix" result="effect1_dropShadow"/>
<feColorMatrix in="SourceAlpha" type="matrix" values="0 0 0 0 0 0 0 0 0 0 0 0 0 0 0 0 0 0 127 0"/>
<feOffset dy="4"/>
<feGaussianBlur stdDeviation="2"/>
<feColorMatrix type="matrix" values="0 0 0 0 0 0 0 0 0 0 0 0 0 0 0 0 0 0 0.25 0"/>
<feBlend mode="normal" in2="effect1_dropShadow" result="effect2_dropShadow"/>
<feBlend mode="normal" in="SourceGraphic" in2="effect2_dropShadow" result="shape"/>
</filter>
<filter id="filter1_d" x="332.729" y="1110.11" width="167.192" height="105.745" filterUnits="userSpaceOnUse" color-interpolation-filters="sRGB">
<feFlood flood-opacity="0" result="BackgroundImageFix"/>
<feColorMatrix in="SourceAlpha" type="matrix" values="0 0 0 0 0 0 0 0 0 0 0 0 0 0 0 0 0 0 127 0"/>
<feOffset dy="4"/>
<feGaussianBlur stdDeviation="2"/>
<feColorMatrix type="matrix" values="0 0 0 0 0 0 0 0 0 0 0 0 0 0 0 0 0 0 0.25 0"/>
<feBlend mode="normal" in2="BackgroundImageFix" result="effect1_dropShadow"/>
<feBlend mode="normal" in="SourceGraphic" in2="effect1_dropShadow" result="shape"/>
</filter>
<filter id="filter2_d" x="587.437" y="1110.11" width="167.192" height="105.745" filterUnits="userSpaceOnUse" color-interpolation-filters="sRGB">
<feFlood flood-opacity="0" result="BackgroundImageFix"/>
<feColorMatrix in="SourceAlpha" type="matrix" values="0 0 0 0 0 0 0 0 0 0 0 0 0 0 0 0 0 0 127 0"/>
<feOffset dy="4"/>
<feGaussianBlur stdDeviation="2"/>
<feColorMatrix type="matrix" values="0 0 0 0 0 0 0 0 0 0 0 0 0 0 0 0 0 0 0.25 0"/>
<feBlend mode="normal" in2="BackgroundImageFix" result="effect1_dropShadow"/>
<feBlend mode="normal" in="SourceGraphic" in2="effect1_dropShadow" result="shape"/>
</filter>
<filter id="filter3_d" x="290.15" y="998.379" width="250.772" height="333.635" filterUnits="userSpaceOnUse" color-interpolation-filters="sRGB">
<feFlood flood-opacity="0" result="BackgroundImageFix"/>
<feColorMatrix in="SourceAlpha" type="matrix" values="0 0 0 0 0 0 0 0 0 0 0 0 0 0 0 0 0 0 127 0"/>
<feOffset dy="4"/>
<feGaussianBlur stdDeviation="2"/>
<feColorMatrix type="matrix" values="0 0 0 0 0 0 0 0 0 0 0 0 0 0 0 0 0 0 0.25 0"/>
<feBlend mode="normal" in2="BackgroundImageFix" result="effect1_dropShadow"/>
<feBlend mode="normal" in="SourceGraphic" in2="effect1_dropShadow" result="shape"/>
</filter>
<filter id="filter4_d" x="546.902" y="924.047" width="250.772" height="331.252" filterUnits="userSpaceOnUse" color-interpolation-filters="sRGB">
<feFlood flood-opacity="0" result="BackgroundImageFix"/>
<feColorMatrix in="SourceAlpha" type="matrix" values="0 0 0 0 0 0 0 0 0 0 0 0 0 0 0 0 0 0 127 0"/>
<feOffset dy="4"/>
<feGaussianBlur stdDeviation="2"/>
<feColorMatrix type="matrix" values="0 0 0 0 0 0 0 0 0 0 0 0 0 0 0 0 0 0 0.25 0"/>
<feBlend mode="normal" in2="BackgroundImageFix" result="effect1_dropShadow"/>
<feBlend mode="normal" in="SourceGraphic" in2="effect1_dropShadow" result="shape"/>
</filter>
</defs>
</svg>
