<svg width="1080" height="2400" viewBox="0 0 1080 2400" fill="none" xmlns="http://www.w3.org/2000/svg">
<rect x="15" y="15" width="1050" height="2370" rx="77" fill="black" stroke="#393939" stroke-width="30"/>
<g filter="url(#filter0_d)">
<path d="M384.165 2210.76C384.165 2220.62 381.668 2228.19 376.675 2233.48C371.724 2238.73 364.551 2241.35 355.156 2241.35H350.84V2275H333.574V2182.19H357.124C375.151 2182.19 384.165 2191.71 384.165 2210.76ZM350.84 2226.37H354.141C358.372 2226.37 361.525 2225.21 363.599 2222.88C365.672 2220.55 366.709 2216.75 366.709 2211.46C366.709 2206.59 365.757 2202.99 363.853 2200.67C361.948 2198.3 359.007 2197.11 355.029 2197.11H350.84V2226.37ZM459.766 2228.47C459.766 2243.83 456.888 2255.64 451.133 2263.89C445.378 2272.14 437.147 2276.27 426.44 2276.27C415.692 2276.27 407.44 2272.16 401.685 2263.95C395.929 2255.7 393.052 2243.83 393.052 2228.34C393.052 2212.98 395.929 2201.22 401.685 2193.05C407.44 2184.84 415.734 2180.73 426.567 2180.73C437.274 2180.73 445.483 2184.86 451.196 2193.11C456.909 2201.32 459.766 2213.11 459.766 2228.47ZM410.698 2228.47C410.698 2239.05 412.031 2247.11 414.697 2252.65C417.363 2258.2 421.278 2260.97 426.44 2260.97C436.851 2260.97 442.056 2250.13 442.056 2228.47C442.056 2206.8 436.893 2195.97 426.567 2195.97C421.32 2195.97 417.363 2198.74 414.697 2204.28C412.031 2209.78 410.698 2217.85 410.698 2228.47ZM504.136 2195.97C499.185 2195.97 495.27 2198.87 492.393 2204.66C489.557 2210.46 488.14 2218.52 488.14 2228.85C488.14 2250.35 493.747 2261.09 504.961 2261.09C509.87 2261.09 515.011 2259.53 520.386 2256.4V2271.76C515.858 2274.76 510.06 2276.27 502.993 2276.27C492.541 2276.27 484.5 2272.12 478.872 2263.82C473.286 2255.49 470.493 2243.79 470.493 2228.72C470.493 2213.66 473.371 2201.91 479.126 2193.49C484.924 2185.07 492.964 2180.86 503.247 2180.86C506.632 2180.86 509.87 2181.33 512.959 2182.26C516.09 2183.19 519.434 2184.82 522.988 2187.14L517.275 2201.17C515.371 2199.86 513.34 2198.68 511.182 2197.62C509.023 2196.52 506.675 2195.97 504.136 2195.97ZM595.352 2228.47C595.352 2243.83 592.474 2255.64 586.719 2263.89C580.964 2272.14 572.733 2276.27 562.026 2276.27C551.278 2276.27 543.026 2272.16 537.271 2263.95C531.515 2255.7 528.638 2243.83 528.638 2228.34C528.638 2212.98 531.515 2201.22 537.271 2193.05C543.026 2184.84 551.32 2180.73 562.153 2180.73C572.86 2180.73 581.069 2184.86 586.782 2193.11C592.495 2201.32 595.352 2213.11 595.352 2228.47ZM546.284 2228.47C546.284 2239.05 547.617 2247.11 550.283 2252.65C552.949 2258.2 556.864 2260.97 562.026 2260.97C572.437 2260.97 577.642 2250.13 577.642 2228.47C577.642 2206.8 572.479 2195.97 562.153 2195.97C556.906 2195.97 552.949 2198.74 550.283 2204.28C547.617 2209.78 546.284 2217.85 546.284 2228.47ZM694.375 2275H676.411L663.145 2241.73L650.83 2275H632.866L654.067 2226.75L634.453 2182.19H651.846L664.097 2212.73L674.697 2182.19H692.788L673.174 2227.52L694.375 2275ZM748.901 2275H699.136V2262.11L715.64 2238.75C720.168 2232.32 723.278 2227.56 724.971 2224.47C726.663 2221.34 727.912 2218.35 728.716 2215.52C729.52 2212.64 729.922 2209.68 729.922 2206.63C729.922 2203.08 729.118 2200.41 727.51 2198.63C725.944 2196.86 723.892 2195.97 721.353 2195.97C719.11 2195.97 717.015 2196.56 715.068 2197.75C713.122 2198.93 710.752 2201.07 707.959 2204.16L698.311 2194C702.754 2188.96 706.88 2185.52 710.688 2183.65C714.497 2181.79 718.623 2180.86 723.066 2180.86C730.557 2180.86 736.396 2183.06 740.586 2187.46C744.818 2191.86 746.934 2197.98 746.934 2205.81C746.934 2209.36 746.553 2212.73 745.791 2215.9C745.029 2219.07 743.866 2222.27 742.3 2225.48C740.776 2228.66 738.851 2231.98 736.523 2235.45C734.196 2238.88 728.187 2246.77 718.496 2259.13V2259.63H748.901V2275Z" fill="white"/>
</g>
<path d="M957.791 86H832.209C811.659 86 795 103.909 795 126C795 148.091 811.659 166 832.209 166H957.791C978.341 166 995 148.091 995 126C995 103.909 978.341 86 957.791 86Z" fill="#393939"/>
<g filter="url(#filter1_d)">
<path fill-rule="evenodd" clip-rule="evenodd" d="M481.657 1244.42C488.521 1232.09 491.954 1218.08 491.954 1202.37C491.954 1196.68 491.514 1191.23 490.632 1186.04H470.306C471.389 1191.09 471.929 1196.53 471.929 1202.37C471.929 1213.9 469.356 1224.14 464.206 1233.09C459.057 1242.03 452 1248.99 443.037 1253.96C434.074 1258.93 423.87 1261.41 412.427 1261.41C400.794 1261.41 390.495 1259.13 381.531 1254.56C372.568 1249.79 365.511 1243.23 360.362 1234.88C355.213 1226.33 352.638 1216.49 352.638 1205.35C352.638 1198.45 353.619 1192.01 355.579 1186.04H334.739C333.322 1192.17 332.613 1198.61 332.613 1205.35C332.613 1220.66 336.141 1234.18 343.198 1245.91C350.063 1257.64 359.504 1266.88 371.519 1273.64C383.534 1280.4 397.17 1283.78 412.427 1283.78C427.493 1283.78 441.035 1280.3 453.049 1273.34C465.064 1266.19 474.6 1256.54 481.657 1244.42Z" fill="#FFB700"/>
</g>
<g filter="url(#filter2_d)">
<path fill-rule="evenodd" clip-rule="evenodd" d="M736.601 1244.42C743.467 1232.09 746.9 1218.08 746.9 1202.37C746.9 1196.68 746.458 1191.23 745.575 1186.04H725.251C726.333 1191.09 726.875 1196.53 726.875 1202.37C726.875 1213.9 724.3 1224.14 719.15 1233.09C714.002 1242.03 706.945 1248.99 697.981 1253.96C689.018 1258.93 678.815 1261.41 667.372 1261.41C655.738 1261.41 645.439 1259.13 636.476 1254.56C627.513 1249.79 620.457 1243.23 615.307 1234.88C610.157 1226.33 607.584 1216.49 607.584 1205.35C607.584 1198.45 608.563 1192.01 610.524 1186.04H589.684C588.267 1192.17 587.559 1198.61 587.559 1205.35C587.559 1220.66 591.086 1234.18 598.143 1245.91C605.008 1257.64 614.449 1266.88 626.464 1273.64C638.478 1280.4 652.114 1283.78 667.372 1283.78C682.439 1283.78 695.979 1280.3 707.994 1273.34C720.01 1266.19 729.545 1256.54 736.601 1244.42Z" fill="#FFB700"/>
</g>
<g filter="url(#filter3_d)">
<path fill-rule="evenodd" clip-rule="evenodd" d="M323.653 1400H290V1197.24C290.291 1174.01 295.682 1153.15 306.171 1134.69C316.951 1115.92 331.374 1101.17 349.439 1090.45C367.795 1079.73 388.336 1074.36 411.063 1074.36C434.372 1074.36 455.205 1079.87 473.561 1090.9C491.918 1101.62 506.341 1116.37 516.829 1135.13C527.61 1153.9 533 1175.2 533 1199.03C533 1222.56 527.756 1243.71 517.266 1262.48C507.069 1281.25 493.082 1296.14 475.309 1307.16C457.536 1317.89 437.432 1323.25 414.997 1323.25C395.475 1323.25 377.702 1319.08 361.676 1310.74C345.943 1302.1 333.268 1290.78 323.653 1276.78V1400ZM456.517 1279.91C443.113 1287.95 427.962 1291.97 411.063 1291.97C394.455 1291.97 379.45 1287.95 366.047 1279.91C352.644 1271.86 342.155 1260.84 334.579 1246.84C327.004 1232.54 323.216 1216.61 323.216 1199.03C323.216 1181.16 327.004 1165.22 334.579 1151.22C342.155 1137.22 352.644 1126.2 366.047 1118.15C379.45 1109.81 394.455 1105.64 411.063 1105.64C427.962 1105.64 443.113 1109.81 456.517 1118.15C469.919 1126.2 480.409 1137.22 487.984 1151.22C495.851 1165.22 499.784 1181.16 499.784 1199.03C499.784 1216.61 495.851 1232.54 487.984 1246.84C480.409 1260.84 469.919 1271.86 456.517 1279.91Z" fill="#09AC99"/>
</g>
<g filter="url(#filter4_d)">
<path fill-rule="evenodd" clip-rule="evenodd" d="M755.91 1000V1120.84C746.295 1106.84 733.62 1095.66 717.886 1087.32C702.153 1078.69 684.525 1074.37 665.004 1074.37C642.568 1074.37 622.463 1079.88 604.69 1090.9C586.916 1101.62 572.786 1116.37 562.296 1135.14C552.099 1153.9 547 1175.05 547 1198.59C547 1222.42 552.244 1243.72 562.733 1262.48C573.514 1281.25 588.082 1296.14 606.438 1307.17C624.795 1317.89 645.482 1323.25 668.5 1323.25C691.227 1323.25 711.621 1317.89 729.687 1307.17C748.043 1296.44 762.466 1281.84 772.954 1263.38C783.735 1244.61 789.418 1223.61 790 1200.37V1000H755.91ZM713.516 1279.91C700.405 1287.95 685.399 1291.97 668.5 1291.97C651.892 1291.97 636.886 1287.95 623.484 1279.91C610.081 1271.57 599.446 1260.4 591.578 1246.4C583.711 1232.4 579.778 1216.46 579.778 1198.59C579.778 1181.01 583.711 1165.22 591.578 1151.22C599.446 1136.92 610.081 1125.75 623.484 1117.71C636.886 1109.67 651.892 1105.64 668.5 1105.64C685.399 1105.64 700.405 1109.67 713.516 1117.71C726.919 1125.75 737.407 1136.92 744.983 1151.22C752.851 1165.22 756.783 1181.01 756.783 1198.59C756.783 1216.46 752.851 1232.4 744.983 1246.4C737.407 1260.4 726.919 1271.57 713.516 1279.91Z" fill="#09AC99"/>
</g>
<g filter="url(#filter5_d)">
<path fill-rule="evenodd" clip-rule="evenodd" d="M481.657 1244.42C488.521 1232.09 491.954 1218.08 491.954 1202.37C491.954 1196.68 491.514 1191.23 490.632 1186.04H470.306C471.389 1191.09 471.929 1196.53 471.929 1202.37C471.929 1213.9 469.356 1224.14 464.206 1233.09C459.057 1242.03 452 1248.99 443.037 1253.96C434.074 1258.93 423.87 1261.41 412.427 1261.41C400.794 1261.41 390.495 1259.13 381.531 1254.56C372.568 1249.79 365.511 1243.23 360.362 1234.88C355.213 1226.33 352.638 1216.49 352.638 1205.35C352.638 1198.45 353.619 1192.01 355.579 1186.04H334.739C333.322 1192.17 332.613 1198.61 332.613 1205.35C332.613 1220.66 336.141 1234.18 343.198 1245.91C350.063 1257.64 359.504 1266.88 371.519 1273.64C383.534 1280.4 397.17 1283.78 412.427 1283.78C427.493 1283.78 441.035 1280.3 453.049 1273.34C465.064 1266.19 474.6 1256.54 481.657 1244.42Z" fill="#FFB700"/>
</g>
<g filter="url(#filter6_d)">
<path fill-rule="evenodd" clip-rule="evenodd" d="M736.601 1244.42C743.467 1232.09 746.9 1218.08 746.9 1202.37C746.9 1196.68 746.458 1191.23 745.575 1186.04H725.251C726.333 1191.09 726.875 1196.53 726.875 1202.37C726.875 1213.9 724.3 1224.14 719.15 1233.09C714.002 1242.03 706.945 1248.99 697.981 1253.96C689.018 1258.93 678.815 1261.41 667.372 1261.41C655.738 1261.41 645.439 1259.13 636.476 1254.56C627.513 1249.79 620.457 1243.23 615.307 1234.88C610.157 1226.33 607.584 1216.49 607.584 1205.35C607.584 1198.45 608.563 1192.01 610.524 1186.04H589.684C588.267 1192.17 587.559 1198.61 587.559 1205.35C587.559 1220.66 591.086 1234.18 598.143 1245.91C605.008 1257.64 614.449 1266.88 626.464 1273.64C638.478 1280.4 652.114 1283.78 667.372 1283.78C682.439 1283.78 695.979 1280.3 707.994 1273.34C720.01 1266.19 729.545 1256.54 736.601 1244.42Z" fill="#FFB700"/>
</g>
<g filter="url(#filter7_d)">
<path fill-rule="evenodd" clip-rule="evenodd" d="M323.653 1400H290V1197.24C290.291 1174.01 295.682 1153.15 306.171 1134.69C316.951 1115.92 331.374 1101.17 349.439 1090.45C367.795 1079.73 388.336 1074.36 411.063 1074.36C434.372 1074.36 455.205 1079.87 473.561 1090.9C491.918 1101.62 506.341 1116.37 516.829 1135.13C527.61 1153.9 533 1175.2 533 1199.03C533 1222.56 527.756 1243.71 517.266 1262.48C507.069 1281.25 493.082 1296.14 475.309 1307.16C457.536 1317.89 437.432 1323.25 414.997 1323.25C395.475 1323.25 377.702 1319.08 361.676 1310.74C345.943 1302.1 333.268 1290.78 323.653 1276.78V1400ZM456.517 1279.91C443.113 1287.95 427.962 1291.97 411.063 1291.97C394.455 1291.97 379.45 1287.95 366.047 1279.91C352.644 1271.86 342.155 1260.84 334.579 1246.84C327.004 1232.54 323.216 1216.61 323.216 1199.03C323.216 1181.16 327.004 1165.22 334.579 1151.22C342.155 1137.22 352.644 1126.2 366.047 1118.15C379.45 1109.81 394.455 1105.64 411.063 1105.64C427.962 1105.64 443.113 1109.81 456.517 1118.15C469.919 1126.2 480.409 1137.22 487.984 1151.22C495.851 1165.22 499.784 1181.16 499.784 1199.03C499.784 1216.61 495.851 1232.54 487.984 1246.84C480.409 1260.84 469.919 1271.86 456.517 1279.91Z" fill="#09AC99"/>
</g>
<g filter="url(#filter8_d)">
<path fill-rule="evenodd" clip-rule="evenodd" d="M755.91 1000V1120.84C746.295 1106.84 733.62 1095.66 717.886 1087.32C702.153 1078.69 684.525 1074.37 665.004 1074.37C642.568 1074.37 622.463 1079.88 604.69 1090.9C586.916 1101.62 572.786 1116.37 562.296 1135.14C552.099 1153.9 547 1175.05 547 1198.59C547 1222.42 552.244 1243.72 562.733 1262.48C573.514 1281.25 588.082 1296.14 606.438 1307.17C624.795 1317.89 645.482 1323.25 668.5 1323.25C691.227 1323.25 711.621 1317.89 729.687 1307.17C748.043 1296.44 762.466 1281.84 772.954 1263.38C783.735 1244.61 789.418 1223.61 790 1200.37V1000H755.91ZM713.516 1279.91C700.405 1287.95 685.399 1291.97 668.5 1291.97C651.892 1291.97 636.886 1287.95 623.484 1279.91C610.081 1271.57 599.446 1260.4 591.578 1246.4C583.711 1232.4 579.778 1216.46 579.778 1198.59C579.778 1181.01 583.711 1165.22 591.578 1151.22C599.446 1136.92 610.081 1125.75 623.484 1117.71C636.886 1109.67 651.892 1105.64 668.5 1105.64C685.399 1105.64 700.405 1109.67 713.516 1117.71C726.919 1125.75 737.407 1136.92 744.983 1151.22C752.851 1165.22 756.783 1181.01 756.783 1198.59C756.783 1216.46 752.851 1232.4 744.983 1246.4C737.407 1260.4 726.919 1271.57 713.516 1279.91Z" fill="#09AC99"/>
</g>
<defs>
<filter id="filter0_d" x="329.574" y="2180.73" width="423.327" height="103.532" filterUnits="userSpaceOnUse" color-interpolation-filters="sRGB">
<feFlood flood-opacity="0" result="BackgroundImageFix"/>
<feColorMatrix in="SourceAlpha" type="matrix" values="0 0 0 0 0 0 0 0 0 0 0 0 0 0 0 0 0 0 127 0"/>
<feOffset dy="4"/>
<feGaussianBlur stdDeviation="2"/>
<feColorMatrix type="matrix" values="0 0 0 0 0 0 0 0 0 0 0 0 0 0 0 0 0 0 0.25 0"/>
<feBlend mode="normal" in2="BackgroundImageFix" result="effect1_dropShadow"/>
<feBlend mode="normal" in="SourceGraphic" in2="effect1_dropShadow" result="shape"/>
</filter>
<filter id="filter1_d" x="328.613" y="1186.04" width="167.341" height="105.745" filterUnits="userSpaceOnUse" color-interpolation-filters="sRGB">
<feFlood flood-opacity="0" result="BackgroundImageFix"/>
<feColorMatrix in="SourceAlpha" type="matrix" values="0 0 0 0 0 0 0 0 0 0 0 0 0 0 0 0 0 0 127 0"/>
<feOffset dy="4"/>
<feGaussianBlur stdDeviation="2"/>
<feColorMatrix type="matrix" values="0 0 0 0 0 0 0 0 0 0 0 0 0 0 0 0 0 0 0.25 0"/>
<feBlend mode="normal" in2="BackgroundImageFix" result="effect1_dropShadow"/>
<feBlend mode="normal" in="SourceGraphic" in2="effect1_dropShadow" result="shape"/>
</filter>
<filter id="filter2_d" x="583.559" y="1186.04" width="167.341" height="105.745" filterUnits="userSpaceOnUse" color-interpolation-filters="sRGB">
<feFlood flood-opacity="0" result="BackgroundImageFix"/>
<feColorMatrix in="SourceAlpha" type="matrix" values="0 0 0 0 0 0 0 0 0 0 0 0 0 0 0 0 0 0 127 0"/>
<feOffset dy="4"/>
<feGaussianBlur stdDeviation="2"/>
<feColorMatrix type="matrix" values="0 0 0 0 0 0 0 0 0 0 0 0 0 0 0 0 0 0 0.25 0"/>
<feBlend mode="normal" in2="BackgroundImageFix" result="effect1_dropShadow"/>
<feBlend mode="normal" in="SourceGraphic" in2="effect1_dropShadow" result="shape"/>
</filter>
<filter id="filter3_d" x="286" y="1074.36" width="251" height="333.635" filterUnits="userSpaceOnUse" color-interpolation-filters="sRGB">
<feFlood flood-opacity="0" result="BackgroundImageFix"/>
<feColorMatrix in="SourceAlpha" type="matrix" values="0 0 0 0 0 0 0 0 0 0 0 0 0 0 0 0 0 0 127 0"/>
<feOffset dy="4"/>
<feGaussianBlur stdDeviation="2"/>
<feColorMatrix type="matrix" values="0 0 0 0 0 0 0 0 0 0 0 0 0 0 0 0 0 0 0.25 0"/>
<feBlend mode="normal" in2="BackgroundImageFix" result="effect1_dropShadow"/>
<feBlend mode="normal" in="SourceGraphic" in2="effect1_dropShadow" result="shape"/>
</filter>
<filter id="filter4_d" x="543" y="1000" width="251" height="331.251" filterUnits="userSpaceOnUse" color-interpolation-filters="sRGB">
<feFlood flood-opacity="0" result="BackgroundImageFix"/>
<feColorMatrix in="SourceAlpha" type="matrix" values="0 0 0 0 0 0 0 0 0 0 0 0 0 0 0 0 0 0 127 0"/>
<feOffset dy="4"/>
<feGaussianBlur stdDeviation="2"/>
<feColorMatrix type="matrix" values="0 0 0 0 0 0 0 0 0 0 0 0 0 0 0 0 0 0 0.25 0"/>
<feBlend mode="normal" in2="BackgroundImageFix" result="effect1_dropShadow"/>
<feBlend mode="normal" in="SourceGraphic" in2="effect1_dropShadow" result="shape"/>
</filter>
<filter id="filter5_d" x="328.613" y="1186.04" width="167.341" height="105.745" filterUnits="userSpaceOnUse" color-interpolation-filters="sRGB">
<feFlood flood-opacity="0" result="BackgroundImageFix"/>
<feColorMatrix in="SourceAlpha" type="matrix" values="0 0 0 0 0 0 0 0 0 0 0 0 0 0 0 0 0 0 127 0"/>
<feOffset dy="4"/>
<feGaussianBlur stdDeviation="2"/>
<feColorMatrix type="matrix" values="0 0 0 0 0 0 0 0 0 0 0 0 0 0 0 0 0 0 0.25 0"/>
<feBlend mode="normal" in2="BackgroundImageFix" result="effect1_dropShadow"/>
<feBlend mode="normal" in="SourceGraphic" in2="effect1_dropShadow" result="shape"/>
</filter>
<filter id="filter6_d" x="583.559" y="1186.04" width="167.341" height="105.745" filterUnits="userSpaceOnUse" color-interpolation-filters="sRGB">
<feFlood flood-opacity="0" result="BackgroundImageFix"/>
<feColorMatrix in="SourceAlpha" type="matrix" values="0 0 0 0 0 0 0 0 0 0 0 0 0 0 0 0 0 0 127 0"/>
<feOffset dy="4"/>
<feGaussianBlur stdDeviation="2"/>
<feColorMatrix type="matrix" values="0 0 0 0 0 0 0 0 0 0 0 0 0 0 0 0 0 0 0.25 0"/>
<feBlend mode="normal" in2="BackgroundImageFix" result="effect1_dropShadow"/>
<feBlend mode="normal" in="SourceGraphic" in2="effect1_dropShadow" result="shape"/>
</filter>
<filter id="filter7_d" x="286" y="1074.36" width="251" height="333.635" filterUnits="userSpaceOnUse" color-interpolation-filters="sRGB">
<feFlood flood-opacity="0" result="BackgroundImageFix"/>
<feColorMatrix in="SourceAlpha" type="matrix" values="0 0 0 0 0 0 0 0 0 0 0 0 0 0 0 0 0 0 127 0"/>
<feOffset dy="4"/>
<feGaussianBlur stdDeviation="2"/>
<feColorMatrix type="matrix" values="0 0 0 0 0 0 0 0 0 0 0 0 0 0 0 0 0 0 0.25 0"/>
<feBlend mode="normal" in2="BackgroundImageFix" result="effect1_dropShadow"/>
<feBlend mode="normal" in="SourceGraphic" in2="effect1_dropShadow" result="shape"/>
</filter>
<filter id="filter8_d" x="543" y="1000" width="251" height="331.251" filterUnits="userSpaceOnUse" color-interpolation-filters="sRGB">
<feFlood flood-opacity="0" result="BackgroundImageFix"/>
<feColorMatrix in="SourceAlpha" type="matrix" values="0 0 0 0 0 0 0 0 0 0 0 0 0 0 0 0 0 0 127 0"/>
<feOffset dy="4"/>
<feGaussianBlur stdDeviation="2"/>
<feColorMatrix type="matrix" values="0 0 0 0 0 0 0 0 0 0 0 0 0 0 0 0 0 0 0.25 0"/>
<feBlend mode="normal" in2="BackgroundImageFix" result="effect1_dropShadow"/>
<feBlend mode="normal" in="SourceGraphic" in2="effect1_dropShadow" result="shape"/>
</filter>
</defs>
</svg>
