<svg width="1080" height="2400" viewBox="0 0 1080 2400" fill="none" xmlns="http://www.w3.org/2000/svg">
<rect x="15" y="15" width="1050" height="2370" rx="77" fill="black" stroke="#393939" stroke-width="30"/>
<g filter="url(#filter0_d)">
<path fill-rule="evenodd" clip-rule="evenodd" d="M519.653 1244.42C526.517 1232.09 529.95 1218.08 529.95 1202.37C529.95 1196.68 529.509 1191.23 528.628 1186.04H508.302C509.385 1191.09 509.925 1196.53 509.925 1202.37C509.925 1213.9 507.351 1224.14 502.202 1233.09C497.052 1242.03 489.995 1248.99 481.033 1253.96C472.07 1258.93 461.866 1261.41 450.423 1261.41C438.79 1261.41 428.49 1259.13 419.527 1254.56C410.564 1249.79 403.507 1243.23 398.358 1234.88C393.209 1226.33 390.634 1216.49 390.634 1205.35C390.634 1198.45 391.614 1192.01 393.575 1186.04H372.735C371.317 1192.17 370.609 1198.61 370.609 1205.35C370.609 1220.66 374.137 1234.18 381.194 1245.91C388.059 1257.64 397.5 1266.88 409.515 1273.64C421.53 1280.4 435.166 1283.78 450.423 1283.78C465.489 1283.78 479.03 1280.3 491.045 1273.34C503.06 1266.19 512.596 1256.54 519.653 1244.42Z" fill="#FFB700"/>
</g>
<g filter="url(#filter1_d)">
<path fill-rule="evenodd" clip-rule="evenodd" d="M774.605 1244.42C781.471 1232.09 784.904 1218.08 784.904 1202.37C784.904 1196.68 784.462 1191.23 783.579 1186.04H763.255C764.337 1191.09 764.878 1196.53 764.878 1202.37C764.878 1213.9 762.304 1224.14 757.154 1233.09C752.006 1242.03 744.949 1248.99 735.985 1253.96C727.022 1258.93 716.819 1261.41 705.376 1261.41C693.742 1261.41 683.443 1259.13 674.48 1254.56C665.517 1249.79 658.46 1243.23 653.311 1234.88C648.161 1226.33 645.588 1216.49 645.588 1205.35C645.588 1198.45 646.567 1192.01 648.528 1186.04H627.688C626.271 1192.17 625.562 1198.61 625.562 1205.35C625.562 1220.66 629.09 1234.18 636.147 1245.91C643.012 1257.64 652.453 1266.88 664.468 1273.64C676.482 1280.4 690.118 1283.78 705.376 1283.78C720.443 1283.78 733.983 1280.3 745.998 1273.34C758.014 1266.19 767.549 1256.54 774.605 1244.42Z" fill="#FFB700"/>
</g>
<g filter="url(#filter2_d)">
<path fill-rule="evenodd" clip-rule="evenodd" d="M361.653 1400H328V1197.25C328.291 1174.01 333.682 1153.16 344.171 1134.69C354.951 1115.92 369.374 1101.18 387.439 1090.45C405.795 1079.73 426.336 1074.37 449.063 1074.37C472.372 1074.37 493.205 1079.88 511.561 1090.9C529.918 1101.62 544.341 1116.37 554.829 1135.14C565.61 1153.9 571 1175.2 571 1199.03C571 1222.57 565.756 1243.72 555.266 1262.48C545.069 1281.25 531.082 1296.14 513.309 1307.17C495.536 1317.89 475.432 1323.25 452.997 1323.25C433.475 1323.25 415.702 1319.08 399.676 1310.74C383.943 1302.1 371.268 1290.78 361.653 1276.78V1400ZM494.517 1279.91C481.113 1287.95 465.962 1291.97 449.063 1291.97C432.455 1291.97 417.45 1287.95 404.047 1279.91C390.644 1271.87 380.155 1260.85 372.579 1246.84C365.004 1232.55 361.216 1216.61 361.216 1199.03C361.216 1181.16 365.004 1165.22 372.579 1151.22C380.155 1137.22 390.644 1126.2 404.047 1118.16C417.45 1109.82 432.455 1105.65 449.063 1105.65C465.962 1105.65 481.113 1109.82 494.517 1118.16C507.919 1126.2 518.409 1137.22 525.984 1151.22C533.851 1165.22 537.784 1181.16 537.784 1199.03C537.784 1216.61 533.851 1232.55 525.984 1246.84C518.409 1260.85 507.919 1271.87 494.517 1279.91Z" fill="#09AC99"/>
</g>
<g filter="url(#filter3_d)">
<path fill-rule="evenodd" clip-rule="evenodd" d="M793.91 1000V1120.84C784.295 1106.84 771.62 1095.66 755.886 1087.32C740.153 1078.69 722.525 1074.37 703.004 1074.37C680.568 1074.37 660.463 1079.88 642.69 1090.9C624.916 1101.62 610.786 1116.37 600.296 1135.14C590.099 1153.9 585 1175.05 585 1198.59C585 1222.42 590.244 1243.72 600.733 1262.48C611.514 1281.25 626.082 1296.14 644.438 1307.17C662.795 1317.89 683.482 1323.25 706.5 1323.25C729.227 1323.25 749.621 1317.89 767.687 1307.17C786.043 1296.44 800.466 1281.84 810.954 1263.38C821.735 1244.61 827.418 1223.61 828 1200.37V1000H793.91ZM751.516 1279.91C738.405 1287.95 723.399 1291.97 706.5 1291.97C689.892 1291.97 674.886 1287.95 661.484 1279.91C648.081 1271.57 637.446 1260.4 629.578 1246.4C621.711 1232.4 617.778 1216.46 617.778 1198.59C617.778 1181.01 621.711 1165.22 629.578 1151.22C637.446 1136.92 648.081 1125.75 661.484 1117.71C674.886 1109.67 689.892 1105.64 706.5 1105.64C723.399 1105.64 738.405 1109.67 751.516 1117.71C764.919 1125.75 775.407 1136.92 782.983 1151.22C790.851 1165.22 794.783 1181.01 794.783 1198.59C794.783 1216.46 790.851 1232.4 782.983 1246.4C775.407 1260.4 764.919 1271.57 751.516 1279.91Z" fill="#09AC99"/>
</g>
<g filter="url(#filter4_d)">
<path fill-rule="evenodd" clip-rule="evenodd" d="M519.653 1244.42C526.517 1232.09 529.95 1218.08 529.95 1202.37C529.95 1196.68 529.509 1191.23 528.628 1186.04H508.302C509.385 1191.09 509.925 1196.53 509.925 1202.37C509.925 1213.9 507.351 1224.14 502.202 1233.09C497.052 1242.03 489.995 1248.99 481.033 1253.96C472.07 1258.93 461.866 1261.41 450.423 1261.41C438.79 1261.41 428.49 1259.13 419.527 1254.56C410.564 1249.79 403.507 1243.23 398.358 1234.88C393.209 1226.33 390.634 1216.49 390.634 1205.35C390.634 1198.45 391.614 1192.01 393.575 1186.04H372.735C371.317 1192.17 370.609 1198.61 370.609 1205.35C370.609 1220.66 374.137 1234.18 381.194 1245.91C388.059 1257.64 397.5 1266.88 409.515 1273.64C421.53 1280.4 435.166 1283.78 450.423 1283.78C465.489 1283.78 479.03 1280.3 491.045 1273.34C503.06 1266.19 512.596 1256.54 519.653 1244.42Z" fill="#FFB700"/>
</g>
<g filter="url(#filter5_d)">
<path fill-rule="evenodd" clip-rule="evenodd" d="M774.605 1244.42C781.471 1232.09 784.904 1218.08 784.904 1202.37C784.904 1196.68 784.462 1191.23 783.579 1186.04H763.255C764.337 1191.09 764.878 1196.53 764.878 1202.37C764.878 1213.9 762.304 1224.14 757.154 1233.09C752.006 1242.03 744.949 1248.99 735.985 1253.96C727.022 1258.93 716.819 1261.41 705.376 1261.41C693.742 1261.41 683.443 1259.13 674.48 1254.56C665.517 1249.79 658.46 1243.23 653.311 1234.88C648.161 1226.33 645.588 1216.49 645.588 1205.35C645.588 1198.45 646.567 1192.01 648.528 1186.04H627.688C626.271 1192.17 625.562 1198.61 625.562 1205.35C625.562 1220.66 629.09 1234.18 636.147 1245.91C643.012 1257.64 652.453 1266.88 664.468 1273.64C676.482 1280.4 690.118 1283.78 705.376 1283.78C720.443 1283.78 733.983 1280.3 745.998 1273.34C758.014 1266.19 767.549 1256.54 774.605 1244.42Z" fill="#FFB700"/>
</g>
<g filter="url(#filter6_d)">
<path fill-rule="evenodd" clip-rule="evenodd" d="M361.653 1400H328V1197.25C328.291 1174.01 333.682 1153.16 344.171 1134.69C354.951 1115.92 369.374 1101.18 387.439 1090.45C405.795 1079.73 426.336 1074.37 449.063 1074.37C472.372 1074.37 493.205 1079.88 511.561 1090.9C529.918 1101.62 544.341 1116.37 554.829 1135.14C565.61 1153.9 571 1175.2 571 1199.03C571 1222.57 565.756 1243.72 555.266 1262.48C545.069 1281.25 531.082 1296.14 513.309 1307.17C495.536 1317.89 475.432 1323.25 452.997 1323.25C433.475 1323.25 415.702 1319.08 399.676 1310.74C383.943 1302.1 371.268 1290.78 361.653 1276.78V1400ZM494.517 1279.91C481.113 1287.95 465.962 1291.97 449.063 1291.97C432.455 1291.97 417.45 1287.95 404.047 1279.91C390.644 1271.87 380.155 1260.85 372.579 1246.84C365.004 1232.55 361.216 1216.61 361.216 1199.03C361.216 1181.16 365.004 1165.22 372.579 1151.22C380.155 1137.22 390.644 1126.2 404.047 1118.16C417.45 1109.82 432.455 1105.65 449.063 1105.65C465.962 1105.65 481.113 1109.82 494.517 1118.16C507.919 1126.2 518.409 1137.22 525.984 1151.22C533.851 1165.22 537.784 1181.16 537.784 1199.03C537.784 1216.61 533.851 1232.55 525.984 1246.84C518.409 1260.85 507.919 1271.87 494.517 1279.91Z" fill="#09AC99"/>
</g>
<g filter="url(#filter7_d)">
<path fill-rule="evenodd" clip-rule="evenodd" d="M793.91 1000V1120.84C784.295 1106.84 771.62 1095.66 755.886 1087.32C740.153 1078.69 722.525 1074.37 703.004 1074.37C680.568 1074.37 660.463 1079.88 642.69 1090.9C624.916 1101.62 610.786 1116.37 600.296 1135.14C590.099 1153.9 585 1175.05 585 1198.59C585 1222.42 590.244 1243.72 600.733 1262.48C611.514 1281.25 626.082 1296.14 644.438 1307.17C662.795 1317.89 683.482 1323.25 706.5 1323.25C729.227 1323.25 749.621 1317.89 767.687 1307.17C786.043 1296.44 800.466 1281.84 810.954 1263.38C821.735 1244.61 827.418 1223.61 828 1200.37V1000H793.91ZM751.516 1279.91C738.405 1287.95 723.399 1291.97 706.5 1291.97C689.892 1291.97 674.886 1287.95 661.484 1279.91C648.081 1271.57 637.446 1260.4 629.578 1246.4C621.711 1232.4 617.778 1216.46 617.778 1198.59C617.778 1181.01 621.711 1165.22 629.578 1151.22C637.446 1136.92 648.081 1125.75 661.484 1117.71C674.886 1109.67 689.892 1105.64 706.5 1105.64C723.399 1105.64 738.405 1109.67 751.516 1117.71C764.919 1125.75 775.407 1136.92 782.983 1151.22C790.851 1165.22 794.783 1181.01 794.783 1198.59C794.783 1216.46 790.851 1232.4 782.983 1246.4C775.407 1260.4 764.919 1271.57 751.516 1279.91Z" fill="#09AC99"/>
</g>
<rect x="88" y="70" width="175" height="75" rx="31" fill="#393939"/>
<path d="M312.707 2247.3H317.59C322.375 2247.3 325.907 2246.51 328.186 2244.91C330.464 2243.32 331.604 2240.81 331.604 2237.39C331.604 2234.01 330.432 2231.6 328.088 2230.16C325.777 2228.73 322.18 2228.02 317.297 2228.02H312.707V2247.3ZM312.707 2259.61V2287H297.571V2215.61H318.371C328.072 2215.61 335.25 2217.39 339.905 2220.94C344.559 2224.45 346.887 2229.81 346.887 2237C346.887 2241.2 345.731 2244.94 343.42 2248.23C341.109 2251.49 337.837 2254.04 333.606 2255.9C344.348 2271.94 351.347 2282.31 354.602 2287H337.805L320.764 2259.61H312.707ZM385.022 2241.98C381.864 2241.98 379.39 2242.99 377.6 2245.01C375.809 2246.99 374.784 2249.83 374.524 2253.5H395.422C395.357 2249.83 394.397 2246.99 392.541 2245.01C390.686 2242.99 388.179 2241.98 385.022 2241.98ZM387.121 2287.98C378.332 2287.98 371.464 2285.55 366.516 2280.7C361.568 2275.85 359.094 2268.98 359.094 2260.1C359.094 2250.95 361.373 2243.88 365.93 2238.9C370.52 2233.89 376.851 2231.38 384.924 2231.38C392.639 2231.38 398.645 2233.58 402.942 2237.98C407.239 2242.37 409.387 2248.44 409.387 2256.19V2263.42H374.182C374.345 2267.65 375.598 2270.95 377.942 2273.33C380.285 2275.7 383.573 2276.89 387.805 2276.89C391.093 2276.89 394.201 2276.55 397.131 2275.87C400.061 2275.18 403.121 2274.09 406.311 2272.6V2284.12C403.707 2285.42 400.923 2286.38 397.961 2287C394.999 2287.65 391.386 2287.98 387.121 2287.98ZM438.781 2287.98C432.369 2287.98 427.323 2285.49 423.645 2280.51C419.999 2275.53 418.176 2268.62 418.176 2259.8C418.176 2250.85 420.031 2243.88 423.742 2238.9C427.486 2233.89 432.629 2231.38 439.172 2231.38C446.041 2231.38 451.281 2234.05 454.895 2239.39H455.383C454.634 2235.32 454.26 2231.69 454.26 2228.5V2211.02H469.201V2287H457.776L454.895 2279.92H454.26C450.875 2285.29 445.715 2287.98 438.781 2287.98ZM444.006 2276.11C447.815 2276.11 450.598 2275 452.356 2272.79C454.146 2270.58 455.123 2266.82 455.285 2261.51V2259.9C455.285 2254.04 454.374 2249.84 452.551 2247.3C450.761 2244.76 447.831 2243.49 443.762 2243.49C440.442 2243.49 437.854 2244.91 435.998 2247.74C434.175 2250.54 433.264 2254.63 433.264 2260C433.264 2265.37 434.192 2269.41 436.047 2272.11C437.903 2274.78 440.556 2276.11 444.006 2276.11ZM533.655 2287H518.762V2255.12C518.762 2251.18 518.095 2248.23 516.76 2246.28C515.458 2244.29 513.391 2243.3 510.559 2243.3C506.75 2243.3 503.983 2244.7 502.258 2247.5C500.533 2250.3 499.67 2254.9 499.67 2261.32V2287H484.778V2232.41H496.155L498.156 2239.39H498.987C500.451 2236.89 502.567 2234.93 505.334 2233.53C508.101 2232.1 511.275 2231.38 514.856 2231.38C523.026 2231.38 528.56 2234.05 531.457 2239.39H532.776C534.24 2236.85 536.389 2234.88 539.221 2233.48C542.086 2232.08 545.308 2231.38 548.889 2231.38C555.074 2231.38 559.745 2232.98 562.903 2236.17C566.093 2239.33 567.688 2244.41 567.688 2251.4V2287H552.746V2255.12C552.746 2251.18 552.079 2248.23 550.744 2246.28C549.442 2244.29 547.375 2243.3 544.543 2243.3C540.897 2243.3 538.163 2244.6 536.34 2247.21C534.55 2249.81 533.655 2253.94 533.655 2259.61V2287ZM582.385 2218.3C582.385 2213.45 585.087 2211.02 590.49 2211.02C595.894 2211.02 598.596 2213.45 598.596 2218.3C598.596 2220.61 597.912 2222.42 596.545 2223.72C595.211 2224.99 593.192 2225.62 590.49 2225.62C585.087 2225.62 582.385 2223.18 582.385 2218.3ZM597.912 2287H583.02V2232.41H597.912V2287ZM698.156 2287H680.969L662.268 2256.92L655.871 2261.51V2287H640.735V2215.61H655.871V2248.28L661.828 2239.88L681.164 2215.61H697.961L673.059 2247.21L698.156 2287ZM749.28 2231.58C749.28 2236.04 747.929 2239.83 745.227 2242.96C742.525 2246.08 738.733 2248.23 733.85 2249.4V2249.7C739.612 2250.41 743.974 2252.17 746.936 2254.97C749.898 2257.74 751.379 2261.48 751.379 2266.2C751.379 2273.07 748.889 2278.42 743.908 2282.26C738.928 2286.07 731.815 2287.98 722.571 2287.98C714.823 2287.98 707.955 2286.69 701.965 2284.12V2271.28C704.732 2272.68 707.776 2273.82 711.096 2274.7C714.416 2275.57 717.704 2276.01 720.959 2276.01C725.94 2276.01 729.618 2275.17 731.994 2273.47C734.371 2271.78 735.559 2269.06 735.559 2265.32C735.559 2261.97 734.192 2259.59 731.457 2258.19C728.723 2256.79 724.361 2256.09 718.371 2256.09H712.951V2244.52H718.469C724.003 2244.52 728.039 2243.8 730.578 2242.37C733.15 2240.91 734.436 2238.42 734.436 2234.9C734.436 2229.5 731.05 2226.79 724.28 2226.79C721.936 2226.79 719.543 2227.19 717.102 2227.97C714.693 2228.75 712.007 2230.1 709.045 2232.02L702.063 2221.62C708.573 2216.93 716.337 2214.59 725.354 2214.59C732.743 2214.59 738.57 2216.09 742.834 2219.08C747.131 2222.07 749.28 2226.24 749.28 2231.58ZM808.801 2251.31C808.801 2263.77 806.75 2273 802.649 2278.99C798.58 2284.98 792.297 2287.98 783.801 2287.98C775.565 2287.98 769.348 2284.88 765.149 2278.7C760.982 2272.51 758.899 2263.38 758.899 2251.31C758.899 2238.71 760.933 2229.43 765.002 2223.47C769.071 2217.49 775.337 2214.49 783.801 2214.49C792.037 2214.49 798.254 2217.62 802.453 2223.87C806.685 2230.12 808.801 2239.26 808.801 2251.31ZM773.889 2251.31C773.889 2260.06 774.638 2266.35 776.135 2270.15C777.665 2273.93 780.22 2275.82 783.801 2275.82C787.317 2275.82 789.856 2273.9 791.418 2270.06C792.981 2266.22 793.762 2259.97 793.762 2251.31C793.762 2242.55 792.964 2236.27 791.369 2232.46C789.807 2228.62 787.284 2226.7 783.801 2226.7C780.253 2226.7 777.714 2228.62 776.184 2232.46C774.654 2236.27 773.889 2242.55 773.889 2251.31Z" fill="white"/>
<ellipse cx="138" cy="107" rx="25" ry="25" fill="white"/>
<mask id="path-13-inside-1" fill="white">
<ellipse cx="138" cy="107" rx="15" ry="15"/>
</mask>
<ellipse cx="138" cy="107" rx="15" ry="15" fill="white"/>
<path d="M137 107C137 106.448 137.448 106 138 106V138C155.121 138 169 124.121 169 107H137ZM138 106C138.552 106 139 106.448 139 107H107C107 124.121 120.879 138 138 138V106ZM139 107C139 107.552 138.552 108 138 108V76C120.879 76 107 89.8792 107 107H139ZM138 108C137.448 108 137 107.552 137 107H169C169 89.8792 155.121 76 138 76V108Z" fill="url(#paint0_linear)" mask="url(#path-13-inside-1)"/>
<circle cx="138" cy="107.001" r="2" fill="white"/>
<circle cx="138" cy="107.001" r="2" stroke="url(#paint1_linear)" stroke-width="0.666667"/>
<circle cx="138" cy="107.001" r="2" stroke="url(#paint2_linear)" stroke-width="0.666667"/>
<ellipse cx="214" cy="107" rx="25" ry="25" fill="white"/>
<mask id="path-17-inside-2" fill="white">
<ellipse cx="214" cy="107" rx="15" ry="15"/>
</mask>
<ellipse cx="214" cy="107" rx="15" ry="15" fill="white"/>
<path d="M213 107C213 106.448 213.448 106 214 106V138C231.121 138 245 124.121 245 107H213ZM214 106C214.552 106 215 106.448 215 107H183C183 124.121 196.879 138 214 138V106ZM215 107C215 107.552 214.552 108 214 108V76C196.879 76 183 89.8792 183 107H215ZM214 108C213.448 108 213 107.552 213 107H245C245 89.8792 231.121 76 214 76V108Z" fill="url(#paint3_linear)" mask="url(#path-17-inside-2)"/>
<circle cx="214" cy="107.001" r="2" fill="white"/>
<circle cx="214" cy="107.001" r="2" stroke="url(#paint4_linear)" stroke-width="0.666667"/>
<circle cx="214" cy="107.001" r="2" stroke="url(#paint5_linear)" stroke-width="0.666667"/>
<defs>
<filter id="filter0_d" x="366.609" y="1186.04" width="167.341" height="105.745" filterUnits="userSpaceOnUse" color-interpolation-filters="sRGB">
<feFlood flood-opacity="0" result="BackgroundImageFix"/>
<feColorMatrix in="SourceAlpha" type="matrix" values="0 0 0 0 0 0 0 0 0 0 0 0 0 0 0 0 0 0 127 0"/>
<feOffset dy="4"/>
<feGaussianBlur stdDeviation="2"/>
<feColorMatrix type="matrix" values="0 0 0 0 0 0 0 0 0 0 0 0 0 0 0 0 0 0 0.25 0"/>
<feBlend mode="normal" in2="BackgroundImageFix" result="effect1_dropShadow"/>
<feBlend mode="normal" in="SourceGraphic" in2="effect1_dropShadow" result="shape"/>
</filter>
<filter id="filter1_d" x="621.562" y="1186.04" width="167.341" height="105.745" filterUnits="userSpaceOnUse" color-interpolation-filters="sRGB">
<feFlood flood-opacity="0" result="BackgroundImageFix"/>
<feColorMatrix in="SourceAlpha" type="matrix" values="0 0 0 0 0 0 0 0 0 0 0 0 0 0 0 0 0 0 127 0"/>
<feOffset dy="4"/>
<feGaussianBlur stdDeviation="2"/>
<feColorMatrix type="matrix" values="0 0 0 0 0 0 0 0 0 0 0 0 0 0 0 0 0 0 0.25 0"/>
<feBlend mode="normal" in2="BackgroundImageFix" result="effect1_dropShadow"/>
<feBlend mode="normal" in="SourceGraphic" in2="effect1_dropShadow" result="shape"/>
</filter>
<filter id="filter2_d" x="324" y="1074.37" width="251" height="333.635" filterUnits="userSpaceOnUse" color-interpolation-filters="sRGB">
<feFlood flood-opacity="0" result="BackgroundImageFix"/>
<feColorMatrix in="SourceAlpha" type="matrix" values="0 0 0 0 0 0 0 0 0 0 0 0 0 0 0 0 0 0 127 0"/>
<feOffset dy="4"/>
<feGaussianBlur stdDeviation="2"/>
<feColorMatrix type="matrix" values="0 0 0 0 0 0 0 0 0 0 0 0 0 0 0 0 0 0 0.25 0"/>
<feBlend mode="normal" in2="BackgroundImageFix" result="effect1_dropShadow"/>
<feBlend mode="normal" in="SourceGraphic" in2="effect1_dropShadow" result="shape"/>
</filter>
<filter id="filter3_d" x="581" y="1000" width="251" height="331.251" filterUnits="userSpaceOnUse" color-interpolation-filters="sRGB">
<feFlood flood-opacity="0" result="BackgroundImageFix"/>
<feColorMatrix in="SourceAlpha" type="matrix" values="0 0 0 0 0 0 0 0 0 0 0 0 0 0 0 0 0 0 127 0"/>
<feOffset dy="4"/>
<feGaussianBlur stdDeviation="2"/>
<feColorMatrix type="matrix" values="0 0 0 0 0 0 0 0 0 0 0 0 0 0 0 0 0 0 0.25 0"/>
<feBlend mode="normal" in2="BackgroundImageFix" result="effect1_dropShadow"/>
<feBlend mode="normal" in="SourceGraphic" in2="effect1_dropShadow" result="shape"/>
</filter>
<filter id="filter4_d" x="366.609" y="1186.04" width="167.341" height="105.745" filterUnits="userSpaceOnUse" color-interpolation-filters="sRGB">
<feFlood flood-opacity="0" result="BackgroundImageFix"/>
<feColorMatrix in="SourceAlpha" type="matrix" values="0 0 0 0 0 0 0 0 0 0 0 0 0 0 0 0 0 0 127 0"/>
<feOffset dy="4"/>
<feGaussianBlur stdDeviation="2"/>
<feColorMatrix type="matrix" values="0 0 0 0 0 0 0 0 0 0 0 0 0 0 0 0 0 0 0.25 0"/>
<feBlend mode="normal" in2="BackgroundImageFix" result="effect1_dropShadow"/>
<feBlend mode="normal" in="SourceGraphic" in2="effect1_dropShadow" result="shape"/>
</filter>
<filter id="filter5_d" x="621.562" y="1186.04" width="167.341" height="105.745" filterUnits="userSpaceOnUse" color-interpolation-filters="sRGB">
<feFlood flood-opacity="0" result="BackgroundImageFix"/>
<feColorMatrix in="SourceAlpha" type="matrix" values="0 0 0 0 0 0 0 0 0 0 0 0 0 0 0 0 0 0 127 0"/>
<feOffset dy="4"/>
<feGaussianBlur stdDeviation="2"/>
<feColorMatrix type="matrix" values="0 0 0 0 0 0 0 0 0 0 0 0 0 0 0 0 0 0 0.25 0"/>
<feBlend mode="normal" in2="BackgroundImageFix" result="effect1_dropShadow"/>
<feBlend mode="normal" in="SourceGraphic" in2="effect1_dropShadow" result="shape"/>
</filter>
<filter id="filter6_d" x="324" y="1074.37" width="251" height="333.635" filterUnits="userSpaceOnUse" color-interpolation-filters="sRGB">
<feFlood flood-opacity="0" result="BackgroundImageFix"/>
<feColorMatrix in="SourceAlpha" type="matrix" values="0 0 0 0 0 0 0 0 0 0 0 0 0 0 0 0 0 0 127 0"/>
<feOffset dy="4"/>
<feGaussianBlur stdDeviation="2"/>
<feColorMatrix type="matrix" values="0 0 0 0 0 0 0 0 0 0 0 0 0 0 0 0 0 0 0.25 0"/>
<feBlend mode="normal" in2="BackgroundImageFix" result="effect1_dropShadow"/>
<feBlend mode="normal" in="SourceGraphic" in2="effect1_dropShadow" result="shape"/>
</filter>
<filter id="filter7_d" x="581" y="1000" width="251" height="331.251" filterUnits="userSpaceOnUse" color-interpolation-filters="sRGB">
<feFlood flood-opacity="0" result="BackgroundImageFix"/>
<feColorMatrix in="SourceAlpha" type="matrix" values="0 0 0 0 0 0 0 0 0 0 0 0 0 0 0 0 0 0 127 0"/>
<feOffset dy="4"/>
<feGaussianBlur stdDeviation="2"/>
<feColorMatrix type="matrix" values="0 0 0 0 0 0 0 0 0 0 0 0 0 0 0 0 0 0 0.25 0"/>
<feBlend mode="normal" in2="BackgroundImageFix" result="effect1_dropShadow"/>
<feBlend mode="normal" in="SourceGraphic" in2="effect1_dropShadow" result="shape"/>
</filter>
<linearGradient id="paint0_linear" x1="138" y1="92" x2="138" y2="122" gradientUnits="userSpaceOnUse">
<stop offset="0.484375" stop-color="#09AC99"/>
<stop offset="0.9999" stop-color="#158268"/>
<stop offset="1" stop-color="white" stop-opacity="0"/>
</linearGradient>
<linearGradient id="paint1_linear" x1="138" y1="104.668" x2="138" y2="109.335" gradientUnits="userSpaceOnUse">
<stop stop-color="#78EDD1"/>
<stop stop-color="#78EDD1"/>
<stop offset="1" stop-color="#009DBF" stop-opacity="0"/>
</linearGradient>
<linearGradient id="paint2_linear" x1="138" y1="104.668" x2="138" y2="109.335" gradientUnits="userSpaceOnUse">
<stop stop-color="#009DBF"/>
<stop offset="1" stop-color="white" stop-opacity="0"/>
</linearGradient>
<linearGradient id="paint3_linear" x1="214" y1="92" x2="214" y2="122" gradientUnits="userSpaceOnUse">
<stop offset="0.484375" stop-color="#09AC99"/>
<stop offset="0.9999" stop-color="#158268"/>
<stop offset="1" stop-color="white" stop-opacity="0"/>
</linearGradient>
<linearGradient id="paint4_linear" x1="214" y1="104.668" x2="214" y2="109.335" gradientUnits="userSpaceOnUse">
<stop stop-color="#78EDD1"/>
<stop stop-color="#78EDD1"/>
<stop offset="1" stop-color="#009DBF" stop-opacity="0"/>
</linearGradient>
<linearGradient id="paint5_linear" x1="214" y1="104.668" x2="214" y2="109.335" gradientUnits="userSpaceOnUse">
<stop stop-color="#009DBF"/>
<stop offset="1" stop-color="white" stop-opacity="0"/>
</linearGradient>
</defs>
</svg>
