<svg width="1080" height="2400" viewBox="0 0 1080 2400" fill="none" xmlns="http://www.w3.org/2000/svg">
<rect x="168" y="7" width="169" height="153.93" rx="26" fill="black" stroke="#8E8E8E" stroke-width="14"/>
<path d="M282 83.4649C282 99.7455 268.796 112.949 252.5 112.949C236.204 112.949 223 99.7455 223 83.4649C223 67.1842 236.204 53.9805 252.5 53.9805C268.796 53.9805 282 67.1842 282 83.4649Z" fill="black" stroke="url(#paint0_linear)" stroke-width="16"/>
<ellipse cx="253" cy="83.9664" rx="15" ry="14.9938" fill="black"/>
<mask id="path-4-inside-1" fill="white">
<ellipse cx="253" cy="83.9667" rx="5" ry="4.99792"/>
</mask>
<ellipse cx="253" cy="83.9667" rx="5" ry="4.99792" fill="black"/>
<path d="M253 83.9667C253 83.9729 252.999 83.9739 253 83.9711C253.001 83.9687 253.001 83.966 253.002 83.9636C253.004 83.9596 253.004 83.9609 253.001 83.9645C252.997 83.968 252.996 83.968 252.999 83.9665C253.001 83.9656 253.004 83.9649 253.006 83.9645C253.008 83.964 253.007 83.9646 253 83.9646V93.9646C258.521 93.9646 263 89.4903 263 83.9667H253ZM253 83.9646C252.993 83.9646 252.992 83.964 252.994 83.9645C252.996 83.9649 252.999 83.9656 253.001 83.9665C253.004 83.968 253.003 83.968 252.999 83.9645C252.996 83.9609 252.996 83.9596 252.998 83.9636C252.999 83.966 252.999 83.9687 253 83.9711C253.001 83.9739 253 83.9729 253 83.9667H243C243 89.4903 247.479 93.9646 253 93.9646V83.9646ZM253 83.9667C253 83.9604 253.001 83.9595 253 83.9622C252.999 83.9646 252.999 83.9674 252.998 83.9697C252.996 83.9737 252.996 83.9724 252.999 83.9689C253.003 83.9653 253.004 83.9654 253.001 83.9668C252.999 83.9677 252.996 83.9684 252.994 83.9689C252.992 83.9693 252.993 83.9688 253 83.9688V73.9688C247.479 73.9688 243 78.443 243 83.9667H253ZM253 83.9688C253.007 83.9688 253.008 83.9693 253.006 83.9689C253.004 83.9684 253.001 83.9677 252.999 83.9668C252.996 83.9654 252.997 83.9653 253.001 83.9689C253.004 83.9724 253.004 83.9737 253.002 83.9697C253.001 83.9674 253.001 83.9646 253 83.9622C252.999 83.9595 253 83.9604 253 83.9667H263C263 78.443 258.521 73.9688 253 73.9688V83.9688Z" fill="url(#paint1_linear)" mask="url(#path-4-inside-1)"/>
<path d="M253 83.9667C253 83.9729 252.999 83.9739 253 83.9711C253.001 83.9687 253.001 83.966 253.002 83.9636C253.004 83.9596 253.004 83.9609 253.001 83.9645C252.997 83.968 252.996 83.968 252.999 83.9665C253.001 83.9656 253.004 83.9649 253.006 83.9645C253.008 83.964 253.007 83.9646 253 83.9646V93.9646C258.521 93.9646 263 89.4903 263 83.9667H253ZM253 83.9646C252.993 83.9646 252.992 83.964 252.994 83.9645C252.996 83.9649 252.999 83.9656 253.001 83.9665C253.004 83.968 253.003 83.968 252.999 83.9645C252.996 83.9609 252.996 83.9596 252.998 83.9636C252.999 83.966 252.999 83.9687 253 83.9711C253.001 83.9739 253 83.9729 253 83.9667H243C243 89.4903 247.479 93.9646 253 93.9646V83.9646ZM253 83.9667C253 83.9604 253.001 83.9595 253 83.9622C252.999 83.9646 252.999 83.9674 252.998 83.9697C252.996 83.9737 252.996 83.9724 252.999 83.9689C253.003 83.9653 253.004 83.9654 253.001 83.9668C252.999 83.9677 252.996 83.9684 252.994 83.9689C252.992 83.9693 252.993 83.9688 253 83.9688V73.9688C247.479 73.9688 243 78.443 243 83.9667H253ZM253 83.9688C253.007 83.9688 253.008 83.9693 253.006 83.9689C253.004 83.9684 253.001 83.9677 252.999 83.9668C252.996 83.9654 252.997 83.9653 253.001 83.9689C253.004 83.9724 253.004 83.9737 253.002 83.9697C253.001 83.9674 253.001 83.9646 253 83.9622C252.999 83.9595 253 83.9604 253 83.9667H263C263 78.443 258.521 73.9688 253 73.9688V83.9688Z" fill="url(#paint2_linear)" mask="url(#path-4-inside-1)"/>
<rect x="8.5" y="109.457" width="1063" height="2282.04" rx="83.5" fill="black" stroke="#8E8E8E" stroke-width="17"/>
<g filter="url(#filter0_d)">
<path fill-rule="evenodd" clip-rule="evenodd" d="M470.657 1293.03C477.521 1281.22 480.954 1267.8 480.954 1252.75C480.954 1247.3 480.514 1242.08 479.632 1237.1H459.306C460.389 1241.94 460.929 1247.16 460.929 1252.75C460.929 1263.8 458.356 1273.6 453.206 1282.17C448.057 1290.74 441 1297.41 432.037 1302.17C423.074 1306.93 412.87 1309.31 401.427 1309.31C389.794 1309.31 379.495 1307.12 370.531 1302.74C361.568 1298.17 354.511 1291.89 349.362 1283.89C344.213 1275.7 341.638 1266.27 341.638 1255.61C341.638 1248.99 342.619 1242.83 344.579 1237.1H323.739C322.322 1242.98 321.613 1249.14 321.613 1255.61C321.613 1270.27 325.141 1283.22 332.198 1294.46C339.063 1305.69 348.504 1314.55 360.519 1321.02C372.534 1327.5 386.17 1330.73 401.427 1330.73C416.493 1330.73 430.035 1327.4 442.049 1320.74C454.064 1313.88 463.6 1304.65 470.657 1293.03Z" fill="#FFB700"/>
</g>
<g filter="url(#filter1_d)">
<path fill-rule="evenodd" clip-rule="evenodd" d="M725.601 1293.03C732.467 1281.22 735.9 1267.8 735.9 1252.75C735.9 1247.3 735.458 1242.08 734.575 1237.1H714.251C715.333 1241.94 715.875 1247.16 715.875 1252.75C715.875 1263.8 713.3 1273.6 708.15 1282.17C703.002 1290.74 695.945 1297.41 686.981 1302.17C678.018 1306.93 667.815 1309.31 656.372 1309.31C644.738 1309.31 634.439 1307.12 625.476 1302.74C616.513 1298.17 609.457 1291.89 604.307 1283.89C599.157 1275.7 596.584 1266.27 596.584 1255.61C596.584 1248.99 597.563 1242.83 599.524 1237.1H578.684C577.267 1242.98 576.559 1249.14 576.559 1255.61C576.559 1270.27 580.086 1283.22 587.143 1294.46C594.008 1305.69 603.449 1314.55 615.464 1321.02C627.478 1327.5 641.114 1330.73 656.372 1330.73C671.439 1330.73 684.979 1327.4 696.994 1320.74C709.01 1313.88 718.545 1304.65 725.601 1293.03Z" fill="#FFB700"/>
</g>
<g filter="url(#filter2_d)">
<path fill-rule="evenodd" clip-rule="evenodd" d="M312.653 1442.06H279V1247.84C279.291 1225.58 284.682 1205.6 295.171 1187.91C305.951 1169.93 320.374 1155.81 338.439 1145.53C356.795 1135.26 377.336 1130.12 400.063 1130.12C423.372 1130.12 444.205 1135.4 462.561 1145.96C480.918 1156.24 495.341 1170.36 505.829 1188.34C516.61 1206.32 522 1226.72 522 1249.55C522 1272.09 516.756 1292.35 506.266 1310.33C496.069 1328.31 482.082 1342.57 464.309 1353.13C446.536 1363.4 426.432 1368.54 403.997 1368.54C384.475 1368.54 366.702 1364.55 350.676 1356.56C334.943 1348.28 322.268 1337.44 312.653 1324.02V1442.06ZM445.517 1327.02C432.113 1334.73 416.962 1338.58 400.063 1338.58C383.455 1338.58 368.45 1334.73 355.047 1327.02C341.644 1319.32 331.155 1308.76 323.579 1295.35C316.004 1281.65 312.216 1266.38 312.216 1249.55C312.216 1232.42 316.004 1217.16 323.579 1203.75C331.155 1190.34 341.644 1179.78 355.047 1172.07C368.45 1164.08 383.455 1160.09 400.063 1160.09C416.962 1160.09 432.113 1164.08 445.517 1172.07C458.919 1179.78 469.409 1190.34 476.984 1203.75C484.851 1217.16 488.784 1232.42 488.784 1249.55C488.784 1266.38 484.851 1281.65 476.984 1295.35C469.409 1308.76 458.919 1319.32 445.517 1327.02Z" fill="#09AC99"/>
</g>
<g filter="url(#filter3_d)">
<path fill-rule="evenodd" clip-rule="evenodd" d="M744.91 1058.89V1174.64C735.295 1161.23 722.62 1150.53 706.886 1142.54C691.153 1134.27 673.525 1130.13 654.004 1130.13C631.568 1130.13 611.463 1135.41 593.69 1145.97C575.916 1156.24 561.786 1170.36 551.296 1188.34C541.099 1206.32 536 1226.58 536 1249.12C536 1271.95 541.244 1292.35 551.733 1310.33C562.514 1328.31 577.082 1342.58 595.438 1353.13C613.795 1363.41 634.482 1368.54 657.5 1368.54C680.227 1368.54 700.621 1363.41 718.687 1353.13C737.043 1342.86 751.466 1328.88 761.954 1311.19C772.735 1293.21 778.418 1273.09 779 1250.83V1058.89H744.91ZM702.516 1327.03C689.405 1334.73 674.399 1338.58 657.5 1338.58C640.892 1338.58 625.886 1334.73 612.484 1327.03C599.081 1319.03 588.446 1308.33 580.578 1294.92C572.711 1281.51 568.778 1266.24 568.778 1249.12C568.778 1232.29 572.711 1217.16 580.578 1203.75C588.446 1190.05 599.081 1179.35 612.484 1171.65C625.886 1163.94 640.892 1160.09 657.5 1160.09C674.399 1160.09 689.405 1163.94 702.516 1171.65C715.919 1179.35 726.407 1190.05 733.983 1203.75C741.851 1217.16 745.783 1232.29 745.783 1249.12C745.783 1266.24 741.851 1281.51 733.983 1294.92C726.407 1308.33 715.919 1319.03 702.516 1327.03Z" fill="#09AC99"/>
</g>
<g filter="url(#filter4_d)">
<path fill-rule="evenodd" clip-rule="evenodd" d="M470.657 1293.03C477.521 1281.22 480.954 1267.8 480.954 1252.75C480.954 1247.3 480.514 1242.08 479.632 1237.1H459.306C460.389 1241.94 460.929 1247.16 460.929 1252.75C460.929 1263.8 458.356 1273.6 453.206 1282.17C448.057 1290.74 441 1297.41 432.037 1302.17C423.074 1306.93 412.87 1309.31 401.427 1309.31C389.794 1309.31 379.495 1307.12 370.531 1302.74C361.568 1298.17 354.511 1291.89 349.362 1283.89C344.213 1275.7 341.638 1266.27 341.638 1255.61C341.638 1248.99 342.619 1242.83 344.579 1237.1H323.739C322.322 1242.98 321.613 1249.14 321.613 1255.61C321.613 1270.27 325.141 1283.22 332.198 1294.46C339.063 1305.69 348.504 1314.55 360.519 1321.02C372.534 1327.5 386.17 1330.73 401.427 1330.73C416.493 1330.73 430.035 1327.4 442.049 1320.74C454.064 1313.88 463.6 1304.65 470.657 1293.03Z" fill="#FFB700"/>
</g>
<g filter="url(#filter5_d)">
<path fill-rule="evenodd" clip-rule="evenodd" d="M725.601 1293.03C732.467 1281.22 735.9 1267.8 735.9 1252.75C735.9 1247.3 735.458 1242.08 734.575 1237.1H714.251C715.333 1241.94 715.875 1247.16 715.875 1252.75C715.875 1263.8 713.3 1273.6 708.15 1282.17C703.002 1290.74 695.945 1297.41 686.981 1302.17C678.018 1306.93 667.815 1309.31 656.372 1309.31C644.738 1309.31 634.439 1307.12 625.476 1302.74C616.513 1298.17 609.457 1291.89 604.307 1283.89C599.157 1275.7 596.584 1266.27 596.584 1255.61C596.584 1248.99 597.563 1242.83 599.524 1237.1H578.684C577.267 1242.98 576.559 1249.14 576.559 1255.61C576.559 1270.27 580.086 1283.22 587.143 1294.46C594.008 1305.69 603.449 1314.55 615.464 1321.02C627.478 1327.5 641.114 1330.73 656.372 1330.73C671.439 1330.73 684.979 1327.4 696.994 1320.74C709.01 1313.88 718.545 1304.65 725.601 1293.03Z" fill="#FFB700"/>
</g>
<g filter="url(#filter6_d)">
<path fill-rule="evenodd" clip-rule="evenodd" d="M312.653 1442.06H279V1247.84C279.291 1225.58 284.682 1205.6 295.171 1187.91C305.951 1169.93 320.374 1155.81 338.439 1145.53C356.795 1135.26 377.336 1130.12 400.063 1130.12C423.372 1130.12 444.205 1135.4 462.561 1145.96C480.918 1156.24 495.341 1170.36 505.829 1188.34C516.61 1206.32 522 1226.72 522 1249.55C522 1272.09 516.756 1292.35 506.266 1310.33C496.069 1328.31 482.082 1342.57 464.309 1353.13C446.536 1363.4 426.432 1368.54 403.997 1368.54C384.475 1368.54 366.702 1364.55 350.676 1356.56C334.943 1348.28 322.268 1337.44 312.653 1324.02V1442.06ZM445.517 1327.02C432.113 1334.73 416.962 1338.58 400.063 1338.58C383.455 1338.58 368.45 1334.73 355.047 1327.02C341.644 1319.32 331.155 1308.76 323.579 1295.35C316.004 1281.65 312.216 1266.38 312.216 1249.55C312.216 1232.42 316.004 1217.16 323.579 1203.75C331.155 1190.34 341.644 1179.78 355.047 1172.07C368.45 1164.08 383.455 1160.09 400.063 1160.09C416.962 1160.09 432.113 1164.08 445.517 1172.07C458.919 1179.78 469.409 1190.34 476.984 1203.75C484.851 1217.16 488.784 1232.42 488.784 1249.55C488.784 1266.38 484.851 1281.65 476.984 1295.35C469.409 1308.76 458.919 1319.32 445.517 1327.02Z" fill="#09AC99"/>
</g>
<g filter="url(#filter7_d)">
<path fill-rule="evenodd" clip-rule="evenodd" d="M744.91 1058.89V1174.64C735.295 1161.23 722.62 1150.53 706.886 1142.54C691.153 1134.27 673.525 1130.13 654.004 1130.13C631.568 1130.13 611.463 1135.41 593.69 1145.97C575.916 1156.24 561.786 1170.36 551.296 1188.34C541.099 1206.32 536 1226.58 536 1249.12C536 1271.95 541.244 1292.35 551.733 1310.33C562.514 1328.31 577.082 1342.58 595.438 1353.13C613.795 1363.41 634.482 1368.54 657.5 1368.54C680.227 1368.54 700.621 1363.41 718.687 1353.13C737.043 1342.86 751.466 1328.88 761.954 1311.19C772.735 1293.21 778.418 1273.09 779 1250.83V1058.89H744.91ZM702.516 1327.03C689.405 1334.73 674.399 1338.58 657.5 1338.58C640.892 1338.58 625.886 1334.73 612.484 1327.03C599.081 1319.03 588.446 1308.33 580.578 1294.92C572.711 1281.51 568.778 1266.24 568.778 1249.12C568.778 1232.29 572.711 1217.16 580.578 1203.75C588.446 1190.05 599.081 1179.35 612.484 1171.65C625.886 1163.94 640.892 1160.09 657.5 1160.09C674.399 1160.09 689.405 1163.94 702.516 1171.65C715.919 1179.35 726.407 1190.05 733.983 1203.75C741.851 1217.16 745.783 1232.29 745.783 1249.12C745.783 1266.24 741.851 1281.51 733.983 1294.92C726.407 1308.33 715.919 1319.03 702.516 1327.03Z" fill="#09AC99"/>
</g>
<path d="M421.251 2183.49H408.414V2212.12H392.301V2133.92H421.358C430.597 2133.92 437.722 2135.98 442.735 2140.09C447.748 2144.21 450.255 2150.03 450.255 2157.55C450.255 2162.89 449.091 2167.34 446.764 2170.92C444.472 2174.47 440.981 2177.3 436.29 2179.41L453.209 2211.37V2212.12H435.914L421.251 2183.49ZM408.414 2170.44H421.412C425.458 2170.44 428.591 2169.42 430.812 2167.38C433.032 2165.3 434.142 2162.46 434.142 2158.84C434.142 2155.15 433.085 2152.25 430.973 2150.14C428.896 2148.03 425.691 2146.97 421.358 2146.97H408.414V2170.44ZM488.282 2213.2C479.76 2213.2 472.813 2210.58 467.442 2205.35C462.107 2200.13 459.439 2193.16 459.439 2184.46V2182.96C459.439 2177.12 460.567 2171.91 462.823 2167.33C465.079 2162.71 468.266 2159.16 472.384 2156.69C476.537 2154.18 481.264 2152.93 486.563 2152.93C494.513 2152.93 500.761 2155.44 505.309 2160.45C509.892 2165.46 512.184 2172.57 512.184 2181.77V2188.11H475.177C475.678 2191.91 477.182 2194.95 479.688 2197.24C482.231 2199.53 485.436 2200.68 489.303 2200.68C495.283 2200.68 499.955 2198.51 503.321 2194.18L510.948 2202.72C508.621 2206.02 505.47 2208.59 501.495 2210.46C497.521 2212.28 493.116 2213.2 488.282 2213.2ZM486.51 2165.5C483.43 2165.5 480.924 2166.54 478.99 2168.62C477.092 2170.69 475.875 2173.66 475.338 2177.53H496.93V2176.3C496.858 2172.86 495.927 2170.21 494.137 2168.35C492.346 2166.45 489.804 2165.5 486.51 2165.5ZM518.629 2182.63C518.629 2173.57 520.652 2166.36 524.698 2160.99C528.78 2155.62 534.348 2152.93 541.402 2152.93C547.06 2152.93 551.733 2155.04 555.421 2159.27V2129.62H570.997V2212.12H556.979L556.227 2205.94C552.359 2210.78 547.382 2213.2 541.295 2213.2C534.456 2213.2 528.959 2210.51 524.806 2205.14C520.688 2199.73 518.629 2192.23 518.629 2182.63ZM534.151 2183.76C534.151 2189.2 535.1 2193.38 536.998 2196.28C538.896 2199.18 541.653 2200.63 545.27 2200.63C550.068 2200.63 553.451 2198.6 555.421 2194.56V2171.62C553.487 2167.58 550.139 2165.55 545.377 2165.55C537.893 2165.55 534.151 2171.62 534.151 2183.76ZM597.584 2154.01L598.067 2160.5C602.185 2155.46 607.753 2152.93 614.771 2152.93C622.255 2152.93 627.394 2155.89 630.187 2161.79C634.269 2155.89 640.087 2152.93 647.643 2152.93C653.945 2152.93 658.635 2154.78 661.715 2158.46C664.794 2162.12 666.334 2167.63 666.334 2175.01V2212.12H650.758V2175.06C650.758 2171.77 650.113 2169.37 648.824 2167.86C647.535 2166.32 645.261 2165.55 642.003 2165.55C637.348 2165.55 634.125 2167.77 632.335 2172.21L632.389 2212.12H616.866V2175.11C616.866 2171.75 616.204 2169.31 614.879 2167.81C613.554 2166.31 611.298 2165.55 608.111 2165.55C603.707 2165.55 600.52 2167.38 598.551 2171.03V2212.12H583.028V2154.01H597.584ZM694.693 2212.12H679.117V2154.01H694.693V2212.12ZM678.204 2138.97C678.204 2136.64 678.974 2134.72 680.514 2133.22C682.089 2131.72 684.22 2130.96 686.905 2130.96C689.555 2130.96 691.668 2131.72 693.243 2133.22C694.819 2134.72 695.606 2136.64 695.606 2138.97C695.606 2141.33 694.801 2143.26 693.189 2144.77C691.614 2146.27 689.519 2147.02 686.905 2147.02C684.291 2147.02 682.179 2146.27 680.567 2144.77C678.992 2143.26 678.204 2141.33 678.204 2138.97ZM408.058 2289.58L398.548 2298.95V2323.12H392.843V2255.58H398.548V2292L433.153 2255.58H440.343L412.047 2285.64L442.523 2323.12H435.565L408.058 2289.58ZM492.899 2323.12H450.594V2318.85L473.741 2292.6C477.576 2288.18 480.235 2284.53 481.72 2281.65C483.204 2278.78 483.946 2275.98 483.946 2273.26C483.946 2268.99 482.694 2265.62 480.189 2263.14C477.684 2260.64 474.236 2259.39 469.845 2259.39C465.299 2259.39 461.619 2260.84 458.805 2263.75C456.021 2266.65 454.63 2270.43 454.63 2275.06H449.11C449.11 2271.26 449.96 2267.8 451.661 2264.67C453.393 2261.55 455.836 2259.11 458.99 2257.34C462.175 2255.55 465.794 2254.65 469.845 2254.65C476.03 2254.65 480.854 2256.28 484.317 2259.52C487.812 2262.77 489.559 2267.19 489.559 2272.79C489.559 2275.95 488.569 2279.39 486.59 2283.14C484.642 2286.88 481.194 2291.55 476.246 2297.14L457.413 2318.44H492.899V2323.12ZM544.017 2294.96C544.017 2304.49 542.27 2311.73 538.775 2316.67C535.281 2321.59 530.132 2324.05 523.329 2324.05C516.649 2324.05 511.531 2321.64 507.975 2316.81C504.418 2311.96 502.594 2304.91 502.501 2295.66V2283.55C502.501 2274.06 504.264 2266.87 507.789 2261.98C511.314 2257.1 516.463 2254.65 523.236 2254.65C529.916 2254.65 535.018 2257.02 538.543 2261.75C542.069 2266.45 543.893 2273.39 544.017 2282.58V2294.96ZM538.451 2282.86C538.451 2275.13 537.183 2269.28 534.647 2265.32C532.142 2261.36 528.338 2259.39 523.236 2259.39C518.226 2259.39 514.453 2261.32 511.917 2265.18C509.382 2269.05 508.083 2274.76 508.021 2282.3V2295.57C508.021 2303.27 509.32 2309.16 511.917 2313.24C514.546 2317.32 518.35 2319.36 523.329 2319.36C528.277 2319.36 532.018 2317.37 534.554 2313.38C537.121 2309.39 538.42 2303.55 538.451 2295.85V2282.86ZM586.971 2295.61V2323.12H581.266V2255.58H604.273C611.293 2255.58 616.829 2257.38 620.88 2260.96C624.962 2264.55 627.003 2269.48 627.003 2275.76C627.003 2282.1 625.039 2287 621.112 2290.46C617.215 2293.9 611.556 2295.61 604.134 2295.61H586.971ZM586.971 2290.79H604.273C609.809 2290.79 614.03 2289.48 616.937 2286.85C619.844 2284.22 621.297 2280.55 621.297 2275.85C621.297 2271.18 619.844 2267.47 616.937 2264.72C614.061 2261.94 609.964 2260.51 604.645 2260.45H586.971V2290.79ZM661.7 2277.66C660.525 2277.45 659.273 2277.34 657.943 2277.34C654.479 2277.34 651.542 2278.31 649.129 2280.26C646.748 2282.18 645.047 2284.98 644.027 2288.66V2323.12H638.507V2272.93H643.934L644.027 2280.91C646.965 2274.97 651.681 2272 658.175 2272C659.721 2272 660.943 2272.2 661.839 2272.61L661.7 2277.66ZM666.524 2297.28C666.524 2292.46 667.452 2288.11 669.308 2284.25C671.194 2280.38 673.838 2277.38 677.24 2275.25C680.672 2273.09 684.553 2272 688.883 2272C695.562 2272 700.974 2274.35 705.118 2279.05C709.262 2283.72 711.334 2289.92 711.334 2297.65V2298.81C711.334 2303.67 710.391 2308.05 708.504 2311.94C706.649 2315.81 704.02 2318.79 700.619 2320.89C697.217 2323 693.336 2324.05 688.976 2324.05C682.327 2324.05 676.915 2321.71 672.74 2317.04C668.596 2312.34 666.524 2306.13 666.524 2298.4V2297.28ZM672.091 2298.81C672.091 2304.81 673.637 2309.75 676.729 2313.61C679.853 2317.45 683.935 2319.36 688.976 2319.36C693.985 2319.36 698.036 2317.45 701.129 2313.61C704.252 2309.75 705.814 2304.66 705.814 2298.35V2297.28C705.814 2293.45 705.103 2289.94 703.68 2286.75C702.258 2283.57 700.263 2281.11 697.696 2279.38C695.13 2277.62 692.192 2276.73 688.883 2276.73C683.935 2276.73 679.899 2278.68 676.776 2282.58C673.653 2286.44 672.091 2291.52 672.091 2297.79V2298.81Z" fill="white"/>
<defs>
<filter id="filter0_d" x="317.613" y="1237.1" width="167.341" height="101.633" filterUnits="userSpaceOnUse" color-interpolation-filters="sRGB">
<feFlood flood-opacity="0" result="BackgroundImageFix"/>
<feColorMatrix in="SourceAlpha" type="matrix" values="0 0 0 0 0 0 0 0 0 0 0 0 0 0 0 0 0 0 127 0"/>
<feOffset dy="4"/>
<feGaussianBlur stdDeviation="2"/>
<feColorMatrix type="matrix" values="0 0 0 0 0 0 0 0 0 0 0 0 0 0 0 0 0 0 0.25 0"/>
<feBlend mode="normal" in2="BackgroundImageFix" result="effect1_dropShadow"/>
<feBlend mode="normal" in="SourceGraphic" in2="effect1_dropShadow" result="shape"/>
</filter>
<filter id="filter1_d" x="572.559" y="1237.1" width="167.341" height="101.633" filterUnits="userSpaceOnUse" color-interpolation-filters="sRGB">
<feFlood flood-opacity="0" result="BackgroundImageFix"/>
<feColorMatrix in="SourceAlpha" type="matrix" values="0 0 0 0 0 0 0 0 0 0 0 0 0 0 0 0 0 0 127 0"/>
<feOffset dy="4"/>
<feGaussianBlur stdDeviation="2"/>
<feColorMatrix type="matrix" values="0 0 0 0 0 0 0 0 0 0 0 0 0 0 0 0 0 0 0.25 0"/>
<feBlend mode="normal" in2="BackgroundImageFix" result="effect1_dropShadow"/>
<feBlend mode="normal" in="SourceGraphic" in2="effect1_dropShadow" result="shape"/>
</filter>
<filter id="filter2_d" x="275" y="1130.12" width="251" height="319.936" filterUnits="userSpaceOnUse" color-interpolation-filters="sRGB">
<feFlood flood-opacity="0" result="BackgroundImageFix"/>
<feColorMatrix in="SourceAlpha" type="matrix" values="0 0 0 0 0 0 0 0 0 0 0 0 0 0 0 0 0 0 127 0"/>
<feOffset dy="4"/>
<feGaussianBlur stdDeviation="2"/>
<feColorMatrix type="matrix" values="0 0 0 0 0 0 0 0 0 0 0 0 0 0 0 0 0 0 0.25 0"/>
<feBlend mode="normal" in2="BackgroundImageFix" result="effect1_dropShadow"/>
<feBlend mode="normal" in="SourceGraphic" in2="effect1_dropShadow" result="shape"/>
</filter>
<filter id="filter3_d" x="532" y="1058.89" width="251" height="317.653" filterUnits="userSpaceOnUse" color-interpolation-filters="sRGB">
<feFlood flood-opacity="0" result="BackgroundImageFix"/>
<feColorMatrix in="SourceAlpha" type="matrix" values="0 0 0 0 0 0 0 0 0 0 0 0 0 0 0 0 0 0 127 0"/>
<feOffset dy="4"/>
<feGaussianBlur stdDeviation="2"/>
<feColorMatrix type="matrix" values="0 0 0 0 0 0 0 0 0 0 0 0 0 0 0 0 0 0 0.25 0"/>
<feBlend mode="normal" in2="BackgroundImageFix" result="effect1_dropShadow"/>
<feBlend mode="normal" in="SourceGraphic" in2="effect1_dropShadow" result="shape"/>
</filter>
<filter id="filter4_d" x="317.613" y="1237.1" width="167.341" height="101.633" filterUnits="userSpaceOnUse" color-interpolation-filters="sRGB">
<feFlood flood-opacity="0" result="BackgroundImageFix"/>
<feColorMatrix in="SourceAlpha" type="matrix" values="0 0 0 0 0 0 0 0 0 0 0 0 0 0 0 0 0 0 127 0"/>
<feOffset dy="4"/>
<feGaussianBlur stdDeviation="2"/>
<feColorMatrix type="matrix" values="0 0 0 0 0 0 0 0 0 0 0 0 0 0 0 0 0 0 0.25 0"/>
<feBlend mode="normal" in2="BackgroundImageFix" result="effect1_dropShadow"/>
<feBlend mode="normal" in="SourceGraphic" in2="effect1_dropShadow" result="shape"/>
</filter>
<filter id="filter5_d" x="572.559" y="1237.1" width="167.341" height="101.633" filterUnits="userSpaceOnUse" color-interpolation-filters="sRGB">
<feFlood flood-opacity="0" result="BackgroundImageFix"/>
<feColorMatrix in="SourceAlpha" type="matrix" values="0 0 0 0 0 0 0 0 0 0 0 0 0 0 0 0 0 0 127 0"/>
<feOffset dy="4"/>
<feGaussianBlur stdDeviation="2"/>
<feColorMatrix type="matrix" values="0 0 0 0 0 0 0 0 0 0 0 0 0 0 0 0 0 0 0.25 0"/>
<feBlend mode="normal" in2="BackgroundImageFix" result="effect1_dropShadow"/>
<feBlend mode="normal" in="SourceGraphic" in2="effect1_dropShadow" result="shape"/>
</filter>
<filter id="filter6_d" x="275" y="1130.12" width="251" height="319.936" filterUnits="userSpaceOnUse" color-interpolation-filters="sRGB">
<feFlood flood-opacity="0" result="BackgroundImageFix"/>
<feColorMatrix in="SourceAlpha" type="matrix" values="0 0 0 0 0 0 0 0 0 0 0 0 0 0 0 0 0 0 127 0"/>
<feOffset dy="4"/>
<feGaussianBlur stdDeviation="2"/>
<feColorMatrix type="matrix" values="0 0 0 0 0 0 0 0 0 0 0 0 0 0 0 0 0 0 0.25 0"/>
<feBlend mode="normal" in2="BackgroundImageFix" result="effect1_dropShadow"/>
<feBlend mode="normal" in="SourceGraphic" in2="effect1_dropShadow" result="shape"/>
</filter>
<filter id="filter7_d" x="532" y="1058.89" width="251" height="317.653" filterUnits="userSpaceOnUse" color-interpolation-filters="sRGB">
<feFlood flood-opacity="0" result="BackgroundImageFix"/>
<feColorMatrix in="SourceAlpha" type="matrix" values="0 0 0 0 0 0 0 0 0 0 0 0 0 0 0 0 0 0 127 0"/>
<feOffset dy="4"/>
<feGaussianBlur stdDeviation="2"/>
<feColorMatrix type="matrix" values="0 0 0 0 0 0 0 0 0 0 0 0 0 0 0 0 0 0 0.25 0"/>
<feBlend mode="normal" in2="BackgroundImageFix" result="effect1_dropShadow"/>
<feBlend mode="normal" in="SourceGraphic" in2="effect1_dropShadow" result="shape"/>
</filter>
<linearGradient id="paint0_linear" x1="252.5" y1="45.9805" x2="252.5" y2="120.949" gradientUnits="userSpaceOnUse">
<stop stop-color="#23CAA2"/>
<stop offset="1" stop-color="#5F8BFB" stop-opacity="0"/>
</linearGradient>
<linearGradient id="paint1_linear" x1="253" y1="78.9688" x2="253" y2="88.9646" gradientUnits="userSpaceOnUse">
<stop stop-color="#78EDD1"/>
<stop stop-color="#78EDD1"/>
<stop offset="1" stop-color="#009DBF" stop-opacity="0"/>
</linearGradient>
<linearGradient id="paint2_linear" x1="253" y1="78.9688" x2="253" y2="88.9646" gradientUnits="userSpaceOnUse">
<stop stop-color="#009DBF"/>
<stop offset="1" stop-color="white" stop-opacity="0"/>
</linearGradient>
</defs>
</svg>
