<svg width="1080" height="2400" viewBox="0 0 1080 2400" fill="none" xmlns="http://www.w3.org/2000/svg">
<rect x="21" y="21" width="1037.6" height="2312.58" rx="71" fill="black" stroke="#393939" stroke-width="42"/>
<path d="M490.487 4.80193C495.447 2.31976 501.005 1.27878 506.527 1.79729L541.743 5.10376C544.777 5.38862 547.831 5.39552 550.866 5.12435L578.986 2.61226C586.91 1.90427 594.794 4.35584 600.92 9.43315L622.969 27.7087C624.487 28.9665 624.623 31.2462 623.265 32.6751L620.755 35.3164L616.095 40.335L608.873 48.0203C607.236 49.7621 605.726 51.619 604.355 53.5768L591.357 72.1365L584.535 80.9621C564.937 106.317 526.881 106.949 506.452 82.2585L498.077 72.1365L480.933 49.5798L470.895 39.5426L465.875 34.7882L460.835 30.1847C457.387 26.714 458.342 20.8872 462.717 18.698L490.487 4.80193Z" fill="#393939"/>
<path d="M1080 2332.26C1080 2369.67 1049.67 2400 1012.26 2400H68.1373C30.7246 2400 0.395752 2369.67 0.395752 2332.26H1080Z" fill="#393939"/>
<rect y="2228.72" width="40.3529" height="107.692" fill="#393939"/>
<rect x="35.5488" y="2311.8" width="53.8039" height="54.359" fill="#393939"/>
<rect x="989.607" y="2311.8" width="90.3137" height="21.5385" fill="#393939"/>
<rect x="1039.57" y="2208.2" width="40.3529" height="118.974" fill="#393939"/>
<g filter="url(#filter0_d)">
<path fill-rule="evenodd" clip-rule="evenodd" d="M493.172 1168.55C500.03 1156.22 503.46 1142.21 503.46 1126.5C503.46 1120.81 503.02 1115.36 502.139 1110.16H481.832C482.914 1115.22 483.453 1120.66 483.453 1126.5C483.453 1138.03 480.882 1148.27 475.737 1157.21C470.593 1166.16 463.542 1173.12 454.587 1178.09C445.633 1183.06 435.438 1185.54 424.006 1185.54C412.383 1185.54 402.093 1183.25 393.138 1178.68C384.183 1173.91 377.133 1167.35 371.989 1159C366.844 1150.45 364.272 1140.61 364.272 1129.48C364.272 1122.58 365.251 1116.14 367.21 1110.16H346.389C344.973 1116.3 344.265 1122.73 344.265 1129.48C344.265 1144.79 347.79 1158.31 354.84 1170.04C361.699 1181.76 371.131 1191.01 383.135 1197.77C395.139 1204.53 408.763 1207.91 424.006 1207.91C439.058 1207.91 452.587 1204.43 464.59 1197.47C476.595 1190.31 486.122 1180.67 493.172 1168.55Z" fill="#FFB700"/>
</g>
<g filter="url(#filter1_d)">
<path fill-rule="evenodd" clip-rule="evenodd" d="M747.885 1168.55C754.745 1156.22 758.174 1142.21 758.174 1126.5C758.174 1120.81 757.733 1115.36 756.85 1110.16H736.546C737.627 1115.22 738.167 1120.66 738.167 1126.5C738.167 1138.03 735.595 1148.27 730.45 1157.21C725.307 1166.16 718.256 1173.12 709.3 1178.09C700.345 1183.06 690.152 1185.54 678.719 1185.54C667.096 1185.54 656.807 1183.25 647.852 1178.68C638.897 1173.91 631.847 1167.35 626.702 1159C621.557 1150.45 618.986 1140.61 618.986 1129.48C618.986 1122.58 619.964 1116.14 621.923 1110.16H601.103C599.687 1116.3 598.979 1122.73 598.979 1129.48C598.979 1144.79 602.504 1158.31 609.554 1170.04C616.412 1181.76 625.844 1191.01 637.849 1197.77C649.852 1204.53 663.476 1207.91 678.719 1207.91C693.772 1207.91 707.3 1204.43 719.304 1197.47C731.309 1190.31 740.836 1180.67 747.885 1168.55Z" fill="#FFB700"/>
</g>
<g filter="url(#filter2_d)">
<path fill-rule="evenodd" clip-rule="evenodd" d="M335.309 1324.05H301.687V1121.3C301.978 1098.07 307.363 1077.22 317.843 1058.75C328.613 1039.98 343.023 1025.24 361.071 1014.52C379.41 1003.79 399.933 998.43 422.639 998.43C445.927 998.43 466.741 1003.94 485.079 1014.96C503.42 1025.69 517.829 1040.43 528.308 1059.2C539.079 1077.96 544.464 1099.26 544.464 1123.09C544.464 1146.62 539.225 1167.77 528.744 1186.54C518.556 1205.31 504.583 1220.2 486.826 1231.22C469.069 1241.94 448.983 1247.31 426.569 1247.31C407.065 1247.31 389.308 1243.14 373.297 1234.8C357.578 1226.16 344.915 1214.84 335.309 1200.84V1324.05ZM468.051 1203.97C454.659 1212.01 439.522 1216.03 422.639 1216.03C406.046 1216.03 391.054 1212.01 377.664 1203.97C364.273 1195.92 353.793 1184.9 346.225 1170.9C338.656 1156.6 334.872 1140.67 334.872 1123.09C334.872 1105.22 338.656 1089.28 346.225 1075.28C353.793 1061.28 364.273 1050.26 377.664 1042.22C391.054 1033.88 406.046 1029.71 422.639 1029.71C439.522 1029.71 454.659 1033.88 468.051 1042.22C481.441 1050.26 491.921 1061.28 499.489 1075.28C507.349 1089.28 511.278 1105.22 511.278 1123.09C511.278 1140.67 507.349 1156.6 499.489 1170.9C491.921 1184.9 481.441 1195.92 468.051 1203.97Z" fill="#09AC99"/>
</g>
<g filter="url(#filter3_d)">
<path fill-rule="evenodd" clip-rule="evenodd" d="M767.163 924.102V1044.93C757.556 1030.93 744.893 1019.76 729.173 1011.42C713.455 1002.78 695.843 998.465 676.34 998.465C653.925 998.465 633.838 1003.98 616.081 1015C598.324 1025.72 584.206 1040.47 573.726 1059.23C563.538 1078 558.444 1099.15 558.444 1122.68C558.444 1146.51 563.683 1167.81 574.162 1186.57C584.933 1205.34 599.488 1220.23 617.827 1231.26C636.168 1241.98 656.836 1247.34 679.833 1247.34C702.538 1247.34 722.915 1241.98 740.964 1231.26C759.303 1220.53 773.712 1205.94 784.191 1187.47C794.962 1168.7 800.64 1147.7 801.221 1124.47V924.102H767.163ZM724.808 1204C711.708 1212.04 696.716 1216.06 679.833 1216.06C663.24 1216.06 648.248 1212.04 634.857 1204C621.467 1195.66 610.841 1184.49 602.981 1170.49C595.122 1156.49 591.192 1140.55 591.192 1122.68C591.192 1105.1 595.122 1089.32 602.981 1075.32C610.841 1061.02 621.467 1049.85 634.857 1041.81C648.248 1033.76 663.24 1029.74 679.833 1029.74C696.716 1029.74 711.708 1033.76 724.808 1041.81C738.198 1049.85 748.677 1061.02 756.246 1075.32C764.106 1089.32 768.035 1105.1 768.035 1122.68C768.035 1140.55 764.106 1156.49 756.246 1170.49C748.677 1184.49 738.198 1195.66 724.808 1204Z" fill="#09AC99"/>
</g>
<path d="M295.817 2144.77C290.579 2144.65 285.373 2145.62 280.525 2147.61C275.676 2149.6 271.287 2152.57 267.632 2156.34C263.977 2160.11 261.134 2164.59 259.279 2169.51C257.425 2174.43 256.599 2179.67 256.852 2184.92C256.852 2207.03 271.313 2224.98 295.501 2224.98C302.349 2225.28 309.148 2223.68 315.144 2220.34C321.14 2217.01 326.098 2212.07 329.47 2206.09L320.794 2200.49C318.456 2205.17 314.831 2209.08 310.348 2211.75C305.866 2214.43 300.714 2215.76 295.501 2215.58C291.716 2215.63 287.958 2214.92 284.454 2213.48C280.95 2212.04 277.77 2209.91 275.105 2207.21C272.44 2204.51 270.345 2201.3 268.943 2197.77C267.542 2194.24 266.863 2190.46 266.948 2186.67H331.837V2183.61C331.679 2159.07 315.693 2144.77 295.817 2144.77ZM267.264 2177.75C268.421 2171.09 271.894 2165.06 277.065 2160.73C282.235 2156.4 288.768 2154.06 295.501 2154.11C302.059 2153.95 308.43 2156.31 313.315 2160.7C318.201 2165.09 321.233 2171.19 321.793 2177.75H267.264Z" fill="white"/>
<path d="M210 2146.14V2224.02H220.096V2155.48H256.536V2146.14H210Z" fill="white"/>
<path d="M656.96 2183.6C656.96 2158.85 640.817 2144.55 620.94 2144.55C615.706 2144.44 610.507 2145.42 605.664 2147.41C600.821 2149.41 596.439 2152.38 592.79 2156.15C589.14 2159.91 586.302 2164.39 584.451 2169.3C582.599 2174.22 581.775 2179.46 582.028 2184.71C582.028 2206.82 596.436 2224.76 620.625 2224.76C627.479 2225.06 634.284 2223.46 640.288 2220.13C646.292 2216.79 651.261 2211.86 654.646 2205.87L646.128 2200.49C643.789 2205.16 640.164 2209.07 635.682 2211.75C631.199 2214.42 626.047 2215.75 620.835 2215.58C617.051 2215.62 613.297 2214.9 609.796 2213.46C606.295 2212.02 603.119 2209.89 600.455 2207.19C597.792 2204.49 595.696 2201.28 594.292 2197.76C592.888 2194.23 592.204 2190.46 592.282 2186.66H656.96V2183.6ZM592.597 2177.74C593.755 2171.09 597.228 2165.06 602.398 2160.73C607.569 2156.4 614.101 2154.05 620.835 2154.1C627.396 2153.93 633.774 2156.28 638.662 2160.68C643.55 2165.07 646.579 2171.18 647.127 2177.74H592.597Z" fill="white"/>
<path d="M543.379 2145.08C538.218 2144.94 533.11 2146.16 528.563 2148.61C524.015 2151.06 520.186 2154.67 517.455 2159.06C515.299 2154.7 511.932 2151.07 507.762 2148.58C503.591 2146.1 498.795 2144.89 493.95 2145.08C489.5 2144.87 485.071 2145.81 481.079 2147.79C477.088 2149.78 473.664 2152.75 471.129 2156.42V2146.13H460.823V2223.86H470.919V2173.73C471.138 2168.46 473.408 2163.48 477.243 2159.87C481.077 2156.26 486.169 2154.3 491.426 2154.42C504.152 2154.42 510.935 2163.92 510.935 2176.53V2224.02H521.031V2174.95C520.861 2172.16 521.293 2169.36 522.298 2166.75C523.303 2164.15 524.858 2161.79 526.855 2159.84C528.852 2157.89 531.244 2156.4 533.869 2155.46C536.494 2154.53 539.29 2154.17 542.064 2154.42C554.474 2154.42 561.783 2163.92 561.783 2176.53V2224.02H571.827V2176.53C571.616 2157.22 561.257 2145.08 543.379 2145.08Z" fill="white"/>
<path d="M406.82 2155.32C399.718 2148.6 390.286 2144.93 380.528 2145.08C375.294 2145 370.098 2145.99 365.258 2147.99C360.418 2149.99 356.035 2152.96 352.378 2156.72C348.721 2160.48 345.867 2164.94 343.989 2169.85C342.112 2174.75 341.251 2179.99 341.459 2185.24C341.256 2190.49 342.128 2195.73 344.019 2200.63C345.911 2205.54 348.782 2210 352.457 2213.74C356.132 2217.49 360.532 2220.44 365.387 2222.42C370.242 2224.4 375.448 2225.35 380.686 2225.24C385.524 2225.35 390.336 2224.5 394.848 2222.74C399.359 2220.99 403.481 2218.36 406.978 2215V2224.02H416.916V2146.29H406.82V2155.32ZM380.16 2215.26C376.304 2215.26 372.489 2214.47 368.943 2212.95C365.397 2211.43 362.195 2209.21 359.528 2206.41C356.86 2203.62 354.784 2200.31 353.423 2196.69C352.062 2193.07 351.444 2189.21 351.607 2185.34C351.422 2181.46 352.024 2177.59 353.375 2173.95C354.726 2170.31 356.799 2166.98 359.468 2164.17C362.138 2161.36 365.348 2159.12 368.904 2157.59C372.461 2156.06 376.29 2155.27 380.16 2155.26C396.882 2155.26 408.398 2167.14 408.398 2185.34C408.398 2203.55 396.882 2215.26 380.16 2215.26Z" fill="white"/>
<path d="M443.84 2115H433.744V2223.86H443.84V2115Z" fill="white"/>
<path d="M815.237 2162.49H800.251V2207.5H805.877V2188.87H815.237C817.16 2189.22 819.136 2189.14 821.024 2188.64C822.913 2188.13 824.668 2187.22 826.167 2185.96C827.666 2184.7 828.871 2183.13 829.699 2181.35C830.526 2179.58 830.954 2177.64 830.954 2175.68C830.954 2173.72 830.526 2171.78 829.699 2170.01C828.871 2168.23 827.666 2166.66 826.167 2165.4C824.668 2164.14 822.913 2163.23 821.024 2162.73C819.136 2162.22 817.16 2162.14 815.237 2162.49ZM815.237 2183.6H805.877V2167.77H815.237C821.021 2167.77 824.597 2170.83 824.597 2175.79C824.597 2180.75 821.021 2183.6 815.237 2183.6Z" fill="white"/>
<path d="M841.529 2178.9V2175.37H836.271V2207.03H841.529V2186.66C841.817 2184.74 842.827 2183 844.353 2181.8C845.879 2180.61 847.804 2180.04 849.732 2180.22H852.94V2174.95H850.258C848.602 2174.92 846.96 2175.26 845.451 2175.94C843.942 2176.63 842.602 2177.64 841.529 2178.9Z" fill="white"/>
<path d="M871.659 2174.74C868.385 2174.76 865.191 2175.75 862.48 2177.59C859.769 2179.44 857.662 2182.04 856.426 2185.08C855.19 2188.13 854.88 2191.47 855.535 2194.69C856.191 2197.91 857.782 2200.86 860.107 2203.17C862.433 2205.48 865.39 2207.05 868.603 2207.68C871.817 2208.3 875.144 2207.96 878.163 2206.69C881.183 2205.42 883.76 2203.28 885.569 2200.55C887.378 2197.81 888.338 2194.59 888.328 2191.31C888.349 2189.11 887.932 2186.93 887.1 2184.9C886.268 2182.87 885.038 2181.03 883.484 2179.49C881.929 2177.94 880.082 2176.72 878.051 2175.91C876.02 2175.09 873.846 2174.69 871.659 2174.74ZM871.659 2203.02C870.121 2203.07 868.59 2202.79 867.162 2202.22C865.735 2201.64 864.44 2200.78 863.36 2199.68C862.279 2198.58 861.436 2197.27 860.882 2195.83C860.329 2194.39 860.077 2192.85 860.143 2191.31C860.036 2189.73 860.255 2188.14 860.784 2186.65C861.313 2185.16 862.142 2183.79 863.219 2182.64C864.296 2181.48 865.599 2180.56 867.046 2179.93C868.494 2179.3 870.055 2178.97 871.632 2178.97C873.21 2178.97 874.771 2179.3 876.219 2179.93C877.666 2180.56 878.969 2181.48 880.046 2182.64C881.123 2183.79 881.952 2185.16 882.481 2186.65C883.01 2188.14 883.229 2189.73 883.122 2191.31C883.187 2192.85 882.937 2194.38 882.387 2195.82C881.837 2197.25 880.998 2198.56 879.923 2199.66C878.849 2200.76 877.56 2201.62 876.139 2202.2C874.717 2202.78 873.192 2203.06 871.659 2203.02Z" fill="white"/>
<path d="M890.694 2145.71H795.045C791.126 2145.71 787.367 2147.27 784.596 2150.05C781.825 2152.83 780.269 2156.6 780.269 2160.54V2209.14C780.269 2213.07 781.825 2216.84 784.596 2219.62C787.367 2222.4 791.126 2223.96 795.045 2223.96H890.694C894.613 2223.96 898.371 2222.4 901.142 2219.62C903.913 2216.84 905.47 2213.07 905.47 2209.14V2160.54C905.47 2158.59 905.088 2156.66 904.345 2154.86C903.603 2153.06 902.514 2151.43 901.142 2150.05C899.77 2148.67 898.141 2147.58 896.349 2146.84C894.556 2146.09 892.634 2145.71 890.694 2145.71ZM785.527 2160.54C785.541 2158.02 786.542 2155.61 788.314 2153.83C790.086 2152.06 792.486 2151.05 794.992 2151.04H890.641C893.147 2151.05 895.547 2152.06 897.319 2153.83C899.091 2155.61 900.093 2158.02 900.106 2160.54V2209.14C900.093 2211.65 899.091 2214.06 897.319 2215.84C895.547 2217.62 893.147 2218.62 890.641 2218.63H795.045C792.539 2218.62 790.139 2217.62 788.367 2215.84C786.595 2214.06 785.593 2211.65 785.58 2209.14L785.527 2160.54Z" fill="white"/>
<path d="M717.637 2172.68C726.66 2172.68 733.75 2174.92 738.906 2179.41C744.102 2183.87 746.699 2189.98 746.699 2197.75C746.699 2206.62 743.867 2213.57 738.203 2218.61C732.578 2223.65 724.805 2226.17 714.883 2226.17C705.234 2226.17 697.871 2224.63 692.793 2221.54V2212.17C695.527 2213.93 698.926 2215.31 702.988 2216.33C707.051 2217.3 711.055 2217.79 715 2217.79C721.875 2217.79 727.207 2216.17 730.996 2212.93C734.824 2209.69 736.738 2205 736.738 2198.87C736.738 2186.91 729.414 2180.94 714.766 2180.94C711.055 2180.94 706.094 2181.5 699.883 2182.64L694.844 2179.41L698.066 2139.34H740.664V2148.3H706.387L704.219 2174.02C708.711 2173.12 713.184 2172.68 717.637 2172.68Z" fill="white"/>
<defs>
<filter id="filter0_d" x="340.265" y="1110.16" width="167.195" height="105.741" filterUnits="userSpaceOnUse" color-interpolation-filters="sRGB">
<feFlood flood-opacity="0" result="BackgroundImageFix"/>
<feColorMatrix in="SourceAlpha" type="matrix" values="0 0 0 0 0 0 0 0 0 0 0 0 0 0 0 0 0 0 127 0"/>
<feOffset dy="4"/>
<feGaussianBlur stdDeviation="2"/>
<feColorMatrix type="matrix" values="0 0 0 0 0 0 0 0 0 0 0 0 0 0 0 0 0 0 0.25 0"/>
<feBlend mode="normal" in2="BackgroundImageFix" result="effect1_dropShadow"/>
<feBlend mode="normal" in="SourceGraphic" in2="effect1_dropShadow" result="shape"/>
</filter>
<filter id="filter1_d" x="594.979" y="1110.16" width="167.195" height="105.741" filterUnits="userSpaceOnUse" color-interpolation-filters="sRGB">
<feFlood flood-opacity="0" result="BackgroundImageFix"/>
<feColorMatrix in="SourceAlpha" type="matrix" values="0 0 0 0 0 0 0 0 0 0 0 0 0 0 0 0 0 0 127 0"/>
<feOffset dy="4"/>
<feGaussianBlur stdDeviation="2"/>
<feColorMatrix type="matrix" values="0 0 0 0 0 0 0 0 0 0 0 0 0 0 0 0 0 0 0.25 0"/>
<feBlend mode="normal" in2="BackgroundImageFix" result="effect1_dropShadow"/>
<feBlend mode="normal" in="SourceGraphic" in2="effect1_dropShadow" result="shape"/>
</filter>
<filter id="filter2_d" x="297.687" y="998.43" width="250.778" height="333.623" filterUnits="userSpaceOnUse" color-interpolation-filters="sRGB">
<feFlood flood-opacity="0" result="BackgroundImageFix"/>
<feColorMatrix in="SourceAlpha" type="matrix" values="0 0 0 0 0 0 0 0 0 0 0 0 0 0 0 0 0 0 127 0"/>
<feOffset dy="4"/>
<feGaussianBlur stdDeviation="2"/>
<feColorMatrix type="matrix" values="0 0 0 0 0 0 0 0 0 0 0 0 0 0 0 0 0 0 0.25 0"/>
<feBlend mode="normal" in2="BackgroundImageFix" result="effect1_dropShadow"/>
<feBlend mode="normal" in="SourceGraphic" in2="effect1_dropShadow" result="shape"/>
</filter>
<filter id="filter3_d" x="554.444" y="924.102" width="250.777" height="331.239" filterUnits="userSpaceOnUse" color-interpolation-filters="sRGB">
<feFlood flood-opacity="0" result="BackgroundImageFix"/>
<feColorMatrix in="SourceAlpha" type="matrix" values="0 0 0 0 0 0 0 0 0 0 0 0 0 0 0 0 0 0 127 0"/>
<feOffset dy="4"/>
<feGaussianBlur stdDeviation="2"/>
<feColorMatrix type="matrix" values="0 0 0 0 0 0 0 0 0 0 0 0 0 0 0 0 0 0 0.25 0"/>
<feBlend mode="normal" in2="BackgroundImageFix" result="effect1_dropShadow"/>
<feBlend mode="normal" in="SourceGraphic" in2="effect1_dropShadow" result="shape"/>
</filter>
</defs>
</svg>
