<svg width="1080" height="2400" viewBox="0 0 1080 2400" fill="none" xmlns="http://www.w3.org/2000/svg">
<rect x="468.85" y="7" width="169" height="153.419" rx="26" fill="black" stroke="#393939" stroke-width="14"/>
<path d="M582.85 83.2102C582.85 99.4049 569.669 112.581 553.35 112.581C537.032 112.581 523.85 99.4049 523.85 83.2102C523.85 67.0155 537.032 53.8398 553.35 53.8398C569.669 53.8398 582.85 67.0155 582.85 83.2102Z" fill="black" stroke="url(#paint0_linear)" stroke-width="16"/>
<ellipse cx="553.85" cy="83.7099" rx="15" ry="14.9481" fill="black"/>
<mask id="path-4-inside-1" fill="white">
<ellipse cx="553.85" cy="83.7093" rx="5" ry="4.98271"/>
</mask>
<ellipse cx="553.85" cy="83.7093" rx="5" ry="4.98271" fill="black"/>
<path d="M553.85 83.7093C553.85 83.7117 553.85 83.7124 553.85 83.7118C553.85 83.7112 553.851 83.7098 553.851 83.7078C553.852 83.7034 553.853 83.699 553.855 83.6953C553.858 83.6884 553.859 83.6881 553.857 83.6909C553.854 83.6938 553.852 83.694 553.855 83.693C553.856 83.6923 553.858 83.6918 553.859 83.6916C553.861 83.6913 553.858 83.692 553.85 83.692V93.692C559.357 93.692 563.85 89.2389 563.85 83.7093H553.85ZM553.85 83.692C553.843 83.692 553.84 83.6913 553.842 83.6916C553.843 83.6918 553.845 83.6923 553.846 83.693C553.849 83.694 553.847 83.6938 553.844 83.6909C553.841 83.6881 553.843 83.6884 553.846 83.6953C553.848 83.699 553.849 83.7034 553.85 83.7078C553.85 83.7098 553.85 83.7112 553.851 83.7118C553.851 83.7124 553.85 83.7117 553.85 83.7093H543.85C543.85 89.2389 548.344 93.692 553.85 93.692V83.692ZM553.85 83.7093C553.85 83.7069 553.851 83.7061 553.851 83.7067C553.85 83.7073 553.85 83.7088 553.85 83.7108C553.849 83.7151 553.848 83.7195 553.846 83.7233C553.843 83.7301 553.841 83.7305 553.844 83.7276C553.847 83.7248 553.849 83.7245 553.846 83.7256C553.845 83.7262 553.843 83.7267 553.842 83.727C553.84 83.7273 553.843 83.7266 553.85 83.7266V73.7266C548.344 73.7266 543.85 78.1797 543.85 83.7093H553.85ZM553.85 83.7266C553.858 83.7266 553.861 83.7273 553.859 83.727C553.858 83.7267 553.856 83.7262 553.855 83.7256C553.852 83.7245 553.854 83.7248 553.857 83.7276C553.859 83.7305 553.858 83.7301 553.855 83.7233C553.853 83.7195 553.852 83.7151 553.851 83.7108C553.851 83.7088 553.85 83.7073 553.85 83.7067C553.85 83.7061 553.85 83.7069 553.85 83.7093H563.85C563.85 78.1797 559.357 73.7266 553.85 73.7266V83.7266Z" fill="url(#paint1_linear)" mask="url(#path-4-inside-1)"/>
<path d="M553.85 83.7093C553.85 83.7117 553.85 83.7124 553.85 83.7118C553.85 83.7112 553.851 83.7098 553.851 83.7078C553.852 83.7034 553.853 83.699 553.855 83.6953C553.858 83.6884 553.859 83.6881 553.857 83.6909C553.854 83.6938 553.852 83.694 553.855 83.693C553.856 83.6923 553.858 83.6918 553.859 83.6916C553.861 83.6913 553.858 83.692 553.85 83.692V93.692C559.357 93.692 563.85 89.2389 563.85 83.7093H553.85ZM553.85 83.692C553.843 83.692 553.84 83.6913 553.842 83.6916C553.843 83.6918 553.845 83.6923 553.846 83.693C553.849 83.694 553.847 83.6938 553.844 83.6909C553.841 83.6881 553.843 83.6884 553.846 83.6953C553.848 83.699 553.849 83.7034 553.85 83.7078C553.85 83.7098 553.85 83.7112 553.851 83.7118C553.851 83.7124 553.85 83.7117 553.85 83.7093H543.85C543.85 89.2389 548.344 93.692 553.85 93.692V83.692ZM553.85 83.7093C553.85 83.7069 553.851 83.7061 553.851 83.7067C553.85 83.7073 553.85 83.7088 553.85 83.7108C553.849 83.7151 553.848 83.7195 553.846 83.7233C553.843 83.7301 553.841 83.7305 553.844 83.7276C553.847 83.7248 553.849 83.7245 553.846 83.7256C553.845 83.7262 553.843 83.7267 553.842 83.727C553.84 83.7273 553.843 83.7266 553.85 83.7266V73.7266C548.344 73.7266 543.85 78.1797 543.85 83.7093H553.85ZM553.85 83.7266C553.858 83.7266 553.861 83.7273 553.859 83.727C553.858 83.7267 553.856 83.7262 553.855 83.7256C553.852 83.7245 553.854 83.7248 553.857 83.7276C553.859 83.7305 553.858 83.7301 553.855 83.7233C553.853 83.7195 553.852 83.7151 553.851 83.7108C553.851 83.7088 553.85 83.7073 553.85 83.7067C553.85 83.7061 553.85 83.7069 553.85 83.7093H563.85C563.85 78.1797 559.357 73.7266 553.85 73.7266V83.7266Z" fill="url(#paint2_linear)" mask="url(#path-4-inside-1)"/>
<rect x="15" y="122.953" width="1050" height="2262.05" rx="77" fill="black" stroke="#393939" stroke-width="30"/>
<g filter="url(#filter0_d)">
<path fill-rule="evenodd" clip-rule="evenodd" d="M490.179 1296.92C497.044 1285.15 500.477 1271.76 500.477 1256.77C500.477 1251.33 500.036 1246.13 499.154 1241.16H478.828C479.912 1245.99 480.451 1251.19 480.451 1256.77C480.451 1267.78 477.878 1277.56 472.728 1286.1C467.579 1294.64 460.522 1301.29 451.559 1306.03C442.596 1310.78 432.392 1313.15 420.949 1313.15C409.316 1313.15 399.017 1310.97 390.054 1306.6C381.09 1302.05 374.034 1295.78 368.885 1287.81C363.735 1279.64 361.161 1270.25 361.161 1259.61C361.161 1253.02 362.141 1246.87 364.101 1241.16H343.261C341.844 1247.02 341.136 1253.17 341.136 1259.61C341.136 1274.23 344.664 1287.14 351.72 1298.34C358.586 1309.55 368.026 1318.37 380.041 1324.83C392.056 1331.28 405.692 1334.51 420.949 1334.51C436.016 1334.51 449.557 1331.19 461.571 1324.55C473.587 1317.71 483.122 1308.5 490.179 1296.92Z" fill="#FFB700"/>
</g>
<g filter="url(#filter1_d)">
<path fill-rule="evenodd" clip-rule="evenodd" d="M745.131 1296.92C751.997 1285.15 755.43 1271.76 755.43 1256.77C755.43 1251.33 754.988 1246.13 754.105 1241.16H733.782C734.864 1245.99 735.405 1251.19 735.405 1256.77C735.405 1267.78 732.83 1277.56 727.68 1286.1C722.532 1294.64 715.475 1301.29 706.511 1306.03C697.548 1310.78 687.345 1313.15 675.902 1313.15C664.268 1313.15 653.969 1310.97 645.006 1306.6C636.044 1302.05 628.987 1295.78 623.837 1287.81C618.688 1279.64 616.114 1270.25 616.114 1259.61C616.114 1253.02 617.093 1246.87 619.054 1241.16H598.214C596.797 1247.02 596.089 1253.17 596.089 1259.61C596.089 1274.23 599.617 1287.14 606.673 1298.34C613.538 1309.55 622.979 1318.37 634.994 1324.83C647.009 1331.28 660.645 1334.51 675.902 1334.51C690.969 1334.51 704.509 1331.19 716.524 1324.55C728.54 1317.71 738.076 1308.5 745.131 1296.92Z" fill="#FFB700"/>
</g>
<g filter="url(#filter2_d)">
<path fill-rule="evenodd" clip-rule="evenodd" d="M332.179 1445.5H298.526V1251.87C298.818 1229.68 304.208 1209.76 314.697 1192.12C325.478 1174.2 339.9 1160.12 357.965 1149.88C376.321 1139.64 396.863 1134.52 419.589 1134.52C442.899 1134.52 463.732 1139.78 482.087 1150.3C500.444 1160.55 514.867 1174.63 525.356 1192.55C536.137 1210.47 541.526 1230.82 541.526 1253.57C541.526 1276.05 536.282 1296.25 525.792 1314.17C515.595 1332.09 501.609 1346.32 483.835 1356.84C466.062 1367.09 445.958 1372.21 423.523 1372.21C404.001 1372.21 386.228 1368.22 370.203 1360.26C354.469 1352.01 341.794 1341.2 332.179 1327.83V1445.5ZM465.043 1330.81C451.639 1338.49 436.489 1342.34 419.589 1342.34C402.981 1342.34 387.976 1338.49 374.573 1330.81C361.17 1323.13 350.681 1312.61 343.105 1299.23C335.53 1285.58 331.742 1270.36 331.742 1253.57C331.742 1236.5 335.53 1221.28 343.105 1207.91C350.681 1194.54 361.17 1184.02 374.573 1176.34C387.976 1168.37 402.981 1164.39 419.589 1164.39C436.489 1164.39 451.639 1168.37 465.043 1176.34C478.445 1184.02 488.935 1194.54 496.51 1207.91C504.377 1221.28 508.31 1236.5 508.31 1253.57C508.31 1270.36 504.377 1285.58 496.51 1299.23C488.935 1312.61 478.445 1323.13 465.043 1330.81Z" fill="#09AC99"/>
</g>
<g filter="url(#filter3_d)">
<path fill-rule="evenodd" clip-rule="evenodd" d="M764.436 1063.5V1178.9C754.821 1165.53 742.146 1154.86 726.412 1146.89C710.679 1138.64 693.052 1134.52 673.53 1134.52C651.095 1134.52 630.989 1139.78 613.216 1150.31C595.443 1160.55 581.312 1174.63 570.822 1192.55C560.625 1210.48 555.526 1230.68 555.526 1253.15C555.526 1275.91 560.771 1296.25 571.259 1314.17C582.04 1332.09 596.608 1346.32 614.964 1356.85C633.321 1367.09 654.009 1372.21 677.026 1372.21C699.753 1372.21 720.148 1367.09 738.214 1356.85C756.569 1346.6 770.992 1332.66 781.481 1315.03C792.262 1297.1 797.944 1277.05 798.526 1254.86V1063.5H764.436ZM722.043 1330.81C708.931 1338.5 693.925 1342.34 677.026 1342.34C660.419 1342.34 645.412 1338.5 632.01 1330.81C618.607 1322.85 607.972 1312.18 600.105 1298.81C592.238 1285.44 588.305 1270.22 588.305 1253.15C588.305 1236.36 592.238 1221.29 600.105 1207.92C607.972 1194.26 618.607 1183.59 632.01 1175.91C645.412 1168.23 660.419 1164.39 677.026 1164.39C693.925 1164.39 708.931 1168.23 722.043 1175.91C735.445 1183.59 745.934 1194.26 753.51 1207.92C761.377 1221.29 765.31 1236.36 765.31 1253.15C765.31 1270.22 761.377 1285.44 753.51 1298.81C745.934 1312.18 735.445 1322.85 722.043 1330.81Z" fill="#09AC99"/>
</g>
<path fill-rule="evenodd" clip-rule="evenodd" d="M737.988 2137.51L750.847 2137.58L785.08 2171.89H773.34L737.988 2137.51Z" fill="white"/>
<path fill-rule="evenodd" clip-rule="evenodd" d="M785.151 2171.89H773.383L807.712 2137.51H820.508L785.151 2171.89ZM821.121 2213.15L807.649 2213.08L773.445 2178.78L785.376 2178.76L821.121 2213.15Z" fill="white"/>
<path fill-rule="evenodd" clip-rule="evenodd" d="M773.34 2178.77H785.285L750.78 2213.16H737.988L773.34 2178.77Z" fill="white"/>
<path fill-rule="evenodd" clip-rule="evenodd" d="M345.564 2169.1C348.228 2155.16 359.915 2146.81 372.477 2146.81C385.341 2146.81 395.698 2155.31 397.468 2169.1H345.564ZM372.784 2138C350.453 2138 335.661 2154.72 335.661 2175.84C335.661 2196.67 349.415 2213.53 372.477 2213.53C387.709 2213.53 398.501 2206.64 404.864 2195.78L396.588 2190.51C391.56 2199.01 384.461 2204.73 372.477 2204.73C356.514 2204.73 345.42 2192.41 345.272 2177.46H407.083V2174.82C406.94 2151.5 391.703 2138.01 372.784 2138.01V2138ZM291 2139.32V2212.65H300.611V2148.13H335.365V2139.32H291ZM655.601 2169.1C658.261 2155.16 669.943 2146.81 682.514 2146.81C695.373 2146.81 705.735 2155.31 707.5 2169.1H655.596H655.601ZM717.111 2174.82C716.967 2151.5 701.74 2138.01 682.811 2138.01C660.48 2138.01 645.689 2154.72 645.689 2175.84C645.689 2196.67 659.447 2213.53 682.514 2213.53C697.746 2213.53 708.538 2206.64 714.901 2195.78L706.615 2190.51C701.583 2199.01 694.488 2204.73 682.505 2204.73C666.537 2204.73 655.448 2192.41 655.299 2177.46H717.106V2174.82H717.111ZM608.701 2138.3C598.497 2138.3 589.326 2142.85 584.002 2151.5C580.012 2143.87 572.76 2138.3 561.379 2138.3C552.649 2138.3 544.67 2141.67 539.642 2149V2139.33H530.031V2212.5H539.647V2165.29C539.647 2154.28 549.697 2147.1 559.16 2147.1C571.287 2147.1 577.797 2156.05 577.797 2167.92V2212.51H587.408V2166.46C587.408 2152.24 597.908 2147.1 607.218 2147.1C619.048 2147.1 625.999 2156.05 625.999 2167.92V2212.51H635.614V2167.92C635.614 2149.89 625.712 2138.3 608.701 2138.3ZM453.132 2204.29C437.164 2204.29 425.922 2191.68 425.922 2176.14C425.922 2160.44 437.164 2147.83 453.132 2147.83C469.11 2147.83 480.046 2158.98 480.046 2176.14C480.046 2193.15 469.105 2204.29 453.132 2204.29ZM478.567 2147.98C472.358 2141.97 463.336 2138.31 453.725 2138.31C431.839 2138.31 416.316 2154.73 416.316 2176.15C416.316 2197.55 431.839 2213.83 453.725 2213.83C463.336 2213.83 472.358 2210.31 478.567 2204.15V2212.66H488.03V2139.48H478.572V2147.98L478.567 2147.98ZM504.228 2212.51H513.843V2110H504.228V2212.51Z" fill="white"/>
<defs>
<filter id="filter0_d" x="337.136" y="1241.16" width="167.341" height="101.348" filterUnits="userSpaceOnUse" color-interpolation-filters="sRGB">
<feFlood flood-opacity="0" result="BackgroundImageFix"/>
<feColorMatrix in="SourceAlpha" type="matrix" values="0 0 0 0 0 0 0 0 0 0 0 0 0 0 0 0 0 0 127 0"/>
<feOffset dy="4"/>
<feGaussianBlur stdDeviation="2"/>
<feColorMatrix type="matrix" values="0 0 0 0 0 0 0 0 0 0 0 0 0 0 0 0 0 0 0.25 0"/>
<feBlend mode="normal" in2="BackgroundImageFix" result="effect1_dropShadow"/>
<feBlend mode="normal" in="SourceGraphic" in2="effect1_dropShadow" result="shape"/>
</filter>
<filter id="filter1_d" x="592.089" y="1241.16" width="167.341" height="101.348" filterUnits="userSpaceOnUse" color-interpolation-filters="sRGB">
<feFlood flood-opacity="0" result="BackgroundImageFix"/>
<feColorMatrix in="SourceAlpha" type="matrix" values="0 0 0 0 0 0 0 0 0 0 0 0 0 0 0 0 0 0 127 0"/>
<feOffset dy="4"/>
<feGaussianBlur stdDeviation="2"/>
<feColorMatrix type="matrix" values="0 0 0 0 0 0 0 0 0 0 0 0 0 0 0 0 0 0 0.25 0"/>
<feBlend mode="normal" in2="BackgroundImageFix" result="effect1_dropShadow"/>
<feBlend mode="normal" in="SourceGraphic" in2="effect1_dropShadow" result="shape"/>
</filter>
<filter id="filter2_d" x="294.526" y="1134.52" width="251" height="318.987" filterUnits="userSpaceOnUse" color-interpolation-filters="sRGB">
<feFlood flood-opacity="0" result="BackgroundImageFix"/>
<feColorMatrix in="SourceAlpha" type="matrix" values="0 0 0 0 0 0 0 0 0 0 0 0 0 0 0 0 0 0 127 0"/>
<feOffset dy="4"/>
<feGaussianBlur stdDeviation="2"/>
<feColorMatrix type="matrix" values="0 0 0 0 0 0 0 0 0 0 0 0 0 0 0 0 0 0 0.25 0"/>
<feBlend mode="normal" in2="BackgroundImageFix" result="effect1_dropShadow"/>
<feBlend mode="normal" in="SourceGraphic" in2="effect1_dropShadow" result="shape"/>
</filter>
<filter id="filter3_d" x="551.526" y="1063.5" width="251" height="316.711" filterUnits="userSpaceOnUse" color-interpolation-filters="sRGB">
<feFlood flood-opacity="0" result="BackgroundImageFix"/>
<feColorMatrix in="SourceAlpha" type="matrix" values="0 0 0 0 0 0 0 0 0 0 0 0 0 0 0 0 0 0 127 0"/>
<feOffset dy="4"/>
<feGaussianBlur stdDeviation="2"/>
<feColorMatrix type="matrix" values="0 0 0 0 0 0 0 0 0 0 0 0 0 0 0 0 0 0 0.25 0"/>
<feBlend mode="normal" in2="BackgroundImageFix" result="effect1_dropShadow"/>
<feBlend mode="normal" in="SourceGraphic" in2="effect1_dropShadow" result="shape"/>
</filter>
<linearGradient id="paint0_linear" x1="553.35" y1="45.8398" x2="553.35" y2="120.581" gradientUnits="userSpaceOnUse">
<stop stop-color="#23CAA2"/>
<stop offset="1" stop-color="#5F8BFB" stop-opacity="0"/>
</linearGradient>
<linearGradient id="paint1_linear" x1="553.85" y1="78.7266" x2="553.85" y2="88.692" gradientUnits="userSpaceOnUse">
<stop stop-color="#78EDD1"/>
<stop stop-color="#78EDD1"/>
<stop offset="1" stop-color="#009DBF" stop-opacity="0"/>
</linearGradient>
<linearGradient id="paint2_linear" x1="553.85" y1="78.7266" x2="553.85" y2="88.692" gradientUnits="userSpaceOnUse">
<stop stop-color="#009DBF"/>
<stop offset="1" stop-color="white" stop-opacity="0"/>
</linearGradient>
</defs>
</svg>
