<svg width="1080" height="2400" viewBox="0 0 1080 2400" fill="none" xmlns="http://www.w3.org/2000/svg">
<rect x="15" y="15" width="1050" height="2370" rx="77" fill="black" stroke="#393939" stroke-width="30"/>
<ellipse cx="114.5" cy="106.5" rx="37.5" ry="37.5" fill="#393939"/>
<path d="M129 106.5C129 114.508 122.508 121 114.5 121C106.492 121 100 114.508 100 106.5C100 98.4919 106.492 92 114.5 92C122.508 92 129 98.4919 129 106.5Z" fill="#393939" stroke="url(#paint0_linear)" stroke-width="16"/>
<circle cx="114.5" cy="106.5" r="2.5" fill="#393939"/>
<circle cx="114.5" cy="106.5" r="2.5" stroke="url(#paint1_linear)" stroke-width="2"/>
<circle cx="114.5" cy="106.5" r="2.5" stroke="url(#paint2_linear)" stroke-width="2"/>
<g filter="url(#filter0_d)">
<path fill-rule="evenodd" clip-rule="evenodd" d="M519.653 1244.42C526.517 1232.09 529.95 1218.08 529.95 1202.37C529.95 1196.68 529.509 1191.23 528.628 1186.04H508.302C509.385 1191.09 509.925 1196.53 509.925 1202.37C509.925 1213.9 507.351 1224.14 502.202 1233.09C497.052 1242.03 489.995 1248.99 481.033 1253.96C472.07 1258.93 461.866 1261.41 450.423 1261.41C438.79 1261.41 428.49 1259.13 419.527 1254.56C410.564 1249.79 403.507 1243.23 398.358 1234.88C393.209 1226.33 390.634 1216.49 390.634 1205.35C390.634 1198.45 391.614 1192.01 393.575 1186.04H372.735C371.317 1192.17 370.609 1198.61 370.609 1205.35C370.609 1220.66 374.137 1234.18 381.194 1245.91C388.059 1257.64 397.5 1266.88 409.515 1273.64C421.53 1280.4 435.166 1283.78 450.423 1283.78C465.489 1283.78 479.03 1280.3 491.045 1273.34C503.06 1266.19 512.596 1256.54 519.653 1244.42Z" fill="#FFB700"/>
</g>
<g filter="url(#filter1_d)">
<path fill-rule="evenodd" clip-rule="evenodd" d="M774.605 1244.42C781.471 1232.09 784.904 1218.08 784.904 1202.37C784.904 1196.68 784.462 1191.23 783.579 1186.04H763.255C764.337 1191.09 764.878 1196.53 764.878 1202.37C764.878 1213.9 762.304 1224.14 757.154 1233.09C752.006 1242.03 744.949 1248.99 735.985 1253.96C727.022 1258.93 716.819 1261.41 705.376 1261.41C693.742 1261.41 683.443 1259.13 674.48 1254.56C665.517 1249.79 658.46 1243.23 653.311 1234.88C648.161 1226.33 645.588 1216.49 645.588 1205.35C645.588 1198.45 646.567 1192.01 648.528 1186.04H627.688C626.271 1192.17 625.562 1198.61 625.562 1205.35C625.562 1220.66 629.09 1234.18 636.147 1245.91C643.012 1257.64 652.453 1266.88 664.468 1273.64C676.482 1280.4 690.118 1283.78 705.376 1283.78C720.443 1283.78 733.983 1280.3 745.998 1273.34C758.014 1266.19 767.549 1256.54 774.605 1244.42Z" fill="#FFB700"/>
</g>
<g filter="url(#filter2_d)">
<path fill-rule="evenodd" clip-rule="evenodd" d="M361.653 1400H328V1197.25C328.291 1174.01 333.682 1153.16 344.171 1134.69C354.951 1115.92 369.374 1101.18 387.439 1090.45C405.795 1079.73 426.336 1074.37 449.063 1074.37C472.372 1074.37 493.205 1079.88 511.561 1090.9C529.918 1101.62 544.341 1116.37 554.829 1135.14C565.61 1153.9 571 1175.2 571 1199.03C571 1222.57 565.756 1243.72 555.266 1262.48C545.069 1281.25 531.082 1296.14 513.309 1307.17C495.536 1317.89 475.432 1323.25 452.997 1323.25C433.475 1323.25 415.702 1319.08 399.676 1310.74C383.943 1302.1 371.268 1290.78 361.653 1276.78V1400ZM494.517 1279.91C481.113 1287.95 465.962 1291.97 449.063 1291.97C432.455 1291.97 417.45 1287.95 404.047 1279.91C390.644 1271.87 380.155 1260.85 372.579 1246.84C365.004 1232.55 361.216 1216.61 361.216 1199.03C361.216 1181.16 365.004 1165.22 372.579 1151.22C380.155 1137.22 390.644 1126.2 404.047 1118.16C417.45 1109.82 432.455 1105.65 449.063 1105.65C465.962 1105.65 481.113 1109.82 494.517 1118.16C507.919 1126.2 518.409 1137.22 525.984 1151.22C533.851 1165.22 537.784 1181.16 537.784 1199.03C537.784 1216.61 533.851 1232.55 525.984 1246.84C518.409 1260.85 507.919 1271.87 494.517 1279.91Z" fill="#09AC99"/>
</g>
<g filter="url(#filter3_d)">
<path fill-rule="evenodd" clip-rule="evenodd" d="M793.91 1000V1120.84C784.295 1106.84 771.62 1095.66 755.886 1087.32C740.153 1078.69 722.525 1074.37 703.004 1074.37C680.568 1074.37 660.463 1079.88 642.69 1090.9C624.916 1101.62 610.786 1116.37 600.296 1135.14C590.099 1153.9 585 1175.05 585 1198.59C585 1222.42 590.244 1243.72 600.733 1262.48C611.514 1281.25 626.082 1296.14 644.438 1307.17C662.795 1317.89 683.482 1323.25 706.5 1323.25C729.227 1323.25 749.621 1317.89 767.687 1307.17C786.043 1296.44 800.466 1281.84 810.954 1263.38C821.735 1244.61 827.418 1223.61 828 1200.37V1000H793.91ZM751.516 1279.91C738.405 1287.95 723.399 1291.97 706.5 1291.97C689.892 1291.97 674.886 1287.95 661.484 1279.91C648.081 1271.57 637.446 1260.4 629.578 1246.4C621.711 1232.4 617.778 1216.46 617.778 1198.59C617.778 1181.01 621.711 1165.22 629.578 1151.22C637.446 1136.92 648.081 1125.75 661.484 1117.71C674.886 1109.67 689.892 1105.64 706.5 1105.64C723.399 1105.64 738.405 1109.67 751.516 1117.71C764.919 1125.75 775.407 1136.92 782.983 1151.22C790.851 1165.22 794.783 1181.01 794.783 1198.59C794.783 1216.46 790.851 1232.4 782.983 1246.4C775.407 1260.4 764.919 1271.57 751.516 1279.91Z" fill="#09AC99"/>
</g>
<g filter="url(#filter4_d)">
<path fill-rule="evenodd" clip-rule="evenodd" d="M519.653 1244.42C526.517 1232.09 529.95 1218.08 529.95 1202.37C529.95 1196.68 529.509 1191.23 528.628 1186.04H508.302C509.385 1191.09 509.925 1196.53 509.925 1202.37C509.925 1213.9 507.351 1224.14 502.202 1233.09C497.052 1242.03 489.995 1248.99 481.033 1253.96C472.07 1258.93 461.866 1261.41 450.423 1261.41C438.79 1261.41 428.49 1259.13 419.527 1254.56C410.564 1249.79 403.507 1243.23 398.358 1234.88C393.209 1226.33 390.634 1216.49 390.634 1205.35C390.634 1198.45 391.614 1192.01 393.575 1186.04H372.735C371.317 1192.17 370.609 1198.61 370.609 1205.35C370.609 1220.66 374.137 1234.18 381.194 1245.91C388.059 1257.64 397.5 1266.88 409.515 1273.64C421.53 1280.4 435.166 1283.78 450.423 1283.78C465.489 1283.78 479.03 1280.3 491.045 1273.34C503.06 1266.19 512.596 1256.54 519.653 1244.42Z" fill="#FFB700"/>
</g>
<g filter="url(#filter5_d)">
<path fill-rule="evenodd" clip-rule="evenodd" d="M774.605 1244.42C781.471 1232.09 784.904 1218.08 784.904 1202.37C784.904 1196.68 784.462 1191.23 783.579 1186.04H763.255C764.337 1191.09 764.878 1196.53 764.878 1202.37C764.878 1213.9 762.304 1224.14 757.154 1233.09C752.006 1242.03 744.949 1248.99 735.985 1253.96C727.022 1258.93 716.819 1261.41 705.376 1261.41C693.742 1261.41 683.443 1259.13 674.48 1254.56C665.517 1249.79 658.46 1243.23 653.311 1234.88C648.161 1226.33 645.588 1216.49 645.588 1205.35C645.588 1198.45 646.567 1192.01 648.528 1186.04H627.688C626.271 1192.17 625.562 1198.61 625.562 1205.35C625.562 1220.66 629.09 1234.18 636.147 1245.91C643.012 1257.64 652.453 1266.88 664.468 1273.64C676.482 1280.4 690.118 1283.78 705.376 1283.78C720.443 1283.78 733.983 1280.3 745.998 1273.34C758.014 1266.19 767.549 1256.54 774.605 1244.42Z" fill="#FFB700"/>
</g>
<g filter="url(#filter6_d)">
<path fill-rule="evenodd" clip-rule="evenodd" d="M361.653 1400H328V1197.25C328.291 1174.01 333.682 1153.16 344.171 1134.69C354.951 1115.92 369.374 1101.18 387.439 1090.45C405.795 1079.73 426.336 1074.37 449.063 1074.37C472.372 1074.37 493.205 1079.88 511.561 1090.9C529.918 1101.62 544.341 1116.37 554.829 1135.14C565.61 1153.9 571 1175.2 571 1199.03C571 1222.57 565.756 1243.72 555.266 1262.48C545.069 1281.25 531.082 1296.14 513.309 1307.17C495.536 1317.89 475.432 1323.25 452.997 1323.25C433.475 1323.25 415.702 1319.08 399.676 1310.74C383.943 1302.1 371.268 1290.78 361.653 1276.78V1400ZM494.517 1279.91C481.113 1287.95 465.962 1291.97 449.063 1291.97C432.455 1291.97 417.45 1287.95 404.047 1279.91C390.644 1271.87 380.155 1260.85 372.579 1246.84C365.004 1232.55 361.216 1216.61 361.216 1199.03C361.216 1181.16 365.004 1165.22 372.579 1151.22C380.155 1137.22 390.644 1126.2 404.047 1118.16C417.45 1109.82 432.455 1105.65 449.063 1105.65C465.962 1105.65 481.113 1109.82 494.517 1118.16C507.919 1126.2 518.409 1137.22 525.984 1151.22C533.851 1165.22 537.784 1181.16 537.784 1199.03C537.784 1216.61 533.851 1232.55 525.984 1246.84C518.409 1260.85 507.919 1271.87 494.517 1279.91Z" fill="#09AC99"/>
</g>
<g filter="url(#filter7_d)">
<path fill-rule="evenodd" clip-rule="evenodd" d="M793.91 1000V1120.84C784.295 1106.84 771.62 1095.66 755.886 1087.32C740.153 1078.69 722.525 1074.37 703.004 1074.37C680.568 1074.37 660.463 1079.88 642.69 1090.9C624.916 1101.62 610.786 1116.37 600.296 1135.14C590.099 1153.9 585 1175.05 585 1198.59C585 1222.42 590.244 1243.72 600.733 1262.48C611.514 1281.25 626.082 1296.14 644.438 1307.17C662.795 1317.89 683.482 1323.25 706.5 1323.25C729.227 1323.25 749.621 1317.89 767.687 1307.17C786.043 1296.44 800.466 1281.84 810.954 1263.38C821.735 1244.61 827.418 1223.61 828 1200.37V1000H793.91ZM751.516 1279.91C738.405 1287.95 723.399 1291.97 706.5 1291.97C689.892 1291.97 674.886 1287.95 661.484 1279.91C648.081 1271.57 637.446 1260.4 629.578 1246.4C621.711 1232.4 617.778 1216.46 617.778 1198.59C617.778 1181.01 621.711 1165.22 629.578 1151.22C637.446 1136.92 648.081 1125.75 661.484 1117.71C674.886 1109.67 689.892 1105.64 706.5 1105.64C723.399 1105.64 738.405 1109.67 751.516 1117.71C764.919 1125.75 775.407 1136.92 782.983 1151.22C790.851 1165.22 794.783 1181.01 794.783 1198.59C794.783 1216.46 790.851 1232.4 782.983 1246.4C775.407 1260.4 764.919 1271.57 751.516 1279.91Z" fill="#09AC99"/>
</g>
<g clip-path="url(#clip0)">
<path d="M854.741 2206.9C853.479 2206.9 852.179 2206.9 850.917 2207.13H850.114L850.458 2206.48L870.075 2177.54H858.374L831.376 2217.95C828.049 2222.77 826.323 2228.51 826.444 2234.36C826.31 2238.08 826.954 2241.79 828.335 2245.25C829.715 2248.7 831.802 2251.83 834.461 2254.44C837.121 2257.05 840.295 2259.07 843.78 2260.38C847.265 2261.69 850.985 2262.25 854.703 2262.04C858.42 2262.25 862.14 2261.69 865.625 2260.38C869.111 2259.07 872.284 2257.05 874.944 2254.44C877.604 2251.83 879.69 2248.7 881.071 2245.25C882.451 2241.79 883.096 2238.08 882.962 2234.36C883 2218.22 871.375 2206.9 854.741 2206.9ZM854.741 2252.26C852.347 2252.41 849.947 2252.07 847.698 2251.23C845.449 2250.4 843.402 2249.09 841.693 2247.41C839.984 2245.73 838.652 2243.7 837.783 2241.46C836.914 2239.23 836.529 2236.83 836.654 2234.44C836.54 2232.05 836.933 2229.66 837.807 2227.44C838.681 2225.21 840.016 2223.2 841.725 2221.52C843.433 2219.85 845.476 2218.56 847.72 2217.73C849.963 2216.91 852.356 2216.57 854.741 2216.73C857.117 2216.6 859.495 2216.96 861.723 2217.8C863.951 2218.63 865.98 2219.93 867.679 2221.59C869.378 2223.26 870.71 2225.26 871.59 2227.47C872.47 2229.69 872.879 2232.06 872.79 2234.44C872.914 2236.83 872.53 2239.22 871.663 2241.45C870.797 2243.69 869.468 2245.71 867.763 2247.39C866.058 2249.08 864.016 2250.38 861.772 2251.22C859.528 2252.06 857.132 2252.41 854.741 2252.26Z" fill="white"/>
<path d="M379.922 2176.08C354.569 2176.08 337.858 2195.2 337.858 2219.45C337.858 2243.69 353.498 2262.66 379.922 2262.66C387.332 2262.98 394.687 2261.25 401.177 2257.66C407.668 2254.07 413.042 2248.76 416.708 2242.31L407.301 2236.27C404.773 2241.32 400.85 2245.54 395.998 2248.43C391.145 2251.31 385.565 2252.75 379.922 2252.56C375.82 2252.61 371.751 2251.83 367.956 2250.27C364.162 2248.72 360.719 2246.41 357.833 2243.5C354.947 2240.58 352.676 2237.12 351.157 2233.31C349.637 2229.5 348.899 2225.42 348.986 2221.32H418.926V2218.3C418.773 2191.57 401.451 2176.08 379.922 2176.08ZM349.024 2211.72C350.274 2204.53 354.034 2198.02 359.636 2193.34C365.238 2188.66 372.318 2186.12 379.616 2186.18C386.71 2186.02 393.598 2188.57 398.871 2193.32C404.145 2198.07 407.406 2204.65 407.989 2211.72H349.024Z" fill="white"/>
<path d="M287 2177.61V2261.63H297.936V2187.71H337.438V2177.61H287Z" fill="white"/>
<path d="M771.264 2218.3C771.264 2191.53 753.789 2176.23 732.298 2176.23C706.907 2176.23 690.235 2195.35 690.235 2219.6C690.235 2243.84 705.875 2262.81 732.298 2262.81C739.708 2263.13 747.063 2261.4 753.554 2257.81C760.044 2254.22 765.418 2248.91 769.084 2242.47L759.678 2236.42C757.15 2241.47 753.227 2245.69 748.374 2248.58C743.521 2251.47 737.942 2252.9 732.298 2252.71C728.197 2252.76 724.128 2251.98 720.333 2250.42C716.538 2248.87 713.096 2246.56 710.209 2243.65C707.323 2240.73 705.053 2237.27 703.533 2233.46C702.013 2229.65 701.275 2225.57 701.363 2221.47H771.608L771.264 2218.3ZM701.363 2211.72C702.612 2204.53 706.372 2198.02 711.974 2193.34C717.576 2188.66 724.656 2186.12 731.954 2186.18C739.048 2186.02 745.936 2188.57 751.209 2193.32C756.483 2198.07 759.745 2204.65 760.328 2211.72H701.363Z" fill="white"/>
<path d="M648.057 2176.43C642.447 2176.29 636.899 2177.63 631.971 2180.31C627.044 2183 622.911 2186.93 619.989 2191.72C617.662 2186.95 613.99 2182.96 609.425 2180.24C604.86 2177.52 599.6 2176.2 594.292 2176.43C589.475 2176.23 584.686 2177.26 580.368 2179.4C576.05 2181.55 572.343 2184.75 569.589 2188.7V2177.61H558.5V2261.47H569.589V2207.36C569.819 2201.68 572.271 2196.31 576.419 2192.41C580.566 2188.51 586.078 2186.4 591.768 2186.52C605.535 2186.52 612.915 2196.77 612.915 2210.38V2261.47H623.851V2208.7C623.851 2192.41 635.782 2186.52 646.374 2186.52C659.835 2186.52 667.712 2196.77 667.712 2210.38V2261.47H678.648V2210.38C678.648 2189.89 667.368 2176.43 648.057 2176.43Z" fill="white"/>
<path d="M500.146 2187.52C492.526 2180.31 482.412 2176.34 471.926 2176.43C447.07 2176.43 429.404 2195.24 429.404 2219.79C429.404 2244.34 447.07 2263 471.926 2263C482.426 2263.16 492.566 2259.18 500.146 2251.91V2261.62H510.93V2177.77H500.146V2187.52ZM471.276 2252.07C453.112 2252.07 440.34 2237.61 440.34 2219.79C440.34 2201.97 453.112 2187.36 471.276 2187.36C489.439 2187.36 501.867 2200.14 501.867 2219.79C501.867 2239.45 489.401 2252.07 471.276 2252.07Z" fill="white"/>
<path d="M540.26 2144H529.323V2261.47H540.26V2144Z" fill="white"/>
</g>
<defs>
<filter id="filter0_d" x="366.609" y="1186.04" width="167.341" height="105.745" filterUnits="userSpaceOnUse" color-interpolation-filters="sRGB">
<feFlood flood-opacity="0" result="BackgroundImageFix"/>
<feColorMatrix in="SourceAlpha" type="matrix" values="0 0 0 0 0 0 0 0 0 0 0 0 0 0 0 0 0 0 127 0"/>
<feOffset dy="4"/>
<feGaussianBlur stdDeviation="2"/>
<feColorMatrix type="matrix" values="0 0 0 0 0 0 0 0 0 0 0 0 0 0 0 0 0 0 0.25 0"/>
<feBlend mode="normal" in2="BackgroundImageFix" result="effect1_dropShadow"/>
<feBlend mode="normal" in="SourceGraphic" in2="effect1_dropShadow" result="shape"/>
</filter>
<filter id="filter1_d" x="621.562" y="1186.04" width="167.341" height="105.745" filterUnits="userSpaceOnUse" color-interpolation-filters="sRGB">
<feFlood flood-opacity="0" result="BackgroundImageFix"/>
<feColorMatrix in="SourceAlpha" type="matrix" values="0 0 0 0 0 0 0 0 0 0 0 0 0 0 0 0 0 0 127 0"/>
<feOffset dy="4"/>
<feGaussianBlur stdDeviation="2"/>
<feColorMatrix type="matrix" values="0 0 0 0 0 0 0 0 0 0 0 0 0 0 0 0 0 0 0.25 0"/>
<feBlend mode="normal" in2="BackgroundImageFix" result="effect1_dropShadow"/>
<feBlend mode="normal" in="SourceGraphic" in2="effect1_dropShadow" result="shape"/>
</filter>
<filter id="filter2_d" x="324" y="1074.37" width="251" height="333.635" filterUnits="userSpaceOnUse" color-interpolation-filters="sRGB">
<feFlood flood-opacity="0" result="BackgroundImageFix"/>
<feColorMatrix in="SourceAlpha" type="matrix" values="0 0 0 0 0 0 0 0 0 0 0 0 0 0 0 0 0 0 127 0"/>
<feOffset dy="4"/>
<feGaussianBlur stdDeviation="2"/>
<feColorMatrix type="matrix" values="0 0 0 0 0 0 0 0 0 0 0 0 0 0 0 0 0 0 0.25 0"/>
<feBlend mode="normal" in2="BackgroundImageFix" result="effect1_dropShadow"/>
<feBlend mode="normal" in="SourceGraphic" in2="effect1_dropShadow" result="shape"/>
</filter>
<filter id="filter3_d" x="581" y="1000" width="251" height="331.251" filterUnits="userSpaceOnUse" color-interpolation-filters="sRGB">
<feFlood flood-opacity="0" result="BackgroundImageFix"/>
<feColorMatrix in="SourceAlpha" type="matrix" values="0 0 0 0 0 0 0 0 0 0 0 0 0 0 0 0 0 0 127 0"/>
<feOffset dy="4"/>
<feGaussianBlur stdDeviation="2"/>
<feColorMatrix type="matrix" values="0 0 0 0 0 0 0 0 0 0 0 0 0 0 0 0 0 0 0.25 0"/>
<feBlend mode="normal" in2="BackgroundImageFix" result="effect1_dropShadow"/>
<feBlend mode="normal" in="SourceGraphic" in2="effect1_dropShadow" result="shape"/>
</filter>
<filter id="filter4_d" x="366.609" y="1186.04" width="167.341" height="105.745" filterUnits="userSpaceOnUse" color-interpolation-filters="sRGB">
<feFlood flood-opacity="0" result="BackgroundImageFix"/>
<feColorMatrix in="SourceAlpha" type="matrix" values="0 0 0 0 0 0 0 0 0 0 0 0 0 0 0 0 0 0 127 0"/>
<feOffset dy="4"/>
<feGaussianBlur stdDeviation="2"/>
<feColorMatrix type="matrix" values="0 0 0 0 0 0 0 0 0 0 0 0 0 0 0 0 0 0 0.25 0"/>
<feBlend mode="normal" in2="BackgroundImageFix" result="effect1_dropShadow"/>
<feBlend mode="normal" in="SourceGraphic" in2="effect1_dropShadow" result="shape"/>
</filter>
<filter id="filter5_d" x="621.562" y="1186.04" width="167.341" height="105.745" filterUnits="userSpaceOnUse" color-interpolation-filters="sRGB">
<feFlood flood-opacity="0" result="BackgroundImageFix"/>
<feColorMatrix in="SourceAlpha" type="matrix" values="0 0 0 0 0 0 0 0 0 0 0 0 0 0 0 0 0 0 127 0"/>
<feOffset dy="4"/>
<feGaussianBlur stdDeviation="2"/>
<feColorMatrix type="matrix" values="0 0 0 0 0 0 0 0 0 0 0 0 0 0 0 0 0 0 0.25 0"/>
<feBlend mode="normal" in2="BackgroundImageFix" result="effect1_dropShadow"/>
<feBlend mode="normal" in="SourceGraphic" in2="effect1_dropShadow" result="shape"/>
</filter>
<filter id="filter6_d" x="324" y="1074.37" width="251" height="333.635" filterUnits="userSpaceOnUse" color-interpolation-filters="sRGB">
<feFlood flood-opacity="0" result="BackgroundImageFix"/>
<feColorMatrix in="SourceAlpha" type="matrix" values="0 0 0 0 0 0 0 0 0 0 0 0 0 0 0 0 0 0 127 0"/>
<feOffset dy="4"/>
<feGaussianBlur stdDeviation="2"/>
<feColorMatrix type="matrix" values="0 0 0 0 0 0 0 0 0 0 0 0 0 0 0 0 0 0 0.25 0"/>
<feBlend mode="normal" in2="BackgroundImageFix" result="effect1_dropShadow"/>
<feBlend mode="normal" in="SourceGraphic" in2="effect1_dropShadow" result="shape"/>
</filter>
<filter id="filter7_d" x="581" y="1000" width="251" height="331.251" filterUnits="userSpaceOnUse" color-interpolation-filters="sRGB">
<feFlood flood-opacity="0" result="BackgroundImageFix"/>
<feColorMatrix in="SourceAlpha" type="matrix" values="0 0 0 0 0 0 0 0 0 0 0 0 0 0 0 0 0 0 127 0"/>
<feOffset dy="4"/>
<feGaussianBlur stdDeviation="2"/>
<feColorMatrix type="matrix" values="0 0 0 0 0 0 0 0 0 0 0 0 0 0 0 0 0 0 0.25 0"/>
<feBlend mode="normal" in2="BackgroundImageFix" result="effect1_dropShadow"/>
<feBlend mode="normal" in="SourceGraphic" in2="effect1_dropShadow" result="shape"/>
</filter>
<linearGradient id="paint0_linear" x1="114.5" y1="84" x2="114.5" y2="129" gradientUnits="userSpaceOnUse">
<stop offset="0.484375" stop-color="#09AC99"/>
<stop offset="0.9999" stop-color="#158268"/>
<stop offset="1" stop-color="white" stop-opacity="0"/>
</linearGradient>
<linearGradient id="paint1_linear" x1="114.5" y1="103" x2="114.5" y2="110" gradientUnits="userSpaceOnUse">
<stop stop-color="#78EDD1"/>
<stop stop-color="#78EDD1"/>
<stop offset="1" stop-color="#009DBF" stop-opacity="0"/>
</linearGradient>
<linearGradient id="paint2_linear" x1="114.5" y1="103" x2="114.5" y2="110" gradientUnits="userSpaceOnUse">
<stop stop-color="#009DBF"/>
<stop offset="1" stop-color="white" stop-opacity="0"/>
</linearGradient>
<clipPath id="clip0">
<rect width="596" height="119.001" fill="white" transform="translate(287 2144)"/>
</clipPath>
</defs>
</svg>
