<svg width="1080" height="2400" viewBox="0 0 1080 2400" fill="none" xmlns="http://www.w3.org/2000/svg">
<rect x="7.5" y="7.5" width="1065" height="2385" rx="84.5" fill="black" stroke="#8E8E8E" stroke-width="15"/>
<g filter="url(#filter0_d)">
<path fill-rule="evenodd" clip-rule="evenodd" d="M481.653 1146.42C488.517 1134.09 491.95 1120.08 491.95 1104.37C491.95 1098.68 491.509 1093.23 490.628 1088.04H470.302C471.385 1093.09 471.925 1098.53 471.925 1104.37C471.925 1115.9 469.351 1126.14 464.202 1135.09C459.052 1144.03 451.995 1150.99 443.033 1155.96C434.07 1160.93 423.866 1163.41 412.423 1163.41C400.79 1163.41 390.49 1161.13 381.527 1156.56C372.564 1151.79 365.507 1145.23 360.358 1136.88C355.209 1128.33 352.634 1118.49 352.634 1107.35C352.634 1100.45 353.614 1094.01 355.575 1088.04H334.735C333.317 1094.17 332.609 1100.61 332.609 1107.35C332.609 1122.66 336.137 1136.18 343.194 1147.91C350.059 1159.64 359.5 1168.88 371.515 1175.64C383.53 1182.4 397.166 1185.78 412.423 1185.78C427.489 1185.78 441.03 1182.3 453.045 1175.34C465.06 1168.19 474.596 1158.54 481.653 1146.42Z" fill="#FFB700"/>
</g>
<g filter="url(#filter1_d)">
<path fill-rule="evenodd" clip-rule="evenodd" d="M736.605 1146.42C743.471 1134.09 746.904 1120.08 746.904 1104.37C746.904 1098.68 746.462 1093.23 745.579 1088.04H725.255C726.337 1093.09 726.878 1098.53 726.878 1104.37C726.878 1115.9 724.304 1126.14 719.154 1135.09C714.006 1144.03 706.949 1150.99 697.985 1155.96C689.022 1160.93 678.819 1163.41 667.376 1163.41C655.742 1163.41 645.443 1161.13 636.48 1156.56C627.517 1151.79 620.46 1145.23 615.311 1136.88C610.161 1128.33 607.588 1118.49 607.588 1107.35C607.588 1100.45 608.567 1094.01 610.528 1088.04H589.688C588.271 1094.17 587.562 1100.61 587.562 1107.35C587.562 1122.66 591.09 1136.18 598.147 1147.91C605.012 1159.64 614.453 1168.88 626.468 1175.64C638.482 1182.4 652.118 1185.78 667.376 1185.78C682.443 1185.78 695.983 1182.3 707.998 1175.34C720.014 1168.19 729.549 1158.54 736.605 1146.42Z" fill="#FFB700"/>
</g>
<g filter="url(#filter2_d)">
<path fill-rule="evenodd" clip-rule="evenodd" d="M323.653 1302H290V1099.25C290.291 1076.01 295.682 1055.16 306.171 1036.69C316.951 1017.92 331.374 1003.18 349.439 992.453C367.795 981.729 388.336 976.367 411.063 976.367C434.372 976.367 455.205 981.878 473.561 992.9C491.918 1003.62 506.341 1018.37 516.829 1037.14C527.61 1055.9 533 1077.2 533 1101.03C533 1124.57 527.756 1145.72 517.266 1164.48C507.069 1183.25 493.082 1198.14 475.309 1209.17C457.536 1219.89 437.432 1225.25 414.997 1225.25C395.475 1225.25 377.702 1221.08 361.676 1212.74C345.943 1204.1 333.268 1192.78 323.653 1178.78V1302ZM456.517 1181.91C443.113 1189.95 427.962 1193.97 411.063 1193.97C394.455 1193.97 379.45 1189.95 366.047 1181.91C352.644 1173.87 342.155 1162.85 334.579 1148.84C327.004 1134.55 323.216 1118.61 323.216 1101.03C323.216 1083.16 327.004 1067.22 334.579 1053.22C342.155 1039.22 352.644 1028.2 366.047 1020.16C379.45 1011.82 394.455 1007.65 411.063 1007.65C427.962 1007.65 443.113 1011.82 456.517 1020.16C469.919 1028.2 480.409 1039.22 487.984 1053.22C495.851 1067.22 499.784 1083.16 499.784 1101.03C499.784 1118.61 495.851 1134.55 487.984 1148.84C480.409 1162.85 469.919 1173.87 456.517 1181.91Z" fill="#09AC99"/>
</g>
<g filter="url(#filter3_d)">
<path fill-rule="evenodd" clip-rule="evenodd" d="M755.91 902V1022.84C746.295 1008.84 733.62 997.665 717.886 989.324C702.153 980.685 684.525 976.366 665.004 976.366C642.568 976.366 622.463 981.877 604.69 992.899C586.916 1003.62 572.786 1018.37 562.296 1037.14C552.099 1055.9 547 1077.05 547 1100.59C547 1124.42 552.244 1145.72 562.733 1164.48C573.514 1183.25 588.082 1198.14 606.438 1209.17C624.795 1219.89 645.482 1225.25 668.5 1225.25C691.227 1225.25 711.621 1219.89 729.687 1209.17C748.043 1198.44 762.466 1183.84 772.954 1165.38C783.735 1146.61 789.418 1125.61 790 1102.37V902H755.91ZM713.516 1181.91C700.405 1189.95 685.399 1193.97 668.5 1193.97C651.892 1193.97 636.886 1189.95 623.484 1181.91C610.081 1173.57 599.446 1162.4 591.578 1148.4C583.711 1134.4 579.778 1118.46 579.778 1100.59C579.778 1083.01 583.711 1067.22 591.578 1053.22C599.446 1038.92 610.081 1027.75 623.484 1019.71C636.886 1011.67 651.892 1007.64 668.5 1007.64C685.399 1007.64 700.405 1011.67 713.516 1019.71C726.919 1027.75 737.407 1038.92 744.983 1053.22C752.851 1067.22 756.783 1083.01 756.783 1100.59C756.783 1118.46 752.851 1134.4 744.983 1148.4C737.407 1162.4 726.919 1173.57 713.516 1181.91Z" fill="#09AC99"/>
</g>
<g filter="url(#filter4_d)">
<path fill-rule="evenodd" clip-rule="evenodd" d="M481.653 1146.42C488.517 1134.09 491.95 1120.08 491.95 1104.37C491.95 1098.68 491.509 1093.23 490.628 1088.04H470.302C471.385 1093.09 471.925 1098.53 471.925 1104.37C471.925 1115.9 469.351 1126.14 464.202 1135.09C459.052 1144.03 451.995 1150.99 443.033 1155.96C434.07 1160.93 423.866 1163.41 412.423 1163.41C400.79 1163.41 390.49 1161.13 381.527 1156.56C372.564 1151.79 365.507 1145.23 360.358 1136.88C355.209 1128.33 352.634 1118.49 352.634 1107.35C352.634 1100.45 353.614 1094.01 355.575 1088.04H334.735C333.317 1094.17 332.609 1100.61 332.609 1107.35C332.609 1122.66 336.137 1136.18 343.194 1147.91C350.059 1159.64 359.5 1168.88 371.515 1175.64C383.53 1182.4 397.166 1185.78 412.423 1185.78C427.489 1185.78 441.03 1182.3 453.045 1175.34C465.06 1168.19 474.596 1158.54 481.653 1146.42Z" fill="#FFB700"/>
</g>
<g filter="url(#filter5_d)">
<path fill-rule="evenodd" clip-rule="evenodd" d="M736.605 1146.42C743.471 1134.09 746.904 1120.08 746.904 1104.37C746.904 1098.68 746.462 1093.23 745.579 1088.04H725.255C726.337 1093.09 726.878 1098.53 726.878 1104.37C726.878 1115.9 724.304 1126.14 719.154 1135.09C714.006 1144.03 706.949 1150.99 697.985 1155.96C689.022 1160.93 678.819 1163.41 667.376 1163.41C655.742 1163.41 645.443 1161.13 636.48 1156.56C627.517 1151.79 620.46 1145.23 615.311 1136.88C610.161 1128.33 607.588 1118.49 607.588 1107.35C607.588 1100.45 608.567 1094.01 610.528 1088.04H589.688C588.271 1094.17 587.562 1100.61 587.562 1107.35C587.562 1122.66 591.09 1136.18 598.147 1147.91C605.012 1159.64 614.453 1168.88 626.468 1175.64C638.482 1182.4 652.118 1185.78 667.376 1185.78C682.443 1185.78 695.983 1182.3 707.998 1175.34C720.014 1168.19 729.549 1158.54 736.605 1146.42Z" fill="#FFB700"/>
</g>
<g filter="url(#filter6_d)">
<path fill-rule="evenodd" clip-rule="evenodd" d="M323.653 1302H290V1099.25C290.291 1076.01 295.682 1055.16 306.171 1036.69C316.951 1017.92 331.374 1003.18 349.439 992.453C367.795 981.729 388.336 976.367 411.063 976.367C434.372 976.367 455.205 981.878 473.561 992.9C491.918 1003.62 506.341 1018.37 516.829 1037.14C527.61 1055.9 533 1077.2 533 1101.03C533 1124.57 527.756 1145.72 517.266 1164.48C507.069 1183.25 493.082 1198.14 475.309 1209.17C457.536 1219.89 437.432 1225.25 414.997 1225.25C395.475 1225.25 377.702 1221.08 361.676 1212.74C345.943 1204.1 333.268 1192.78 323.653 1178.78V1302ZM456.517 1181.91C443.113 1189.95 427.962 1193.97 411.063 1193.97C394.455 1193.97 379.45 1189.95 366.047 1181.91C352.644 1173.87 342.155 1162.85 334.579 1148.84C327.004 1134.55 323.216 1118.61 323.216 1101.03C323.216 1083.16 327.004 1067.22 334.579 1053.22C342.155 1039.22 352.644 1028.2 366.047 1020.16C379.45 1011.82 394.455 1007.65 411.063 1007.65C427.962 1007.65 443.113 1011.82 456.517 1020.16C469.919 1028.2 480.409 1039.22 487.984 1053.22C495.851 1067.22 499.784 1083.16 499.784 1101.03C499.784 1118.61 495.851 1134.55 487.984 1148.84C480.409 1162.85 469.919 1173.87 456.517 1181.91Z" fill="#09AC99"/>
</g>
<g filter="url(#filter7_d)">
<path fill-rule="evenodd" clip-rule="evenodd" d="M755.91 902V1022.84C746.295 1008.84 733.62 997.665 717.886 989.324C702.153 980.685 684.525 976.366 665.004 976.366C642.568 976.366 622.463 981.877 604.69 992.899C586.916 1003.62 572.786 1018.37 562.296 1037.14C552.099 1055.9 547 1077.05 547 1100.59C547 1124.42 552.244 1145.72 562.733 1164.48C573.514 1183.25 588.082 1198.14 606.438 1209.17C624.795 1219.89 645.482 1225.25 668.5 1225.25C691.227 1225.25 711.621 1219.89 729.687 1209.17C748.043 1198.44 762.466 1183.84 772.954 1165.38C783.735 1146.61 789.418 1125.61 790 1102.37V902H755.91ZM713.516 1181.91C700.405 1189.95 685.399 1193.97 668.5 1193.97C651.892 1193.97 636.886 1189.95 623.484 1181.91C610.081 1173.57 599.446 1162.4 591.578 1148.4C583.711 1134.4 579.778 1118.46 579.778 1100.59C579.778 1083.01 583.711 1067.22 591.578 1053.22C599.446 1038.92 610.081 1027.75 623.484 1019.71C636.886 1011.67 651.892 1007.64 668.5 1007.64C685.399 1007.64 700.405 1011.67 713.516 1019.71C726.919 1027.75 737.407 1038.92 744.983 1053.22C752.851 1067.22 756.783 1083.01 756.783 1100.59C756.783 1118.46 752.851 1134.4 744.983 1148.4C737.407 1162.4 726.919 1173.57 713.516 1181.91Z" fill="#09AC99"/>
</g>
<path d="M569.975 120.5C569.975 136.792 556.768 150 540.475 150C524.183 150 510.975 136.792 510.975 120.5C510.975 104.208 524.183 91 540.475 91C556.768 91 569.975 104.208 569.975 120.5Z" fill="black" stroke="url(#paint0_linear)" stroke-width="16"/>
<circle cx="539.976" cy="121" r="6.5" fill="black"/>
<circle cx="539.976" cy="121" r="6.5" stroke="url(#paint1_linear)" stroke-width="7"/>
<circle cx="539.976" cy="121" r="6.5" stroke="url(#paint2_linear)" stroke-width="7"/>
<path d="M511.918 2219.76L526.581 2192.8H545.112L522.338 2231.58L545.702 2271H526.957L511.918 2243.61L496.879 2271H478.134L501.498 2231.58L478.725 2192.8H497.255L511.918 2219.76ZM567.992 2225.02H576.264C580.203 2225.02 583.121 2224.04 585.019 2222.07C586.917 2220.1 587.865 2217.49 587.865 2214.23C587.865 2211.08 586.917 2208.62 585.019 2206.87C583.157 2205.11 580.579 2204.24 577.284 2204.24C574.312 2204.24 571.824 2205.06 569.819 2206.71C567.813 2208.32 566.811 2210.43 566.811 2213.05H551.288C551.288 2208.96 552.38 2205.31 554.565 2202.09C556.785 2198.83 559.864 2196.29 563.803 2194.46C567.778 2192.64 572.146 2191.72 576.908 2191.72C585.18 2191.72 591.661 2193.71 596.352 2197.68C601.043 2201.62 603.388 2207.07 603.388 2214.01C603.388 2217.59 602.296 2220.89 600.112 2223.9C597.927 2226.9 595.063 2229.21 591.518 2230.82C595.922 2232.4 599.198 2234.76 601.347 2237.91C603.531 2241.07 604.623 2244.79 604.623 2249.09C604.623 2256.03 602.081 2261.6 596.996 2265.79C591.948 2269.98 585.252 2272.07 576.908 2272.07C569.102 2272.07 562.711 2270.02 557.734 2265.9C552.792 2261.78 550.322 2256.34 550.322 2249.57H565.844C565.844 2252.51 566.936 2254.9 569.12 2256.77C571.34 2258.63 574.062 2259.56 577.284 2259.56C580.973 2259.56 583.855 2258.59 585.932 2256.66C588.045 2254.69 589.101 2252.09 589.101 2248.87C589.101 2241.07 584.804 2237.16 576.21 2237.16H567.992V2225.02Z" fill="white"/>
<path d="M434.508 2124.5V2152H418.717V2073.8H445.357C453.092 2073.8 459.251 2076.2 463.834 2080.99C468.453 2085.79 470.763 2092.02 470.763 2099.69C470.763 2107.35 468.489 2113.4 463.941 2117.84C459.394 2122.28 453.092 2124.5 445.035 2124.5H434.508ZM434.508 2111.34H445.357C448.365 2111.34 450.693 2110.36 452.34 2108.39C453.987 2106.42 454.811 2103.55 454.811 2099.79C454.811 2095.89 453.969 2092.79 452.286 2090.5C450.603 2088.17 448.347 2086.99 445.519 2086.96H434.508V2111.34ZM536.397 2119.93C536.397 2130.43 533.909 2138.57 528.932 2144.37C523.99 2150.17 517.115 2153.07 508.307 2153.07C499.534 2153.07 492.641 2150.21 487.628 2144.48C482.615 2138.72 480.073 2130.66 480.001 2120.31V2106.94C480.001 2096.19 482.49 2087.82 487.467 2081.8C492.444 2075.75 499.355 2072.72 508.199 2072.72C516.9 2072.72 523.757 2075.69 528.771 2081.64C533.784 2087.55 536.326 2095.85 536.397 2106.56V2119.93ZM520.553 2106.83C520.553 2099.78 519.55 2094.53 517.545 2091.09C515.54 2087.65 512.424 2085.94 508.199 2085.94C504.01 2085.94 500.912 2087.6 498.907 2090.93C496.902 2094.22 495.864 2099.26 495.792 2106.02V2119.93C495.792 2126.77 496.812 2131.82 498.854 2135.08C500.895 2138.3 504.046 2139.92 508.307 2139.92C512.424 2139.92 515.486 2138.34 517.491 2135.19C519.496 2132 520.517 2127.08 520.553 2120.42V2106.83ZM600.743 2125.95C600.349 2134.87 597.843 2141.62 593.224 2146.2C588.604 2150.78 582.088 2153.07 573.673 2153.07C564.828 2153.07 558.043 2150.17 553.316 2144.37C548.626 2138.54 546.28 2130.23 546.28 2119.45V2106.29C546.28 2095.55 548.715 2087.28 553.585 2081.48C558.455 2075.64 565.222 2072.72 573.888 2072.72C582.41 2072.72 588.873 2075.1 593.277 2079.87C597.717 2084.63 600.242 2091.47 600.851 2100.38H585.006C584.863 2094.87 584.003 2091.07 582.428 2089C580.888 2086.88 578.041 2085.83 573.888 2085.83C569.662 2085.83 566.673 2087.31 564.918 2090.29C563.163 2093.22 562.232 2098.07 562.125 2104.84V2119.61C562.125 2127.38 562.984 2132.72 564.703 2135.62C566.458 2138.52 569.448 2139.97 573.673 2139.97C577.826 2139.97 580.691 2138.97 582.267 2136.96C583.842 2134.92 584.737 2131.25 584.952 2125.95H600.743ZM665.519 2119.93C665.519 2130.43 663.03 2138.57 658.053 2144.37C653.111 2150.17 646.236 2153.07 637.428 2153.07C628.655 2153.07 621.762 2150.21 616.749 2144.48C611.736 2138.72 609.194 2130.66 609.122 2120.31V2106.94C609.122 2096.19 611.611 2087.82 616.588 2081.8C621.565 2075.75 628.476 2072.72 637.32 2072.72C646.021 2072.72 652.879 2075.69 657.892 2081.64C662.905 2087.55 665.447 2095.85 665.519 2106.56V2119.93ZM649.674 2106.83C649.674 2099.78 648.671 2094.53 646.666 2091.09C644.661 2087.65 641.546 2085.94 637.32 2085.94C633.131 2085.94 630.034 2087.6 628.028 2090.93C626.023 2094.22 624.985 2099.26 624.913 2106.02V2119.93C624.913 2126.77 625.934 2131.82 627.975 2135.08C630.016 2138.3 633.167 2139.92 637.428 2139.92C641.546 2139.92 644.607 2138.34 646.612 2135.19C648.618 2132 649.638 2127.08 649.674 2120.42V2106.83Z" fill="white"/>
<defs>
<filter id="filter0_d" x="328.609" y="1088.04" width="167.341" height="105.745" filterUnits="userSpaceOnUse" color-interpolation-filters="sRGB">
<feFlood flood-opacity="0" result="BackgroundImageFix"/>
<feColorMatrix in="SourceAlpha" type="matrix" values="0 0 0 0 0 0 0 0 0 0 0 0 0 0 0 0 0 0 127 0"/>
<feOffset dy="4"/>
<feGaussianBlur stdDeviation="2"/>
<feColorMatrix type="matrix" values="0 0 0 0 0 0 0 0 0 0 0 0 0 0 0 0 0 0 0.25 0"/>
<feBlend mode="normal" in2="BackgroundImageFix" result="effect1_dropShadow"/>
<feBlend mode="normal" in="SourceGraphic" in2="effect1_dropShadow" result="shape"/>
</filter>
<filter id="filter1_d" x="583.562" y="1088.04" width="167.341" height="105.745" filterUnits="userSpaceOnUse" color-interpolation-filters="sRGB">
<feFlood flood-opacity="0" result="BackgroundImageFix"/>
<feColorMatrix in="SourceAlpha" type="matrix" values="0 0 0 0 0 0 0 0 0 0 0 0 0 0 0 0 0 0 127 0"/>
<feOffset dy="4"/>
<feGaussianBlur stdDeviation="2"/>
<feColorMatrix type="matrix" values="0 0 0 0 0 0 0 0 0 0 0 0 0 0 0 0 0 0 0.25 0"/>
<feBlend mode="normal" in2="BackgroundImageFix" result="effect1_dropShadow"/>
<feBlend mode="normal" in="SourceGraphic" in2="effect1_dropShadow" result="shape"/>
</filter>
<filter id="filter2_d" x="286" y="976.367" width="251" height="333.635" filterUnits="userSpaceOnUse" color-interpolation-filters="sRGB">
<feFlood flood-opacity="0" result="BackgroundImageFix"/>
<feColorMatrix in="SourceAlpha" type="matrix" values="0 0 0 0 0 0 0 0 0 0 0 0 0 0 0 0 0 0 127 0"/>
<feOffset dy="4"/>
<feGaussianBlur stdDeviation="2"/>
<feColorMatrix type="matrix" values="0 0 0 0 0 0 0 0 0 0 0 0 0 0 0 0 0 0 0.25 0"/>
<feBlend mode="normal" in2="BackgroundImageFix" result="effect1_dropShadow"/>
<feBlend mode="normal" in="SourceGraphic" in2="effect1_dropShadow" result="shape"/>
</filter>
<filter id="filter3_d" x="543" y="902" width="251" height="331.251" filterUnits="userSpaceOnUse" color-interpolation-filters="sRGB">
<feFlood flood-opacity="0" result="BackgroundImageFix"/>
<feColorMatrix in="SourceAlpha" type="matrix" values="0 0 0 0 0 0 0 0 0 0 0 0 0 0 0 0 0 0 127 0"/>
<feOffset dy="4"/>
<feGaussianBlur stdDeviation="2"/>
<feColorMatrix type="matrix" values="0 0 0 0 0 0 0 0 0 0 0 0 0 0 0 0 0 0 0.25 0"/>
<feBlend mode="normal" in2="BackgroundImageFix" result="effect1_dropShadow"/>
<feBlend mode="normal" in="SourceGraphic" in2="effect1_dropShadow" result="shape"/>
</filter>
<filter id="filter4_d" x="328.609" y="1088.04" width="167.341" height="105.745" filterUnits="userSpaceOnUse" color-interpolation-filters="sRGB">
<feFlood flood-opacity="0" result="BackgroundImageFix"/>
<feColorMatrix in="SourceAlpha" type="matrix" values="0 0 0 0 0 0 0 0 0 0 0 0 0 0 0 0 0 0 127 0"/>
<feOffset dy="4"/>
<feGaussianBlur stdDeviation="2"/>
<feColorMatrix type="matrix" values="0 0 0 0 0 0 0 0 0 0 0 0 0 0 0 0 0 0 0.25 0"/>
<feBlend mode="normal" in2="BackgroundImageFix" result="effect1_dropShadow"/>
<feBlend mode="normal" in="SourceGraphic" in2="effect1_dropShadow" result="shape"/>
</filter>
<filter id="filter5_d" x="583.562" y="1088.04" width="167.341" height="105.745" filterUnits="userSpaceOnUse" color-interpolation-filters="sRGB">
<feFlood flood-opacity="0" result="BackgroundImageFix"/>
<feColorMatrix in="SourceAlpha" type="matrix" values="0 0 0 0 0 0 0 0 0 0 0 0 0 0 0 0 0 0 127 0"/>
<feOffset dy="4"/>
<feGaussianBlur stdDeviation="2"/>
<feColorMatrix type="matrix" values="0 0 0 0 0 0 0 0 0 0 0 0 0 0 0 0 0 0 0.25 0"/>
<feBlend mode="normal" in2="BackgroundImageFix" result="effect1_dropShadow"/>
<feBlend mode="normal" in="SourceGraphic" in2="effect1_dropShadow" result="shape"/>
</filter>
<filter id="filter6_d" x="286" y="976.367" width="251" height="333.635" filterUnits="userSpaceOnUse" color-interpolation-filters="sRGB">
<feFlood flood-opacity="0" result="BackgroundImageFix"/>
<feColorMatrix in="SourceAlpha" type="matrix" values="0 0 0 0 0 0 0 0 0 0 0 0 0 0 0 0 0 0 127 0"/>
<feOffset dy="4"/>
<feGaussianBlur stdDeviation="2"/>
<feColorMatrix type="matrix" values="0 0 0 0 0 0 0 0 0 0 0 0 0 0 0 0 0 0 0.25 0"/>
<feBlend mode="normal" in2="BackgroundImageFix" result="effect1_dropShadow"/>
<feBlend mode="normal" in="SourceGraphic" in2="effect1_dropShadow" result="shape"/>
</filter>
<filter id="filter7_d" x="543" y="902" width="251" height="331.251" filterUnits="userSpaceOnUse" color-interpolation-filters="sRGB">
<feFlood flood-opacity="0" result="BackgroundImageFix"/>
<feColorMatrix in="SourceAlpha" type="matrix" values="0 0 0 0 0 0 0 0 0 0 0 0 0 0 0 0 0 0 127 0"/>
<feOffset dy="4"/>
<feGaussianBlur stdDeviation="2"/>
<feColorMatrix type="matrix" values="0 0 0 0 0 0 0 0 0 0 0 0 0 0 0 0 0 0 0.25 0"/>
<feBlend mode="normal" in2="BackgroundImageFix" result="effect1_dropShadow"/>
<feBlend mode="normal" in="SourceGraphic" in2="effect1_dropShadow" result="shape"/>
</filter>
<linearGradient id="paint0_linear" x1="540.475" y1="83" x2="540.475" y2="158" gradientUnits="userSpaceOnUse">
<stop offset="0.484375" stop-color="#09AC99"/>
<stop offset="0.9999" stop-color="#158268"/>
<stop offset="1" stop-color="white" stop-opacity="0"/>
</linearGradient>
<linearGradient id="paint1_linear" x1="539.976" y1="111" x2="539.976" y2="131" gradientUnits="userSpaceOnUse">
<stop stop-color="#78EDD1"/>
<stop stop-color="#78EDD1"/>
<stop offset="1" stop-color="#009DBF" stop-opacity="0"/>
</linearGradient>
<linearGradient id="paint2_linear" x1="539.976" y1="111" x2="539.976" y2="131" gradientUnits="userSpaceOnUse">
<stop stop-color="#009DBF"/>
<stop offset="1" stop-color="white" stop-opacity="0"/>
</linearGradient>
</defs>
</svg>
