<svg width="1080" height="2400" viewBox="0 0 1080 2400" fill="none" xmlns="http://www.w3.org/2000/svg">
<rect x="22.0195" y="22" width="1035.98" height="2355.58" rx="64" fill="black" stroke="#393939" stroke-width="44"/>
<path d="M853.986 39.1953C853.986 90.0055 812.797 131.195 761.986 131.195L317.997 131.195C267.187 131.195 225.997 90.0055 225.997 39.1953V7.08773L853.986 7.08773V39.1953Z" fill="#393939"/>
<path d="M1079.98 2308C1079.98 2358.81 1038.79 2400 987.981 2400H92.0004C41.1902 2400 0.000366211 2358.81 0.000366211 2308V2302.56H1079.98V2308Z" fill="#393939"/>
<g filter="url(#filter0_d)">
<path fill-rule="evenodd" clip-rule="evenodd" d="M481.149 1160.28C488.014 1147.96 491.447 1133.94 491.447 1118.24C491.447 1112.55 491.006 1107.1 490.124 1101.91H469.799C470.882 1106.96 471.422 1112.4 471.422 1118.24C471.422 1129.77 468.848 1140 463.699 1148.95C458.549 1157.89 451.493 1164.85 442.53 1169.82C433.567 1174.79 423.363 1177.27 411.921 1177.27C400.288 1177.27 389.989 1174.99 381.026 1170.42C372.062 1165.65 365.006 1159.09 359.857 1150.74C354.708 1142.19 352.133 1132.35 352.133 1121.22C352.133 1114.32 353.113 1107.88 355.074 1101.91H334.234C332.817 1108.04 332.108 1114.48 332.108 1121.22C332.108 1136.53 335.637 1150.04 342.693 1161.77C349.558 1173.5 358.998 1182.74 371.013 1189.5C383.028 1196.25 396.664 1199.63 411.921 1199.63C426.987 1199.63 440.528 1196.16 452.542 1189.2C464.557 1182.04 474.092 1172.4 481.149 1160.28Z" fill="#FFB700"/>
</g>
<g filter="url(#filter1_d)">
<path fill-rule="evenodd" clip-rule="evenodd" d="M736.09 1160.28C742.955 1147.96 746.388 1133.94 746.388 1118.24C746.388 1112.55 745.946 1107.1 745.063 1101.91H724.74C725.822 1106.96 726.363 1112.4 726.363 1118.24C726.363 1129.77 723.789 1140 718.639 1148.95C713.491 1157.89 706.434 1164.85 697.47 1169.82C688.507 1174.79 678.305 1177.27 666.862 1177.27C655.228 1177.27 644.929 1174.99 635.967 1170.42C627.004 1165.65 619.947 1159.09 614.798 1150.74C609.648 1142.19 607.075 1132.35 607.075 1121.22C607.075 1114.32 608.054 1107.88 610.015 1101.91H589.175C587.758 1108.04 587.05 1114.48 587.05 1121.22C587.05 1136.53 590.578 1150.04 597.634 1161.77C604.499 1173.5 613.939 1182.74 625.955 1189.5C637.969 1196.25 651.604 1199.63 666.862 1199.63C681.928 1199.63 695.468 1196.16 707.483 1189.2C719.499 1182.04 729.034 1172.4 736.09 1160.28Z" fill="#FFB700"/>
</g>
<g filter="url(#filter2_d)">
<path fill-rule="evenodd" clip-rule="evenodd" d="M323.148 1315.83H289.496V1113.11C289.787 1089.88 295.178 1069.03 305.667 1050.56C316.447 1031.8 330.87 1017.06 348.934 1006.33C367.29 995.611 387.831 990.25 410.557 990.25C433.866 990.25 454.699 995.76 473.054 1006.78C491.411 1017.5 505.833 1032.24 516.322 1051.01C527.102 1069.77 532.492 1091.07 532.492 1114.89C532.492 1138.42 527.248 1159.57 516.758 1178.33C506.561 1197.1 492.575 1211.99 474.802 1223.01C457.029 1233.73 436.925 1239.09 414.491 1239.09C394.969 1239.09 377.196 1234.92 361.171 1226.58C345.438 1217.95 332.763 1206.63 323.148 1192.63V1315.83ZM456.01 1195.76C442.606 1203.8 427.456 1207.82 410.557 1207.82C393.949 1207.82 378.944 1203.8 365.542 1195.76C352.139 1187.72 341.65 1176.7 334.074 1162.7C326.499 1148.4 322.711 1132.47 322.711 1114.89C322.711 1097.02 326.499 1081.09 334.074 1067.09C341.65 1053.09 352.139 1042.07 365.542 1034.03C378.944 1025.69 393.949 1021.52 410.557 1021.52C427.456 1021.52 442.606 1025.69 456.01 1034.03C469.412 1042.07 479.902 1053.09 487.476 1067.09C495.343 1081.09 499.276 1097.02 499.276 1114.89C499.276 1132.47 495.343 1148.4 487.476 1162.7C479.902 1176.7 469.412 1187.72 456.01 1195.76Z" fill="#09AC99"/>
</g>
<g filter="url(#filter3_d)">
<path fill-rule="evenodd" clip-rule="evenodd" d="M755.398 915.898V1036.71C745.783 1022.72 733.108 1011.55 717.374 1003.21C701.642 994.57 684.014 990.252 664.493 990.252C642.058 990.252 621.953 995.762 604.18 1006.78C586.407 1017.5 572.277 1032.25 561.787 1051.01C551.59 1069.77 546.491 1090.92 546.491 1114.45C546.491 1138.28 551.735 1159.57 562.224 1178.33C573.005 1197.1 587.573 1211.99 605.928 1223.01C624.285 1233.73 644.972 1239.09 667.989 1239.09C690.715 1239.09 711.11 1233.73 729.175 1223.01C747.531 1212.29 761.953 1197.69 772.442 1179.23C783.222 1160.47 788.905 1139.47 789.487 1116.24V915.898H755.398ZM713.005 1195.76C699.894 1203.8 684.887 1207.82 667.989 1207.82C651.382 1207.82 636.376 1203.8 622.973 1195.76C609.571 1187.42 598.936 1176.25 591.069 1162.25C583.202 1148.25 579.269 1132.32 579.269 1114.45C579.269 1096.88 583.202 1081.09 591.069 1067.09C598.936 1052.8 609.571 1041.63 622.973 1033.59C636.376 1025.55 651.382 1021.52 667.989 1021.52C684.887 1021.52 699.894 1025.55 713.005 1033.59C726.407 1041.63 736.895 1052.8 744.471 1067.09C752.338 1081.09 756.271 1096.88 756.271 1114.45C756.271 1132.32 752.338 1148.25 744.471 1162.25C736.895 1176.25 726.407 1187.42 713.005 1195.76Z" fill="#09AC99"/>
</g>
<path d="M381.007 2190.45H371.583L335.792 2135.66V2190.45H326.369V2119.35H335.792L371.681 2174.38V2119.35H381.007V2190.45ZM393.849 2163.54C393.849 2158.37 394.858 2153.71 396.876 2149.58C398.927 2145.44 401.759 2142.25 405.372 2140.01C409.018 2137.76 413.169 2136.64 417.824 2136.64C425.018 2136.64 430.828 2139.13 435.255 2144.11C439.715 2149.09 441.945 2155.71 441.945 2163.98V2164.62C441.945 2169.76 440.952 2174.38 438.966 2178.48C437.013 2182.55 434.197 2185.73 430.519 2188C426.873 2190.28 422.674 2191.42 417.921 2191.42C410.76 2191.42 404.949 2188.93 400.49 2183.95C396.063 2178.97 393.849 2172.38 393.849 2164.18V2163.54ZM402.931 2164.62C402.931 2170.47 404.282 2175.18 406.984 2178.73C409.718 2182.27 413.364 2184.05 417.921 2184.05C422.511 2184.05 426.157 2182.26 428.859 2178.68C431.561 2175.06 432.912 2170.02 432.912 2163.54C432.912 2157.75 431.528 2153.06 428.761 2149.48C426.027 2145.87 422.381 2144.06 417.824 2144.06C413.364 2144.06 409.767 2145.83 407.033 2149.38C404.298 2152.93 402.931 2158.01 402.931 2164.62ZM465.529 2124.82V2137.61H475.392V2144.6H465.529V2177.36C465.529 2179.48 465.968 2181.07 466.847 2182.14C467.726 2183.19 469.223 2183.71 471.339 2183.71C472.381 2183.71 473.813 2183.51 475.636 2183.12V2190.45C473.26 2191.1 470.949 2191.42 468.703 2191.42C464.666 2191.42 461.622 2190.2 459.572 2187.76C457.521 2185.32 456.496 2181.85 456.496 2177.36V2144.6H446.876V2137.61H456.496V2124.82H465.529ZM507.912 2191.42C500.75 2191.42 494.923 2189.08 490.431 2184.39C485.939 2179.67 483.693 2173.37 483.693 2165.49V2163.83C483.693 2158.59 484.686 2153.92 486.671 2149.82C488.69 2145.69 491.489 2142.46 495.07 2140.15C498.683 2137.81 502.589 2136.64 506.789 2136.64C513.657 2136.64 518.996 2138.9 522.804 2143.42C526.613 2147.95 528.517 2154.43 528.517 2162.86V2166.62H492.726C492.856 2171.83 494.37 2176.04 497.267 2179.26C500.197 2182.45 503.908 2184.05 508.4 2184.05C511.59 2184.05 514.292 2183.4 516.505 2182.1C518.719 2180.79 520.656 2179.07 522.316 2176.92L527.833 2181.22C523.406 2188.02 516.766 2191.42 507.912 2191.42ZM506.789 2144.06C503.143 2144.06 500.083 2145.39 497.609 2148.06C495.135 2150.7 493.605 2154.41 493.019 2159.2H519.484V2158.51C519.223 2153.92 517.986 2150.37 515.773 2147.87C513.559 2145.33 510.565 2144.06 506.789 2144.06ZM598.341 2119.3V2126.97H596.681C589.65 2127.1 584.051 2129.18 579.884 2133.22C575.718 2137.26 573.309 2142.94 572.658 2150.26C576.401 2145.96 581.512 2143.81 587.99 2143.81C594.175 2143.81 599.106 2146 602.785 2150.36C606.496 2154.72 608.351 2160.35 608.351 2167.25C608.351 2174.58 606.349 2180.44 602.345 2184.83C598.374 2189.22 593.035 2191.42 586.33 2191.42C579.526 2191.42 574.009 2188.82 569.777 2183.61C565.545 2178.37 563.429 2171.63 563.429 2163.39V2159.93C563.429 2146.84 566.212 2136.85 571.779 2129.95C577.378 2123.01 585.695 2119.47 596.73 2119.3H598.341ZM586.476 2151.33C583.384 2151.33 580.535 2152.26 577.931 2154.12C575.327 2155.97 573.52 2158.3 572.511 2161.1V2164.42C572.511 2170.28 573.83 2175 576.466 2178.58C579.103 2182.16 582.391 2183.95 586.33 2183.95C590.399 2183.95 593.589 2182.45 595.9 2179.46C598.244 2176.46 599.415 2172.54 599.415 2167.69C599.415 2162.81 598.227 2158.87 595.851 2155.88C593.507 2152.85 590.382 2151.33 586.476 2151.33ZM655.568 2162.61V2190.45H646.193V2119.35H672.414C680.193 2119.35 686.281 2121.34 690.675 2125.31C695.102 2129.28 697.316 2134.54 697.316 2141.08C697.316 2147.98 695.151 2153.3 690.822 2157.05C686.525 2160.76 680.356 2162.61 672.316 2162.61H655.568ZM655.568 2154.95H672.414C677.427 2154.95 681.268 2153.78 683.937 2151.43C686.606 2149.06 687.941 2145.64 687.941 2141.18C687.941 2136.95 686.606 2133.56 683.937 2131.02C681.268 2128.48 677.606 2127.16 672.951 2127.07H655.568V2154.95ZM733.4 2145.72C732.033 2145.49 730.552 2145.38 728.956 2145.38C723.032 2145.38 719.012 2147.9 716.896 2152.95V2190.45H707.863V2137.61H716.652L716.798 2143.72C719.761 2139 723.96 2136.64 729.396 2136.64C731.154 2136.64 732.488 2136.86 733.4 2137.32V2145.72ZM738.38 2163.54C738.38 2158.37 739.389 2153.71 741.408 2149.58C743.458 2145.44 746.29 2142.25 749.904 2140.01C753.55 2137.76 757.7 2136.64 762.355 2136.64C769.549 2136.64 775.359 2139.13 779.787 2144.11C784.246 2149.09 786.476 2155.71 786.476 2163.98V2164.62C786.476 2169.76 785.483 2174.38 783.497 2178.48C781.544 2182.55 778.729 2185.73 775.05 2188C771.404 2190.28 767.205 2191.42 762.453 2191.42C755.291 2191.42 749.481 2188.93 745.021 2183.95C740.594 2178.97 738.38 2172.38 738.38 2164.18V2163.54ZM747.462 2164.62C747.462 2170.47 748.813 2175.18 751.515 2178.73C754.249 2182.27 757.895 2184.05 762.453 2184.05C767.042 2184.05 770.688 2182.26 773.39 2178.68C776.092 2175.06 777.443 2170.02 777.443 2163.54C777.443 2157.75 776.059 2153.06 773.292 2149.48C770.558 2145.87 766.912 2144.06 762.355 2144.06C757.895 2144.06 754.298 2145.83 751.564 2149.38C748.83 2152.93 747.462 2158.01 747.462 2164.62Z" fill="white"/>
<path d="M425.795 2030.31H405.756V2064.82H394.448V1979.51H422.69C432.299 1979.51 439.682 1981.7 444.838 1986.07C450.034 1990.45 452.631 1996.82 452.631 2005.18C452.631 2010.49 451.186 2015.12 448.295 2019.06C445.444 2023.01 441.459 2025.96 436.342 2027.91L456.381 2064.12V2064.82H444.311L425.795 2030.31ZM405.756 2021.11H423.041C428.627 2021.11 433.061 2019.67 436.342 2016.78C439.663 2013.89 441.323 2010.02 441.323 2005.18C441.323 1999.9 439.741 1995.86 436.577 1993.05C433.452 1990.23 428.92 1988.81 422.983 1988.77H405.756V2021.11ZM493.061 2066C484.467 2066 477.475 2063.18 472.084 2057.56C466.694 2051.89 463.998 2044.34 463.998 2034.88V2032.89C463.998 2026.6 465.19 2021 467.573 2016.07C469.995 2011.11 473.354 2007.25 477.651 2004.47C481.987 2001.66 486.674 2000.25 491.713 2000.25C499.956 2000.25 506.362 2002.97 510.932 2008.4C515.502 2013.83 517.788 2021.6 517.788 2031.72V2036.23H474.838C474.995 2042.48 476.811 2047.54 480.288 2051.41C483.803 2055.23 488.256 2057.15 493.647 2057.15C497.475 2057.15 500.717 2056.37 503.373 2054.8C506.03 2053.24 508.354 2051.17 510.346 2048.59L516.967 2053.75C511.655 2061.91 503.686 2066 493.061 2066ZM491.713 2009.16C487.338 2009.16 483.666 2010.76 480.698 2013.96C477.729 2017.13 475.893 2021.58 475.19 2027.32H506.948V2026.5C506.635 2021 505.151 2016.74 502.495 2013.73C499.838 2010.68 496.245 2009.16 491.713 2009.16ZM527.748 2032.6C527.748 2022.87 530.053 2015.06 534.663 2009.16C539.272 2003.22 545.307 2000.25 552.768 2000.25C560.19 2000.25 566.069 2002.79 570.405 2007.87V1974.82H581.245V2064.82H571.284L570.756 2058.03C566.42 2063.34 560.385 2066 552.651 2066C545.307 2066 539.311 2062.99 534.663 2056.97C530.053 2050.96 527.748 2043.11 527.748 2033.42V2032.6ZM538.588 2033.83C538.588 2041.02 540.073 2046.64 543.041 2050.7C546.01 2054.77 550.112 2056.8 555.346 2056.8C562.221 2056.8 567.241 2053.71 570.405 2047.54V2018.42C567.163 2012.44 562.182 2009.45 555.463 2009.45C550.151 2009.45 546.01 2011.5 543.041 2015.61C540.073 2019.71 538.588 2025.78 538.588 2033.83ZM608.315 2001.43L608.608 2008.46C613.256 2002.99 619.526 2000.25 627.416 2000.25C636.284 2000.25 642.319 2003.65 645.522 2010.45C647.631 2007.4 650.366 2004.94 653.725 2003.07C657.123 2001.19 661.127 2000.25 665.737 2000.25C679.643 2000.25 686.713 2007.62 686.948 2022.34V2064.82H676.108V2022.99C676.108 2018.46 675.073 2015.08 673.002 2012.85C670.932 2010.59 667.456 2009.45 662.573 2009.45C658.549 2009.45 655.209 2010.66 652.553 2013.09C649.897 2015.47 648.354 2018.69 647.924 2022.75V2064.82H637.026V2023.28C637.026 2014.06 632.514 2009.45 623.491 2009.45C616.381 2009.45 611.518 2012.48 608.901 2018.54V2064.82H598.061V2001.43H608.315ZM715.131 2064.82H704.291V2001.43H715.131V2064.82ZM703.413 1984.61C703.413 1982.85 703.94 1981.37 704.995 1980.16C706.088 1978.95 707.69 1978.34 709.799 1978.34C711.909 1978.34 713.51 1978.95 714.604 1980.16C715.698 1981.37 716.245 1982.85 716.245 1984.61C716.245 1986.37 715.698 1987.83 714.604 1989C713.51 1990.18 711.909 1990.76 709.799 1990.76C707.69 1990.76 706.088 1990.18 704.995 1989C703.94 1987.83 703.413 1986.37 703.413 1984.61Z" fill="white"/>
<ellipse cx="755.988" cy="64.5215" rx="19.9997" ry="20.5136" fill="#ADADAD"/>
<ellipse cx="675.989" cy="66.0996" rx="19.9997" ry="20.5136" fill="#ADADAD"/>
<rect x="479.993" y="46.0586" width="119.998" height="41.0273" rx="20.5136" fill="#ADADAD"/>
<defs>
<filter id="filter0_d" x="328.108" y="1101.91" width="167.338" height="105.728" filterUnits="userSpaceOnUse" color-interpolation-filters="sRGB">
<feFlood flood-opacity="0" result="BackgroundImageFix"/>
<feColorMatrix in="SourceAlpha" type="matrix" values="0 0 0 0 0 0 0 0 0 0 0 0 0 0 0 0 0 0 127 0"/>
<feOffset dy="4"/>
<feGaussianBlur stdDeviation="2"/>
<feColorMatrix type="matrix" values="0 0 0 0 0 0 0 0 0 0 0 0 0 0 0 0 0 0 0.25 0"/>
<feBlend mode="normal" in2="BackgroundImageFix" result="effect1_dropShadow"/>
<feBlend mode="normal" in="SourceGraphic" in2="effect1_dropShadow" result="shape"/>
</filter>
<filter id="filter1_d" x="583.05" y="1101.91" width="167.339" height="105.728" filterUnits="userSpaceOnUse" color-interpolation-filters="sRGB">
<feFlood flood-opacity="0" result="BackgroundImageFix"/>
<feColorMatrix in="SourceAlpha" type="matrix" values="0 0 0 0 0 0 0 0 0 0 0 0 0 0 0 0 0 0 127 0"/>
<feOffset dy="4"/>
<feGaussianBlur stdDeviation="2"/>
<feColorMatrix type="matrix" values="0 0 0 0 0 0 0 0 0 0 0 0 0 0 0 0 0 0 0.25 0"/>
<feBlend mode="normal" in2="BackgroundImageFix" result="effect1_dropShadow"/>
<feBlend mode="normal" in="SourceGraphic" in2="effect1_dropShadow" result="shape"/>
</filter>
<filter id="filter2_d" x="285.496" y="990.25" width="250.996" height="333.578" filterUnits="userSpaceOnUse" color-interpolation-filters="sRGB">
<feFlood flood-opacity="0" result="BackgroundImageFix"/>
<feColorMatrix in="SourceAlpha" type="matrix" values="0 0 0 0 0 0 0 0 0 0 0 0 0 0 0 0 0 0 127 0"/>
<feOffset dy="4"/>
<feGaussianBlur stdDeviation="2"/>
<feColorMatrix type="matrix" values="0 0 0 0 0 0 0 0 0 0 0 0 0 0 0 0 0 0 0.25 0"/>
<feBlend mode="normal" in2="BackgroundImageFix" result="effect1_dropShadow"/>
<feBlend mode="normal" in="SourceGraphic" in2="effect1_dropShadow" result="shape"/>
</filter>
<filter id="filter3_d" x="542.491" y="915.898" width="250.996" height="331.195" filterUnits="userSpaceOnUse" color-interpolation-filters="sRGB">
<feFlood flood-opacity="0" result="BackgroundImageFix"/>
<feColorMatrix in="SourceAlpha" type="matrix" values="0 0 0 0 0 0 0 0 0 0 0 0 0 0 0 0 0 0 127 0"/>
<feOffset dy="4"/>
<feGaussianBlur stdDeviation="2"/>
<feColorMatrix type="matrix" values="0 0 0 0 0 0 0 0 0 0 0 0 0 0 0 0 0 0 0.25 0"/>
<feBlend mode="normal" in2="BackgroundImageFix" result="effect1_dropShadow"/>
<feBlend mode="normal" in="SourceGraphic" in2="effect1_dropShadow" result="shape"/>
</filter>
</defs>
</svg>
