<svg width="1080" height="2400" viewBox="0 0 1080 2400" fill="none" xmlns="http://www.w3.org/2000/svg">
<rect x="18.5" y="18.5" width="1043" height="2363" rx="73.5" fill="black" stroke="#393939" stroke-width="37"/>
<g filter="url(#filter0_d)">
<path fill-rule="evenodd" clip-rule="evenodd" d="M482.656 1244.42C489.521 1232.09 492.954 1218.08 492.954 1202.37C492.954 1196.68 492.513 1191.23 491.632 1186.04H471.305C472.389 1191.09 472.928 1196.53 472.928 1202.37C472.928 1213.9 470.355 1224.14 465.206 1233.09C460.056 1242.03 452.999 1248.99 444.036 1253.96C435.073 1258.93 424.869 1261.41 413.426 1261.41C401.793 1261.41 391.494 1259.13 382.531 1254.56C373.567 1249.79 366.511 1243.23 361.362 1234.88C356.212 1226.33 353.638 1216.49 353.638 1205.35C353.638 1198.45 354.618 1192.01 356.578 1186.04H335.738C334.321 1192.17 333.613 1198.61 333.613 1205.35C333.613 1220.66 337.141 1234.18 344.198 1245.91C351.063 1257.64 360.503 1266.88 372.518 1273.64C384.533 1280.4 398.169 1283.78 413.426 1283.78C428.493 1283.78 442.034 1280.3 454.048 1273.34C466.064 1266.19 475.599 1256.54 482.656 1244.42Z" fill="#FFB700"/>
</g>
<g filter="url(#filter1_d)">
<path fill-rule="evenodd" clip-rule="evenodd" d="M737.6 1244.42C744.466 1232.09 747.899 1218.08 747.899 1202.37C747.899 1196.68 747.457 1191.23 746.574 1186.04H726.251C727.333 1191.09 727.874 1196.53 727.874 1202.37C727.874 1213.9 725.299 1224.14 720.15 1233.09C715.002 1242.03 707.945 1248.99 698.98 1253.96C690.017 1258.93 679.815 1261.41 668.372 1261.41C656.738 1261.41 646.439 1259.13 637.476 1254.56C628.513 1249.79 621.456 1243.23 616.306 1234.88C611.157 1226.33 608.584 1216.49 608.584 1205.35C608.584 1198.45 609.563 1192.01 611.524 1186.04H590.684C589.267 1192.17 588.558 1198.61 588.558 1205.35C588.558 1220.66 592.086 1234.18 599.143 1245.91C606.007 1257.64 615.448 1266.88 627.464 1273.64C639.478 1280.4 653.114 1283.78 668.372 1283.78C683.438 1283.78 696.978 1280.3 708.994 1273.34C721.009 1266.19 730.545 1256.54 737.6 1244.42Z" fill="#FFB700"/>
</g>
<g filter="url(#filter2_d)">
<path fill-rule="evenodd" clip-rule="evenodd" d="M324.653 1400H291V1197.24C291.291 1174.01 296.682 1153.15 307.171 1134.69C317.951 1115.92 332.374 1101.17 350.439 1090.45C368.795 1079.73 389.336 1074.36 412.063 1074.36C435.372 1074.36 456.205 1079.87 474.561 1090.9C492.918 1101.62 507.341 1116.37 517.829 1135.13C528.61 1153.9 534 1175.2 534 1199.03C534 1222.56 528.756 1243.71 518.266 1262.48C508.069 1281.25 494.082 1296.14 476.309 1307.16C458.536 1317.89 438.432 1323.25 415.997 1323.25C396.475 1323.25 378.702 1319.08 362.676 1310.74C346.943 1302.1 334.268 1290.78 324.653 1276.78V1400ZM457.517 1279.91C444.113 1287.95 428.962 1291.97 412.063 1291.97C395.455 1291.97 380.45 1287.95 367.047 1279.91C353.644 1271.86 343.155 1260.84 335.579 1246.84C328.004 1232.54 324.216 1216.61 324.216 1199.03C324.216 1181.16 328.004 1165.22 335.579 1151.22C343.155 1137.22 353.644 1126.2 367.047 1118.15C380.45 1109.81 395.455 1105.64 412.063 1105.64C428.962 1105.64 444.113 1109.81 457.517 1118.15C470.919 1126.2 481.409 1137.22 488.984 1151.22C496.851 1165.22 500.784 1181.16 500.784 1199.03C500.784 1216.61 496.851 1232.54 488.984 1246.84C481.409 1260.84 470.919 1271.86 457.517 1279.91Z" fill="#09AC99"/>
</g>
<g filter="url(#filter3_d)">
<path fill-rule="evenodd" clip-rule="evenodd" d="M756.91 1000V1120.84C747.294 1106.84 734.62 1095.66 718.885 1087.32C703.153 1078.69 685.525 1074.37 666.003 1074.37C643.568 1074.37 623.463 1079.88 605.689 1090.9C587.916 1101.62 573.786 1116.37 563.296 1135.14C553.098 1153.9 548 1175.05 548 1198.59C548 1222.42 553.244 1243.72 563.732 1262.48C574.513 1281.25 589.082 1296.14 607.437 1307.17C625.794 1317.89 646.482 1323.25 669.499 1323.25C692.226 1323.25 712.621 1317.89 730.687 1307.17C749.042 1296.44 763.465 1281.84 773.954 1263.38C784.735 1244.61 790.417 1223.61 790.999 1200.37V1000H756.91ZM714.516 1279.91C701.405 1287.95 686.398 1291.97 669.499 1291.97C652.892 1291.97 637.886 1287.95 624.483 1279.91C611.081 1271.57 600.445 1260.4 592.578 1246.4C584.711 1232.4 580.778 1216.46 580.778 1198.59C580.778 1181.01 584.711 1165.22 592.578 1151.22C600.445 1136.92 611.081 1125.75 624.483 1117.71C637.886 1109.67 652.892 1105.64 669.499 1105.64C686.398 1105.64 701.405 1109.67 714.516 1117.71C727.918 1125.75 738.407 1136.92 745.983 1151.22C753.85 1165.22 757.783 1181.01 757.783 1198.59C757.783 1216.46 753.85 1232.4 745.983 1246.4C738.407 1260.4 727.918 1271.57 714.516 1279.91Z" fill="#09AC99"/>
</g>
<g filter="url(#filter4_d)">
<path fill-rule="evenodd" clip-rule="evenodd" d="M482.656 1244.42C489.521 1232.09 492.954 1218.08 492.954 1202.37C492.954 1196.68 492.513 1191.23 491.632 1186.04H471.305C472.389 1191.09 472.928 1196.53 472.928 1202.37C472.928 1213.9 470.355 1224.14 465.206 1233.09C460.056 1242.03 452.999 1248.99 444.036 1253.96C435.073 1258.93 424.869 1261.41 413.426 1261.41C401.793 1261.41 391.494 1259.13 382.531 1254.56C373.567 1249.79 366.511 1243.23 361.362 1234.88C356.212 1226.33 353.638 1216.49 353.638 1205.35C353.638 1198.45 354.618 1192.01 356.578 1186.04H335.738C334.321 1192.17 333.613 1198.61 333.613 1205.35C333.613 1220.66 337.141 1234.18 344.198 1245.91C351.063 1257.64 360.503 1266.88 372.518 1273.64C384.533 1280.4 398.169 1283.78 413.426 1283.78C428.493 1283.78 442.034 1280.3 454.048 1273.34C466.064 1266.19 475.599 1256.54 482.656 1244.42Z" fill="#FFB700"/>
</g>
<g filter="url(#filter5_d)">
<path fill-rule="evenodd" clip-rule="evenodd" d="M737.6 1244.42C744.466 1232.09 747.899 1218.08 747.899 1202.37C747.899 1196.68 747.457 1191.23 746.574 1186.04H726.251C727.333 1191.09 727.874 1196.53 727.874 1202.37C727.874 1213.9 725.299 1224.14 720.15 1233.09C715.002 1242.03 707.945 1248.99 698.98 1253.96C690.017 1258.93 679.815 1261.41 668.372 1261.41C656.738 1261.41 646.439 1259.13 637.476 1254.56C628.513 1249.79 621.456 1243.23 616.306 1234.88C611.157 1226.33 608.584 1216.49 608.584 1205.35C608.584 1198.45 609.563 1192.01 611.524 1186.04H590.684C589.267 1192.17 588.558 1198.61 588.558 1205.35C588.558 1220.66 592.086 1234.18 599.143 1245.91C606.007 1257.64 615.448 1266.88 627.464 1273.64C639.478 1280.4 653.114 1283.78 668.372 1283.78C683.438 1283.78 696.978 1280.3 708.994 1273.34C721.009 1266.19 730.545 1256.54 737.6 1244.42Z" fill="#FFB700"/>
</g>
<g filter="url(#filter6_d)">
<path fill-rule="evenodd" clip-rule="evenodd" d="M324.653 1400H291V1197.24C291.291 1174.01 296.682 1153.15 307.171 1134.69C317.951 1115.92 332.374 1101.17 350.439 1090.45C368.795 1079.73 389.336 1074.36 412.063 1074.36C435.372 1074.36 456.205 1079.87 474.561 1090.9C492.918 1101.62 507.341 1116.37 517.829 1135.13C528.61 1153.9 534 1175.2 534 1199.03C534 1222.56 528.756 1243.71 518.266 1262.48C508.069 1281.25 494.082 1296.14 476.309 1307.16C458.536 1317.89 438.432 1323.25 415.997 1323.25C396.475 1323.25 378.702 1319.08 362.676 1310.74C346.943 1302.1 334.268 1290.78 324.653 1276.78V1400ZM457.517 1279.91C444.113 1287.95 428.962 1291.97 412.063 1291.97C395.455 1291.97 380.45 1287.95 367.047 1279.91C353.644 1271.86 343.155 1260.84 335.579 1246.84C328.004 1232.54 324.216 1216.61 324.216 1199.03C324.216 1181.16 328.004 1165.22 335.579 1151.22C343.155 1137.22 353.644 1126.2 367.047 1118.15C380.45 1109.81 395.455 1105.64 412.063 1105.64C428.962 1105.64 444.113 1109.81 457.517 1118.15C470.919 1126.2 481.409 1137.22 488.984 1151.22C496.851 1165.22 500.784 1181.16 500.784 1199.03C500.784 1216.61 496.851 1232.54 488.984 1246.84C481.409 1260.84 470.919 1271.86 457.517 1279.91Z" fill="#09AC99"/>
</g>
<g filter="url(#filter7_d)">
<path fill-rule="evenodd" clip-rule="evenodd" d="M756.91 1000V1120.84C747.294 1106.84 734.62 1095.66 718.885 1087.32C703.153 1078.69 685.525 1074.37 666.003 1074.37C643.568 1074.37 623.463 1079.88 605.689 1090.9C587.916 1101.62 573.786 1116.37 563.296 1135.14C553.098 1153.9 548 1175.05 548 1198.59C548 1222.42 553.244 1243.72 563.732 1262.48C574.513 1281.25 589.082 1296.14 607.437 1307.17C625.794 1317.89 646.482 1323.25 669.499 1323.25C692.226 1323.25 712.621 1317.89 730.687 1307.17C749.042 1296.44 763.465 1281.84 773.954 1263.38C784.735 1244.61 790.417 1223.61 790.999 1200.37V1000H756.91ZM714.516 1279.91C701.405 1287.95 686.398 1291.97 669.499 1291.97C652.892 1291.97 637.886 1287.95 624.483 1279.91C611.081 1271.57 600.445 1260.4 592.578 1246.4C584.711 1232.4 580.778 1216.46 580.778 1198.59C580.778 1181.01 584.711 1165.22 592.578 1151.22C600.445 1136.92 611.081 1125.75 624.483 1117.71C637.886 1109.67 652.892 1105.64 669.499 1105.64C686.398 1105.64 701.405 1109.67 714.516 1117.71C727.918 1125.75 738.407 1136.92 745.983 1151.22C753.85 1165.22 757.783 1181.01 757.783 1198.59C757.783 1216.46 753.85 1232.4 745.983 1246.4C738.407 1260.4 727.918 1271.57 714.516 1279.91Z" fill="#09AC99"/>
</g>
<path d="M281.197 2271.65H267.062L213.375 2189.47V2271.65H199.239V2165.01H213.375L267.208 2247.55V2165.01H281.197V2271.65ZM300.46 2231.29C300.46 2223.53 301.974 2216.55 305.001 2210.34C308.077 2204.14 312.325 2199.36 317.745 2195.99C323.214 2192.62 329.439 2190.94 336.422 2190.94C347.213 2190.94 355.929 2194.67 362.569 2202.14C369.259 2209.61 372.604 2219.55 372.604 2231.95V2232.9C372.604 2240.62 371.114 2247.55 368.136 2253.7C365.206 2259.81 360.982 2264.57 355.465 2267.99C349.996 2271.4 343.697 2273.11 336.568 2273.11C325.826 2273.11 317.11 2269.38 310.421 2261.91C303.78 2254.44 300.46 2244.55 300.46 2232.24V2231.29ZM314.083 2232.9C314.083 2241.69 316.109 2248.75 320.162 2254.07C324.264 2259.39 329.732 2262.05 336.568 2262.05C343.453 2262.05 348.922 2259.37 352.975 2254C357.027 2248.58 359.054 2241.01 359.054 2231.29C359.054 2222.6 356.979 2215.57 352.828 2210.2C348.727 2204.78 343.258 2202.07 336.422 2202.07C329.732 2202.07 324.337 2204.73 320.235 2210.05C316.134 2215.37 314.083 2222.99 314.083 2232.9ZM407.979 2173.21V2192.4H422.774V2202.87H407.979V2252.02C407.979 2255.19 408.639 2257.59 409.957 2259.2C411.275 2260.76 413.521 2261.54 416.695 2261.54C418.258 2261.54 420.406 2261.25 423.141 2260.66V2271.65C419.576 2272.62 416.109 2273.11 412.74 2273.11C406.686 2273.11 402.12 2271.28 399.044 2267.62C395.968 2263.96 394.43 2258.76 394.43 2252.02V2202.87H380.001V2192.4H394.43V2173.21H407.979ZM471.554 2273.11C460.812 2273.11 452.071 2269.6 445.333 2262.57C438.595 2255.49 435.226 2246.04 435.226 2234.22V2231.73C435.226 2223.87 436.715 2216.86 439.693 2210.71C442.721 2204.51 446.92 2199.68 452.291 2196.21C457.711 2192.69 463.57 2190.94 469.869 2190.94C480.172 2190.94 488.18 2194.33 493.893 2201.12C499.605 2207.9 502.462 2217.62 502.462 2230.27V2235.91H448.775C448.971 2243.72 451.241 2250.04 455.587 2254.88C459.981 2259.66 465.548 2262.05 472.286 2262.05C477.071 2262.05 481.124 2261.08 484.444 2259.12C487.765 2257.17 490.67 2254.58 493.16 2251.36L501.437 2257.81C494.796 2268.01 484.835 2273.11 471.554 2273.11ZM469.869 2202.07C464.4 2202.07 459.811 2204.07 456.1 2208.07C452.389 2212.03 450.094 2217.6 449.215 2224.77H488.912V2223.75C488.521 2216.86 486.666 2211.54 483.346 2207.78C480.025 2203.97 475.533 2202.07 469.869 2202.07ZM622.872 2172.62L578.707 2271.65H564.498L608.517 2176.14H550.802V2165.01H622.872V2172.62ZM693.038 2229.9V2271.65H678.976V2165.01H718.307C729.977 2165.01 739.107 2167.99 745.699 2173.94C752.34 2179.9 755.66 2187.79 755.66 2197.6C755.66 2207.95 752.413 2215.94 745.919 2221.55C739.474 2227.12 730.221 2229.9 718.16 2229.9H693.038ZM693.038 2218.4H718.307C725.826 2218.4 731.588 2216.64 735.592 2213.13C739.596 2209.56 741.598 2204.44 741.598 2197.75C741.598 2191.4 739.596 2186.32 735.592 2182.51C731.588 2178.7 726.095 2176.73 719.112 2176.58H693.038V2218.4ZM809.786 2204.56C807.735 2204.22 805.514 2204.05 803.121 2204.05C794.234 2204.05 788.204 2207.83 785.03 2215.4V2271.65H771.48V2192.4H784.664L784.884 2201.56C789.327 2194.48 795.626 2190.94 803.78 2190.94C806.417 2190.94 808.419 2191.28 809.786 2191.96V2204.56ZM817.257 2231.29C817.257 2223.53 818.771 2216.55 821.798 2210.34C824.874 2204.14 829.122 2199.36 834.542 2195.99C840.011 2192.62 846.236 2190.94 853.219 2190.94C864.01 2190.94 872.726 2194.67 879.366 2202.14C886.056 2209.61 889.4 2219.55 889.4 2231.95V2232.9C889.4 2240.62 887.911 2247.55 884.933 2253.7C882.003 2259.81 877.779 2264.57 872.262 2267.99C866.793 2271.4 860.494 2273.11 853.365 2273.11C842.623 2273.11 833.907 2269.38 827.218 2261.91C820.577 2254.44 817.257 2244.55 817.257 2232.24V2231.29ZM830.88 2232.9C830.88 2241.69 832.906 2248.75 836.959 2254.07C841.061 2259.39 846.529 2262.05 853.365 2262.05C860.25 2262.05 865.719 2259.37 869.771 2254C873.824 2248.58 875.851 2241.01 875.851 2231.29C875.851 2222.6 873.775 2215.57 869.625 2210.2C865.523 2204.78 860.055 2202.07 853.219 2202.07C846.529 2202.07 841.134 2204.73 837.032 2210.05C832.931 2215.37 830.88 2222.99 830.88 2232.9Z" fill="white"/>
<path d="M378.66 2083.86H353.611V2127H339.476V2020.36H374.778C386.79 2020.36 396.019 2023.09 402.464 2028.56C408.958 2034.03 412.205 2041.99 412.205 2052.44C412.205 2059.08 410.398 2064.87 406.785 2069.8C403.221 2074.73 398.24 2078.42 391.844 2080.86L416.893 2126.12V2127H401.805L378.66 2083.86ZM353.611 2072.36H375.218C382.2 2072.36 387.742 2070.55 391.844 2066.94C395.994 2063.33 398.069 2058.49 398.069 2052.44C398.069 2045.85 396.092 2040.79 392.137 2037.28C388.23 2033.76 382.566 2031.98 375.145 2031.93H353.611V2072.36ZM462.742 2128.46C452 2128.46 443.26 2124.95 436.521 2117.92C429.783 2110.84 426.414 2101.39 426.414 2089.57V2087.08C426.414 2079.22 427.903 2072.21 430.882 2066.06C433.909 2059.86 438.108 2055.03 443.479 2051.56C448.899 2048.04 454.759 2046.29 461.058 2046.29C471.36 2046.29 479.368 2049.68 485.081 2056.47C490.794 2063.25 493.65 2072.97 493.65 2085.62V2091.26H439.964C440.159 2099.07 442.43 2105.39 446.775 2110.23C451.17 2115.01 456.736 2117.41 463.475 2117.41C468.26 2117.41 472.312 2116.43 475.633 2114.48C478.953 2112.52 481.858 2109.93 484.349 2106.71L492.625 2113.16C485.984 2123.36 476.023 2128.46 462.742 2128.46ZM461.058 2057.42C455.589 2057.42 450.999 2059.42 447.288 2063.43C443.577 2067.38 441.282 2072.95 440.403 2080.12H480.101V2079.1C479.71 2072.21 477.854 2066.89 474.534 2063.13C471.214 2059.32 466.722 2057.42 461.058 2057.42ZM506.102 2086.72C506.102 2074.56 508.982 2064.79 514.744 2057.42C520.506 2050 528.05 2046.29 537.376 2046.29C546.653 2046.29 554.002 2049.46 559.422 2055.81V2014.5H572.972V2127H560.521L559.861 2118.5C554.441 2125.14 546.897 2128.46 537.229 2128.46C528.05 2128.46 520.555 2124.71 514.744 2117.19C508.982 2109.67 506.102 2099.85 506.102 2087.74V2086.72ZM519.651 2088.25C519.651 2097.24 521.507 2104.27 525.218 2109.35C528.929 2114.43 534.056 2116.97 540.599 2116.97C549.192 2116.97 555.467 2113.11 559.422 2105.39V2068.99C555.369 2061.52 549.144 2057.79 540.745 2057.79C534.104 2057.79 528.929 2060.35 525.218 2065.48C521.507 2070.6 519.651 2078.2 519.651 2088.25ZM606.81 2047.75L607.176 2056.54C612.986 2049.71 620.823 2046.29 630.687 2046.29C641.771 2046.29 649.314 2050.54 653.318 2059.03C655.955 2055.22 659.373 2052.15 663.572 2049.8C667.82 2047.46 672.825 2046.29 678.587 2046.29C695.97 2046.29 704.808 2055.49 705.101 2073.9V2127H691.551V2074.71C691.551 2069.04 690.257 2064.82 687.669 2062.03C685.081 2059.2 680.735 2057.79 674.632 2057.79C669.603 2057.79 665.428 2059.3 662.107 2062.33C658.787 2065.31 656.858 2069.33 656.321 2074.41V2127H642.698V2075.07C642.698 2063.55 637.059 2057.79 625.779 2057.79C616.893 2057.79 610.813 2061.57 607.542 2069.14V2127H593.992V2047.75H606.81ZM740.33 2127H726.78V2047.75H740.33V2127ZM725.682 2026.73C725.682 2024.53 726.341 2022.68 727.659 2021.17C729.026 2019.65 731.028 2018.89 733.665 2018.89C736.302 2018.89 738.304 2019.65 739.671 2021.17C741.038 2022.68 741.722 2024.53 741.722 2026.73C741.722 2028.93 741.038 2030.76 739.671 2032.22C738.304 2033.69 736.302 2034.42 733.665 2034.42C731.028 2034.42 729.026 2033.69 727.659 2032.22C726.341 2030.76 725.682 2028.93 725.682 2026.73Z" fill="white"/>
<path d="M608 30.7734C608 58.8913 582.636 110.091 540.5 110.091C504.236 110.091 473 69.8028 473 30.7734C565.045 30.7734 500.409 30.78 540.5 30.7734C575.682 30.7866 544.936 30.7734 608 30.7734Z" fill="#393939"/>
<defs>
<filter id="filter0_d" x="329.613" y="1186.04" width="167.341" height="105.745" filterUnits="userSpaceOnUse" color-interpolation-filters="sRGB">
<feFlood flood-opacity="0" result="BackgroundImageFix"/>
<feColorMatrix in="SourceAlpha" type="matrix" values="0 0 0 0 0 0 0 0 0 0 0 0 0 0 0 0 0 0 127 0"/>
<feOffset dy="4"/>
<feGaussianBlur stdDeviation="2"/>
<feColorMatrix type="matrix" values="0 0 0 0 0 0 0 0 0 0 0 0 0 0 0 0 0 0 0.25 0"/>
<feBlend mode="normal" in2="BackgroundImageFix" result="effect1_dropShadow"/>
<feBlend mode="normal" in="SourceGraphic" in2="effect1_dropShadow" result="shape"/>
</filter>
<filter id="filter1_d" x="584.558" y="1186.04" width="167.341" height="105.745" filterUnits="userSpaceOnUse" color-interpolation-filters="sRGB">
<feFlood flood-opacity="0" result="BackgroundImageFix"/>
<feColorMatrix in="SourceAlpha" type="matrix" values="0 0 0 0 0 0 0 0 0 0 0 0 0 0 0 0 0 0 127 0"/>
<feOffset dy="4"/>
<feGaussianBlur stdDeviation="2"/>
<feColorMatrix type="matrix" values="0 0 0 0 0 0 0 0 0 0 0 0 0 0 0 0 0 0 0.25 0"/>
<feBlend mode="normal" in2="BackgroundImageFix" result="effect1_dropShadow"/>
<feBlend mode="normal" in="SourceGraphic" in2="effect1_dropShadow" result="shape"/>
</filter>
<filter id="filter2_d" x="287" y="1074.36" width="251" height="333.635" filterUnits="userSpaceOnUse" color-interpolation-filters="sRGB">
<feFlood flood-opacity="0" result="BackgroundImageFix"/>
<feColorMatrix in="SourceAlpha" type="matrix" values="0 0 0 0 0 0 0 0 0 0 0 0 0 0 0 0 0 0 127 0"/>
<feOffset dy="4"/>
<feGaussianBlur stdDeviation="2"/>
<feColorMatrix type="matrix" values="0 0 0 0 0 0 0 0 0 0 0 0 0 0 0 0 0 0 0.25 0"/>
<feBlend mode="normal" in2="BackgroundImageFix" result="effect1_dropShadow"/>
<feBlend mode="normal" in="SourceGraphic" in2="effect1_dropShadow" result="shape"/>
</filter>
<filter id="filter3_d" x="544" y="1000" width="251" height="331.251" filterUnits="userSpaceOnUse" color-interpolation-filters="sRGB">
<feFlood flood-opacity="0" result="BackgroundImageFix"/>
<feColorMatrix in="SourceAlpha" type="matrix" values="0 0 0 0 0 0 0 0 0 0 0 0 0 0 0 0 0 0 127 0"/>
<feOffset dy="4"/>
<feGaussianBlur stdDeviation="2"/>
<feColorMatrix type="matrix" values="0 0 0 0 0 0 0 0 0 0 0 0 0 0 0 0 0 0 0.25 0"/>
<feBlend mode="normal" in2="BackgroundImageFix" result="effect1_dropShadow"/>
<feBlend mode="normal" in="SourceGraphic" in2="effect1_dropShadow" result="shape"/>
</filter>
<filter id="filter4_d" x="329.613" y="1186.04" width="167.341" height="105.745" filterUnits="userSpaceOnUse" color-interpolation-filters="sRGB">
<feFlood flood-opacity="0" result="BackgroundImageFix"/>
<feColorMatrix in="SourceAlpha" type="matrix" values="0 0 0 0 0 0 0 0 0 0 0 0 0 0 0 0 0 0 127 0"/>
<feOffset dy="4"/>
<feGaussianBlur stdDeviation="2"/>
<feColorMatrix type="matrix" values="0 0 0 0 0 0 0 0 0 0 0 0 0 0 0 0 0 0 0.25 0"/>
<feBlend mode="normal" in2="BackgroundImageFix" result="effect1_dropShadow"/>
<feBlend mode="normal" in="SourceGraphic" in2="effect1_dropShadow" result="shape"/>
</filter>
<filter id="filter5_d" x="584.558" y="1186.04" width="167.341" height="105.745" filterUnits="userSpaceOnUse" color-interpolation-filters="sRGB">
<feFlood flood-opacity="0" result="BackgroundImageFix"/>
<feColorMatrix in="SourceAlpha" type="matrix" values="0 0 0 0 0 0 0 0 0 0 0 0 0 0 0 0 0 0 127 0"/>
<feOffset dy="4"/>
<feGaussianBlur stdDeviation="2"/>
<feColorMatrix type="matrix" values="0 0 0 0 0 0 0 0 0 0 0 0 0 0 0 0 0 0 0.25 0"/>
<feBlend mode="normal" in2="BackgroundImageFix" result="effect1_dropShadow"/>
<feBlend mode="normal" in="SourceGraphic" in2="effect1_dropShadow" result="shape"/>
</filter>
<filter id="filter6_d" x="287" y="1074.36" width="251" height="333.635" filterUnits="userSpaceOnUse" color-interpolation-filters="sRGB">
<feFlood flood-opacity="0" result="BackgroundImageFix"/>
<feColorMatrix in="SourceAlpha" type="matrix" values="0 0 0 0 0 0 0 0 0 0 0 0 0 0 0 0 0 0 127 0"/>
<feOffset dy="4"/>
<feGaussianBlur stdDeviation="2"/>
<feColorMatrix type="matrix" values="0 0 0 0 0 0 0 0 0 0 0 0 0 0 0 0 0 0 0.25 0"/>
<feBlend mode="normal" in2="BackgroundImageFix" result="effect1_dropShadow"/>
<feBlend mode="normal" in="SourceGraphic" in2="effect1_dropShadow" result="shape"/>
</filter>
<filter id="filter7_d" x="544" y="1000" width="251" height="331.251" filterUnits="userSpaceOnUse" color-interpolation-filters="sRGB">
<feFlood flood-opacity="0" result="BackgroundImageFix"/>
<feColorMatrix in="SourceAlpha" type="matrix" values="0 0 0 0 0 0 0 0 0 0 0 0 0 0 0 0 0 0 127 0"/>
<feOffset dy="4"/>
<feGaussianBlur stdDeviation="2"/>
<feColorMatrix type="matrix" values="0 0 0 0 0 0 0 0 0 0 0 0 0 0 0 0 0 0 0.25 0"/>
<feBlend mode="normal" in2="BackgroundImageFix" result="effect1_dropShadow"/>
<feBlend mode="normal" in="SourceGraphic" in2="effect1_dropShadow" result="shape"/>
</filter>
</defs>
</svg>
