<svg width="1088" height="2408" viewBox="0 0 1088 2408" fill="none" xmlns="http://www.w3.org/2000/svg">
<g filter="url(#filter0_dd)">
<rect x="19.0137" y="15.0898" width="1049.99" height="2369.91" rx="77" fill="black" stroke="#393939" stroke-width="30"/>
<path d="M4 92C4 41.1898 45.1898 0 96 0H991.986C1042.8 0 1083.99 41.1898 1083.99 92V143.615H4V92Z" fill="#393939"/>
<path d="M1083.99 2307.94C1083.99 2358.75 1042.8 2399.94 991.986 2399.94H96.0007C45.1906 2399.94 4.00073 2358.75 4.00073 2307.94V2256.33H1083.99V2307.94Z" fill="#393939"/>
<g filter="url(#filter1_d)">
<path fill-rule="evenodd" clip-rule="evenodd" d="M486.078 1168.54C492.942 1156.22 496.375 1142.2 496.375 1126.5C496.375 1120.8 495.934 1115.36 495.053 1110.16H474.727C475.81 1115.21 476.35 1120.66 476.35 1126.5C476.35 1138.03 473.777 1148.26 468.627 1157.21C463.478 1166.16 456.421 1173.11 447.458 1178.08C438.495 1183.05 428.292 1185.54 416.849 1185.54C405.216 1185.54 394.917 1183.25 385.954 1178.68C376.99 1173.91 369.934 1167.35 364.785 1159C359.635 1150.45 357.061 1140.61 357.061 1129.48C357.061 1122.58 358.041 1116.14 360.001 1110.16H339.162C337.744 1116.29 337.036 1122.73 337.036 1129.48C337.036 1144.78 340.564 1158.3 347.621 1170.03C354.486 1181.76 363.926 1191 375.941 1197.76C387.956 1204.52 401.592 1207.9 416.849 1207.9C431.915 1207.9 445.456 1204.42 457.47 1197.47C469.485 1190.31 479.021 1180.67 486.078 1168.54Z" fill="#FFB700"/>
</g>
<g filter="url(#filter2_d)">
<path fill-rule="evenodd" clip-rule="evenodd" d="M741.021 1168.54C747.887 1156.22 751.32 1142.2 751.32 1126.5C751.32 1120.8 750.878 1115.36 749.995 1110.16H729.671C730.753 1115.21 731.295 1120.66 731.295 1126.5C731.295 1138.03 728.72 1148.26 723.57 1157.21C718.422 1166.16 711.365 1173.11 702.401 1178.08C693.438 1183.05 683.236 1185.54 671.793 1185.54C660.159 1185.54 649.86 1183.25 640.898 1178.68C631.935 1173.91 624.878 1167.35 619.728 1159C614.579 1150.45 612.006 1140.61 612.006 1129.48C612.006 1122.58 612.985 1116.14 614.946 1110.16H594.106C592.689 1116.29 591.98 1122.73 591.98 1129.48C591.98 1144.78 595.508 1158.3 602.565 1170.03C609.43 1181.76 618.87 1191 630.886 1197.76C642.9 1204.52 656.535 1207.9 671.793 1207.9C686.86 1207.9 700.399 1204.42 712.415 1197.47C724.43 1190.31 733.965 1180.67 741.021 1168.54Z" fill="#FFB700"/>
</g>
<g filter="url(#filter3_d)">
<path fill-rule="evenodd" clip-rule="evenodd" d="M328.071 1324.05H294.419V1121.3C294.71 1098.07 300.101 1077.22 310.59 1058.75C321.37 1039.98 335.793 1025.24 353.857 1014.52C372.213 1003.79 392.754 998.43 415.48 998.43C438.789 998.43 459.622 1003.94 477.978 1014.96C496.334 1025.69 510.757 1040.43 521.245 1059.2C532.026 1077.96 537.416 1099.26 537.416 1123.09C537.416 1146.62 532.172 1167.77 521.682 1186.54C511.485 1205.31 497.499 1220.2 479.726 1231.22C461.952 1241.94 441.849 1247.31 419.414 1247.31C399.893 1247.31 382.119 1243.14 366.094 1234.8C350.361 1226.16 337.686 1214.84 328.071 1200.84V1324.05ZM460.934 1203.97C447.53 1212.01 432.379 1216.03 415.48 1216.03C398.873 1216.03 383.868 1212.01 370.465 1203.97C357.062 1195.92 346.573 1184.9 338.998 1170.9C331.422 1156.6 327.634 1140.67 327.634 1123.09C327.634 1105.22 331.422 1089.28 338.998 1075.28C346.573 1061.28 357.062 1050.26 370.465 1042.22C383.868 1033.88 398.873 1029.71 415.48 1029.71C432.379 1029.71 447.53 1033.88 460.934 1042.22C474.336 1050.26 484.826 1061.28 492.4 1075.28C500.267 1089.28 504.2 1105.22 504.2 1123.09C504.2 1140.67 500.267 1156.6 492.4 1170.9C484.826 1184.9 474.336 1195.92 460.934 1203.97Z" fill="#09AC99"/>
</g>
<g filter="url(#filter4_d)">
<path fill-rule="evenodd" clip-rule="evenodd" d="M760.316 924.102V1044.93C750.7 1030.93 738.026 1019.76 722.292 1011.42C706.559 1002.78 688.932 998.465 669.41 998.465C646.975 998.465 626.87 1003.98 609.097 1015C591.324 1025.72 577.194 1040.47 566.704 1059.23C556.507 1078 551.408 1099.15 551.408 1122.68C551.408 1146.51 556.652 1167.81 567.141 1186.57C577.922 1205.34 592.49 1220.23 610.845 1231.26C629.202 1241.98 649.889 1247.34 672.907 1247.34C695.633 1247.34 716.027 1241.98 734.093 1231.26C752.449 1220.53 766.871 1205.94 777.36 1187.47C788.141 1168.7 793.823 1147.7 794.405 1124.47V924.102H760.316ZM717.923 1204C704.811 1212.04 689.805 1216.07 672.907 1216.07C656.299 1216.07 641.293 1212.04 627.891 1204C614.488 1195.66 603.853 1184.49 595.986 1170.49C588.119 1156.49 584.186 1140.55 584.186 1122.68C584.186 1105.1 588.119 1089.32 595.986 1075.32C603.853 1061.02 614.488 1049.85 627.891 1041.81C641.293 1033.76 656.299 1029.74 672.907 1029.74C689.805 1029.74 704.811 1033.76 717.923 1041.81C731.325 1049.85 741.813 1061.02 749.389 1075.32C757.256 1089.32 761.189 1105.1 761.189 1122.68C761.189 1140.55 757.256 1156.49 749.389 1170.49C741.813 1184.49 731.325 1195.66 717.923 1204Z" fill="#09AC99"/>
</g>
<path d="M371.472 2154.57H362.048L326.257 2099.79V2154.57H316.834V2083.48H326.257L362.146 2138.51V2083.48H371.472V2154.57ZM384.314 2127.67C384.314 2122.49 385.323 2117.84 387.341 2113.71C389.392 2109.57 392.224 2106.38 395.837 2104.13C399.483 2101.89 403.634 2100.77 408.289 2100.77C415.483 2100.77 421.293 2103.26 425.72 2108.24C430.18 2113.22 432.41 2119.84 432.41 2128.11V2128.74C432.41 2133.89 431.417 2138.51 429.431 2142.61C427.478 2146.68 424.662 2149.85 420.984 2152.13C417.338 2154.41 413.139 2155.55 408.386 2155.55C401.225 2155.55 395.414 2153.06 390.955 2148.08C386.528 2143.1 384.314 2136.51 384.314 2128.3V2127.67ZM393.396 2128.74C393.396 2134.6 394.747 2139.31 397.449 2142.86C400.183 2146.4 403.829 2148.18 408.386 2148.18C412.976 2148.18 416.622 2146.39 419.324 2142.81C422.026 2139.19 423.377 2134.15 423.377 2127.67C423.377 2121.88 421.993 2117.19 419.226 2113.61C416.492 2109.99 412.846 2108.19 408.289 2108.19C403.829 2108.19 400.232 2109.96 397.498 2113.51C394.763 2117.06 393.396 2122.14 393.396 2128.74ZM455.994 2088.95V2101.74H465.857V2108.72H455.994V2141.49C455.994 2143.6 456.433 2145.2 457.312 2146.27C458.191 2147.32 459.688 2147.84 461.804 2147.84C462.846 2147.84 464.278 2147.64 466.101 2147.25V2154.57C463.725 2155.23 461.414 2155.55 459.168 2155.55C455.131 2155.55 452.087 2154.33 450.037 2151.89C447.986 2149.45 446.961 2145.98 446.961 2141.49V2108.72H437.341V2101.74H446.961V2088.95H455.994ZM498.377 2155.55C491.215 2155.55 485.388 2153.21 480.896 2148.52C476.404 2143.8 474.158 2137.5 474.158 2129.62V2127.96C474.158 2122.72 475.151 2118.05 477.136 2113.95C479.155 2109.82 481.954 2106.59 485.535 2104.28C489.148 2101.94 493.054 2100.77 497.253 2100.77C504.122 2100.77 509.461 2103.03 513.269 2107.55C517.078 2112.08 518.982 2118.56 518.982 2126.99V2130.75H483.191C483.321 2135.95 484.835 2140.17 487.732 2143.39C490.662 2146.58 494.373 2148.18 498.865 2148.18C502.055 2148.18 504.757 2147.53 506.97 2146.22C509.184 2144.92 511.121 2143.2 512.781 2141.05L518.298 2145.35C513.871 2152.15 507.231 2155.55 498.377 2155.55ZM497.253 2108.19C493.608 2108.19 490.548 2109.52 488.074 2112.19C485.6 2114.83 484.07 2118.54 483.484 2123.32H509.949V2122.64C509.688 2118.05 508.451 2114.5 506.238 2112C504.024 2109.46 501.03 2108.19 497.253 2108.19ZM557.507 2118.93L561.121 2083.48H597.546V2091.83H568.787L566.638 2111.21C570.121 2109.16 574.076 2108.14 578.503 2108.14C584.981 2108.14 590.125 2110.29 593.933 2114.58C597.742 2118.85 599.646 2124.63 599.646 2131.92C599.646 2139.24 597.66 2145.02 593.689 2149.25C589.75 2153.45 584.233 2155.55 577.136 2155.55C570.854 2155.55 565.727 2153.81 561.755 2150.33C557.784 2146.84 555.522 2142.03 554.968 2135.87H563.513C564.067 2139.94 565.515 2143.02 567.859 2145.1C570.203 2147.15 573.295 2148.18 577.136 2148.18C581.336 2148.18 584.623 2146.75 587 2143.88C589.408 2141.02 590.613 2137.06 590.613 2132.02C590.613 2127.26 589.311 2123.45 586.707 2120.59C584.135 2117.69 580.701 2116.24 576.404 2116.24C572.465 2116.24 569.373 2117.11 567.127 2118.83L564.734 2120.79L557.507 2118.93ZM646.033 2126.74V2154.57H636.658V2083.48H662.878C670.658 2083.48 676.746 2085.47 681.14 2089.44C685.567 2093.41 687.781 2098.67 687.781 2105.21C687.781 2112.11 685.616 2117.43 681.287 2121.18C676.99 2124.89 670.821 2126.74 662.781 2126.74H646.033ZM646.033 2119.08H662.878C667.891 2119.08 671.733 2117.9 674.402 2115.56C677.071 2113.18 678.406 2109.77 678.406 2105.31C678.406 2101.07 677.071 2097.69 674.402 2095.15C671.733 2092.61 668.071 2091.29 663.416 2091.2H646.033V2119.08ZM723.865 2109.85C722.498 2109.62 721.016 2109.51 719.421 2109.51C713.497 2109.51 709.477 2112.03 707.361 2117.07V2154.57H698.328V2101.74H707.117L707.263 2107.85C710.225 2103.13 714.425 2100.77 719.861 2100.77C721.619 2100.77 722.953 2100.99 723.865 2101.45V2109.85ZM728.845 2127.67C728.845 2122.49 729.854 2117.84 731.873 2113.71C733.923 2109.57 736.755 2106.38 740.369 2104.13C744.015 2101.89 748.165 2100.77 752.82 2100.77C760.014 2100.77 765.824 2103.26 770.252 2108.24C774.711 2113.22 776.941 2119.84 776.941 2128.11V2128.74C776.941 2133.89 775.948 2138.51 773.962 2142.61C772.009 2146.68 769.194 2149.85 765.515 2152.13C761.869 2154.41 757.67 2155.55 752.918 2155.55C745.756 2155.55 739.946 2153.06 735.486 2148.08C731.059 2143.1 728.845 2136.51 728.845 2128.3V2127.67ZM737.927 2128.74C737.927 2134.6 739.278 2139.31 741.98 2142.86C744.714 2146.4 748.36 2148.18 752.918 2148.18C757.507 2148.18 761.153 2146.39 763.855 2142.81C766.557 2139.19 767.908 2134.15 767.908 2127.67C767.908 2121.88 766.524 2117.19 763.757 2113.61C761.023 2109.99 757.377 2108.19 752.82 2108.19C748.36 2108.19 744.763 2109.96 742.029 2113.51C739.294 2117.06 737.927 2122.14 737.927 2128.74Z" fill="white"/>
<path d="M414.332 2016.98H394.293V2051.49H382.984V1966.18H411.226C420.836 1966.18 428.218 1968.36 433.375 1972.74C438.57 1977.11 441.168 1983.48 441.168 1991.84C441.168 1997.15 439.722 2001.78 436.832 2005.73C433.98 2009.67 429.996 2012.62 424.878 2014.57L444.918 2050.79V2051.49H432.847L414.332 2016.98ZM394.293 2007.78H411.578C417.164 2007.78 421.597 2006.33 424.878 2003.44C428.199 2000.55 429.859 1996.68 429.859 1991.84C429.859 1986.57 428.277 1982.52 425.113 1979.71C421.988 1976.9 417.457 1975.47 411.519 1975.43H394.293V2007.78ZM481.597 2052.66C473.003 2052.66 466.011 2049.85 460.621 2044.22C455.23 2038.56 452.535 2031 452.535 2021.55V2019.55C452.535 2013.27 453.726 2007.66 456.109 2002.74C458.531 1997.78 461.89 1993.91 466.187 1991.14C470.523 1988.32 475.211 1986.92 480.25 1986.92C488.492 1986.92 494.898 1989.63 499.468 1995.06C504.039 2000.49 506.324 2008.27 506.324 2018.38V2022.89H463.375C463.531 2029.14 465.347 2034.2 468.824 2038.07C472.339 2041.9 476.793 2043.81 482.183 2043.81C486.011 2043.81 489.253 2043.03 491.91 2041.47C494.566 2039.91 496.89 2037.84 498.882 2035.26L505.503 2040.41C500.191 2048.58 492.222 2052.66 481.597 2052.66ZM480.25 1995.82C475.875 1995.82 472.203 1997.43 469.234 2000.63C466.265 2003.79 464.429 2008.25 463.726 2013.99H495.484V2013.17C495.171 2007.66 493.687 2003.4 491.031 2000.39C488.375 1997.35 484.781 1995.82 480.25 1995.82ZM516.285 2019.26C516.285 2009.54 518.589 2001.72 523.199 1995.82C527.808 1989.89 533.843 1986.92 541.304 1986.92C548.726 1986.92 554.605 1989.46 558.941 1994.54V1961.49H569.781V2051.49H559.82L559.293 2044.69C554.957 2050 548.921 2052.66 541.187 2052.66C533.843 2052.66 527.847 2049.65 523.199 2043.64C518.589 2037.62 516.285 2029.77 516.285 2020.08V2019.26ZM527.125 2020.49C527.125 2027.68 528.609 2033.3 531.578 2037.37C534.546 2041.43 538.648 2043.46 543.882 2043.46C550.757 2043.46 555.777 2040.38 558.941 2034.2V2005.08C555.699 1999.11 550.718 1996.12 544 1996.12C538.687 1996.12 534.546 1998.17 531.578 2002.27C528.609 2006.37 527.125 2012.45 527.125 2020.49ZM596.851 1988.09L597.144 1995.12C601.793 1989.65 608.062 1986.92 615.953 1986.92C624.82 1986.92 630.855 1990.32 634.058 1997.11C636.168 1994.07 638.902 1991.61 642.261 1989.73C645.66 1987.86 649.664 1986.92 654.273 1986.92C668.179 1986.92 675.25 1994.28 675.484 2009.01V2051.49H664.644V2009.65C664.644 2005.12 663.609 2001.74 661.539 1999.52C659.468 1997.25 655.992 1996.12 651.109 1996.12C647.086 1996.12 643.746 1997.33 641.089 1999.75C638.433 2002.13 636.89 2005.36 636.461 2009.42V2051.49H625.562V2009.95C625.562 2000.73 621.05 1996.12 612.027 1996.12C604.918 1996.12 600.054 1999.14 597.437 2005.2V2051.49H586.597V1988.09H596.851ZM703.668 2051.49H692.828V1988.09H703.668V2051.49ZM691.949 1971.27C691.949 1969.52 692.476 1968.03 693.531 1966.82C694.625 1965.61 696.226 1965 698.336 1965C700.445 1965 702.046 1965.61 703.14 1966.82C704.234 1968.03 704.781 1969.52 704.781 1971.27C704.781 1973.03 704.234 1974.5 703.14 1975.67C702.046 1976.84 700.445 1977.43 698.336 1977.43C696.226 1977.43 694.625 1976.84 693.531 1975.67C692.476 1974.5 691.949 1973.03 691.949 1971.27Z" fill="white"/>
<ellipse cx="316.978" cy="71.8444" rx="14.9998" ry="15.3873" fill="#ADADAD"/>
<ellipse cx="773.979" cy="71.8444" rx="14.9998" ry="15.3873" fill="#ADADAD"/>
<ellipse cx="715.98" cy="71.8444" rx="14.9998" ry="15.3873" fill="#ADADAD"/>
<rect x="391.984" y="61.6016" width="220.997" height="20.5165" rx="10.2582" fill="#ADADAD"/>
</g>
<defs>
<filter id="filter0_dd" x="0" y="0" width="1088" height="2408" filterUnits="userSpaceOnUse" color-interpolation-filters="sRGB">
<feFlood flood-opacity="0" result="BackgroundImageFix"/>
<feColorMatrix in="SourceAlpha" type="matrix" values="0 0 0 0 0 0 0 0 0 0 0 0 0 0 0 0 0 0 127 0"/>
<feOffset dy="4"/>
<feGaussianBlur stdDeviation="2"/>
<feColorMatrix type="matrix" values="0 0 0 0 0 0 0 0 0 0 0 0 0 0 0 0 0 0 0.25 0"/>
<feBlend mode="normal" in2="BackgroundImageFix" result="effect1_dropShadow"/>
<feColorMatrix in="SourceAlpha" type="matrix" values="0 0 0 0 0 0 0 0 0 0 0 0 0 0 0 0 0 0 127 0"/>
<feOffset dy="4"/>
<feGaussianBlur stdDeviation="2"/>
<feColorMatrix type="matrix" values="0 0 0 0 0 0 0 0 0 0 0 0 0 0 0 0 0 0 0.25 0"/>
<feBlend mode="normal" in2="effect1_dropShadow" result="effect2_dropShadow"/>
<feBlend mode="normal" in="SourceGraphic" in2="effect2_dropShadow" result="shape"/>
</filter>
<filter id="filter1_d" x="333.036" y="1110.16" width="167.339" height="105.741" filterUnits="userSpaceOnUse" color-interpolation-filters="sRGB">
<feFlood flood-opacity="0" result="BackgroundImageFix"/>
<feColorMatrix in="SourceAlpha" type="matrix" values="0 0 0 0 0 0 0 0 0 0 0 0 0 0 0 0 0 0 127 0"/>
<feOffset dy="4"/>
<feGaussianBlur stdDeviation="2"/>
<feColorMatrix type="matrix" values="0 0 0 0 0 0 0 0 0 0 0 0 0 0 0 0 0 0 0.25 0"/>
<feBlend mode="normal" in2="BackgroundImageFix" result="effect1_dropShadow"/>
<feBlend mode="normal" in="SourceGraphic" in2="effect1_dropShadow" result="shape"/>
</filter>
<filter id="filter2_d" x="587.98" y="1110.16" width="167.339" height="105.741" filterUnits="userSpaceOnUse" color-interpolation-filters="sRGB">
<feFlood flood-opacity="0" result="BackgroundImageFix"/>
<feColorMatrix in="SourceAlpha" type="matrix" values="0 0 0 0 0 0 0 0 0 0 0 0 0 0 0 0 0 0 127 0"/>
<feOffset dy="4"/>
<feGaussianBlur stdDeviation="2"/>
<feColorMatrix type="matrix" values="0 0 0 0 0 0 0 0 0 0 0 0 0 0 0 0 0 0 0.25 0"/>
<feBlend mode="normal" in2="BackgroundImageFix" result="effect1_dropShadow"/>
<feBlend mode="normal" in="SourceGraphic" in2="effect1_dropShadow" result="shape"/>
</filter>
<filter id="filter3_d" x="290.419" y="998.43" width="250.997" height="333.623" filterUnits="userSpaceOnUse" color-interpolation-filters="sRGB">
<feFlood flood-opacity="0" result="BackgroundImageFix"/>
<feColorMatrix in="SourceAlpha" type="matrix" values="0 0 0 0 0 0 0 0 0 0 0 0 0 0 0 0 0 0 127 0"/>
<feOffset dy="4"/>
<feGaussianBlur stdDeviation="2"/>
<feColorMatrix type="matrix" values="0 0 0 0 0 0 0 0 0 0 0 0 0 0 0 0 0 0 0.25 0"/>
<feBlend mode="normal" in2="BackgroundImageFix" result="effect1_dropShadow"/>
<feBlend mode="normal" in="SourceGraphic" in2="effect1_dropShadow" result="shape"/>
</filter>
<filter id="filter4_d" x="547.408" y="924.102" width="250.997" height="331.24" filterUnits="userSpaceOnUse" color-interpolation-filters="sRGB">
<feFlood flood-opacity="0" result="BackgroundImageFix"/>
<feColorMatrix in="SourceAlpha" type="matrix" values="0 0 0 0 0 0 0 0 0 0 0 0 0 0 0 0 0 0 127 0"/>
<feOffset dy="4"/>
<feGaussianBlur stdDeviation="2"/>
<feColorMatrix type="matrix" values="0 0 0 0 0 0 0 0 0 0 0 0 0 0 0 0 0 0 0.25 0"/>
<feBlend mode="normal" in2="BackgroundImageFix" result="effect1_dropShadow"/>
<feBlend mode="normal" in="SourceGraphic" in2="effect1_dropShadow" result="shape"/>
</filter>
</defs>
</svg>
