<svg width="1080" height="2400" viewBox="0 0 1080 2400" fill="none" xmlns="http://www.w3.org/2000/svg">
<rect x="15.0195" y="15.0938" width="1049.98" height="2369.91" rx="77" fill="black" stroke="#393939" stroke-width="30"/>
<path d="M0 92C0 41.1898 41.1898 0 92 0H987.98C1038.79 0 1079.98 41.1898 1079.98 92V121.021H0V92Z" fill="#393939"/>
<path d="M1079.98 2307.91C1079.98 2358.72 1038.79 2399.91 987.98 2399.91H92C41.1898 2399.91 0 2358.72 0 2307.91V2278.89H1079.98V2307.91Z" fill="#393939"/>
<g filter="url(#filter0_d)">
<path fill-rule="evenodd" clip-rule="evenodd" d="M481.648 1244.58C488.513 1232.26 491.946 1218.24 491.946 1202.54C491.946 1196.85 491.505 1191.4 490.623 1186.2H470.297C471.381 1191.25 471.921 1196.7 471.921 1202.54C471.921 1214.07 469.347 1224.31 464.198 1233.25C459.048 1242.2 451.992 1249.16 443.029 1254.12C434.066 1259.1 423.862 1261.58 412.42 1261.58C400.787 1261.58 390.488 1259.29 381.525 1254.72C372.561 1249.95 365.505 1243.39 360.356 1235.04C355.207 1226.49 352.632 1216.65 352.632 1205.52C352.632 1198.62 353.612 1192.18 355.573 1186.2H334.733C333.316 1192.33 332.607 1198.77 332.607 1205.52C332.607 1220.83 336.136 1234.35 343.192 1246.07C350.057 1257.8 359.497 1267.05 371.512 1273.81C383.527 1280.56 397.163 1283.94 412.42 1283.94C427.486 1283.94 441.027 1280.46 453.041 1273.51C465.056 1266.35 474.591 1256.71 481.648 1244.58Z" fill="#FFB700"/>
</g>
<g filter="url(#filter1_d)">
<path fill-rule="evenodd" clip-rule="evenodd" d="M736.587 1244.58C743.453 1232.26 746.886 1218.24 746.886 1202.54C746.886 1196.85 746.444 1191.4 745.561 1186.2H725.238C726.32 1191.25 726.861 1196.7 726.861 1202.54C726.861 1214.07 724.287 1224.31 719.137 1233.25C713.989 1242.2 706.932 1249.16 697.968 1254.12C689.005 1259.1 678.803 1261.58 667.36 1261.58C655.726 1261.58 645.427 1259.29 636.465 1254.72C627.502 1249.95 620.445 1243.39 615.296 1235.04C610.146 1226.49 607.573 1216.65 607.573 1205.52C607.573 1198.62 608.552 1192.18 610.513 1186.2H589.674C588.256 1192.33 587.548 1198.77 587.548 1205.52C587.548 1220.83 591.076 1234.35 598.132 1246.07C604.997 1257.8 614.437 1267.05 626.453 1273.81C638.467 1280.56 652.103 1283.94 667.36 1283.94C682.426 1283.94 695.966 1280.46 707.981 1273.51C719.997 1266.35 729.532 1256.71 736.587 1244.58Z" fill="#FFB700"/>
</g>
<g filter="url(#filter2_d)">
<path fill-rule="evenodd" clip-rule="evenodd" d="M323.647 1400.15H289.995V1197.41C290.286 1174.17 295.677 1153.32 306.166 1134.85C316.946 1116.09 331.369 1101.34 349.433 1090.62C367.789 1079.89 388.33 1074.53 411.056 1074.53C434.365 1074.53 455.197 1080.04 473.553 1091.06C491.909 1101.79 506.332 1116.53 516.82 1135.3C527.601 1154.06 532.991 1175.36 532.991 1199.19C532.991 1222.73 527.747 1243.87 517.257 1262.64C507.06 1281.41 493.074 1296.3 475.301 1307.32C457.528 1318.05 437.424 1323.41 414.989 1323.41C395.468 1323.41 377.695 1319.24 361.67 1310.9C345.937 1302.26 333.262 1290.94 323.647 1276.94V1400.15ZM456.509 1280.07C443.105 1288.11 427.955 1292.13 411.056 1292.13C394.448 1292.13 379.443 1288.11 366.041 1280.07C352.638 1272.02 342.149 1261 334.573 1247C326.998 1232.7 323.21 1216.77 323.21 1199.19C323.21 1181.32 326.998 1165.38 334.573 1151.38C342.149 1137.38 352.638 1126.36 366.041 1118.32C379.443 1109.98 394.448 1105.81 411.056 1105.81C427.955 1105.81 443.105 1109.98 456.509 1118.32C469.911 1126.36 480.401 1137.38 487.975 1151.38C495.842 1165.38 499.775 1181.32 499.775 1199.19C499.775 1216.77 495.842 1232.7 487.975 1247C480.401 1261 469.911 1272.02 456.509 1280.07Z" fill="#09AC99"/>
</g>
<g filter="url(#filter3_d)">
<path fill-rule="evenodd" clip-rule="evenodd" d="M755.897 1000.17V1121C746.281 1107 733.607 1095.83 717.873 1087.49C702.141 1078.85 684.513 1074.53 664.992 1074.53C642.557 1074.53 622.452 1080.05 604.679 1091.07C586.906 1101.79 572.776 1116.54 562.286 1135.3C552.089 1154.07 546.99 1175.22 546.99 1198.75C546.99 1222.58 552.234 1243.88 562.723 1262.64C573.504 1281.41 588.072 1296.3 606.427 1307.33C624.784 1318.05 645.471 1323.41 668.488 1323.41C691.214 1323.41 711.609 1318.05 729.674 1307.33C748.03 1296.6 762.452 1282.01 772.94 1263.54C783.721 1244.77 789.404 1223.77 789.986 1200.54V1000.17H755.897ZM713.504 1280.07C700.393 1288.11 685.386 1292.13 668.488 1292.13C651.881 1292.13 636.875 1288.11 623.472 1280.07C610.07 1271.73 599.435 1260.56 591.568 1246.56C583.701 1232.56 579.768 1216.62 579.768 1198.75C579.768 1181.17 583.701 1165.39 591.568 1151.39C599.435 1137.09 610.07 1125.92 623.472 1117.88C636.875 1109.83 651.881 1105.81 668.488 1105.81C685.386 1105.81 700.393 1109.83 713.504 1117.88C726.906 1125.92 737.394 1137.09 744.97 1151.39C752.837 1165.39 756.77 1181.17 756.77 1198.75C756.77 1216.62 752.837 1232.56 744.97 1246.56C737.394 1260.56 726.906 1271.73 713.504 1280.07Z" fill="#09AC99"/>
</g>
<g clip-path="url(#clip0)">
<path d="M244.275 2175.23C231.478 2175.23 222.548 2185.6 222.548 2200.45C222.548 2214.96 231.28 2223.97 245.362 2223.97C250.521 2224.1 255.654 2223.19 260.457 2221.29L259.303 2216.4C255.246 2218 250.907 2218.75 246.549 2218.62C236.015 2218.62 229.624 2212.13 229.444 2201.25L229.432 2200.54H263.109C263.252 2199.42 263.329 2198.29 263.339 2197.16C263.339 2187.04 258.336 2175.23 244.272 2175.23H244.275ZM256.327 2195L256.316 2195.68H229.464L229.551 2194.91C230.395 2187.52 235.056 2180.09 243.582 2180.09C245.198 2180.02 246.812 2180.28 248.323 2180.86C249.834 2181.45 251.209 2182.33 252.365 2183.47C256.167 2187.36 256.348 2193.28 256.323 2195.01" fill="#EEE9E9"/>
<path d="M185.615 2164.3H214.416L182.997 2219.79V2223.97H221.918V2218.12L191.225 2218.11L222.44 2162.82V2158.44H185.615V2164.3Z" fill="#EEE9E9"/>
<path d="M339.98 2160.46L340.677 2153.08C338.472 2152.45 336.188 2152.14 333.896 2152.17C329.476 2152.08 325.185 2153.67 321.878 2156.61C318.289 2160.07 316.296 2165.74 316.296 2172.57V2223.92H326.505V2183.28C326.505 2183.23 326.514 2183.18 326.534 2183.14C326.553 2183.09 326.581 2183.05 326.616 2183.02C326.651 2182.98 326.693 2182.96 326.738 2182.94C326.784 2182.92 326.833 2182.91 326.881 2182.92H337.144V2175.77H326.773C326.724 2175.77 326.676 2175.76 326.631 2175.74C326.586 2175.72 326.545 2175.69 326.511 2175.66C326.478 2175.62 326.451 2175.58 326.434 2175.53C326.416 2175.49 326.409 2175.44 326.411 2175.39V2172.19C326.411 2164.28 329.702 2159.92 335.694 2159.92C337.14 2159.91 338.58 2160.09 339.978 2160.47" fill="#EEE9E9"/>
<path d="M362.187 2174.67C347.49 2174.67 337.975 2184.45 337.975 2199.6C337.975 2214.1 347.39 2223.85 361.398 2223.85C373.349 2223.85 385.417 2216.1 385.417 2198.79C385.417 2184.36 376.085 2174.66 362.187 2174.66V2174.67ZM361.8 2217.01C353.894 2217.01 348.582 2209.89 348.582 2199.31C348.582 2191.13 352.066 2181.59 361.892 2181.59C370.808 2181.59 374.792 2190.39 374.792 2199.09C374.792 2209.65 369.45 2217.01 361.795 2217.01" fill="#EEE9E9"/>
<path d="M450.266 2201.66H482.792C482.957 2200.28 483.036 2198.88 483.028 2197.49C483.028 2186.45 477.776 2174.67 463.034 2174.67C447.351 2174.67 440.219 2187.81 440.219 2200.02C440.219 2214.72 449.466 2223.86 464.336 2223.86C469.732 2223.91 475.094 2222.98 480.165 2221.13L478.794 2214.65C474.676 2215.98 470.366 2216.61 466.041 2216.51C458.474 2216.51 450.279 2212.91 449.926 2202.77L449.897 2202.04C449.899 2201.94 449.935 2201.85 449.998 2201.77C450.072 2201.7 450.168 2201.66 450.268 2201.66L450.266 2201.66ZM449.843 2194.72L449.926 2193.95C450.417 2189.13 453.562 2180.99 462.326 2180.99C463.747 2180.93 465.165 2181.17 466.49 2181.69C467.816 2182.21 469.021 2182.99 470.03 2184C472.426 2186.79 473.673 2190.4 473.518 2194.08L473.505 2194.76C473.505 2194.86 473.467 2194.95 473.399 2195.02C473.331 2195.09 473.239 2195.13 473.143 2195.13H450.221C450.169 2195.13 450.117 2195.12 450.069 2195.1C450.021 2195.07 449.98 2195.04 449.948 2195C449.878 2194.92 449.84 2194.82 449.841 2194.72" fill="#EEE9E9"/>
<path d="M434.043 2223.92V2194.66C434.043 2176.1 421.563 2174.67 417.746 2174.67C414.856 2174.58 411.993 2175.25 409.44 2176.62C406.888 2177.98 404.735 2179.99 403.197 2182.45C403.19 2182.49 403.178 2182.53 403.163 2182.56C402.598 2183.64 402.089 2184.74 401.636 2185.87C401.602 2185.95 401.544 2186.02 401.471 2186.06C401.397 2186.1 401.312 2186.12 401.227 2186.11C401.144 2186.1 401.068 2186.06 401.011 2186C400.954 2185.94 400.92 2185.86 400.916 2185.77L400.3 2175.76H391.587C391.819 2179.39 391.924 2183.6 391.924 2189.32V2223.92H402.225V2194.97C402.163 2193.48 402.357 2192 402.797 2190.58C403.523 2188.3 404.938 2186.31 406.844 2184.88C408.751 2183.45 411.054 2182.66 413.431 2182.61C420.131 2182.61 423.825 2187.39 423.825 2196.08V2223.92H434.043Z" fill="#EEE9E9"/>
<path d="M292.291 2176.22C291.058 2176.22 289.829 2176.34 288.617 2176.57H288.637C286.048 2176.92 283.581 2177.89 281.447 2179.4C279.314 2180.92 277.576 2182.93 276.384 2185.27H276.346C276.134 2185.73 275.904 2186.26 275.73 2186.75L275.641 2185.27H275.629L275.131 2177.32H268.835C269.067 2180.82 269.181 2184.56 269.181 2189.63V2223.97H276.469V2195.78C276.436 2194.32 276.653 2192.87 277.11 2191.48C277.883 2188.79 279.496 2186.43 281.712 2184.73C283.928 2183.04 286.628 2182.11 289.412 2182.08C297.001 2182.08 301.171 2187.35 301.171 2196.97V2223.97H308.479V2195.98C308.479 2177.17 294.983 2176.22 292.284 2176.22" fill="#EEE9E9"/>
</g>
<path d="M538.59 2221.78H544.23V2177.3L564.71 2221.78H568.51L589.03 2177.3V2221.74H594.63V2164.18H589.15L566.63 2212.62L543.99 2164.18H538.59V2221.78ZM618.216 2222.98C625.763 2222.98 631.243 2220.19 634.656 2214.62V2221.78H639.896V2194.94C639.896 2193.34 639.816 2191.77 639.656 2190.22C639.496 2188.67 639.149 2187.27 638.616 2186.02C637.469 2183.22 635.509 2181.09 632.736 2179.62C629.989 2178.13 626.643 2177.38 622.696 2177.38C617.949 2177.38 614.083 2178.45 611.096 2180.58C608.109 2182.71 606.109 2185.71 605.096 2189.58L610.816 2191.26C611.643 2188.38 613.069 2186.27 615.096 2184.94C617.149 2183.61 619.656 2182.94 622.616 2182.94C626.723 2182.94 629.656 2183.9 631.416 2185.82C633.176 2187.71 634.083 2190.61 634.136 2194.5C632.216 2194.77 630.096 2195.05 627.776 2195.34C625.483 2195.63 623.176 2195.97 620.856 2196.34C618.536 2196.71 616.403 2197.14 614.456 2197.62C611.229 2198.47 608.589 2199.9 606.536 2201.9C604.483 2203.87 603.456 2206.63 603.456 2210.18C603.456 2212.47 604.003 2214.59 605.096 2216.54C606.189 2218.49 607.829 2220.05 610.016 2221.22C612.229 2222.39 614.963 2222.98 618.216 2222.98ZM618.896 2217.9C616.576 2217.9 614.709 2217.53 613.296 2216.78C611.909 2216.01 610.896 2215.03 610.256 2213.86C609.643 2212.66 609.336 2211.43 609.336 2210.18C609.336 2207.83 610.123 2206.07 611.696 2204.9C613.269 2203.73 614.976 2202.87 616.816 2202.34C619.189 2201.7 621.949 2201.18 625.096 2200.78C628.243 2200.38 631.229 2200.01 634.056 2199.66C634.056 2200.65 634.016 2201.78 633.936 2203.06C633.883 2204.31 633.736 2205.47 633.496 2206.54C632.936 2209.79 631.389 2212.5 628.856 2214.66C626.349 2216.82 623.029 2217.9 618.896 2217.9ZM645.509 2221.78H652.589L665.829 2204.46L678.989 2221.78H686.069L669.149 2199.94L685.669 2178.58H678.629L665.829 2195.42L652.909 2178.58H645.869L662.389 2199.94L645.509 2221.78ZM708.512 2221.78H714.392V2199.9H730.752C731.285 2199.9 731.912 2199.87 732.632 2199.82C733.352 2199.77 734.072 2199.69 734.792 2199.58C739.272 2198.89 742.725 2196.91 745.152 2193.66C747.605 2190.41 748.832 2186.54 748.832 2182.06C748.832 2177.55 747.619 2173.67 745.192 2170.42C742.765 2167.17 739.299 2165.19 734.792 2164.5C734.072 2164.37 733.352 2164.29 732.632 2164.26C731.939 2164.21 731.312 2164.18 730.752 2164.18H708.512V2221.78ZM714.392 2194.3V2169.82H730.592C731.072 2169.82 731.632 2169.85 732.272 2169.9C732.939 2169.93 733.565 2170.01 734.152 2170.14C737.112 2170.78 739.285 2172.26 740.672 2174.58C742.085 2176.87 742.792 2179.37 742.792 2182.06C742.792 2184.73 742.085 2187.22 740.672 2189.54C739.285 2191.86 737.112 2193.33 734.152 2193.94C733.565 2194.07 732.939 2194.17 732.272 2194.22C731.632 2194.27 731.072 2194.3 730.592 2194.3H714.392ZM756.793 2221.78H762.673V2200.22C762.673 2197.63 762.967 2195.06 763.553 2192.5C764.167 2189.91 765.553 2187.77 767.713 2186.06C769.287 2184.78 770.993 2184.05 772.833 2183.86C774.7 2183.65 776.433 2183.73 778.033 2184.1V2178.58C776.14 2178.1 773.993 2178.09 771.593 2178.54C769.193 2178.97 767.14 2179.93 765.433 2181.42C764.153 2182.38 763.033 2183.71 762.073 2185.42V2178.58H756.793V2221.78ZM802.88 2222.98C807.147 2222.98 810.8 2222.02 813.84 2220.1C816.907 2218.18 819.254 2215.51 820.88 2212.1C822.534 2208.66 823.36 2204.67 823.36 2200.14C823.36 2195.69 822.547 2191.75 820.92 2188.34C819.32 2184.9 816.987 2182.22 813.92 2180.3C810.88 2178.35 807.2 2177.38 802.88 2177.38C798.667 2177.38 795.027 2178.34 791.96 2180.26C788.92 2182.15 786.574 2184.81 784.92 2188.22C783.267 2191.63 782.44 2195.61 782.44 2200.14C782.44 2204.59 783.24 2208.54 784.84 2211.98C786.467 2215.42 788.8 2218.11 791.84 2220.06C794.907 2222.01 798.587 2222.98 802.88 2222.98ZM802.88 2217.34C798.214 2217.34 794.68 2215.78 792.28 2212.66C789.88 2209.51 788.68 2205.34 788.68 2200.14C788.68 2195.1 789.84 2190.99 792.16 2187.82C794.48 2184.62 798.054 2183.02 802.88 2183.02C807.654 2183.02 811.214 2184.58 813.56 2187.7C815.934 2190.79 817.12 2194.94 817.12 2200.14C817.12 2205.23 815.947 2209.38 813.6 2212.58C811.254 2215.75 807.68 2217.34 802.88 2217.34ZM848.2 2221.78H853.84V2177.3L874.32 2221.78H878.12L898.64 2177.3V2221.74H904.24V2164.18H898.76L876.24 2212.62L853.6 2164.18H848.2V2221.78ZM925.505 2221.78H931.465V2164.18H925.505L914.665 2170.66V2177.26L925.505 2170.74V2221.78Z" fill="#EEE9E9"/>
<defs>
<filter id="filter0_d" x="328.607" y="1186.2" width="167.338" height="105.741" filterUnits="userSpaceOnUse" color-interpolation-filters="sRGB">
<feFlood flood-opacity="0" result="BackgroundImageFix"/>
<feColorMatrix in="SourceAlpha" type="matrix" values="0 0 0 0 0 0 0 0 0 0 0 0 0 0 0 0 0 0 127 0"/>
<feOffset dy="4"/>
<feGaussianBlur stdDeviation="2"/>
<feColorMatrix type="matrix" values="0 0 0 0 0 0 0 0 0 0 0 0 0 0 0 0 0 0 0.25 0"/>
<feBlend mode="normal" in2="BackgroundImageFix" result="effect1_dropShadow"/>
<feBlend mode="normal" in="SourceGraphic" in2="effect1_dropShadow" result="shape"/>
</filter>
<filter id="filter1_d" x="583.548" y="1186.2" width="167.338" height="105.741" filterUnits="userSpaceOnUse" color-interpolation-filters="sRGB">
<feFlood flood-opacity="0" result="BackgroundImageFix"/>
<feColorMatrix in="SourceAlpha" type="matrix" values="0 0 0 0 0 0 0 0 0 0 0 0 0 0 0 0 0 0 127 0"/>
<feOffset dy="4"/>
<feGaussianBlur stdDeviation="2"/>
<feColorMatrix type="matrix" values="0 0 0 0 0 0 0 0 0 0 0 0 0 0 0 0 0 0 0.25 0"/>
<feBlend mode="normal" in2="BackgroundImageFix" result="effect1_dropShadow"/>
<feBlend mode="normal" in="SourceGraphic" in2="effect1_dropShadow" result="shape"/>
</filter>
<filter id="filter2_d" x="285.995" y="1074.53" width="250.996" height="333.622" filterUnits="userSpaceOnUse" color-interpolation-filters="sRGB">
<feFlood flood-opacity="0" result="BackgroundImageFix"/>
<feColorMatrix in="SourceAlpha" type="matrix" values="0 0 0 0 0 0 0 0 0 0 0 0 0 0 0 0 0 0 127 0"/>
<feOffset dy="4"/>
<feGaussianBlur stdDeviation="2"/>
<feColorMatrix type="matrix" values="0 0 0 0 0 0 0 0 0 0 0 0 0 0 0 0 0 0 0.25 0"/>
<feBlend mode="normal" in2="BackgroundImageFix" result="effect1_dropShadow"/>
<feBlend mode="normal" in="SourceGraphic" in2="effect1_dropShadow" result="shape"/>
</filter>
<filter id="filter3_d" x="542.99" y="1000.17" width="250.996" height="331.238" filterUnits="userSpaceOnUse" color-interpolation-filters="sRGB">
<feFlood flood-opacity="0" result="BackgroundImageFix"/>
<feColorMatrix in="SourceAlpha" type="matrix" values="0 0 0 0 0 0 0 0 0 0 0 0 0 0 0 0 0 0 127 0"/>
<feOffset dy="4"/>
<feGaussianBlur stdDeviation="2"/>
<feColorMatrix type="matrix" values="0 0 0 0 0 0 0 0 0 0 0 0 0 0 0 0 0 0 0.25 0"/>
<feBlend mode="normal" in2="BackgroundImageFix" result="effect1_dropShadow"/>
<feBlend mode="normal" in="SourceGraphic" in2="effect1_dropShadow" result="shape"/>
</filter>
<clipPath id="clip0">
<rect width="299.995" height="71.8074" fill="white" transform="translate(182.997 2152.17)"/>
</clipPath>
</defs>
</svg>
